ISO-10303-21;
HEADER;
FILE_DESCRIPTION (( 'STEP AP203' ),
    '1' );
FILE_NAME ('brazo_Predeterminado_sldprt.STEP',
    '2026-06-14T04:19:36',
    ( '' ),
    ( '' ),
    'SwSTEP 2.0',
    'SolidWorks 2025',
    '' );
FILE_SCHEMA (( 'CONFIG_CONTROL_DESIGN' ));
ENDSEC;

DATA;
#1 = EDGE_LOOP ( 'NONE', ( #295, #240 ) ) ;
#2 = DATE_AND_TIME ( #282, #11 ) ;
#3 = ORIENTED_EDGE ( 'NONE', *, *, #138, .T. ) ;
#4 = CARTESIAN_POINT ( 'NONE',  ( 0.000000000000000000, 6.833529139242231049E-16, -5.580000000000000071 ) ) ;
#5 = EDGE_CURVE ( 'NONE', #217, #121, #23, .T. ) ;
#6 = PLANE ( 'NONE',  #33 ) ;
#7 = DIRECTION ( 'NONE',  ( 0.000000000000000000, 0.000000000000000000, 1.000000000000000000 ) ) ;
#8 = CIRCLE ( 'NONE', #77, 3.174999999999999822 ) ;
#9 = CARTESIAN_POINT ( 'NONE',  ( 1.000000000000000000, 6.833529139242231049E-16, -5.580000000000000071 ) ) ;
#10 = DIRECTION ( 'NONE',  ( 0.000000000000000000, 0.000000000000000000, 1.000000000000000000 ) ) ;
#11 = LOCAL_TIME ( 23, 19, 36.00000000000000000, #189 ) ;
#12 = DIRECTION ( 'NONE',  ( 1.000000000000000000, 0.000000000000000000, 0.000000000000000000 ) ) ;
#13 = CARTESIAN_POINT ( 'NONE',  ( 0.000000000000000000, 0.000000000000000000, 5.580000000000000071 ) ) ;
#14 = EDGE_LOOP ( 'NONE', ( #270, #286 ) ) ;
#15 = DATE_AND_TIME ( #62, #267 ) ;
#16 = ORIENTED_EDGE ( 'NONE', *, *, #41, .T. ) ;
#17 = CARTESIAN_POINT ( 'NONE',  ( 0.000000000000000000, 0.000000000000000000, 0.000000000000000000 ) ) ;
#18 = CC_DESIGN_PERSON_AND_ORGANIZATION_ASSIGNMENT ( #20, #276, ( #212 ) ) ;
#19 = VECTOR ( 'NONE', #101, 1000.000000000000114 ) ;
#20 = PERSON_AND_ORGANIZATION ( #277, #125 ) ;
#21 = CARTESIAN_POINT ( 'NONE',  ( 63.54999999999999716, 3.398394867633904897E-16, -2.375000000000000000 ) ) ;
#22 = CIRCLE ( 'NONE', #155, 2.375000000000000000 ) ;
#23 = LINE ( 'NONE', #220, #65 ) ;
#24 = VECTOR ( 'NONE', #182, 1000.000000000000114 ) ;
#25 = CALENDAR_DATE ( 2026, 13, 6 ) ;
#26 = ORIENTED_EDGE ( 'NONE', *, *, #300, .T. ) ;
#27 = ADVANCED_BREP_SHAPE_REPRESENTATION ( 'brazo_Predeterminado_sldprt', ( #69, #132 ), #152 ) ;
#28 = EDGE_CURVE ( 'NONE', #135, #302, #22, .T. ) ;
#29 = CARTESIAN_POINT ( 'NONE',  ( 62.75000000000000000, 0.000000000000000000, 0.000000000000000000 ) ) ;
#30 = PRODUCT_DEFINITION ( 'UNKNOWN', '', #193, #46 ) ;
#31 = CARTESIAN_POINT ( 'NONE',  ( 1.000000000000000000, 0.000000000000000000, 5.580000000000000071 ) ) ;
#32 = DIRECTION ( 'NONE',  ( -1.000000000000000000, -0.000000000000000000, -0.000000000000000000 ) ) ;
#33 = AXIS2_PLACEMENT_3D ( 'NONE', #57, #12, #153 ) ;
#34 = CARTESIAN_POINT ( 'NONE',  ( 1.000000000000000000, 0.000000000000000000, 5.580000000000000071 ) ) ;
#35 = ORIENTED_EDGE ( 'NONE', *, *, #138, .F. ) ;
#36 = DIRECTION ( 'NONE',  ( 1.000000000000000000, 0.000000000000000000, 0.000000000000000000 ) ) ;
#37 = LOCAL_TIME ( 23, 19, 36.00000000000000000, #143 ) ;
#38 = ORIENTED_EDGE ( 'NONE', *, *, #251, .F. ) ;
#39 = DIRECTION ( 'NONE',  ( 0.000000000000000000, 0.000000000000000000, -1.000000000000000000 ) ) ;
#40 = VERTEX_POINT ( 'NONE', #4 ) ;
#41 = EDGE_CURVE ( 'NONE', #302, #89, #170, .T. ) ;
#42 = DIRECTION ( 'NONE',  ( 1.000000000000000000, 0.000000000000000000, 0.000000000000000000 ) ) ;
#43 = VECTOR ( 'NONE', #104, 1000.000000000000000 ) ;
#44 = DIRECTION ( 'NONE',  ( 0.000000000000000000, 0.000000000000000000, -1.000000000000000000 ) ) ;
#45 = ORIENTED_EDGE ( 'NONE', *, *, #268, .F. ) ;
#46 = DESIGN_CONTEXT ( 'detailed design', #214, 'design' ) ;
#47 = APPROVAL_STATUS ( 'not_yet_approved' ) ;
#48 = PERSON_AND_ORGANIZATION_ROLE ( 'design_supplier' ) ;
#49 = AXIS2_PLACEMENT_3D ( 'NONE', #88, #253, #235 ) ;
#50 = EDGE_LOOP ( 'NONE', ( #195, #38 ) ) ;
#51 = PERSON_AND_ORGANIZATION ( #277, #125 ) ;
#52 = AXIS2_PLACEMENT_3D ( 'NONE', #137, #296, #39 ) ;
#53 = FACE_OUTER_BOUND ( 'NONE', #50, .T. ) ;
#54 = CARTESIAN_POINT ( 'NONE',  ( 1.000000000000000000, 0.000000000000000000, 0.000000000000000000 ) ) ;
#55 = EDGE_CURVE ( 'NONE', #275, #40, #241, .T. ) ;
#56 = FACE_OUTER_BOUND ( 'NONE', #142, .T. ) ;
#57 = CARTESIAN_POINT ( 'NONE',  ( 0.000000000000000000, 0.000000000000000000, 0.000000000000000000 ) ) ;
#58 = DIRECTION ( 'NONE',  ( -1.000000000000000000, 0.000000000000000000, 0.000000000000000000 ) ) ;
#59 = ORIENTED_EDGE ( 'NONE', *, *, #300, .F. ) ;
#60 =( LENGTH_UNIT ( ) NAMED_UNIT ( * ) SI_UNIT ( .MILLI., .METRE. ) );
#61 = ADVANCED_FACE ( 'NONE', ( #248, #246 ), #154, .T. ) ;
#62 = CALENDAR_DATE ( 2026, 13, 6 ) ;
#63 = PRODUCT_RELATED_PRODUCT_CATEGORY ( 'detail', '', ( #212 ) ) ;
#64 = ORIENTED_EDGE ( 'NONE', *, *, #71, .F. ) ;
#65 = VECTOR ( 'NONE', #73, 1000.000000000000000 ) ;
#66 = CARTESIAN_POINT ( 'NONE',  ( 63.54999999999999716, 0.000000000000000000, 0.000000000000000000 ) ) ;
#67 = CIRCLE ( 'NONE', #105, 3.174999999999999822 ) ;
#68 = COORDINATED_UNIVERSAL_TIME_OFFSET ( 5, 0, .BEHIND. ) ;
#69 = MANIFOLD_SOLID_BREP ( 'Material-pendulo-1', #128 ) ;
#70 = SHAPE_DEFINITION_REPRESENTATION ( #281, #27 ) ;
#71 = EDGE_CURVE ( 'NONE', #190, #275, #148, .T. ) ;
#72 = DATE_AND_TIME ( #285, #37 ) ;
#73 = DIRECTION ( 'NONE',  ( -1.000000000000000000, -0.000000000000000000, -0.000000000000000000 ) ) ;
#74 = CC_DESIGN_PERSON_AND_ORGANIZATION_ASSIGNMENT ( #234, #92, ( #30 ) ) ;
#75 = AXIS2_PLACEMENT_3D ( 'NONE', #126, #181, #102 ) ;
#76 = CARTESIAN_POINT ( 'NONE',  ( 1.000000000000000000, 3.888253587292846081E-16, -3.174999999999999822 ) ) ;
#77 = AXIS2_PLACEMENT_3D ( 'NONE', #266, #78, #264 ) ;
#78 = DIRECTION ( 'NONE',  ( 1.000000000000000000, 0.000000000000000000, 0.000000000000000000 ) ) ;
#79 = DIRECTION ( 'NONE',  ( -1.000000000000000000, -0.000000000000000000, -0.000000000000000000 ) ) ;
#80 = VECTOR ( 'NONE', #32, 1000.000000000000000 ) ;
#81 = DIRECTION ( 'NONE',  ( 0.000000000000000000, 0.000000000000000000, -1.000000000000000000 ) ) ;
#82 = CARTESIAN_POINT ( 'NONE',  ( 63.54999999999999716, 0.000000000000000000, 0.000000000000000000 ) ) ;
#83 = EDGE_CURVE ( 'NONE', #96, #190, #172, .T. ) ;
#84 =( NAMED_UNIT ( * ) SI_UNIT ( $, .STERADIAN. ) SOLID_ANGLE_UNIT ( ) );
#85 = CYLINDRICAL_SURFACE ( 'NONE', #201, 3.174999999999999822 ) ;
#86 = CC_DESIGN_DATE_AND_TIME_ASSIGNMENT ( #72, #99, ( #184 ) ) ;
#87 = LOCAL_TIME ( 23, 19, 36.00000000000000000, #303 ) ;
#88 = CARTESIAN_POINT ( 'NONE',  ( 1.000000000000000000, 0.000000000000000000, 0.000000000000000000 ) ) ;
#89 = VERTEX_POINT ( 'NONE', #271 ) ;
#90 = DIRECTION ( 'NONE',  ( 0.000000000000000000, 0.000000000000000000, 1.000000000000000000 ) ) ;
#91 = CONICAL_SURFACE ( 'NONE', #187, 2.375000000000000000, 0.7853981633974512766 ) ;
#92 = PERSON_AND_ORGANIZATION_ROLE ( 'creator' ) ;
#93 = APPROVAL_ROLE ( '' ) ;
#94 = PERSON_AND_ORGANIZATION_ROLE ( 'creator' ) ;
#95 = ADVANCED_FACE ( 'NONE', ( #53 ), #6, .F. ) ;
#96 = VERTEX_POINT ( 'NONE', #199 ) ;
#97 = CIRCLE ( 'NONE', #254, 5.580000000000000071 ) ;
#98 = DATE_TIME_ROLE ( 'creation_date' ) ;
#99 = DATE_TIME_ROLE ( 'classification_date' ) ;
#100 = ORIENTED_EDGE ( 'NONE', *, *, #5, .T. ) ;
#101 = DIRECTION ( 'NONE',  ( -0.7071067811865454633, 8.659560562354958743E-17, -0.7071067811865496822 ) ) ;
#102 = DIRECTION ( 'NONE',  ( 0.000000000000000000, 0.000000000000000000, -1.000000000000000000 ) ) ;
#103 = LINE ( 'NONE', #290, #80 ) ;
#104 = DIRECTION ( 'NONE',  ( -1.000000000000000000, -0.000000000000000000, -0.000000000000000000 ) ) ;
#105 = AXIS2_PLACEMENT_3D ( 'NONE', #134, #278, #162 ) ;
#106 = FACE_OUTER_BOUND ( 'NONE', #1, .T. ) ;
#107 = DIRECTION ( 'NONE',  ( 0.000000000000000000, 0.000000000000000000, 1.000000000000000000 ) ) ;
#108 = APPROVAL_DATE_TIME ( #15, #221 ) ;
#109 = ORIENTED_EDGE ( 'NONE', *, *, #185, .T. ) ;
#110 = AXIS2_PLACEMENT_3D ( 'NONE', #131, #173, #288 ) ;
#111 = APPROVAL_ROLE ( '' ) ;
#112 = CYLINDRICAL_SURFACE ( 'NONE', #49, 5.580000000000000071 ) ;
#113 = EDGE_CURVE ( 'NONE', #302, #135, #211, .T. ) ;
#114 = EDGE_LOOP ( 'NONE', ( #144, #236, #305, #156 ) ) ;
#115 = CC_DESIGN_PERSON_AND_ORGANIZATION_ASSIGNMENT ( #169, #48, ( #193 ) ) ;
#116 = SECURITY_CLASSIFICATION_LEVEL ( 'unclassified' ) ;
#117 = ORIENTED_EDGE ( 'NONE', *, *, #113, .F. ) ;
#118 = AXIS2_PLACEMENT_3D ( 'NONE', #292, #58, #203 ) ;
#119 = ORIENTED_EDGE ( 'NONE', *, *, #268, .T. ) ;
#120 = PERSON_AND_ORGANIZATION_ROLE ( 'classification_officer' ) ;
#121 = VERTEX_POINT ( 'NONE', #123 ) ;
#122 = ORIENTED_EDGE ( 'NONE', *, *, #258, .F. ) ;
#123 = CARTESIAN_POINT ( 'NONE',  ( 1.000000000000000000, 0.000000000000000000, 3.174999999999999822 ) ) ;
#124 = ADVANCED_FACE ( 'NONE', ( #223 ), #265, .T. ) ;
#125 = ORGANIZATION ( 'UNSPECIFIED', 'UNSPECIFIED', '' ) ;
#126 = CARTESIAN_POINT ( 'NONE',  ( 1.000000000000000000, 0.000000000000000000, 0.000000000000000000 ) ) ;
#127 = LINE ( 'NONE', #9, #43 ) ;
#128 = CLOSED_SHELL ( 'NONE', ( #230, #260, #280, #149, #95, #124, #61, #206, #238 ) ) ;
#129 = FACE_OUTER_BOUND ( 'NONE', #158, .T. ) ;
#130 = ORIENTED_EDGE ( 'NONE', *, *, #251, .T. ) ;
#131 = CARTESIAN_POINT ( 'NONE',  ( 63.54999999999999716, 0.000000000000000000, 0.000000000000000000 ) ) ;
#132 = AXIS2_PLACEMENT_3D ( 'NONE', #252, #90, #273 ) ;
#133 = AXIS2_PLACEMENT_3D ( 'NONE', #233, #42, #210 ) ;
#134 = CARTESIAN_POINT ( 'NONE',  ( 1.000000000000000000, 0.000000000000000000, 0.000000000000000000 ) ) ;
#135 = VERTEX_POINT ( 'NONE', #178 ) ;
#136 = PERSON_AND_ORGANIZATION ( #277, #125 ) ;
#137 = CARTESIAN_POINT ( 'NONE',  ( 62.75000000000000000, 0.000000000000000000, 0.000000000000000000 ) ) ;
#138 = EDGE_CURVE ( 'NONE', #121, #243, #8, .T. ) ;
#139 = CC_DESIGN_APPROVAL ( #232, ( #184 ) ) ;
#140 = CC_DESIGN_PERSON_AND_ORGANIZATION_ASSIGNMENT ( #279, #120, ( #184 ) ) ;
#141 = APPROVAL_STATUS ( 'not_yet_approved' ) ;
#142 = EDGE_LOOP ( 'NONE', ( #215, #161, #100, #3 ) ) ;
#143 = COORDINATED_UNIVERSAL_TIME_OFFSET ( 5, 0, .BEHIND. ) ;
#144 = ORIENTED_EDGE ( 'NONE', *, *, #41, .F. ) ;
#145 = CIRCLE ( 'NONE', #133, 5.580000000000000071 ) ;
#146 = ORIENTED_EDGE ( 'NONE', *, *, #196, .F. ) ;
#147 = CC_DESIGN_APPROVAL ( #221, ( #30 ) ) ;
#148 = LINE ( 'NONE', #31, #160 ) ;
#149 = ADVANCED_FACE ( 'NONE', ( #56 ), #222, .T. ) ;
#150 = DIRECTION ( 'NONE',  ( 1.000000000000000000, 0.000000000000000000, 0.000000000000000000 ) ) ;
#151 = APPROVAL ( #47, 'UNSPECIFIED' ) ;
#152 =( GEOMETRIC_REPRESENTATION_CONTEXT ( 3 ) GLOBAL_UNCERTAINTY_ASSIGNED_CONTEXT ( ( #171 ) ) GLOBAL_UNIT_ASSIGNED_CONTEXT ( ( #60, #294, #84 ) ) REPRESENTATION_CONTEXT ( 'NONE', 'WORKASPACE' ) );
#153 = DIRECTION ( 'NONE',  ( 0.000000000000000000, 0.000000000000000000, -1.000000000000000000 ) ) ;
#154 = PLANE ( 'NONE',  #298 ) ;
#155 = AXIS2_PLACEMENT_3D ( 'NONE', #167, #219, #166 ) ;
#156 = ORIENTED_EDGE ( 'NONE', *, *, #174, .F. ) ;
#157 = DIRECTION ( 'NONE',  ( 1.000000000000000000, 0.000000000000000000, 0.000000000000000000 ) ) ;
#158 = EDGE_LOOP ( 'NONE', ( #117, #16, #59, #122 ) ) ;
#159 = CARTESIAN_POINT ( 'NONE',  ( 63.54999999999999716, 0.000000000000000000, 2.375000000000000000 ) ) ;
#160 = VECTOR ( 'NONE', #200, 1000.000000000000000 ) ;
#161 = ORIENTED_EDGE ( 'NONE', *, *, #174, .T. ) ;
#162 = DIRECTION ( 'NONE',  ( 0.000000000000000000, 0.000000000000000000, -1.000000000000000000 ) ) ;
#163 = ORIENTED_EDGE ( 'NONE', *, *, #5, .F. ) ;
#164 = APPLICATION_PROTOCOL_DEFINITION ( 'international standard', 'config_control_design', 1994, #214 ) ;
#165 = CALENDAR_DATE ( 2026, 13, 6 ) ;
#166 = DIRECTION ( 'NONE',  ( 0.000000000000000000, 0.000000000000000000, -1.000000000000000000 ) ) ;
#167 = CARTESIAN_POINT ( 'NONE',  ( 63.54999999999999716, 0.000000000000000000, 0.000000000000000000 ) ) ;
#168 = LOCAL_TIME ( 23, 19, 36.00000000000000000, #68 ) ;
#169 = PERSON_AND_ORGANIZATION ( #277, #125 ) ;
#170 = LINE ( 'NONE', #263, #19 ) ;
#171 = UNCERTAINTY_MEASURE_WITH_UNIT (LENGTH_MEASURE( 1.000000000000000082E-05 ), #60, 'distance_accuracy_value', 'NONE');
#172 = CIRCLE ( 'NONE', #75, 5.580000000000000071 ) ;
#173 = DIRECTION ( 'NONE',  ( 1.000000000000000000, 0.000000000000000000, 0.000000000000000000 ) ) ;
#174 = EDGE_CURVE ( 'NONE', #89, #217, #291, .T. ) ;
#175 = CARTESIAN_POINT ( 'NONE',  ( 63.54999999999999716, 0.000000000000000000, 0.000000000000000000 ) ) ;
#176 = CC_DESIGN_PERSON_AND_ORGANIZATION_ASSIGNMENT ( #259, #94, ( #193 ) ) ;
#177 = CIRCLE ( 'NONE', #52, 3.174999999999999822 ) ;
#178 = CARTESIAN_POINT ( 'NONE',  ( 63.54999999999999716, 0.000000000000000000, 2.375000000000000000 ) ) ;
#179 = CARTESIAN_POINT ( 'NONE',  ( 62.75000000000000000, 0.000000000000000000, 3.174999999999999822 ) ) ;
#180 = APPLICATION_CONTEXT ( 'configuration controlled 3d designs of mechanical parts and assemblies' ) ;
#181 = DIRECTION ( 'NONE',  ( 1.000000000000000000, 0.000000000000000000, 0.000000000000000000 ) ) ;
#182 = DIRECTION ( 'NONE',  ( -0.7071067811865454633, 0.000000000000000000, 0.7071067811865496822 ) ) ;
#183 = APPROVAL_STATUS ( 'not_yet_approved' ) ;
#184 = SECURITY_CLASSIFICATION ( '', '', #116 ) ;
#185 = EDGE_CURVE ( 'NONE', #89, #243, #103, .T. ) ;
#186 = FACE_OUTER_BOUND ( 'NONE', #205, .T. ) ;
#187 = AXIS2_PLACEMENT_3D ( 'NONE', #269, #226, #10 ) ;
#188 = CC_DESIGN_APPROVAL ( #151, ( #193 ) ) ;
#189 = COORDINATED_UNIVERSAL_TIME_OFFSET ( 5, 0, .BEHIND. ) ;
#190 = VERTEX_POINT ( 'NONE', #34 ) ;
#191 = DATE_AND_TIME ( #25, #87 ) ;
#192 = EDGE_LOOP ( 'NONE', ( #146, #283, #297, #227 ) ) ;
#193 = PRODUCT_DEFINITION_FORMATION_WITH_SPECIFIED_SOURCE ( 'ANY', '', #212, .NOT_KNOWN. ) ;
#194 = APPROVAL_DATE_TIME ( #191, #151 ) ;
#195 = ORIENTED_EDGE ( 'NONE', *, *, #55, .F. ) ;
#196 = EDGE_CURVE ( 'NONE', #96, #40, #127, .T. ) ;
#197 = EDGE_LOOP ( 'NONE', ( #249, #242, #130, #64 ) ) ;
#198 = APPROVAL_PERSON_ORGANIZATION ( #218, #151, #93 ) ;
#199 = CARTESIAN_POINT ( 'NONE',  ( 1.000000000000000000, 6.833529139242231049E-16, -5.580000000000000071 ) ) ;
#200 = DIRECTION ( 'NONE',  ( -1.000000000000000000, -0.000000000000000000, -0.000000000000000000 ) ) ;
#201 = AXIS2_PLACEMENT_3D ( 'NONE', #66, #256, #208 ) ;
#202 = FACE_OUTER_BOUND ( 'NONE', #114, .T. ) ;
#203 = DIRECTION ( 'NONE',  ( 0.000000000000000000, 0.000000000000000000, 1.000000000000000000 ) ) ;
#204 = DIRECTION ( 'NONE',  ( -1.000000000000000000, 0.000000000000000000, 0.000000000000000000 ) ) ;
#205 = EDGE_LOOP ( 'NONE', ( #26, #109, #119, #163 ) ) ;
#206 = ADVANCED_FACE ( 'NONE', ( #202 ), #216, .T. ) ;
#207 = MECHANICAL_CONTEXT ( 'NONE', #180, 'mechanical' ) ;
#208 = DIRECTION ( 'NONE',  ( 0.000000000000000000, 0.000000000000000000, 1.000000000000000000 ) ) ;
#209 = EDGE_LOOP ( 'NONE', ( #35, #45 ) ) ;
#210 = DIRECTION ( 'NONE',  ( 0.000000000000000000, 0.000000000000000000, -1.000000000000000000 ) ) ;
#211 = CIRCLE ( 'NONE', #110, 2.375000000000000000 ) ;
#212 = PRODUCT ( 'brazo_Predeterminado_sldprt', 'brazo_Predeterminado_sldprt', '', ( #207 ) ) ;
#213 = DATE_AND_TIME ( #165, #168 ) ;
#214 = APPLICATION_CONTEXT ( 'configuration controlled 3d designs of mechanical parts and assemblies' ) ;
#215 = ORIENTED_EDGE ( 'NONE', *, *, #185, .F. ) ;
#216 = CONICAL_SURFACE ( 'NONE', #118, 2.375000000000000000, 0.7853981633974512766 ) ;
#217 = VERTEX_POINT ( 'NONE', #179 ) ;
#218 = PERSON_AND_ORGANIZATION ( #277, #125 ) ;
#219 = DIRECTION ( 'NONE',  ( 1.000000000000000000, 0.000000000000000000, 0.000000000000000000 ) ) ;
#220 = CARTESIAN_POINT ( 'NONE',  ( 63.54999999999999716, 0.000000000000000000, 3.174999999999999822 ) ) ;
#221 = APPROVAL ( #183, 'UNSPECIFIED' ) ;
#222 = CYLINDRICAL_SURFACE ( 'NONE', #225, 3.174999999999999822 ) ;
#223 = FACE_OUTER_BOUND ( 'NONE', #192, .T. ) ;
#224 = DIRECTION ( 'NONE',  ( 0.000000000000000000, 0.000000000000000000, -1.000000000000000000 ) ) ;
#225 = AXIS2_PLACEMENT_3D ( 'NONE', #175, #79, #7 ) ;
#226 = DIRECTION ( 'NONE',  ( -1.000000000000000000, 0.000000000000000000, 0.000000000000000000 ) ) ;
#227 = ORIENTED_EDGE ( 'NONE', *, *, #55, .T. ) ;
#228 = APPROVAL_PERSON_ORGANIZATION ( #136, #221, #111 ) ;
#229 = DIRECTION ( 'NONE',  ( -1.000000000000000000, -0.000000000000000000, -0.000000000000000000 ) ) ;
#230 = ADVANCED_FACE ( 'NONE', ( #129 ), #91, .T. ) ;
#231 = APPLICATION_PROTOCOL_DEFINITION ( 'international standard', 'config_control_design', 1994, #180 ) ;
#232 = APPROVAL ( #141, 'UNSPECIFIED' ) ;
#233 = CARTESIAN_POINT ( 'NONE',  ( 1.000000000000000000, 0.000000000000000000, 0.000000000000000000 ) ) ;
#234 = PERSON_AND_ORGANIZATION ( #277, #125 ) ;
#235 = DIRECTION ( 'NONE',  ( 0.000000000000000000, 0.000000000000000000, 1.000000000000000000 ) ) ;
#236 = ORIENTED_EDGE ( 'NONE', *, *, #28, .F. ) ;
#237 = CC_DESIGN_SECURITY_CLASSIFICATION ( #184, ( #193 ) ) ;
#238 = ADVANCED_FACE ( 'NONE', ( #106 ), #293, .T. ) ;
#239 = APPROVAL_ROLE ( '' ) ;
#240 = ORIENTED_EDGE ( 'NONE', *, *, #113, .T. ) ;
#241 = CIRCLE ( 'NONE', #247, 5.580000000000000071 ) ;
#242 = ORIENTED_EDGE ( 'NONE', *, *, #196, .T. ) ;
#243 = VERTEX_POINT ( 'NONE', #76 ) ;
#244 = CARTESIAN_POINT ( 'NONE',  ( 1.000000000000000000, 0.000000000000000000, 0.000000000000000000 ) ) ;
#245 = DIRECTION ( 'NONE',  ( 0.000000000000000000, 0.000000000000000000, -1.000000000000000000 ) ) ;
#246 = FACE_OUTER_BOUND ( 'NONE', #14, .T. ) ;
#247 = AXIS2_PLACEMENT_3D ( 'NONE', #257, #150, #224 ) ;
#248 = FACE_BOUND ( 'NONE', #209, .T. ) ;
#249 = ORIENTED_EDGE ( 'NONE', *, *, #83, .F. ) ;
#250 = DIRECTION ( 'NONE',  ( 0.000000000000000000, 0.000000000000000000, -1.000000000000000000 ) ) ;
#251 = EDGE_CURVE ( 'NONE', #40, #275, #97, .T. ) ;
#252 = CARTESIAN_POINT ( 'NONE',  ( 0.000000000000000000, 0.000000000000000000, 0.000000000000000000 ) ) ;
#253 = DIRECTION ( 'NONE',  ( -1.000000000000000000, -0.000000000000000000, -0.000000000000000000 ) ) ;
#254 = AXIS2_PLACEMENT_3D ( 'NONE', #17, #274, #44 ) ;
#255 = LINE ( 'NONE', #159, #24 ) ;
#256 = DIRECTION ( 'NONE',  ( -1.000000000000000000, -0.000000000000000000, -0.000000000000000000 ) ) ;
#257 = CARTESIAN_POINT ( 'NONE',  ( 0.000000000000000000, 0.000000000000000000, 0.000000000000000000 ) ) ;
#258 = EDGE_CURVE ( 'NONE', #135, #217, #255, .T. ) ;
#259 = PERSON_AND_ORGANIZATION ( #277, #125 ) ;
#260 = ADVANCED_FACE ( 'NONE', ( #186 ), #85, .T. ) ;
#261 = APPROVAL_DATE_TIME ( #2, #232 ) ;
#262 = AXIS2_PLACEMENT_3D ( 'NONE', #82, #157, #250 ) ;
#263 = CARTESIAN_POINT ( 'NONE',  ( 63.54999999999999716, 2.908536147974963713E-16, -2.375000000000000000 ) ) ;
#264 = DIRECTION ( 'NONE',  ( 0.000000000000000000, 0.000000000000000000, -1.000000000000000000 ) ) ;
#265 = CYLINDRICAL_SURFACE ( 'NONE', #287, 5.580000000000000071 ) ;
#266 = CARTESIAN_POINT ( 'NONE',  ( 1.000000000000000000, 0.000000000000000000, 0.000000000000000000 ) ) ;
#267 = LOCAL_TIME ( 23, 19, 36.00000000000000000, #299 ) ;
#268 = EDGE_CURVE ( 'NONE', #243, #121, #67, .T. ) ;
#269 = CARTESIAN_POINT ( 'NONE',  ( 63.54999999999999716, 0.000000000000000000, 0.000000000000000000 ) ) ;
#270 = ORIENTED_EDGE ( 'NONE', *, *, #289, .T. ) ;
#271 = CARTESIAN_POINT ( 'NONE',  ( 62.75000000000000000, 3.888253587292846081E-16, -3.174999999999999822 ) ) ;
#272 = FACE_OUTER_BOUND ( 'NONE', #197, .T. ) ;
#273 = DIRECTION ( 'NONE',  ( 1.000000000000000000, 0.000000000000000000, 0.000000000000000000 ) ) ;
#274 = DIRECTION ( 'NONE',  ( 1.000000000000000000, 0.000000000000000000, 0.000000000000000000 ) ) ;
#275 = VERTEX_POINT ( 'NONE', #13 ) ;
#276 = PERSON_AND_ORGANIZATION_ROLE ( 'design_owner' ) ;
#277 = PERSON ( 'UNSPECIFIED', 'UNSPECIFIED', 'UNSPECIFIED', ('UNSPECIFIED'), ('UNSPECIFIED'), ('UNSPECIFIED') ) ;
#278 = DIRECTION ( 'NONE',  ( 1.000000000000000000, 0.000000000000000000, 0.000000000000000000 ) ) ;
#279 = PERSON_AND_ORGANIZATION ( #277, #125 ) ;
#280 = ADVANCED_FACE ( 'NONE', ( #272 ), #112, .T. ) ;
#281 = PRODUCT_DEFINITION_SHAPE ( 'NONE', 'NONE',  #30 ) ;
#282 = CALENDAR_DATE ( 2026, 13, 6 ) ;
#283 = ORIENTED_EDGE ( 'NONE', *, *, #289, .F. ) ;
#284 = CC_DESIGN_DATE_AND_TIME_ASSIGNMENT ( #213, #98, ( #30 ) ) ;
#285 = CALENDAR_DATE ( 2026, 13, 6 ) ;
#286 = ORIENTED_EDGE ( 'NONE', *, *, #83, .T. ) ;
#287 = AXIS2_PLACEMENT_3D ( 'NONE', #244, #229, #107 ) ;
#288 = DIRECTION ( 'NONE',  ( 0.000000000000000000, 0.000000000000000000, -1.000000000000000000 ) ) ;
#289 = EDGE_CURVE ( 'NONE', #190, #96, #145, .T. ) ;
#290 = CARTESIAN_POINT ( 'NONE',  ( 63.54999999999999716, 3.888253587292846081E-16, -3.174999999999999822 ) ) ;
#291 = CIRCLE ( 'NONE', #304, 3.174999999999999822 ) ;
#292 = CARTESIAN_POINT ( 'NONE',  ( 63.54999999999999716, 0.000000000000000000, 0.000000000000000000 ) ) ;
#293 = PLANE ( 'NONE',  #262 ) ;
#294 =( NAMED_UNIT ( * ) PLANE_ANGLE_UNIT ( ) SI_UNIT ( $, .RADIAN. ) );
#295 = ORIENTED_EDGE ( 'NONE', *, *, #28, .T. ) ;
#296 = DIRECTION ( 'NONE',  ( -1.000000000000000000, 0.000000000000000000, 0.000000000000000000 ) ) ;
#297 = ORIENTED_EDGE ( 'NONE', *, *, #71, .T. ) ;
#298 = AXIS2_PLACEMENT_3D ( 'NONE', #54, #36, #245 ) ;
#299 = COORDINATED_UNIVERSAL_TIME_OFFSET ( 5, 0, .BEHIND. ) ;
#300 = EDGE_CURVE ( 'NONE', #217, #89, #177, .T. ) ;
#301 = APPROVAL_PERSON_ORGANIZATION ( #51, #232, #239 ) ;
#302 = VERTEX_POINT ( 'NONE', #21 ) ;
#303 = COORDINATED_UNIVERSAL_TIME_OFFSET ( 5, 0, .BEHIND. ) ;
#304 = AXIS2_PLACEMENT_3D ( 'NONE', #29, #204, #81 ) ;
#305 = ORIENTED_EDGE ( 'NONE', *, *, #258, .T. ) ;
ENDSEC;
END-ISO-10303-21;
