ISO-10303-21;
HEADER;
FILE_DESCRIPTION (( 'STEP AP203' ),
    '1' );
FILE_NAME ('Cilindro_enc_Predeterminado_sldprt.STEP',
    '2026-06-14T04:19:20',
    ( '' ),
    ( '' ),
    'SwSTEP 2.0',
    'SolidWorks 2025',
    '' );
FILE_SCHEMA (( 'CONFIG_CONTROL_DESIGN' ));
ENDSEC;

DATA;
#1 = DESIGN_CONTEXT ( 'detailed design', #236, 'design' ) ;
#2 = DIRECTION ( 'NONE',  ( -0.000000000000000000, -1.000000000000000000, 0.000000000000000000 ) ) ;
#3 = DIRECTION ( 'NONE',  ( 1.000000000000000000, -0.000000000000000000, -8.070731583043053915E-13 ) ) ;
#4 = ORIENTED_EDGE ( 'NONE', *, *, #517, .T. ) ;
#5 = DIRECTION ( 'NONE',  ( 0.000000000000000000, -1.000000000000000000, -0.000000000000000000 ) ) ;
#6 = FACE_OUTER_BOUND ( 'NONE', #515, .T. ) ;
#7 = EDGE_LOOP ( 'NONE', ( #103, #513 ) ) ;
#8 = DIRECTION ( 'NONE',  ( 0.000000000000000000, -1.000000000000000000, 0.000000000000000000 ) ) ;
#9 = CARTESIAN_POINT ( 'NONE',  ( -11.55000000001128591, 0.000000000000000000, -13.89999999999067093 ) ) ;
#10 = AXIS2_PLACEMENT_3D ( 'NONE', #336, #118, #192 ) ;
#11 = ORIENTED_EDGE ( 'NONE', *, *, #748, .T. ) ;
#12 = DIRECTION ( 'NONE',  ( 0.000000000000000000, -1.000000000000000000, -0.000000000000000000 ) ) ;
#13 = CARTESIAN_POINT ( 'NONE',  ( 3.325000000000008615, 4.500000000000000000, 0.09999999999732109290 ) ) ;
#14 = ORIENTED_EDGE ( 'NONE', *, *, #600, .T. ) ;
#15 = CARTESIAN_POINT ( 'NONE',  ( -14.39999999999998792, 10.34999999999999964, 0.1000000000116282040 ) ) ;
#16 = EDGE_LOOP ( 'NONE', ( #766, #409, #379, #572 ) ) ;
#17 = CIRCLE ( 'NONE', #110, 3.350000000000002309 ) ;
#18 = ADVANCED_FACE ( 'NONE', ( #46 ), #106, .T. ) ;
#19 = AXIS2_PLACEMENT_3D ( 'NONE', #50, #440, #31 ) ;
#20 = DIRECTION ( 'NONE',  ( -8.071420516080656710E-13, 0.000000000000000000, -1.000000000000000000 ) ) ;
#21 = ORIENTED_EDGE ( 'NONE', *, *, #535, .F. ) ;
#22 = VECTOR ( 'NONE', #727, 1000.000000000000000 ) ;
#23 = EDGE_CURVE ( 'NONE', #81, #479, #701, .T. ) ;
#24 = DIRECTION ( 'NONE',  ( 1.000000000000000000, 0.000000000000000000, -8.070347872566722640E-13 ) ) ;
#25 = VERTEX_POINT ( 'NONE', #719 ) ;
#26 = DIRECTION ( 'NONE',  ( 1.000000000000000000, 0.000000000000000000, -8.070347872566722640E-13 ) ) ;
#27 = LINE ( 'NONE', #754, #152 ) ;
#28 = ORIENTED_EDGE ( 'NONE', *, *, #120, .T. ) ;
#29 = ORIENTED_EDGE ( 'NONE', *, *, #773, .T. ) ;
#30 = ORIENTED_EDGE ( 'NONE', *, *, #698, .T. ) ;
#31 = DIRECTION ( 'NONE',  ( 1.000000000000000000, 0.000000000000000000, -8.070750543974071462E-13 ) ) ;
#32 = ORIENTED_EDGE ( 'NONE', *, *, #170, .T. ) ;
#33 = ADVANCED_FACE ( 'NONE', ( #372 ), #648, .F. ) ;
#34 = AXIS2_PLACEMENT_3D ( 'NONE', #673, #401, #274 ) ;
#35 = LOCAL_TIME ( 23, 19, 20.00000000000000000, #397 ) ;
#36 = DIRECTION ( 'NONE',  ( 8.036689058853738204E-13, 0.000000000000000000, 1.000000000000000000 ) ) ;
#37 = VERTEX_POINT ( 'NONE', #785 ) ;
#38 = ORIENTED_EDGE ( 'NONE', *, *, #135, .T. ) ;
#39 = DIRECTION ( 'NONE',  ( 0.000000000000000000, -1.000000000000000000, -0.000000000000000000 ) ) ;
#40 = ORIENTED_EDGE ( 'NONE', *, *, #672, .F. ) ;
#41 = CARTESIAN_POINT ( 'NONE',  ( -5.132590180784667666, 0.9999999999999991118, -5.132590180776306354 ) ) ;
#42 = VECTOR ( 'NONE', #622, 1000.000000000000000 ) ;
#43 = DIRECTION ( 'NONE',  ( -1.000000000000000000, 0.000000000000000000, 8.070731583043053915E-13 ) ) ;
#44 = ADVANCED_FACE ( 'NONE', ( #313 ), #652, .T. ) ;
#45 = AXIS2_PLACEMENT_3D ( 'NONE', #768, #428, #497 ) ;
#46 = FACE_OUTER_BOUND ( 'NONE', #95, .T. ) ;
#47 = APPROVAL_ROLE ( '' ) ;
#48 = VERTEX_POINT ( 'NONE', #243 ) ;
#49 = ADVANCED_FACE ( 'NONE', ( #185 ), #376, .F. ) ;
#50 = CARTESIAN_POINT ( 'NONE',  ( 0.1000000000000082906, 4.500000000000000000, 0.09999999999992391364 ) ) ;
#51 = EDGE_LOOP ( 'NONE', ( #666, #277, #218, #427 ) ) ;
#52 = APPROVAL_STATUS ( 'not_yet_approved' ) ;
#53 = APPLICATION_CONTEXT ( 'configuration controlled 3d designs of mechanical parts and assemblies' ) ;
#54 = CARTESIAN_POINT ( 'NONE',  ( 5.332590180776258570, 0.1999999999999987899, -5.132590180784739609 ) ) ;
#55 = CARTESIAN_POINT ( 'NONE',  ( 5.332590180784690936, 0.000000000000000000, 5.332590180776154654 ) ) ;
#56 = EDGE_CURVE ( 'NONE', #179, #496, #778, .T. ) ;
#57 = CC_DESIGN_PERSON_AND_ORGANIZATION_ASSIGNMENT ( #460, #327, ( #186 ) ) ;
#58 = CARTESIAN_POINT ( 'NONE',  ( -19.10000000000000142, 10.34999999999999964, 0.1000000000154214475 ) ) ;
#59 = DIRECTION ( 'NONE',  ( -1.000000000000000000, 0.000000000000000000, 8.070731583043053915E-13 ) ) ;
#60 = PERSON_AND_ORGANIZATION ( #61, #302 ) ;
#61 = PERSON ( 'UNSPECIFIED', 'UNSPECIFIED', 'UNSPECIFIED', ('UNSPECIFIED'), ('UNSPECIFIED'), ('UNSPECIFIED') ) ;
#62 = EDGE_CURVE ( 'NONE', #406, #637, #139, .T. ) ;
#63 = AXIS2_PLACEMENT_3D ( 'NONE', #136, #687, #544 ) ;
#64 = DIRECTION ( 'NONE',  ( 1.000000000000000000, 0.000000000000000000, -8.070347872566722640E-13 ) ) ;
#65 = LOCAL_TIME ( 23, 19, 20.00000000000000000, #847 ) ;
#66 = DIRECTION ( 'NONE',  ( -1.000000000000000000, 0.000000000000000000, 8.070731583043053915E-13 ) ) ;
#67 = DATE_TIME_ROLE ( 'creation_date' ) ;
#68 = ORIENTED_EDGE ( 'NONE', *, *, #391, .T. ) ;
#69 = CARTESIAN_POINT ( 'NONE',  ( -19.09999999999249809, 10.35000000000000142, 9.400000000015412027 ) ) ;
#70 = CARTESIAN_POINT ( 'NONE',  ( -19.10000000000000142, 10.34999999999999964, 0.1000000000154214475 ) ) ;
#71 = ORIENTED_EDGE ( 'NONE', *, *, #535, .T. ) ;
#72 = LINE ( 'NONE', #404, #647 ) ;
#73 = CARTESIAN_POINT ( 'NONE',  ( -5.132590180776273492, 0.1999999999999987899, 5.332590180784546163 ) ) ;
#74 = EDGE_CURVE ( 'NONE', #808, #138, #585, .T. ) ;
#75 = VERTEX_POINT ( 'NONE', #318 ) ;
#76 = CIRCLE ( 'NONE', #85, 3.350000000000002309 ) ;
#77 = FACE_OUTER_BOUND ( 'NONE', #101, .T. ) ;
#78 = ORIENTED_EDGE ( 'NONE', *, *, #586, .T. ) ;
#79 = CARTESIAN_POINT ( 'NONE',  ( -17.50000000000000355, 10.34999999999999964, 0.1000000000141301332 ) ) ;
#80 = ADVANCED_FACE ( 'NONE', ( #252 ), #563, .T. ) ;
#81 = VERTEX_POINT ( 'NONE', #498 ) ;
#82 = CARTESIAN_POINT ( 'NONE',  ( -5.132590180776273492, 0.1999999999999987899, 5.332590180784546163 ) ) ;
#83 = DIRECTION ( 'NONE',  ( 1.000000000000000000, -0.000000000000000000, -8.070731583043053915E-13 ) ) ;
#84 = ORIENTED_EDGE ( 'NONE', *, *, #209, .T. ) ;
#85 = AXIS2_PLACEMENT_3D ( 'NONE', #295, #556, #347 ) ;
#86 = CYLINDRICAL_SURFACE ( 'NONE', #168, 14.00000000000000178 ) ;
#87 = ORIENTED_EDGE ( 'NONE', *, *, #188, .T. ) ;
#88 = VECTOR ( 'NONE', #795, 1000.000000000000114 ) ;
#89 = CARTESIAN_POINT ( 'NONE',  ( -19.10000000000000142, 10.34999999999999964, 0.1000000000154214475 ) ) ;
#90 = EDGE_LOOP ( 'NONE', ( #628, #542 ) ) ;
#91 = DIRECTION ( 'NONE',  ( 0.000000000000000000, -1.000000000000000000, -0.000000000000000000 ) ) ;
#92 = ORIENTED_EDGE ( 'NONE', *, *, #365, .T. ) ;
#93 = CARTESIAN_POINT ( 'NONE',  ( 19.10000000000000853, 10.34999999999999964, 0.09999999998459126183 ) ) ;
#94 = CYLINDRICAL_SURFACE ( 'NONE', #644, 7.950000000000001954 ) ;
#95 = EDGE_LOOP ( 'NONE', ( #506, #211 ) ) ;
#96 = CARTESIAN_POINT ( 'NONE',  ( -5.132590180776273492, 0.9999999999999991118, 5.332590180784546163 ) ) ;
#97 = AXIS2_PLACEMENT_3D ( 'NONE', #412, #423, #553 ) ;
#98 = DIRECTION ( 'NONE',  ( 1.000000000000000000, 0.000000000000000000, -8.070731583043053915E-13 ) ) ;
#99 = ORIENTED_EDGE ( 'NONE', *, *, #62, .T. ) ;
#100 = DIRECTION ( 'NONE',  ( 0.000000000000000000, -1.000000000000000000, -0.000000000000000000 ) ) ;
#101 = EDGE_LOOP ( 'NONE', ( #548, #798, #540, #609 ) ) ;
#102 = ADVANCED_FACE ( 'NONE', ( #165, #775, #171, #436, #662, #6 ), #124, .F. ) ;
#103 = ORIENTED_EDGE ( 'NONE', *, *, #200, .T. ) ;
#104 = ORIENTED_EDGE ( 'NONE', *, *, #586, .F. ) ;
#105 = CARTESIAN_POINT ( 'NONE',  ( -19.09999999999358877, 10.34999999999999964, 8.050000000015423041 ) ) ;
#106 = PLANE ( 'NONE',  #747 ) ;
#107 = PERSON_AND_ORGANIZATION_ROLE ( 'creator' ) ;
#108 = EDGE_CURVE ( 'NONE', #693, #621, #862, .T. ) ;
#109 = ORIENTED_EDGE ( 'NONE', *, *, #511, .T. ) ;
#110 = AXIS2_PLACEMENT_3D ( 'NONE', #55, #745, #255 ) ;
#111 = DIRECTION ( 'NONE',  ( 1.000000000000000000, 0.000000000000000000, -8.070731583043053915E-13 ) ) ;
#112 = CARTESIAN_POINT ( 'NONE',  ( 5.332590180776258570, 0.000000000000000000, -5.132590180784739609 ) ) ;
#113 = AXIS2_PLACEMENT_3D ( 'NONE', #184, #325, #462 ) ;
#114 = LOCAL_TIME ( 23, 19, 20.00000000000000000, #319 ) ;
#115 = FACE_OUTER_BOUND ( 'NONE', #246, .T. ) ;
#116 = VERTEX_POINT ( 'NONE', #793 ) ;
#117 = PRODUCT_DEFINITION ( 'UNKNOWN', '', #315, #1 ) ;
#118 = DIRECTION ( 'NONE',  ( 0.000000000000000000, -1.000000000000000000, 0.000000000000000000 ) ) ;
#119 = DIRECTION ( 'NONE',  ( 0.000000000000000000, -1.000000000000000000, 0.000000000000000000 ) ) ;
#120 = EDGE_CURVE ( 'NONE', #161, #820, #533, .T. ) ;
#121 = COORDINATED_UNIVERSAL_TIME_OFFSET ( 5, 0, .BEHIND. ) ;
#122 = DIRECTION ( 'NONE',  ( 8.071420516080656710E-13, 0.000000000000000000, 1.000000000000000000 ) ) ;
#123 = CIRCLE ( 'NONE', #183, 3.350000000000002753 ) ;
#124 = PLANE ( 'NONE',  #771 ) ;
#125 = MECHANICAL_CONTEXT ( 'NONE', #53, 'mechanical' ) ;
#126 = ORIENTED_EDGE ( 'NONE', *, *, #852, .F. ) ;
#127 = VECTOR ( 'NONE', #651, 1000.000000000000000 ) ;
#128 = PLANE ( 'NONE',  #287 ) ;
#129 = PLANE ( 'NONE',  #484 ) ;
#130 = EDGE_LOOP ( 'NONE', ( #420, #602 ) ) ;
#131 = EDGE_CURVE ( 'NONE', #486, #493, #408, .T. ) ;
#132 = DIRECTION ( 'NONE',  ( 8.036689058853739213E-13, 0.000000000000000000, 1.000000000000000000 ) ) ;
#133 = DIRECTION ( 'NONE',  ( -0.000000000000000000, -1.000000000000000000, 0.000000000000000000 ) ) ;
#134 = VERTEX_POINT ( 'NONE', #190 ) ;
#135 = EDGE_CURVE ( 'NONE', #474, #299, #17, .T. ) ;
#136 = CARTESIAN_POINT ( 'NONE',  ( 0.1000000000000082906, 4.500000000000000000, 0.09999999999992391364 ) ) ;
#137 = CARTESIAN_POINT ( 'NONE',  ( 19.10000000000000853, 0.000000000000000000, 0.09999999998459126183 ) ) ;
#138 = VERTEX_POINT ( 'NONE', #463 ) ;
#139 = CIRCLE ( 'NONE', #222, 3.350000000000002309 ) ;
#140 = EDGE_CURVE ( 'NONE', #493, #430, #276, .T. ) ;
#141 = DIRECTION ( 'NONE',  ( 8.068942339686403840E-13, 0.000000000000000000, 1.000000000000000000 ) ) ;
#142 = ORIENTED_EDGE ( 'NONE', *, *, #422, .F. ) ;
#143 = CIRCLE ( 'NONE', #262, 7.000000000000001776 ) ;
#144 = CARTESIAN_POINT ( 'NONE',  ( -5.132590180776273492, 0.000000000000000000, 5.332590180784546163 ) ) ;
#145 = ADVANCED_FACE ( 'NONE', ( #455 ), #129, .T. ) ;
#146 = ORIENTED_EDGE ( 'NONE', *, *, #365, .F. ) ;
#147 = CARTESIAN_POINT ( 'NONE',  ( 5.332590180776258570, 0.9999999999999991118, -5.132590180784739609 ) ) ;
#148 = LINE ( 'NONE', #13, #286 ) ;
#149 = ORIENTED_EDGE ( 'NONE', *, *, #447, .T. ) ;
#150 = DIRECTION ( 'NONE',  ( 0.000000000000000000, -1.000000000000000000, -0.000000000000000000 ) ) ;
#151 = VECTOR ( 'NONE', #178, 1000.000000000000000 ) ;
#152 = VECTOR ( 'NONE', #360, 1000.000000000000000 ) ;
#153 = ORIENTED_EDGE ( 'NONE', *, *, #543, .F. ) ;
#154 = DIRECTION ( 'NONE',  ( 0.000000000000000000, -1.000000000000000000, 0.000000000000000000 ) ) ;
#155 = FACE_OUTER_BOUND ( 'NONE', #717, .T. ) ;
#156 = ORIENTED_EDGE ( 'NONE', *, *, #773, .F. ) ;
#157 = CIRCLE ( 'NONE', #10, 3.350000000000002309 ) ;
#158 = FACE_OUTER_BOUND ( 'NONE', #7, .T. ) ;
#159 = EDGE_LOOP ( 'NONE', ( #502, #126, #715, #92 ) ) ;
#160 = DIRECTION ( 'NONE',  ( 1.000000000000000000, -0.000000000000000000, -8.070731583043053915E-13 ) ) ;
#161 = VERTEX_POINT ( 'NONE', #321 ) ;
#162 = DIRECTION ( 'NONE',  ( 1.000000000000000000, 0.000000000000000000, -8.070750543974071462E-13 ) ) ;
#163 = VERTEX_POINT ( 'NONE', #390 ) ;
#164 = CYLINDRICAL_SURFACE ( 'NONE', #45, 7.000000000000001776 ) ;
#165 = FACE_BOUND ( 'NONE', #346, .T. ) ;
#166 = DIRECTION ( 'NONE',  ( 8.069191715927334870E-13, 0.000000000000000000, 1.000000000000000000 ) ) ;
#167 = ORIENTED_EDGE ( 'NONE', *, *, #539, .T. ) ;
#168 = AXIS2_PLACEMENT_3D ( 'NONE', #752, #160, #215 ) ;
#169 = CARTESIAN_POINT ( 'NONE',  ( -1.782590180776271183, 0.9999999999999991118, 5.332590180781842548 ) ) ;
#170 = EDGE_CURVE ( 'NONE', #81, #712, #538, .T. ) ;
#171 = FACE_BOUND ( 'NONE', #764, .T. ) ;
#172 = CARTESIAN_POINT ( 'NONE',  ( -17.50000000000000355, 10.34999999999999964, 0.1000000000141301332 ) ) ;
#173 = APPROVAL ( #256, 'UNSPECIFIED' ) ;
#174 = AXIS2_PLACEMENT_3D ( 'NONE', #635, #421, #691 ) ;
#175 = EDGE_LOOP ( 'NONE', ( #153, #358, #30, #316 ) ) ;
#176 = ORIENTED_EDGE ( 'NONE', *, *, #108, .F. ) ;
#177 = DIRECTION ( 'NONE',  ( 8.070731583043053915E-13, 0.000000000000000000, 1.000000000000000000 ) ) ;
#178 = DIRECTION ( 'NONE',  ( -1.000000000000000000, 0.000000000000000000, 8.070731583043053915E-13 ) ) ;
#179 = VERTEX_POINT ( 'NONE', #857 ) ;
#180 = DIRECTION ( 'NONE',  ( -1.000000000000000000, 0.000000000000000000, 8.070731583043053915E-13 ) ) ;
#181 = DIRECTION ( 'NONE',  ( 8.068942339686403840E-13, 0.000000000000000000, 1.000000000000000000 ) ) ;
#182 = PERSON_AND_ORGANIZATION_ROLE ( 'creator' ) ;
#183 = AXIS2_PLACEMENT_3D ( 'NONE', #807, #133, #592 ) ;
#184 = CARTESIAN_POINT ( 'NONE',  ( -17.50000000000000355, 10.34999999999999964, 0.1000000000141301332 ) ) ;
#185 = FACE_OUTER_BOUND ( 'NONE', #403, .T. ) ;
#186 = PRODUCT ( 'Cilindro_enc_Predeterminado_sldprt', 'Cilindro_enc_Predeterminado_sldprt', '', ( #125 ) ) ;
#187 = AXIS2_PLACEMENT_3D ( 'NONE', #320, #454, #64 ) ;
#188 = EDGE_CURVE ( 'NONE', #732, #430, #598, .T. ) ;
#189 = CARTESIAN_POINT ( 'NONE',  ( 1.982590180776256927, 0.000000000000000000, -5.132590180782035105 ) ) ;
#190 = CARTESIAN_POINT ( 'NONE',  ( -14.40000000001128555, 10.34999999999999964, -13.89999999998836877 ) ) ;
#191 = PERSON_AND_ORGANIZATION_ROLE ( 'design_supplier' ) ;
#192 = DIRECTION ( 'NONE',  ( -1.000000000000000000, 0.000000000000000000, 8.070347872566722640E-13 ) ) ;
#193 = PLANE ( 'NONE',  #733 ) ;
#194 = DIRECTION ( 'NONE',  ( 0.000000000000000000, 0.000000000000000000, 1.000000000000000000 ) ) ;
#195 = EDGE_LOOP ( 'NONE', ( #625, #580 ) ) ;
#196 = LINE ( 'NONE', #599, #22 ) ;
#197 = CARTESIAN_POINT ( 'NONE',  ( -5.132590180776273492, 0.1999999999999987899, 5.332590180784546163 ) ) ;
#198 = CONICAL_SURFACE ( 'NONE', #271, 9.299999999999990052, 0.7853981633974476129 ) ;
#199 = ORIENTED_EDGE ( 'NONE', *, *, #23, .T. ) ;
#200 = EDGE_CURVE ( 'NONE', #138, #808, #643, .T. ) ;
#201 = AXIS2_PLACEMENT_3D ( 'NONE', #89, #293, #834 ) ;
#202 = DIRECTION ( 'NONE',  ( 8.035816769654622708E-13, 0.000000000000000000, 1.000000000000000000 ) ) ;
#203 = FACE_OUTER_BOUND ( 'NONE', #578, .T. ) ;
#204 = ADVANCED_FACE ( 'NONE', ( #203 ), #743, .F. ) ;
#205 = ORIENTED_EDGE ( 'NONE', *, *, #818, .T. ) ;
#206 = FACE_OUTER_BOUND ( 'NONE', #469, .T. ) ;
#207 = DIRECTION ( 'NONE',  ( 8.070731583043053915E-13, 0.000000000000000000, 1.000000000000000000 ) ) ;
#208 = ORIENTED_EDGE ( 'NONE', *, *, #682, .T. ) ;
#209 = EDGE_CURVE ( 'NONE', #467, #697, #123, .T. ) ;
#210 = FACE_BOUND ( 'NONE', #561, .T. ) ;
#211 = ORIENTED_EDGE ( 'NONE', *, *, #508, .T. ) ;
#212 = CARTESIAN_POINT ( 'NONE',  ( -5.132590180784667666, 0.1999999999999987899, -5.132590180776306354 ) ) ;
#213 = EDGE_CURVE ( 'NONE', #503, #134, #627, .T. ) ;
#214 = CIRCLE ( 'NONE', #410, 7.950000000000001954 ) ;
#215 = DIRECTION ( 'NONE',  ( -8.071420516080656710E-13, 0.000000000000000000, -1.000000000000000000 ) ) ;
#216 = EDGE_LOOP ( 'NONE', ( #366, #645, #109, #534 ) ) ;
#217 = CARTESIAN_POINT ( 'NONE',  ( -17.50000000000000355, 10.34999999999999964, 0.1000000000141301332 ) ) ;
#218 = ORIENTED_EDGE ( 'NONE', *, *, #653, .T. ) ;
#219 = DIRECTION ( 'NONE',  ( 1.000000000000000000, 0.000000000000000000, -8.070347872566722640E-13 ) ) ;
#220 = CARTESIAN_POINT ( 'NONE',  ( 8.682590180776259103, 0.000000000000000000, -5.132590180787443224 ) ) ;
#221 = VERTEX_POINT ( 'NONE', #334 ) ;
#222 = AXIS2_PLACEMENT_3D ( 'NONE', #112, #642, #576 ) ;
#223 = EDGE_CURVE ( 'NONE', #491, #163, #557, .T. ) ;
#224 = ORIENTED_EDGE ( 'NONE', *, *, #370, .T. ) ;
#225 = ORIENTED_EDGE ( 'NONE', *, *, #343, .T. ) ;
#226 = CYLINDRICAL_SURFACE ( 'NONE', #241, 3.350000000000002309 ) ;
#227 = ORIENTED_EDGE ( 'NONE', *, *, #23, .F. ) ;
#228 = CIRCLE ( 'NONE', #245, 3.350000000000002753 ) ;
#229 = PLANE ( 'NONE',  #802 ) ;
#230 = EDGE_CURVE ( 'NONE', #491, #37, #402, .T. ) ;
#231 = ORIENTED_EDGE ( 'NONE', *, *, #698, .F. ) ;
#232 = CARTESIAN_POINT ( 'NONE',  ( -5.132590180784667666, 0.1999999999999987899, -5.132590180776306354 ) ) ;
#233 = DIRECTION ( 'NONE',  ( 1.000000000000000000, -0.000000000000000000, -8.070731583043054925E-13 ) ) ;
#234 = DIRECTION ( 'NONE',  ( 0.000000000000000000, -1.000000000000000000, -0.000000000000000000 ) ) ;
#235 = ADVANCED_FACE ( 'NONE', ( #796 ), #193, .T. ) ;
#236 = APPLICATION_CONTEXT ( 'configuration controlled 3d designs of mechanical parts and assemblies' ) ;
#237 = DIRECTION ( 'NONE',  ( 1.000000000000000000, 0.000000000000000000, -8.070347872566721631E-13 ) ) ;
#238 = DIRECTION ( 'NONE',  ( -1.000000000000000000, 0.000000000000000000, 8.070731583043053915E-13 ) ) ;
#239 = VECTOR ( 'NONE', #670, 1000.000000000000000 ) ;
#240 = ORIENTED_EDGE ( 'NONE', *, *, #740, .T. ) ;
#241 = AXIS2_PLACEMENT_3D ( 'NONE', #283, #91, #24 ) ;
#242 = CARTESIAN_POINT ( 'NONE',  ( -5.132590180784667666, 0.1999999999999987899, -5.132590180776306354 ) ) ;
#243 = CARTESIAN_POINT ( 'NONE',  ( 19.09999999998871090, 10.34999999999999964, -13.90000000001540847 ) ) ;
#244 = DATE_TIME_ROLE ( 'classification_date' ) ;
#245 = AXIS2_PLACEMENT_3D ( 'NONE', #855, #8, #860 ) ;
#246 = EDGE_LOOP ( 'NONE', ( #554, #744, #224, #99 ) ) ;
#247 = DIRECTION ( 'NONE',  ( 8.069191715927334870E-13, 0.000000000000000000, 1.000000000000000000 ) ) ;
#248 = ORIENTED_EDGE ( 'NONE', *, *, #809, .F. ) ;
#249 = CALENDAR_DATE ( 2026, 13, 6 ) ;
#250 = ORIENTED_EDGE ( 'NONE', *, *, #835, .T. ) ;
#251 = DIRECTION ( 'NONE',  ( 0.000000000000000000, -1.000000000000000000, 0.000000000000000000 ) ) ;
#252 = FACE_OUTER_BOUND ( 'NONE', #51, .T. ) ;
#253 = APPROVAL_ROLE ( '' ) ;
#254 = DIRECTION ( 'NONE',  ( 0.000000000000000000, -1.000000000000000000, 0.000000000000000000 ) ) ;
#255 = DIRECTION ( 'NONE',  ( -1.000000000000000000, 0.000000000000000000, 8.070347872566722640E-13 ) ) ;
#256 = APPROVAL_STATUS ( 'not_yet_approved' ) ;
#257 = AXIS2_PLACEMENT_3D ( 'NONE', #499, #629, #162 ) ;
#258 = SECURITY_CLASSIFICATION ( '', '', #446 ) ;
#259 = DIRECTION ( 'NONE',  ( 0.000000000000000000, -1.000000000000000000, -0.000000000000000000 ) ) ;
#260 = DIRECTION ( 'NONE',  ( 8.069262104382446598E-13, 0.000000000000000000, 1.000000000000000000 ) ) ;
#261 = CALENDAR_DATE ( 2026, 13, 6 ) ;
#262 = AXIS2_PLACEMENT_3D ( 'NONE', #308, #180, #574 ) ;
#263 = CARTESIAN_POINT ( 'NONE',  ( -19.10000000000750831, 10.34999999999999964, -9.199999999984569854 ) ) ;
#264 = DIRECTION ( 'NONE',  ( 8.070181427883531284E-13, 0.000000000000000000, 1.000000000000000000 ) ) ;
#265 = EDGE_CURVE ( 'NONE', #25, #221, #288, .T. ) ;
#266 = EDGE_LOOP ( 'NONE', ( #593, #615 ) ) ;
#267 = PLANE ( 'NONE',  #34 ) ;
#268 = EDGE_CURVE ( 'NONE', #363, #528, #337, .T. ) ;
#269 = AXIS2_PLACEMENT_3D ( 'NONE', #70, #331, #260 ) ;
#270 = DIRECTION ( 'NONE',  ( 0.000000000000000000, -1.000000000000000000, -0.000000000000000000 ) ) ;
#271 = AXIS2_PLACEMENT_3D ( 'NONE', #279, #618, #810 ) ;
#272 = ORIENTED_EDGE ( 'NONE', *, *, #108, .T. ) ;
#273 = AXIS2_PLACEMENT_3D ( 'NONE', #730, #449, #594 ) ;
#274 = DIRECTION ( 'NONE',  ( 1.000000000000000000, 0.000000000000000000, -8.070731583043053915E-13 ) ) ;
#275 = LOCAL_TIME ( 23, 19, 20.00000000000000000, #863 ) ;
#276 = LINE ( 'NONE', #738, #786 ) ;
#277 = ORIENTED_EDGE ( 'NONE', *, *, #422, .T. ) ;
#278 = FACE_OUTER_BOUND ( 'NONE', #16, .T. ) ;
#279 = CARTESIAN_POINT ( 'NONE',  ( -19.10000000000000142, 10.34999999999999964, 0.1000000000154214475 ) ) ;
#280 = EDGE_LOOP ( 'NONE', ( #78, #87 ) ) ;
#281 = EDGE_CURVE ( 'NONE', #37, #75, #310, .T. ) ;
#282 = CARTESIAN_POINT ( 'NONE',  ( 11.74999999999239897, 0.000000000000000000, -9.327486409440149728 ) ) ;
#283 = CARTESIAN_POINT ( 'NONE',  ( -5.132590180784667666, 0.9999999999999991118, -5.132590180776306354 ) ) ;
#284 = DATE_AND_TIME ( #261, #275 ) ;
#285 = ORIENTED_EDGE ( 'NONE', *, *, #296, .T. ) ;
#286 = VECTOR ( 'NONE', #695, 1000.000000000000000 ) ;
#287 = AXIS2_PLACEMENT_3D ( 'NONE', #54, #254, #202 ) ;
#288 = LINE ( 'NONE', #490, #348 ) ;
#289 = EDGE_LOOP ( 'NONE', ( #40, #464 ) ) ;
#290 = DIRECTION ( 'NONE',  ( -7.966782291911390572E-13, 0.000000000000000000, -1.000000000000000000 ) ) ;
#291 = EDGE_CURVE ( 'NONE', #134, #503, #799, .T. ) ;
#292 = VERTEX_POINT ( 'NONE', #765 ) ;
#293 = DIRECTION ( 'NONE',  ( -1.000000000000000000, 0.000000000000000000, 8.070731583043053915E-13 ) ) ;
#294 = ORIENTED_EDGE ( 'NONE', *, *, #791, .T. ) ;
#295 = CARTESIAN_POINT ( 'NONE',  ( -5.132590180776273492, 0.000000000000000000, 5.332590180784546163 ) ) ;
#296 = EDGE_CURVE ( 'NONE', #363, #474, #418, .T. ) ;
#297 = ORIENTED_EDGE ( 'NONE', *, *, #756, .T. ) ;
#298 = FACE_BOUND ( 'NONE', #266, .T. ) ;
#299 = VERTEX_POINT ( 'NONE', #689 ) ;
#300 = DIRECTION ( 'NONE',  ( 1.000000000000000000, 0.000000000000000000, -8.070347872566722640E-13 ) ) ;
#301 = DIRECTION ( 'NONE',  ( 8.069262104382446598E-13, 0.000000000000000000, 1.000000000000000000 ) ) ;
#302 = ORGANIZATION ( 'UNSPECIFIED', 'UNSPECIFIED', '' ) ;
#303 = EDGE_CURVE ( 'NONE', #75, #37, #76, .T. ) ;
#304 = CARTESIAN_POINT ( 'NONE',  ( 1.982590180776256705, 0.1999999999999987899, -5.132590180782035105 ) ) ;
#305 = CARTESIAN_POINT ( 'NONE',  ( 5.332590180784690936, 0.1999999999999987899, 5.332590180776154654 ) ) ;
#306 = LINE ( 'NONE', #356, #829 ) ;
#307 = ADVANCED_FACE ( 'NONE', ( #681 ), #86, .T. ) ;
#308 = CARTESIAN_POINT ( 'NONE',  ( -18.85000000000000142, 10.34999999999999964, 0.1000000000152196783 ) ) ;
#309 = CARTESIAN_POINT ( 'NONE',  ( -11.55000000001128591, 0.000000000000000000, -13.89999999999067093 ) ) ;
#310 = CIRCLE ( 'NONE', #448, 3.350000000000002309 ) ;
#311 = CIRCLE ( 'NONE', #394, 3.350000000000002753 ) ;
#312 = CARTESIAN_POINT ( 'NONE',  ( -17.50000000000000355, 10.34999999999999964, 0.1000000000141301332 ) ) ;
#313 = FACE_OUTER_BOUND ( 'NONE', #280, .T. ) ;
#314 = AXIS2_PLACEMENT_3D ( 'NONE', #41, #234, #26 ) ;
#315 = PRODUCT_DEFINITION_FORMATION_WITH_SPECIFIED_SOURCE ( 'ANY', '', #186, .NOT_KNOWN. ) ;
#316 = ORIENTED_EDGE ( 'NONE', *, *, #213, .F. ) ;
#317 = CARTESIAN_POINT ( 'NONE',  ( -11.54999999999237836, 0.000000000000000000, 9.527486409439998027 ) ) ;
#318 = CARTESIAN_POINT ( 'NONE',  ( -1.782590180776272071, 0.000000000000000000, 5.332590180781842548 ) ) ;
#319 = COORDINATED_UNIVERSAL_TIME_OFFSET ( 5, 0, .BEHIND. ) ;
#320 = CARTESIAN_POINT ( 'NONE',  ( -5.132590180784667666, 0.000000000000000000, -5.132590180776306354 ) ) ;
#321 = CARTESIAN_POINT ( 'NONE',  ( -8.482590180784670864, 0.1999999999999987899, -5.132590180773601851 ) ) ;
#322 = APPLICATION_PROTOCOL_DEFINITION ( 'international standard', 'config_control_design', 1994, #53 ) ;
#323 = CLOSED_SHELL ( 'NONE', ( #307, #694, #762, #442, #767, #848, #703, #49, #80, #858, #492, #352, #636, #429, #235, #145, #610, #459, #33, #328, #453, #204, #678, #822, #44, #102, #18, #385, #357, #522 ) ) ;
#324 = CIRCLE ( 'NONE', #19, 3.225000000000000533 ) ;
#325 = DIRECTION ( 'NONE',  ( -1.000000000000000000, 0.000000000000000000, 8.070731583043053915E-13 ) ) ;
#326 = DIRECTION ( 'NONE',  ( 0.000000000000000000, -1.000000000000000000, -0.000000000000000000 ) ) ;
#327 = PERSON_AND_ORGANIZATION_ROLE ( 'design_owner' ) ;
#328 = ADVANCED_FACE ( 'NONE', ( #826 ), #226, .F. ) ;
#329 = CIRCLE ( 'NONE', #273, 7.950000000000001954 ) ;
#330 = CARTESIAN_POINT ( 'NONE',  ( 19.10000000000000853, 10.34999999999999964, 0.09999999998459126183 ) ) ;
#331 = DIRECTION ( 'NONE',  ( -1.000000000000000000, 0.000000000000000000, 8.070731583043053915E-13 ) ) ;
#332 = ORIENTED_EDGE ( 'NONE', *, *, #447, .F. ) ;
#333 = CARTESIAN_POINT ( 'NONE',  ( 5.332590180776258570, 0.000000000000000000, -5.132590180784739609 ) ) ;
#334 = CARTESIAN_POINT ( 'NONE',  ( -19.10000000000641762, 10.35000000000000142, -7.849999999984579091 ) ) ;
#335 = ORIENTED_EDGE ( 'NONE', *, *, #606, .T. ) ;
#336 = CARTESIAN_POINT ( 'NONE',  ( 5.332590180784690936, 0.000000000000000000, 5.332590180776154654 ) ) ;
#337 = CIRCLE ( 'NONE', #824, 3.350000000000002753 ) ;
#338 = DIRECTION ( 'NONE',  ( 1.000000000000000000, -0.000000000000000000, -8.070731583043053915E-13 ) ) ;
#339 = CC_DESIGN_DATE_AND_TIME_ASSIGNMENT ( #377, #67, ( #117 ) ) ;
#340 = EDGE_LOOP ( 'NONE', ( #14, #424 ) ) ;
#341 = AXIS2_PLACEMENT_3D ( 'NONE', #792, #259, #582 ) ;
#342 = CARTESIAN_POINT ( 'NONE',  ( -19.10000000000000142, 10.34999999999999964, 0.1000000000154214475 ) ) ;
#343 = EDGE_CURVE ( 'NONE', #712, #623, #660, .T. ) ;
#344 = EDGE_LOOP ( 'NONE', ( #760, #28, #208, #176 ) ) ;
#345 = CARTESIAN_POINT ( 'NONE',  ( -19.09999999998870379, 10.35000000000000142, 14.10000000001542375 ) ) ;
#346 = EDGE_LOOP ( 'NONE', ( #811, #814 ) ) ;
#347 = DIRECTION ( 'NONE',  ( -7.966782291911390572E-13, 0.000000000000000000, -1.000000000000000000 ) ) ;
#348 = VECTOR ( 'NONE', #547, 1000.000000000000000 ) ;
#349 = EDGE_LOOP ( 'NONE', ( #399, #741, #707, #231 ) ) ;
#350 = VECTOR ( 'NONE', #709, 1000.000000000000000 ) ;
#351 = CARTESIAN_POINT ( 'NONE',  ( -19.10000000000000142, 10.34999999999999964, 0.1000000000154214475 ) ) ;
#352 = ADVANCED_FACE ( 'NONE', ( #679, #155 ), #614, .T. ) ;
#353 = FACE_OUTER_BOUND ( 'NONE', #175, .T. ) ;
#354 = APPROVAL_PERSON_ORGANIZATION ( #842, #173, #47 ) ;
#355 = ORIENTED_EDGE ( 'NONE', *, *, #265, .T. ) ;
#356 = CARTESIAN_POINT ( 'NONE',  ( -19.10000000000761133, 0.000000000000000000, -9.327486409415248758 ) ) ;
#357 = ADVANCED_FACE ( 'NONE', ( #77, #210 ), #415, .T. ) ;
#358 = ORIENTED_EDGE ( 'NONE', *, *, #200, .F. ) ;
#359 = FACE_OUTER_BOUND ( 'NONE', #690, .T. ) ;
#360 = DIRECTION ( 'NONE',  ( 0.000000000000000000, -1.000000000000000000, -0.000000000000000000 ) ) ;
#361 = ORIENTED_EDGE ( 'NONE', *, *, #600, .F. ) ;
#362 = ORIENTED_EDGE ( 'NONE', *, *, #56, .F. ) ;
#363 = VERTEX_POINT ( 'NONE', #481 ) ;
#364 = DIRECTION ( 'NONE',  ( 8.069191715927334870E-13, 0.000000000000000000, 1.000000000000000000 ) ) ;
#365 = EDGE_CURVE ( 'NONE', #685, #439, #571, .T. ) ;
#366 = ORIENTED_EDGE ( 'NONE', *, *, #230, .F. ) ;
#367 = CARTESIAN_POINT ( 'NONE',  ( 0.1000000000000082906, 4.500000000000000000, 0.09999999999992391364 ) ) ;
#368 = CARTESIAN_POINT ( 'NONE',  ( 5.332590180784690936, 0.9999999999999991118, 5.332590180776154654 ) ) ;
#369 = DIRECTION ( 'NONE',  ( 0.000000000000000000, -1.000000000000000000, -0.000000000000000000 ) ) ;
#370 = EDGE_CURVE ( 'NONE', #697, #406, #27, .T. ) ;
#371 = CYLINDRICAL_SURFACE ( 'NONE', #501, 3.350000000000002309 ) ;
#372 = FACE_OUTER_BOUND ( 'NONE', #159, .T. ) ;
#373 = DIRECTION ( 'NONE',  ( 8.071420516080656710E-13, 0.000000000000000000, 1.000000000000000000 ) ) ;
#374 = ORIENTED_EDGE ( 'NONE', *, *, #140, .F. ) ;
#375 = DIRECTION ( 'NONE',  ( 0.000000000000000000, -1.000000000000000000, -0.000000000000000000 ) ) ;
#376 = CYLINDRICAL_SURFACE ( 'NONE', #378, 7.950000000000001954 ) ;
#377 = DATE_AND_TIME ( #388, #65 ) ;
#378 = AXIS2_PLACEMENT_3D ( 'NONE', #705, #634, #846 ) ;
#379 = ORIENTED_EDGE ( 'NONE', *, *, #809, .T. ) ;
#380 = CARTESIAN_POINT ( 'NONE',  ( -8.482590180776275801, 0.1999999999999987899, 5.332590180787250667 ) ) ;
#381 = EDGE_CURVE ( 'NONE', #116, #685, #148, .T. ) ;
#382 = DIRECTION ( 'NONE',  ( -1.000000000000000000, 0.000000000000000000, 8.070731583043053915E-13 ) ) ;
#383 = DIRECTION ( 'NONE',  ( -1.000000000000000000, 0.000000000000000000, 8.070731583043053915E-13 ) ) ;
#384 =( GEOMETRIC_REPRESENTATION_CONTEXT ( 3 ) GLOBAL_UNCERTAINTY_ASSIGNED_CONTEXT ( ( #659 ) ) GLOBAL_UNIT_ASSIGNED_CONTEXT ( ( #853, #794, #525 ) ) REPRESENTATION_CONTEXT ( 'NONE', 'WORKASPACE' ) );
#385 = ADVANCED_FACE ( 'NONE', ( #353 ), #198, .T. ) ;
#386 = CARTESIAN_POINT ( 'NONE',  ( -19.10000000001130260, 10.34999999999999964, -13.89999999998458158 ) ) ;
#387 = DIRECTION ( 'NONE',  ( -1.000000000000000000, 0.000000000000000000, 8.070731583043053915E-13 ) ) ;
#388 = CALENDAR_DATE ( 2026, 13, 6 ) ;
#389 = CARTESIAN_POINT ( 'NONE',  ( -1.782590180784665135, 0.1999999999999987899, -5.132590180779009970 ) ) ;
#390 = CARTESIAN_POINT ( 'NONE',  ( -1.782590180776271627, 0.1999999999999987899, 5.332590180781842548 ) ) ;
#391 = EDGE_CURVE ( 'NONE', #503, #441, #749, .T. ) ;
#392 = CC_DESIGN_PERSON_AND_ORGANIZATION_ASSIGNMENT ( #790, #191, ( #315 ) ) ;
#393 = VECTOR ( 'NONE', #789, 1000.000000000000000 ) ;
#394 = AXIS2_PLACEMENT_3D ( 'NONE', #232, #784, #237 ) ;
#395 = CARTESIAN_POINT ( 'NONE',  ( 8.682590180776260880, 0.1999999999999987899, -5.132590180787443224 ) ) ;
#396 = CARTESIAN_POINT ( 'NONE',  ( 11.75000000000000711, 10.34999999999999964, 0.09999999999052323896 ) ) ;
#397 = COORDINATED_UNIVERSAL_TIME_OFFSET ( 5, 0, .BEHIND. ) ;
#398 = AXIS2_PLACEMENT_3D ( 'NONE', #646, #43, #177 ) ;
#399 = ORIENTED_EDGE ( 'NONE', *, *, #74, .F. ) ;
#400 = CIRCLE ( 'NONE', #815, 3.350000000000002753 ) ;
#401 = DIRECTION ( 'NONE',  ( 0.000000000000000000, -1.000000000000000000, 0.000000000000000000 ) ) ;
#402 = LINE ( 'NONE', #519, #239 ) ;
#403 = EDGE_LOOP ( 'NONE', ( #21, #355, #240, #362 ) ) ;
#404 = CARTESIAN_POINT ( 'NONE',  ( 8.682590180784693246, 0.9999999999999991118, 5.332590180773451038 ) ) ;
#405 = DIRECTION ( 'NONE',  ( 1.000000000000000000, -0.000000000000000000, -8.070731583043054925E-13 ) ) ;
#406 = VERTEX_POINT ( 'NONE', #220 ) ;
#407 = DIRECTION ( 'NONE',  ( -7.966782291911389562E-13, 0.000000000000000000, -1.000000000000000000 ) ) ;
#408 = LINE ( 'NONE', #9, #676 ) ;
#409 = ORIENTED_EDGE ( 'NONE', *, *, #573, .T. ) ;
#410 = AXIS2_PLACEMENT_3D ( 'NONE', #312, #845, #247 ) ;
#411 = CARTESIAN_POINT ( 'NONE',  ( -17.50000000000565237, 10.34999999999999964, -6.899999999985868548 ) ) ;
#412 = CARTESIAN_POINT ( 'NONE',  ( 0.1000000000000082906, 0.000000000000000000, 0.09999999999992391364 ) ) ;
#413 = ORIENTED_EDGE ( 'NONE', *, *, #296, .F. ) ;
#414 = LINE ( 'NONE', #480, #575 ) ;
#415 = CYLINDRICAL_SURFACE ( 'NONE', #472, 14.00000000000000178 ) ;
#416 = ORIENTED_EDGE ( 'NONE', *, *, #209, .F. ) ;
#417 = EDGE_CURVE ( 'NONE', #697, #467, #432, .T. ) ;
#418 = LINE ( 'NONE', #478, #42 ) ;
#419 = AXIS2_PLACEMENT_3D ( 'NONE', #15, #83, #541 ) ;
#420 = ORIENTED_EDGE ( 'NONE', *, *, #791, .F. ) ;
#421 = DIRECTION ( 'NONE',  ( 0.000000000000000000, -1.000000000000000000, 0.000000000000000000 ) ) ;
#422 = EDGE_CURVE ( 'NONE', #479, #623, #434, .T. ) ;
#423 = DIRECTION ( 'NONE',  ( 0.000000000000000000, -1.000000000000000000, 0.000000000000000000 ) ) ;
#424 = ORIENTED_EDGE ( 'NONE', *, *, #268, .T. ) ;
#425 = DIRECTION ( 'NONE',  ( 0.000000000000000000, -1.000000000000000000, 0.000000000000000000 ) ) ;
#426 = CARTESIAN_POINT ( 'NONE',  ( 11.75000000000761524, 0.000000000000000000, 9.527486409421186409 ) ) ;
#427 = ORIENTED_EDGE ( 'NONE', *, *, #170, .F. ) ;
#428 = DIRECTION ( 'NONE',  ( 1.000000000000000000, -0.000000000000000000, -8.070731583043054925E-13 ) ) ;
#429 = ADVANCED_FACE ( 'NONE', ( #850 ), #836, .T. ) ;
#430 = VERTEX_POINT ( 'NONE', #426 ) ;
#431 = AXIS2_PLACEMENT_3D ( 'NONE', #445, #369, #769 ) ;
#432 = CIRCLE ( 'NONE', #774, 3.350000000000002753 ) ;
#433 = EDGE_LOOP ( 'NONE', ( #149, #781 ) ) ;
#434 = LINE ( 'NONE', #562, #350 ) ;
#435 = AXIS2_PLACEMENT_3D ( 'NONE', #212, #611, #552 ) ;
#436 = FACE_BOUND ( 'NONE', #130, .T. ) ;
#437 = CC_DESIGN_APPROVAL ( #173, ( #315 ) ) ;
#438 = CARTESIAN_POINT ( 'NONE',  ( -19.09999999999249809, 10.35000000000000142, 9.400000000015410251 ) ) ;
#439 = VERTEX_POINT ( 'NONE', #780 ) ;
#440 = DIRECTION ( 'NONE',  ( 0.000000000000000000, -1.000000000000000000, 0.000000000000000000 ) ) ;
#441 = VERTEX_POINT ( 'NONE', #714 ) ;
#442 = ADVANCED_FACE ( 'NONE', ( #514 ), #579, .F. ) ;
#443 = EDGE_LOOP ( 'NONE', ( #142, #227, #32, #225 ) ) ;
#444 = CARTESIAN_POINT ( 'NONE',  ( 8.682590180784693246, 0.1999999999999987899, 5.332590180773451038 ) ) ;
#445 = CARTESIAN_POINT ( 'NONE',  ( 0.1000000000000082906, 4.500000000000000000, 0.09999999999992391364 ) ) ;
#446 = SECURITY_CLASSIFICATION_LEVEL ( 'unclassified' ) ;
#447 = EDGE_CURVE ( 'NONE', #693, #161, #311, .T. ) ;
#448 = AXIS2_PLACEMENT_3D ( 'NONE', #144, #473, #290 ) ;
#449 = DIRECTION ( 'NONE',  ( -1.000000000000000000, 0.000000000000000000, 8.070731583043053915E-13 ) ) ;
#450 = CARTESIAN_POINT ( 'NONE',  ( -19.10000000000000142, 10.34999999999999964, 0.1000000000154214475 ) ) ;
#451 = PERSON_AND_ORGANIZATION ( #61, #302 ) ;
#452 = CIRCLE ( 'NONE', #751, 14.00000000000000178 ) ;
#453 = ADVANCED_FACE ( 'NONE', ( #772 ), #371, .F. ) ;
#454 = DIRECTION ( 'NONE',  ( 0.000000000000000000, -1.000000000000000000, 0.000000000000000000 ) ) ;
#455 = FACE_OUTER_BOUND ( 'NONE', #340, .T. ) ;
#456 = PERSON_AND_ORGANIZATION ( #61, #302 ) ;
#457 = CARTESIAN_POINT ( 'NONE',  ( -3.124999999999992450, 4.500000000000000000, 0.1000000000025271230 ) ) ;
#458 = DIRECTION ( 'NONE',  ( 0.000000000000000000, 1.000000000000000000, 0.000000000000000000 ) ) ;
#459 = ADVANCED_FACE ( 'NONE', ( #699 ), #94, .F. ) ;
#460 = PERSON_AND_ORGANIZATION ( #61, #302 ) ;
#461 = ORIENTED_EDGE ( 'NONE', *, *, #303, .F. ) ;
#462 = DIRECTION ( 'NONE',  ( 8.068942339686403840E-13, 0.000000000000000000, 1.000000000000000000 ) ) ;
#463 = CARTESIAN_POINT ( 'NONE',  ( -19.10000000000750831, 10.34999999999999964, -9.199999999984568078 ) ) ;
#464 = ORIENTED_EDGE ( 'NONE', *, *, #818, .F. ) ;
#465 = FACE_OUTER_BOUND ( 'NONE', #195, .T. ) ;
#466 = DIRECTION ( 'NONE',  ( 1.000000000000000000, 0.000000000000000000, -8.070347872566722640E-13 ) ) ;
#467 = VERTEX_POINT ( 'NONE', #304 ) ;
#468 = CARTESIAN_POINT ( 'NONE',  ( -14.39999999999998792, 10.34999999999999964, 0.1000000000116282040 ) ) ;
#469 = EDGE_LOOP ( 'NONE', ( #416, #297, #597, #849 ) ) ;
#470 = DIRECTION ( 'NONE',  ( 0.000000000000000000, -1.000000000000000000, -0.000000000000000000 ) ) ;
#471 = AXIS2_PLACEMENT_3D ( 'NONE', #851, #238, #639 ) ;
#472 = AXIS2_PLACEMENT_3D ( 'NONE', #342, #604, #20 ) ;
#473 = DIRECTION ( 'NONE',  ( 0.000000000000000000, -1.000000000000000000, 0.000000000000000000 ) ) ;
#474 = VERTEX_POINT ( 'NONE', #626 ) ;
#475 = AXIS2_PLACEMENT_3D ( 'NONE', #351, #816, #677 ) ;
#476 = CIRCLE ( 'NONE', #113, 7.000000000000001776 ) ;
#477 = EDGE_CURVE ( 'NONE', #292, #116, #324, .T. ) ;
#478 = CARTESIAN_POINT ( 'NONE',  ( 1.982590180784688627, 0.9999999999999991118, 5.332590180778859157 ) ) ;
#479 = VERTEX_POINT ( 'NONE', #840 ) ;
#480 = CARTESIAN_POINT ( 'NONE',  ( 1.982590180776256261, 0.9999999999999991118, -5.132590180782035105 ) ) ;
#481 = CARTESIAN_POINT ( 'NONE',  ( 1.982590180784689071, 0.1999999999999987899, 5.332590180778859157 ) ) ;
#482 = EDGE_LOOP ( 'NONE', ( #683, #84 ) ) ;
#483 = CARTESIAN_POINT ( 'NONE',  ( 5.332590180776258570, 0.1999999999999987899, -5.132590180784739609 ) ) ;
#484 = AXIS2_PLACEMENT_3D ( 'NONE', #728, #119, #595 ) ;
#485 = ORIENTED_EDGE ( 'NONE', *, *, #281, .T. ) ;
#486 = VERTEX_POINT ( 'NONE', #494 ) ;
#487 = CC_DESIGN_PERSON_AND_ORGANIZATION_ASSIGNMENT ( #512, #107, ( #117 ) ) ;
#488 = VECTOR ( 'NONE', #800, 1000.000000000000000 ) ;
#489 = ORIENTED_EDGE ( 'NONE', *, *, #835, .F. ) ;
#490 = CARTESIAN_POINT ( 'NONE',  ( -17.50000000000641975, 10.35000000000000142, -7.849999999985871391 ) ) ;
#491 = VERTEX_POINT ( 'NONE', #380 ) ;
#492 = ADVANCED_FACE ( 'NONE', ( #641 ), #164, .T. ) ;
#493 = VERTEX_POINT ( 'NONE', #317 ) ;
#494 = CARTESIAN_POINT ( 'NONE',  ( -11.55000000000759641, 0.000000000000000000, -9.327486409421343438 ) ) ;
#495 = DIRECTION ( 'NONE',  ( -8.068942339686403840E-13, 0.000000000000000000, -1.000000000000000000 ) ) ;
#496 = VERTEX_POINT ( 'NONE', #105 ) ;
#497 = DIRECTION ( 'NONE',  ( -8.068942339686403840E-13, 0.000000000000000000, -1.000000000000000000 ) ) ;
#498 = CARTESIAN_POINT ( 'NONE',  ( -18.85000000000565024, 10.34999999999999964, -6.899999999984780530 ) ) ;
#499 = CARTESIAN_POINT ( 'NONE',  ( 0.1000000000000082906, 0.000000000000000000, 0.09999999999992391364 ) ) ;
#500 = AXIS2_PLACEMENT_3D ( 'NONE', #468, #3, #264 ) ;
#501 = AXIS2_PLACEMENT_3D ( 'NONE', #832, #375, #718 ) ;
#502 = ORIENTED_EDGE ( 'NONE', *, *, #573, .F. ) ;
#503 = VERTEX_POINT ( 'NONE', #504 ) ;
#504 = CARTESIAN_POINT ( 'NONE',  ( -14.39999999998868851, 10.35000000000000142, 14.10000000001162768 ) ) ;
#505 = CIRCLE ( 'NONE', #257, 3.225000000000000533 ) ;
#506 = ORIENTED_EDGE ( 'NONE', *, *, #131, .T. ) ;
#507 = APPROVAL_ROLE ( '' ) ;
#508 = EDGE_CURVE ( 'NONE', #493, #486, #704, .T. ) ;
#509 = CARTESIAN_POINT ( 'NONE',  ( -17.50000000000000355, 10.34999999999999964, 0.1000000000141301332 ) ) ;
#510 = ORIENTED_EDGE ( 'NONE', *, *, #140, .T. ) ;
#511 = EDGE_CURVE ( 'NONE', #163, #75, #565, .T. ) ;
#512 = PERSON_AND_ORGANIZATION ( #61, #302 ) ;
#513 = ORIENTED_EDGE ( 'NONE', *, *, #74, .T. ) ;
#514 = FACE_OUTER_BOUND ( 'NONE', #746, .T. ) ;
#515 = EDGE_LOOP ( 'NONE', ( #783, #489, #104, #374 ) ) ;
#516 = DIRECTION ( 'NONE',  ( 1.000000000000000000, 0.000000000000000000, 0.000000000000000000 ) ) ;
#517 = EDGE_CURVE ( 'NONE', #479, #81, #143, .T. ) ;
#518 = FACE_OUTER_BOUND ( 'NONE', #482, .T. ) ;
#519 = CARTESIAN_POINT ( 'NONE',  ( -8.482590180776275801, 0.9999999999999991118, 5.332590180787250667 ) ) ;
#520 = PERSON_AND_ORGANIZATION ( #61, #302 ) ;
#521 = VECTOR ( 'NONE', #591, 1000.000000000000227 ) ;
#522 = ADVANCED_FACE ( 'NONE', ( #568 ), #777, .F. ) ;
#523 = DIRECTION ( 'NONE',  ( -8.069262104382446598E-13, 0.000000000000000000, -1.000000000000000000 ) ) ;
#524 = DIRECTION ( 'NONE',  ( 0.000000000000000000, -1.000000000000000000, 0.000000000000000000 ) ) ;
#525 =( NAMED_UNIT ( * ) SI_UNIT ( $, .STERADIAN. ) SOLID_ANGLE_UNIT ( ) );
#526 = LINE ( 'NONE', #457, #488 ) ;
#527 = DIRECTION ( 'NONE',  ( 8.070181427883531284E-13, 0.000000000000000000, 1.000000000000000000 ) ) ;
#528 = VERTEX_POINT ( 'NONE', #444 ) ;
#529 = AXIS2_PLACEMENT_3D ( 'NONE', #570, #387, #181 ) ;
#530 = AXIS2_PLACEMENT_3D ( 'NONE', #79, #550, #817 ) ;
#531 = CYLINDRICAL_SURFACE ( 'NONE', #341, 3.350000000000002309 ) ;
#532 = CYLINDRICAL_SURFACE ( 'NONE', #708, 3.350000000000002309 ) ;
#533 = LINE ( 'NONE', #801, #757 ) ;
#534 = ORIENTED_EDGE ( 'NONE', *, *, #303, .T. ) ;
#535 = EDGE_CURVE ( 'NONE', #25, #179, #214, .T. ) ;
#536 = CIRCLE ( 'NONE', #664, 14.00000000000000178 ) ;
#537 = CARTESIAN_POINT ( 'NONE',  ( -1.782590180784665579, 0.000000000000000000, -5.132590180779009970 ) ) ;
#538 = LINE ( 'NONE', #656, #839 ) ;
#539 = EDGE_CURVE ( 'NONE', #299, #474, #157, .T. ) ;
#540 = ORIENTED_EDGE ( 'NONE', *, *, #596, .T. ) ;
#541 = DIRECTION ( 'NONE',  ( 8.070181427883531284E-13, 0.000000000000000000, 1.000000000000000000 ) ) ;
#542 = ORIENTED_EDGE ( 'NONE', *, *, #135, .F. ) ;
#543 = EDGE_CURVE ( 'NONE', #808, #503, #669, .T. ) ;
#544 = DIRECTION ( 'NONE',  ( 1.000000000000000000, 0.000000000000000000, -8.070750543974071462E-13 ) ) ;
#545 = AXIS2_PLACEMENT_3D ( 'NONE', #450, #382, #301 ) ;
#546 = VECTOR ( 'NONE', #39, 1000.000000000000000 ) ;
#547 = DIRECTION ( 'NONE',  ( -1.000000000000000000, 0.000000000000000000, 8.070731583043053915E-13 ) ) ;
#548 = ORIENTED_EDGE ( 'NONE', *, *, #391, .F. ) ;
#549 = CIRCLE ( 'NONE', #174, 3.350000000000002309 ) ;
#550 = DIRECTION ( 'NONE',  ( -1.000000000000000000, 0.000000000000000000, 8.070731583043053915E-13 ) ) ;
#551 = ORIENTED_EDGE ( 'NONE', *, *, #291, .T. ) ;
#552 = DIRECTION ( 'NONE',  ( 1.000000000000000000, 0.000000000000000000, -8.070347872566721631E-13 ) ) ;
#553 = DIRECTION ( 'NONE',  ( 1.000000000000000000, 0.000000000000000000, -8.070750543974071462E-13 ) ) ;
#554 = ORIENTED_EDGE ( 'NONE', *, *, #756, .F. ) ;
#555 = CC_DESIGN_DATE_AND_TIME_ASSIGNMENT ( #657, #244, ( #258 ) ) ;
#556 = DIRECTION ( 'NONE',  ( 0.000000000000000000, -1.000000000000000000, 0.000000000000000000 ) ) ;
#557 = CIRCLE ( 'NONE', #612, 3.350000000000002753 ) ;
#558 = ORIENTED_EDGE ( 'NONE', *, *, #511, .F. ) ;
#559 = FACE_OUTER_BOUND ( 'NONE', #344, .T. ) ;
#560 = AXIS2_PLACEMENT_3D ( 'NONE', #716, #194, #516 ) ;
#561 = EDGE_LOOP ( 'NONE', ( #755, #510, #843, #250 ) ) ;
#562 = CARTESIAN_POINT ( 'NONE',  ( -18.84999999999435261, 10.34999999999999964, 7.100000000015222135 ) ) ;
#563 = CYLINDRICAL_SURFACE ( 'NONE', #658, 7.000000000000001776 ) ;
#564 = DIRECTION ( 'NONE',  ( 1.000000000000000000, 0.000000000000000000, -8.070347872566722640E-13 ) ) ;
#565 = LINE ( 'NONE', #169, #546 ) ;
#566 = CARTESIAN_POINT ( 'NONE',  ( -17.49999999999359090, 10.34999999999999964, 8.050000000014133406 ) ) ;
#567 = FACE_OUTER_BOUND ( 'NONE', #671, .T. ) ;
#568 = FACE_OUTER_BOUND ( 'NONE', #289, .T. ) ;
#569 = EDGE_CURVE ( 'NONE', #637, #406, #788, .T. ) ;
#570 = CARTESIAN_POINT ( 'NONE',  ( -18.85000000000000142, 10.34999999999999964, 0.1000000000152196783 ) ) ;
#571 = CIRCLE ( 'NONE', #97, 3.225000000000000533 ) ;
#572 = ORIENTED_EDGE ( 'NONE', *, *, #381, .F. ) ;
#573 = EDGE_CURVE ( 'NONE', #292, #439, #526, .T. ) ;
#574 = DIRECTION ( 'NONE',  ( 8.068942339686403840E-13, 0.000000000000000000, 1.000000000000000000 ) ) ;
#575 = VECTOR ( 'NONE', #12, 1000.000000000000000 ) ;
#576 = DIRECTION ( 'NONE',  ( 8.036689058853739213E-13, 0.000000000000000000, 1.000000000000000000 ) ) ;
#577 = DATE_AND_TIME ( #663, #35 ) ;
#578 = EDGE_LOOP ( 'NONE', ( #413, #361, #335, #167 ) ) ;
#579 = CYLINDRICAL_SURFACE ( 'NONE', #736, 3.350000000000002309 ) ;
#580 = ORIENTED_EDGE ( 'NONE', *, *, #477, .T. ) ;
#581 = APPLICATION_PROTOCOL_DEFINITION ( 'international standard', 'config_control_design', 1994, #236 ) ;
#582 = DIRECTION ( 'NONE',  ( 1.000000000000000000, 0.000000000000000000, -8.070347872566722640E-13 ) ) ;
#583 = DIRECTION ( 'NONE',  ( -7.966782291911389562E-13, 0.000000000000000000, -1.000000000000000000 ) ) ;
#584 = APPROVAL_DATE_TIME ( #782, #173 ) ;
#585 = CIRCLE ( 'NONE', #545, 9.299999999999990052 ) ;
#586 = EDGE_CURVE ( 'NONE', #430, #732, #196, .T. ) ;
#587 = DIRECTION ( 'NONE',  ( 1.000000000000000000, 0.000000000000000000, -8.070731583043053915E-13 ) ) ;
#588 = CARTESIAN_POINT ( 'NONE',  ( -1.782590180784665579, 0.9999999999999991118, -5.132590180779009970 ) ) ;
#589 = APPROVAL_STATUS ( 'not_yet_approved' ) ;
#590 = CIRCLE ( 'NONE', #187, 3.350000000000002309 ) ;
#591 = DIRECTION ( 'NONE',  ( 0.7071067811859773622, 0.000000000000000000, -0.7071067811871176723 ) ) ;
#592 = DIRECTION ( 'NONE',  ( 8.036689058853738204E-13, 0.000000000000000000, 1.000000000000000000 ) ) ;
#593 = ORIENTED_EDGE ( 'NONE', *, *, #667, .F. ) ;
#594 = DIRECTION ( 'NONE',  ( 8.069191715927334870E-13, 0.000000000000000000, 1.000000000000000000 ) ) ;
#595 = DIRECTION ( 'NONE',  ( -1.000000000000000000, 0.000000000000000000, 8.070731583043053915E-13 ) ) ;
#596 = EDGE_CURVE ( 'NONE', #134, #48, #742, .T. ) ;
#597 = ORIENTED_EDGE ( 'NONE', *, *, #569, .T. ) ;
#598 = CIRCLE ( 'NONE', #721, 14.00000000000000178 ) ;
#599 = CARTESIAN_POINT ( 'NONE',  ( 11.74999999998870948, 0.000000000000000000, -13.90000000000947900 ) ) ;
#600 = EDGE_CURVE ( 'NONE', #528, #363, #228, .T. ) ;
#601 = DIRECTION ( 'NONE',  ( -7.965987142877761303E-13, 0.000000000000000000, -1.000000000000000000 ) ) ;
#602 = ORIENTED_EDGE ( 'NONE', *, *, #682, .F. ) ;
#603 = CONICAL_SURFACE ( 'NONE', #859, 9.299999999999990052, 0.7853981633974476129 ) ;
#604 = DIRECTION ( 'NONE',  ( 1.000000000000000000, -0.000000000000000000, -8.070731583043053915E-13 ) ) ;
#605 = SHAPE_DEFINITION_REPRESENTATION ( #854, #686 ) ;
#606 = EDGE_CURVE ( 'NONE', #528, #299, #72, .T. ) ;
#607 = ORIENTED_EDGE ( 'NONE', *, *, #56, .T. ) ;
#608 = DIRECTION ( 'NONE',  ( 0.000000000000000000, -1.000000000000000000, 0.000000000000000000 ) ) ;
#609 = ORIENTED_EDGE ( 'NONE', *, *, #672, .T. ) ;
#610 = ADVANCED_FACE ( 'NONE', ( #518 ), #128, .T. ) ;
#611 = DIRECTION ( 'NONE',  ( 0.000000000000000000, -1.000000000000000000, 0.000000000000000000 ) ) ;
#612 = AXIS2_PLACEMENT_3D ( 'NONE', #73, #524, #583 ) ;
#613 = VECTOR ( 'NONE', #821, 1000.000000000000000 ) ;
#614 = PLANE ( 'NONE',  #530 ) ;
#615 = ORIENTED_EDGE ( 'NONE', *, *, #740, .F. ) ;
#616 = AXIS2_PLACEMENT_3D ( 'NONE', #333, #2, #132 ) ;
#617 = CYLINDRICAL_SURFACE ( 'NONE', #723, 3.350000000000002309 ) ;
#618 = DIRECTION ( 'NONE',  ( 1.000000000000000000, 0.000000000000000000, -8.070731583043053915E-13 ) ) ;
#619 = EDGE_LOOP ( 'NONE', ( #630, #332, #272, #294 ) ) ;
#620 = CYLINDRICAL_SURFACE ( 'NONE', #314, 3.350000000000002309 ) ;
#621 = VERTEX_POINT ( 'NONE', #537 ) ;
#622 = DIRECTION ( 'NONE',  ( 0.000000000000000000, -1.000000000000000000, -0.000000000000000000 ) ) ;
#623 = VERTEX_POINT ( 'NONE', #787 ) ;
#624 = CARTESIAN_POINT ( 'NONE',  ( -8.482590180784670864, 0.000000000000000000, -5.132590180773601851 ) ) ;
#625 = ORIENTED_EDGE ( 'NONE', *, *, #852, .T. ) ;
#626 = CARTESIAN_POINT ( 'NONE',  ( 1.982590180784689515, 0.000000000000000000, 5.332590180778859157 ) ) ;
#627 = CIRCLE ( 'NONE', #500, 14.00000000000000178 ) ;
#628 = ORIENTED_EDGE ( 'NONE', *, *, #539, .F. ) ;
#629 = DIRECTION ( 'NONE',  ( 0.000000000000000000, -1.000000000000000000, 0.000000000000000000 ) ) ;
#630 = ORIENTED_EDGE ( 'NONE', *, *, #120, .F. ) ;
#631 = AXIS2_PLACEMENT_3D ( 'NONE', #172, #761, #166 ) ;
#632 = DIRECTION ( 'NONE',  ( -1.000000000000000000, 0.000000000000000000, 8.070731583043053915E-13 ) ) ;
#633 = CC_DESIGN_APPROVAL ( #805, ( #117 ) ) ;
#634 = DIRECTION ( 'NONE',  ( -1.000000000000000000, 0.000000000000000000, 8.070731583043053915E-13 ) ) ;
#635 = CARTESIAN_POINT ( 'NONE',  ( -5.132590180784667666, 0.000000000000000000, -5.132590180776306354 ) ) ;
#636 = ADVANCED_FACE ( 'NONE', ( #465 ), #267, .T. ) ;
#637 = VERTEX_POINT ( 'NONE', #189 ) ;
#638 = CARTESIAN_POINT ( 'NONE',  ( -11.54999999999998650, 10.34999999999999964, 0.1000000000093280439 ) ) ;
#639 = DIRECTION ( 'NONE',  ( 8.070731583043053915E-13, 0.000000000000000000, 1.000000000000000000 ) ) ;
#640 = DIRECTION ( 'NONE',  ( -1.000000000000000000, 0.000000000000000000, 8.070731583043053915E-13 ) ) ;
#641 = FACE_OUTER_BOUND ( 'NONE', #443, .T. ) ;
#642 = DIRECTION ( 'NONE',  ( -0.000000000000000000, -1.000000000000000000, 0.000000000000000000 ) ) ;
#643 = CIRCLE ( 'NONE', #269, 9.299999999999990052 ) ;
#644 = AXIS2_PLACEMENT_3D ( 'NONE', #509, #632, #364 ) ;
#645 = ORIENTED_EDGE ( 'NONE', *, *, #748, .F. ) ;
#646 = CARTESIAN_POINT ( 'NONE',  ( 19.10000000000000853, 10.34999999999999964, 0.09999999998459126183 ) ) ;
#647 = VECTOR ( 'NONE', #5, 1000.000000000000000 ) ;
#648 = CYLINDRICAL_SURFACE ( 'NONE', #431, 3.225000000000000533 ) ;
#649 = APPROVAL_PERSON_ORGANIZATION ( #60, #735, #507 ) ;
#650 = CC_DESIGN_PERSON_AND_ORGANIZATION_ASSIGNMENT ( #456, #729, ( #258 ) ) ;
#651 = DIRECTION ( 'NONE',  ( 1.000000000000000000, -0.000000000000000000, -8.070731583043053915E-13 ) ) ;
#652 = PLANE ( 'NONE',  #471 ) ;
#653 = EDGE_CURVE ( 'NONE', #623, #712, #476, .T. ) ;
#654 = DIRECTION ( 'NONE',  ( 8.070731583043053915E-13, 0.000000000000000000, 1.000000000000000000 ) ) ;
#655 = FACE_OUTER_BOUND ( 'NONE', #349, .T. ) ;
#656 = CARTESIAN_POINT ( 'NONE',  ( -18.85000000000565024, 10.34999999999999964, -6.899999999984782306 ) ) ;
#657 = DATE_AND_TIME ( #720, #830 ) ;
#658 = AXIS2_PLACEMENT_3D ( 'NONE', #833, #233, #495 ) ;
#659 = UNCERTAINTY_MEASURE_WITH_UNIT (LENGTH_MEASURE( 1.000000000000000082E-05 ), #853, 'distance_accuracy_value', 'NONE');
#660 = CIRCLE ( 'NONE', #758, 7.000000000000001776 ) ;
#661 = LINE ( 'NONE', #263, #521 ) ;
#662 = FACE_BOUND ( 'NONE', #770, .T. ) ;
#663 = CALENDAR_DATE ( 2026, 13, 6 ) ;
#664 = AXIS2_PLACEMENT_3D ( 'NONE', #330, #722, #122 ) ;
#665 = CC_DESIGN_SECURITY_CLASSIFICATION ( #258, ( #315 ) ) ;
#666 = ORIENTED_EDGE ( 'NONE', *, *, #517, .F. ) ;
#667 = EDGE_CURVE ( 'NONE', #496, #221, #329, .T. ) ;
#668 = PRODUCT_RELATED_PRODUCT_CATEGORY ( 'detail', '', ( #186 ) ) ;
#669 = LINE ( 'NONE', #69, #88 ) ;
#670 = DIRECTION ( 'NONE',  ( 0.000000000000000000, -1.000000000000000000, -0.000000000000000000 ) ) ;
#671 = EDGE_LOOP ( 'NONE', ( #199, #4 ) ) ;
#672 = EDGE_CURVE ( 'NONE', #48, #441, #536, .T. ) ;
#673 = CARTESIAN_POINT ( 'NONE',  ( 0.1000000000000082906, 4.500000000000000000, 0.09999999999992391364 ) ) ;
#674 = CARTESIAN_POINT ( 'NONE',  ( 5.332590180784690936, 0.9999999999999991118, 5.332590180776154654 ) ) ;
#675 = ORIENTED_EDGE ( 'NONE', *, *, #343, .F. ) ;
#676 = VECTOR ( 'NONE', #207, 1000.000000000000000 ) ;
#677 = DIRECTION ( 'NONE',  ( 8.069191715927334870E-13, 0.000000000000000000, 1.000000000000000000 ) ) ;
#678 = ADVANCED_FACE ( 'NONE', ( #115 ), #531, .F. ) ;
#679 = FACE_BOUND ( 'NONE', #753, .T. ) ;
#680 = ORIENTED_EDGE ( 'NONE', *, *, #223, .F. ) ;
#681 = FACE_OUTER_BOUND ( 'NONE', #779, .T. ) ;
#682 = EDGE_CURVE ( 'NONE', #820, #621, #590, .T. ) ;
#683 = ORIENTED_EDGE ( 'NONE', *, *, #417, .T. ) ;
#684 = DIRECTION ( 'NONE',  ( -1.000000000000000000, 0.000000000000000000, 8.070347872566721631E-13 ) ) ;
#685 = VERTEX_POINT ( 'NONE', #737 ) ;
#686 = ADVANCED_BREP_SHAPE_REPRESENTATION ( 'Cilindro_enc_Predeterminado_sldprt', ( #696, #560 ), #384 ) ;
#687 = DIRECTION ( 'NONE',  ( 0.000000000000000000, -1.000000000000000000, -0.000000000000000000 ) ) ;
#688 = AXIS2_PLACEMENT_3D ( 'NONE', #242, #251, #111 ) ;
#689 = CARTESIAN_POINT ( 'NONE',  ( 8.682590180784693246, 0.000000000000000000, 5.332590180773451038 ) ) ;
#690 = EDGE_LOOP ( 'NONE', ( #680, #823, #485, #558 ) ) ;
#691 = DIRECTION ( 'NONE',  ( 1.000000000000000000, 0.000000000000000000, -8.070347872566722640E-13 ) ) ;
#692 = AXIS2_PLACEMENT_3D ( 'NONE', #367, #425, #828 ) ;
#693 = VERTEX_POINT ( 'NONE', #389 ) ;
#694 = ADVANCED_FACE ( 'NONE', ( #655 ), #603, .T. ) ;
#695 = DIRECTION ( 'NONE',  ( 0.000000000000000000, -1.000000000000000000, -0.000000000000000000 ) ) ;
#696 = MANIFOLD_SOLID_BREP ( 'S\X2\00f3\X0\lido-Mover/Copiar2', #323 ) ;
#697 = VERTEX_POINT ( 'NONE', #395 ) ;
#698 = EDGE_CURVE ( 'NONE', #138, #134, #661, .T. ) ;
#699 = FACE_OUTER_BOUND ( 'NONE', #827, .T. ) ;
#700 = ORIENTED_EDGE ( 'NONE', *, *, #268, .F. ) ;
#701 = CIRCLE ( 'NONE', #529, 7.000000000000001776 ) ;
#702 = DIRECTION ( 'NONE',  ( -8.070181427883531284E-13, 0.000000000000000000, -1.000000000000000000 ) ) ;
#703 = ADVANCED_FACE ( 'NONE', ( #278 ), #806, .F. ) ;
#704 = CIRCLE ( 'NONE', #812, 14.00000000000000178 ) ;
#705 = CARTESIAN_POINT ( 'NONE',  ( -17.50000000000000355, 10.34999999999999964, 0.1000000000141301332 ) ) ;
#706 = PLANE ( 'NONE',  #201 ) ;
#707 = ORIENTED_EDGE ( 'NONE', *, *, #291, .F. ) ;
#708 = AXIS2_PLACEMENT_3D ( 'NONE', #96, #150, #564 ) ;
#709 = DIRECTION ( 'NONE',  ( 1.000000000000000000, -0.000000000000000000, -8.070731583043054925E-13 ) ) ;
#710 = DIRECTION ( 'NONE',  ( -8.070731583043053915E-13, 0.000000000000000000, -1.000000000000000000 ) ) ;
#711 = DIRECTION ( 'NONE',  ( -1.000000000000000000, 0.000000000000000000, 8.070731583043053915E-13 ) ) ;
#712 = VERTEX_POINT ( 'NONE', #411 ) ;
#713 = ORIENTED_EDGE ( 'NONE', *, *, #281, .F. ) ;
#714 = CARTESIAN_POINT ( 'NONE',  ( 19.10000000001130971, 10.35000000000000142, 14.09999999998458975 ) ) ;
#715 = ORIENTED_EDGE ( 'NONE', *, *, #381, .T. ) ;
#716 = CARTESIAN_POINT ( 'NONE',  ( 0.000000000000000000, 0.000000000000000000, 0.000000000000000000 ) ) ;
#717 = EDGE_LOOP ( 'NONE', ( #29, #71 ) ) ;
#718 = DIRECTION ( 'NONE',  ( 1.000000000000000000, 0.000000000000000000, -8.070347872566722640E-13 ) ) ;
#719 = CARTESIAN_POINT ( 'NONE',  ( -17.50000000000641975, 10.35000000000000142, -7.849999999985869614 ) ) ;
#720 = CALENDAR_DATE ( 2026, 13, 6 ) ;
#721 = AXIS2_PLACEMENT_3D ( 'NONE', #396, #59, #527 ) ;
#722 = DIRECTION ( 'NONE',  ( -1.000000000000000000, 0.000000000000000000, 8.070731583043053915E-13 ) ) ;
#723 = AXIS2_PLACEMENT_3D ( 'NONE', #147, #470, #219 ) ;
#724 = ORIENTED_EDGE ( 'NONE', *, *, #223, .T. ) ;
#725 = APPROVAL_PERSON_ORGANIZATION ( #451, #805, #253 ) ;
#726 = APPROVAL_DATE_TIME ( #577, #805 ) ;
#727 = DIRECTION ( 'NONE',  ( -8.070731583043054925E-13, -0.000000000000000000, -1.000000000000000000 ) ) ;
#728 = CARTESIAN_POINT ( 'NONE',  ( 5.332590180784690936, 0.1999999999999987899, 5.332590180776154654 ) ) ;
#729 = PERSON_AND_ORGANIZATION_ROLE ( 'classification_officer' ) ;
#730 = CARTESIAN_POINT ( 'NONE',  ( -19.10000000000000142, 10.34999999999999964, 0.1000000000154214475 ) ) ;
#731 = DIRECTION ( 'NONE',  ( 0.000000000000000000, -1.000000000000000000, -0.000000000000000000 ) ) ;
#732 = VERTEX_POINT ( 'NONE', #282 ) ;
#733 = AXIS2_PLACEMENT_3D ( 'NONE', #197, #270, #601 ) ;
#734 = EDGE_CURVE ( 'NONE', #161, #693, #763, .T. ) ;
#735 = APPROVAL ( #589, 'UNSPECIFIED' ) ;
#736 = AXIS2_PLACEMENT_3D ( 'NONE', #368, #100, #300 ) ;
#737 = CARTESIAN_POINT ( 'NONE',  ( 3.325000000000008615, 0.000000000000000000, 0.09999999999732109290 ) ) ;
#738 = CARTESIAN_POINT ( 'NONE',  ( -19.09999999999239506, 0.000000000000000000, 9.527486409446090931 ) ) ;
#739 = CIRCLE ( 'NONE', #475, 7.950000000000001954 ) ;
#740 = EDGE_CURVE ( 'NONE', #221, #496, #739, .T. ) ;
#741 = ORIENTED_EDGE ( 'NONE', *, *, #543, .T. ) ;
#742 = LINE ( 'NONE', #386, #127 ) ;
#743 = CYLINDRICAL_SURFACE ( 'NONE', #856, 3.350000000000002309 ) ;
#744 = ORIENTED_EDGE ( 'NONE', *, *, #417, .F. ) ;
#745 = DIRECTION ( 'NONE',  ( 0.000000000000000000, -1.000000000000000000, 0.000000000000000000 ) ) ;
#746 = EDGE_LOOP ( 'NONE', ( #700, #285, #38, #831 ) ) ;
#747 = AXIS2_PLACEMENT_3D ( 'NONE', #309, #841, #710 ) ;
#748 = EDGE_CURVE ( 'NONE', #163, #491, #400, .T. ) ;
#749 = LINE ( 'NONE', #345, #613 ) ;
#750 = ORIENTED_EDGE ( 'NONE', *, *, #653, .F. ) ;
#751 = AXIS2_PLACEMENT_3D ( 'NONE', #93, #711, #373 ) ;
#752 = CARTESIAN_POINT ( 'NONE',  ( -19.10000000000000142, 10.34999999999999964, 0.1000000000154214475 ) ) ;
#753 = EDGE_LOOP ( 'NONE', ( #675, #750 ) ) ;
#754 = CARTESIAN_POINT ( 'NONE',  ( 8.682590180776260880, 0.9999999999999991118, -5.132590180787443224 ) ) ;
#755 = ORIENTED_EDGE ( 'NONE', *, *, #508, .F. ) ;
#756 = EDGE_CURVE ( 'NONE', #467, #637, #414, .T. ) ;
#757 = VECTOR ( 'NONE', #731, 1000.000000000000000 ) ;
#758 = AXIS2_PLACEMENT_3D ( 'NONE', #217, #813, #141 ) ;
#759 = DIRECTION ( 'NONE',  ( -0.000000000000000000, -1.000000000000000000, 0.000000000000000000 ) ) ;
#760 = ORIENTED_EDGE ( 'NONE', *, *, #734, .F. ) ;
#761 = DIRECTION ( 'NONE',  ( -1.000000000000000000, 0.000000000000000000, 8.070731583043053915E-13 ) ) ;
#762 = ADVANCED_FACE ( 'NONE', ( #206 ), #617, .F. ) ;
#763 = CIRCLE ( 'NONE', #435, 3.350000000000002753 ) ;
#764 = EDGE_LOOP ( 'NONE', ( #461, #713 ) ) ;
#765 = CARTESIAN_POINT ( 'NONE',  ( -3.124999999999991562, 4.500000000000000000, 0.1000000000025271230 ) ) ;
#766 = ORIENTED_EDGE ( 'NONE', *, *, #477, .F. ) ;
#767 = ADVANCED_FACE ( 'NONE', ( #359 ), #532, .F. ) ;
#768 = CARTESIAN_POINT ( 'NONE',  ( -18.85000000000000142, 10.34999999999999964, 0.1000000000152196783 ) ) ;
#769 = DIRECTION ( 'NONE',  ( 1.000000000000000000, 0.000000000000000000, -8.070750543974071462E-13 ) ) ;
#770 = EDGE_LOOP ( 'NONE', ( #146, #248 ) ) ;
#771 = AXIS2_PLACEMENT_3D ( 'NONE', #137, #458, #66 ) ;
#772 = FACE_OUTER_BOUND ( 'NONE', #216, .T. ) ;
#773 = EDGE_CURVE ( 'NONE', #179, #25, #844, .T. ) ;
#774 = AXIS2_PLACEMENT_3D ( 'NONE', #483, #759, #36 ) ;
#775 = FACE_BOUND ( 'NONE', #90, .T. ) ;
#776 = ORIENTED_EDGE ( 'NONE', *, *, #667, .T. ) ;
#777 = PLANE ( 'NONE',  #398 ) ;
#778 = LINE ( 'NONE', #566, #151 ) ;
#779 = EDGE_LOOP ( 'NONE', ( #551, #68, #205, #837 ) ) ;
#780 = CARTESIAN_POINT ( 'NONE',  ( -3.124999999999991562, 0.000000000000000000, 0.1000000000025271230 ) ) ;
#781 = ORIENTED_EDGE ( 'NONE', *, *, #734, .T. ) ;
#782 = DATE_AND_TIME ( #249, #114 ) ;
#783 = ORIENTED_EDGE ( 'NONE', *, *, #131, .F. ) ;
#784 = DIRECTION ( 'NONE',  ( 0.000000000000000000, -1.000000000000000000, 0.000000000000000000 ) ) ;
#785 = CARTESIAN_POINT ( 'NONE',  ( -8.482590180776274025, 0.000000000000000000, 5.332590180787250667 ) ) ;
#786 = VECTOR ( 'NONE', #338, 1000.000000000000000 ) ;
#787 = CARTESIAN_POINT ( 'NONE',  ( -17.49999999999435829, 10.34999999999999964, 7.100000000014130563 ) ) ;
#788 = CIRCLE ( 'NONE', #616, 3.350000000000002309 ) ;
#789 = DIRECTION ( 'NONE',  ( 0.000000000000000000, -1.000000000000000000, -0.000000000000000000 ) ) ;
#790 = PERSON_AND_ORGANIZATION ( #61, #302 ) ;
#791 = EDGE_CURVE ( 'NONE', #621, #820, #549, .T. ) ;
#792 = CARTESIAN_POINT ( 'NONE',  ( 5.332590180776258570, 0.9999999999999991118, -5.132590180784739609 ) ) ;
#793 = CARTESIAN_POINT ( 'NONE',  ( 3.325000000000008615, 4.500000000000000000, 0.09999999999732109290 ) ) ;
#794 =( NAMED_UNIT ( * ) PLANE_ANGLE_UNIT ( ) SI_UNIT ( $, .RADIAN. ) );
#795 = DIRECTION ( 'NONE',  ( 0.7071067811871186715, 8.659560562354926695E-17, 0.7071067811859762520 ) ) ;
#796 = FACE_OUTER_BOUND ( 'NONE', #825, .T. ) ;
#797 = APPROVAL_DATE_TIME ( #284, #735 ) ;
#798 = ORIENTED_EDGE ( 'NONE', *, *, #213, .T. ) ;
#799 = CIRCLE ( 'NONE', #419, 14.00000000000000178 ) ;
#800 = DIRECTION ( 'NONE',  ( 0.000000000000000000, -1.000000000000000000, -0.000000000000000000 ) ) ;
#801 = CARTESIAN_POINT ( 'NONE',  ( -8.482590180784670864, 0.9999999999999991118, -5.132590180773601851 ) ) ;
#802 = AXIS2_PLACEMENT_3D ( 'NONE', #838, #383, #654 ) ;
#803 = CC_DESIGN_APPROVAL ( #735, ( #258 ) ) ;
#804 = ORIENTED_EDGE ( 'NONE', *, *, #265, .F. ) ;
#805 = APPROVAL ( #52, 'UNSPECIFIED' ) ;
#806 = CYLINDRICAL_SURFACE ( 'NONE', #63, 3.225000000000000533 ) ;
#807 = CARTESIAN_POINT ( 'NONE',  ( 5.332590180776258570, 0.1999999999999987899, -5.132590180784739609 ) ) ;
#808 = VERTEX_POINT ( 'NONE', #438 ) ;
#809 = EDGE_CURVE ( 'NONE', #439, #685, #505, .T. ) ;
#810 = DIRECTION ( 'NONE',  ( -8.069262104382446598E-13, 0.000000000000000000, -1.000000000000000000 ) ) ;
#811 = ORIENTED_EDGE ( 'NONE', *, *, #62, .F. ) ;
#812 = AXIS2_PLACEMENT_3D ( 'NONE', #638, #98, #702 ) ;
#813 = DIRECTION ( 'NONE',  ( -1.000000000000000000, 0.000000000000000000, 8.070731583043053915E-13 ) ) ;
#814 = ORIENTED_EDGE ( 'NONE', *, *, #569, .F. ) ;
#815 = AXIS2_PLACEMENT_3D ( 'NONE', #82, #154, #407 ) ;
#816 = DIRECTION ( 'NONE',  ( -1.000000000000000000, 0.000000000000000000, 8.070731583043053915E-13 ) ) ;
#817 = DIRECTION ( 'NONE',  ( 8.070731583043053915E-13, 0.000000000000000000, 1.000000000000000000 ) ) ;
#818 = EDGE_CURVE ( 'NONE', #441, #48, #452, .T. ) ;
#819 = CC_DESIGN_PERSON_AND_ORGANIZATION_ASSIGNMENT ( #520, #182, ( #315 ) ) ;
#820 = VERTEX_POINT ( 'NONE', #624 ) ;
#821 = DIRECTION ( 'NONE',  ( 1.000000000000000000, -0.000000000000000000, -8.070731583043053915E-13 ) ) ;
#822 = ADVANCED_FACE ( 'NONE', ( #298, #158 ), #706, .T. ) ;
#823 = ORIENTED_EDGE ( 'NONE', *, *, #230, .T. ) ;
#824 = AXIS2_PLACEMENT_3D ( 'NONE', #305, #608, #684 ) ;
#825 = EDGE_LOOP ( 'NONE', ( #11, #724 ) ) ;
#826 = FACE_OUTER_BOUND ( 'NONE', #619, .T. ) ;
#827 = EDGE_LOOP ( 'NONE', ( #804, #156, #607, #776 ) ) ;
#828 = DIRECTION ( 'NONE',  ( 1.000000000000000000, 0.000000000000000000, -8.070750543974071462E-13 ) ) ;
#829 = VECTOR ( 'NONE', #640, 1000.000000000000000 ) ;
#830 = LOCAL_TIME ( 23, 19, 20.00000000000000000, #121 ) ;
#831 = ORIENTED_EDGE ( 'NONE', *, *, #606, .F. ) ;
#832 = CARTESIAN_POINT ( 'NONE',  ( -5.132590180776273492, 0.9999999999999991118, 5.332590180784546163 ) ) ;
#833 = CARTESIAN_POINT ( 'NONE',  ( -18.85000000000000142, 10.34999999999999964, 0.1000000000152196783 ) ) ;
#834 = DIRECTION ( 'NONE',  ( 8.070731583043053915E-13, 0.000000000000000000, 1.000000000000000000 ) ) ;
#835 = EDGE_CURVE ( 'NONE', #732, #486, #306, .T. ) ;
#836 = PLANE ( 'NONE',  #688 ) ;
#837 = ORIENTED_EDGE ( 'NONE', *, *, #596, .F. ) ;
#838 = CARTESIAN_POINT ( 'NONE',  ( -18.85000000000000142, 10.34999999999999964, 0.1000000000152196783 ) ) ;
#839 = VECTOR ( 'NONE', #405, 1000.000000000000000 ) ;
#840 = CARTESIAN_POINT ( 'NONE',  ( -18.84999999999435261, 10.34999999999999964, 7.100000000015219470 ) ) ;
#841 = DIRECTION ( 'NONE',  ( 1.000000000000000000, 0.000000000000000000, -8.070731583043053915E-13 ) ) ;
#842 = PERSON_AND_ORGANIZATION ( #61, #302 ) ;
#843 = ORIENTED_EDGE ( 'NONE', *, *, #188, .F. ) ;
#844 = CIRCLE ( 'NONE', #631, 7.950000000000001954 ) ;
#845 = DIRECTION ( 'NONE',  ( -1.000000000000000000, 0.000000000000000000, 8.070731583043053915E-13 ) ) ;
#846 = DIRECTION ( 'NONE',  ( 8.069191715927334870E-13, 0.000000000000000000, 1.000000000000000000 ) ) ;
#847 = COORDINATED_UNIVERSAL_TIME_OFFSET ( 5, 0, .BEHIND. ) ;
#848 = ADVANCED_FACE ( 'NONE', ( #559 ), #620, .F. ) ;
#849 = ORIENTED_EDGE ( 'NONE', *, *, #370, .F. ) ;
#850 = FACE_OUTER_BOUND ( 'NONE', #433, .T. ) ;
#851 = CARTESIAN_POINT ( 'NONE',  ( 11.74999999998870948, 0.000000000000000000, -13.90000000000947900 ) ) ;
#852 = EDGE_CURVE ( 'NONE', #116, #292, #861, .T. ) ;
#853 =( LENGTH_UNIT ( ) NAMED_UNIT ( * ) SI_UNIT ( .MILLI., .METRE. ) );
#854 = PRODUCT_DEFINITION_SHAPE ( 'NONE', 'NONE',  #117 ) ;
#855 = CARTESIAN_POINT ( 'NONE',  ( 5.332590180784690936, 0.1999999999999987899, 5.332590180776154654 ) ) ;
#856 = AXIS2_PLACEMENT_3D ( 'NONE', #674, #326, #466 ) ;
#857 = CARTESIAN_POINT ( 'NONE',  ( -17.49999999999359090, 10.34999999999999964, 8.050000000014133406 ) ) ;
#858 = ADVANCED_FACE ( 'NONE', ( #567 ), #229, .T. ) ;
#859 = AXIS2_PLACEMENT_3D ( 'NONE', #58, #587, #523 ) ;
#860 = DIRECTION ( 'NONE',  ( -1.000000000000000000, 0.000000000000000000, 8.070347872566721631E-13 ) ) ;
#861 = CIRCLE ( 'NONE', #692, 3.225000000000000533 ) ;
#862 = LINE ( 'NONE', #588, #393 ) ;
#863 = COORDINATED_UNIVERSAL_TIME_OFFSET ( 5, 0, .BEHIND. ) ;
ENDSEC;
END-ISO-10303-21;
