ISO-10303-21;
HEADER;
FILE_DESCRIPTION (( 'STEP AP203' ),
    '1' );
FILE_NAME ('disco_hub_Predeterminado_sldprt.STEP',
    '2026-06-14T04:19:40',
    ( '' ),
    ( '' ),
    'SwSTEP 2.0',
    'SolidWorks 2025',
    '' );
FILE_SCHEMA (( 'CONFIG_CONTROL_DESIGN' ));
ENDSEC;

DATA;
#1 = FACE_OUTER_BOUND ( 'NONE', #255, .T. ) ;
#2 = VECTOR ( 'NONE', #942, 1000.000000000000000 ) ;
#3 = ADVANCED_FACE ( 'NONE', ( #538, #371 ), #979, .T. ) ;
#4 = LOCAL_TIME ( 23, 19, 40.00000000000000000, #146 ) ;
#5 = EDGE_LOOP ( 'NONE', ( #590, #533, #865, #941 ) ) ;
#6 = FACE_OUTER_BOUND ( 'NONE', #1016, .T. ) ;
#7 = AXIS2_PLACEMENT_3D ( 'NONE', #828, #472, #485 ) ;
#8 = CYLINDRICAL_SURFACE ( 'NONE', #987, 3.024999999999999911 ) ;
#9 = DIRECTION ( 'NONE',  ( 0.000000000000000000, 1.000000000000000000, 0.000000000000000000 ) ) ;
#10 = ADVANCED_FACE ( 'NONE', ( #1 ), #1068, .F. ) ;
#11 = FACE_OUTER_BOUND ( 'NONE', #1103, .T. ) ;
#12 = DIRECTION ( 'NONE',  ( 0.000000000000000000, -1.000000000000000000, 0.000000000000000000 ) ) ;
#13 = EDGE_LOOP ( 'NONE', ( #320, #164, #446, #782, #1012, #390, #582, #70, #439, #946 ) ) ;
#14 = AXIS2_PLACEMENT_3D ( 'NONE', #1061, #546, #887 ) ;
#15 = DIRECTION ( 'NONE',  ( 0.000000000000000000, 1.000000000000000000, 0.000000000000000000 ) ) ;
#16 = EDGE_CURVE ( 'NONE', #373, #200, #368, .T. ) ;
#17 = CARTESIAN_POINT ( 'NONE',  ( 4.952894511971281055, 12.70099999999998985, 4.946598422480344759 ) ) ;
#18 = CARTESIAN_POINT ( 'NONE',  ( -4.946598422480293245, 12.70099999999998985, 4.952894511971332570 ) ) ;
#19 = DIRECTION ( 'NONE',  ( 0.000000000000000000, 0.000000000000000000, 1.000000000000000000 ) ) ;
#20 = APPROVAL ( #846, 'UNSPECIFIED' ) ;
#21 = ORIENTED_EDGE ( 'NONE', *, *, #457, .T. ) ;
#22 = DIRECTION ( 'NONE',  ( 0.000000000000000000, 1.000000000000000000, 0.000000000000000000 ) ) ;
#23 = CARTESIAN_POINT ( 'NONE',  ( 0.000000000000000000, 10.99999999999999645, 0.000000000000000000 ) ) ;
#24 = CIRCLE ( 'NONE', #1076, 3.025000000000000799 ) ;
#25 = LINE ( 'NONE', #313, #875 ) ;
#26 = DIRECTION ( 'NONE',  ( 0.000000000000000000, 0.000000000000000000, 1.000000000000000000 ) ) ;
#27 = AXIS2_PLACEMENT_3D ( 'NONE', #97, #1057, #267 ) ;
#28 = DIRECTION ( 'NONE',  ( -1.000000000000000000, 0.000000000000000000, 1.047444401652940007E-14 ) ) ;
#29 = CARTESIAN_POINT ( 'NONE',  ( 4.234288873483544435, 11.19999999999998863, 7.885004612293734283 ) ) ;
#30 = ORIENTED_EDGE ( 'NONE', *, *, #321, .T. ) ;
#31 = EDGE_CURVE ( 'NONE', #1050, #1078, #531, .T. ) ;
#32 = DIRECTION ( 'NONE',  ( 0.000000000000000000, 1.000000000000000000, 0.000000000000000000 ) ) ;
#33 = PERSON_AND_ORGANIZATION ( #891, #461 ) ;
#34 = DIRECTION ( 'NONE',  ( -0.000000000000000000, 1.000000000000000000, -0.000000000000000000 ) ) ;
#35 = VERTEX_POINT ( 'NONE', #548 ) ;
#36 = EDGE_CURVE ( 'NONE', #510, #971, #364, .T. ) ;
#37 = DIRECTION ( 'NONE',  ( 0.000000000000000000, 1.000000000000000000, 0.000000000000000000 ) ) ;
#38 = COORDINATED_UNIVERSAL_TIME_OFFSET ( 5, 0, .BEHIND. ) ;
#39 = DIRECTION ( 'NONE',  ( -1.000000000000000000, 0.000000000000000000, 1.060905266299865141E-14 ) ) ;
#40 = DIRECTION ( 'NONE',  ( 0.000000000000000000, 0.000000000000000000, 1.000000000000000000 ) ) ;
#41 = CIRCLE ( 'NONE', #948, 3.150000000000000355 ) ;
#42 = ORIENTED_EDGE ( 'NONE', *, *, #976, .T. ) ;
#43 = AXIS2_PLACEMENT_3D ( 'NONE', #709, #391, #649 ) ;
#44 = ORIENTED_EDGE ( 'NONE', *, *, #807, .T. ) ;
#45 = CARTESIAN_POINT ( 'NONE',  ( 4.946598422480327883, 11.39999999999999325, -7.977894511971298286 ) ) ;
#46 = B_SPLINE_CURVE_WITH_KNOTS ( 'NONE', 3,
 ( #733, #104, #363, #714 ),
 .UNSPECIFIED., .F., .F.,
 ( 4, 4 ),
 ( 0.001303346562189979397, 0.001358561630315182527 ),
 .UNSPECIFIED. ) ;
#47 = APPROVAL_STATUS ( 'not_yet_approved' ) ;
#48 = DIRECTION ( 'NONE',  ( 0.000000000000000000, 1.000000000000000000, 0.000000000000000000 ) ) ;
#49 = ADVANCED_FACE ( 'NONE', ( #1077, #91 ), #287, .T. ) ;
#50 = DIRECTION ( 'NONE',  ( 0.000000000000000000, 1.000000000000000000, 0.000000000000000000 ) ) ;
#51 = ORIENTED_EDGE ( 'NONE', *, *, #545, .T. ) ;
#52 = ORIENTED_EDGE ( 'NONE', *, *, #684, .F. ) ;
#53 = DIRECTION ( 'NONE',  ( 0.000000000000000000, 0.000000000000000000, 1.000000000000000000 ) ) ;
#54 = AXIS2_PLACEMENT_3D ( 'NONE', #710, #177, #960 ) ;
#55 = DIRECTION ( 'NONE',  ( 0.000000000000000000, 1.000000000000000000, 0.000000000000000000 ) ) ;
#56 = AXIS2_PLACEMENT_3D ( 'NONE', #547, #898, #823 ) ;
#57 = DIRECTION ( 'NONE',  ( -0.000000000000000000, -1.000000000000000000, -0.000000000000000000 ) ) ;
#58 = CC_DESIGN_PERSON_AND_ORGANIZATION_ASSIGNMENT ( #312, #227, ( #278 ) ) ;
#59 = ORIENTED_EDGE ( 'NONE', *, *, #256, .T. ) ;
#60 = EDGE_LOOP ( 'NONE', ( #877, #74 ) ) ;
#61 = APPLICATION_PROTOCOL_DEFINITION ( 'international standard', 'config_control_design', 1994, #730 ) ;
#62 = LINE ( 'NONE', #332, #559 ) ;
#63 = ORIENTED_EDGE ( 'NONE', *, *, #98, .T. ) ;
#64 = ORIENTED_EDGE ( 'NONE', *, *, #379, .T. ) ;
#65 = FACE_OUTER_BOUND ( 'NONE', #423, .T. ) ;
#66 = VECTOR ( 'NONE', #448, 1000.000000000000000 ) ;
#67 = DIRECTION ( 'NONE',  ( 0.000000000000000000, 0.000000000000000000, -1.000000000000000000 ) ) ;
#68 = VERTEX_POINT ( 'NONE', #800 ) ;
#69 = EDGE_CURVE ( 'NONE', #155, #192, #825, .T. ) ;
#70 = ORIENTED_EDGE ( 'NONE', *, *, #392, .T. ) ;
#71 = FACE_OUTER_BOUND ( 'NONE', #496, .T. ) ;
#72 = AXIS2_PLACEMENT_3D ( 'NONE', #907, #722, #449 ) ;
#73 = DIRECTION ( 'NONE',  ( 0.000000000000000000, 0.000000000000000000, -1.000000000000000000 ) ) ;
#74 = ORIENTED_EDGE ( 'NONE', *, *, #86, .T. ) ;
#75 = AXIS2_PLACEMENT_3D ( 'NONE', #394, #53, #486 ) ;
#76 = LINE ( 'NONE', #777, #405 ) ;
#77 = EDGE_CURVE ( 'NONE', #200, #335, #1144, .T. ) ;
#78 = CYLINDRICAL_SURFACE ( 'NONE', #527, 3.150000000000000355 ) ;
#79 = ORIENTED_EDGE ( 'NONE', *, *, #699, .T. ) ;
#80 = CARTESIAN_POINT ( 'NONE',  ( -7.890384256887130299, 11.02000000000000135, -4.224255707064584975 ) ) ;
#81 = ORIENTED_EDGE ( 'NONE', *, *, #890, .F. ) ;
#82 = AXIS2_PLACEMENT_3D ( 'NONE', #1021, #55, #325 ) ;
#83 = CARTESIAN_POINT ( 'NONE',  ( 0.000000000000000000, 11.39999999999999325, 0.000000000000000000 ) ) ;
#84 = VERTEX_POINT ( 'NONE', #281 ) ;
#85 = CYLINDRICAL_SURFACE ( 'NONE', #569, 3.025000000000000799 ) ;
#86 = EDGE_CURVE ( 'NONE', #872, #674, #1083, .T. ) ;
#87 = ORIENTED_EDGE ( 'NONE', *, *, #464, .T. ) ;
#88 = CLOSED_SHELL ( 'NONE', ( #840, #1073, #1018, #116, #447, #361, #366, #411, #530, #651, #49, #693, #539, #1093, #401, #3, #167, #628, #778, #736, #193, #340, #1111, #1136, #813, #288, #1125, #10, #275, #868, #632, #477, #937, #1036, #820, #753, #944, #1025 ) ) ;
#89 = CARTESIAN_POINT ( 'NONE',  ( 0.000000000000000000, 2.199999999999993516, 0.000000000000000000 ) ) ;
#90 = DIRECTION ( 'NONE',  ( -0.000000000000000000, -1.000000000000000000, -0.000000000000000000 ) ) ;
#91 = FACE_BOUND ( 'NONE', #305, .T. ) ;
#92 = EDGE_CURVE ( 'NONE', #674, #872, #729, .T. ) ;
#93 = VECTOR ( 'NONE', #434, 1000.000000000000000 ) ;
#94 = ORIENTED_EDGE ( 'NONE', *, *, #242, .F. ) ;
#95 = CARTESIAN_POINT ( 'NONE',  ( 1.387778780781445676E-14, 11.39999999999999325, 1.387778780781445676E-14 ) ) ;
#96 = CARTESIAN_POINT ( 'NONE',  ( 1.387778780781445676E-14, 4.200000000000009059, 1.387778780781445676E-14 ) ) ;
#97 = CARTESIAN_POINT ( 'NONE',  ( 0.000000000000000000, 10.99999999999999645, 0.000000000000000000 ) ) ;
#98 = EDGE_CURVE ( 'NONE', #338, #1097, #289, .T. ) ;
#99 = CARTESIAN_POINT ( 'NONE',  ( 4.952894511971281055, 11.02000000000000135, 4.946598422480344759 ) ) ;
#100 = DIRECTION ( 'NONE',  ( 0.000000000000000000, 0.000000000000000000, 1.000000000000000000 ) ) ;
#101 = ORIENTED_EDGE ( 'NONE', *, *, #1046, .F. ) ;
#102 = EDGE_CURVE ( 'NONE', #910, #975, #441, .T. ) ;
#103 = DIRECTION ( 'NONE',  ( 0.000000000000000000, 1.000000000000000000, 0.000000000000000000 ) ) ;
#104 = CARTESIAN_POINT ( 'NONE',  ( 4.203950702761695801, 11.00668698468380491, 7.901240021807778291 ) ) ;
#105 = ORIENTED_EDGE ( 'NONE', *, *, #989, .F. ) ;
#106 = CIRCLE ( 'NONE', #386, 3.025000000000000799 ) ;
#107 = AXIS2_PLACEMENT_3D ( 'NONE', #376, #458, #195 ) ;
#108 = CARTESIAN_POINT ( 'NONE',  ( 0.000000000000000000, 2.199999999999993516, -1.250000000000000000 ) ) ;
#109 = DIRECTION ( 'NONE',  ( -0.000000000000000000, -1.000000000000000000, -0.000000000000000000 ) ) ;
#110 = DIRECTION ( 'NONE',  ( 0.000000000000000000, 1.000000000000000000, 0.000000000000000000 ) ) ;
#111 = PRODUCT_DEFINITION_SHAPE ( 'NONE', 'NONE',  #224 ) ;
#112 = CARTESIAN_POINT ( 'NONE',  ( 0.000000000000000000, 12.69999999999998863, 0.000000000000000000 ) ) ;
#113 = DIRECTION ( 'NONE',  ( -0.000000000000000000, 1.000000000000000000, -0.000000000000000000 ) ) ;
#114 = VECTOR ( 'NONE', #869, 1000.000000000000114 ) ;
#115 = CARTESIAN_POINT ( 'NONE',  ( -7.885004612293688986, 10.50999999999999091, 4.234288873483628812 ) ) ;
#116 = ADVANCED_FACE ( 'NONE', ( #925 ), #819, .F. ) ;
#117 = ORIENTED_EDGE ( 'NONE', *, *, #644, .T. ) ;
#118 = DIRECTION ( 'NONE',  ( 0.000000000000000000, -0.000000000000000000, 1.000000000000000000 ) ) ;
#119 = DATE_AND_TIME ( #591, #1032 ) ;
#120 = CARTESIAN_POINT ( 'NONE',  ( -4.234288873483543547, 11.39999999999999325, -7.885004612293734283 ) ) ;
#121 = VERTEX_POINT ( 'NONE', #991 ) ;
#122 = EDGE_CURVE ( 'NONE', #497, #687, #580, .T. ) ;
#123 = AXIS2_PLACEMENT_3D ( 'NONE', #96, #604, #954 ) ;
#124 = CARTESIAN_POINT ( 'NONE',  ( -4.946598422480293245, 10.99999999999999645, 1.927894511971332880 ) ) ;
#125 = DIRECTION ( 'NONE',  ( -0.000000000000000000, 1.000000000000000000, -0.000000000000000000 ) ) ;
#126 = FACE_OUTER_BOUND ( 'NONE', #810, .T. ) ;
#127 = ORIENTED_EDGE ( 'NONE', *, *, #769, .T. ) ;
#128 = EDGE_CURVE ( 'NONE', #236, #647, #997, .T. ) ;
#129 = VERTEX_POINT ( 'NONE', #557 ) ;
#130 = DIRECTION ( 'NONE',  ( -0.000000000000000000, -1.000000000000000000, -0.000000000000000000 ) ) ;
#131 = DIRECTION ( 'NONE',  ( -0.000000000000000000, 1.000000000000000000, -0.000000000000000000 ) ) ;
#132 = FACE_OUTER_BOUND ( 'NONE', #508, .T. ) ;
#133 = AXIS2_PLACEMENT_3D ( 'NONE', #350, #273, #190 ) ;
#134 = ORIENTED_EDGE ( 'NONE', *, *, #981, .T. ) ;
#135 = VECTOR ( 'NONE', #572, 1000.000000000000000 ) ;
#136 = ORIENTED_EDGE ( 'NONE', *, *, #833, .T. ) ;
#137 = PLANE ( 'NONE',  #385 ) ;
#138 = EDGE_CURVE ( 'NONE', #84, #418, #395, .T. ) ;
#139 = COORDINATED_UNIVERSAL_TIME_OFFSET ( 5, 0, .BEHIND. ) ;
#140 = CARTESIAN_POINT ( 'NONE',  ( 1.836970198721028701E-16, 9.699999999999986855, -1.499999999999998890 ) ) ;
#141 = AXIS2_PLACEMENT_3D ( 'NONE', #196, #9, #359 ) ;
#142 = CARTESIAN_POINT ( 'NONE',  ( 4.224255707064555665, 11.19999999999998863, -7.890384256887145398 ) ) ;
#143 = ORIENTED_EDGE ( 'NONE', *, *, #372, .F. ) ;
#144 = ADVANCED_BREP_SHAPE_REPRESENTATION ( 'disco_hub_Predeterminado_sldprt', ( #160, #75 ), #919 ) ;
#145 = ORIENTED_EDGE ( 'NONE', *, *, #908, .F. ) ;
#146 = COORDINATED_UNIVERSAL_TIME_OFFSET ( 5, 0, .BEHIND. ) ;
#147 = CIRCLE ( 'NONE', #553, 3.025000000000000799 ) ;
#148 = FACE_OUTER_BOUND ( 'NONE', #768, .T. ) ;
#149 = AXIS2_PLACEMENT_3D ( 'NONE', #191, #542, #100 ) ;
#150 = CYLINDRICAL_SURFACE ( 'NONE', #534, 3.024999999999999911 ) ;
#151 = ORIENTED_EDGE ( 'NONE', *, *, #102, .F. ) ;
#152 = ORIENTED_EDGE ( 'NONE', *, *, #303, .T. ) ;
#153 = DIRECTION ( 'NONE',  ( 0.000000000000000000, 0.000000000000000000, -1.000000000000000000 ) ) ;
#154 = DIRECTION ( 'NONE',  ( 0.000000000000000000, 1.000000000000000000, 0.000000000000000000 ) ) ;
#155 = VERTEX_POINT ( 'NONE', #297 ) ;
#156 = EDGE_CURVE ( 'NONE', #429, #1078, #744, .T. ) ;
#157 = CIRCLE ( 'NONE', #360, 1.250000000000000000 ) ;
#158 = AXIS2_PLACEMENT_3D ( 'NONE', #89, #443, #797 ) ;
#159 = VERTEX_POINT ( 'NONE', #739 ) ;
#160 = MANIFOLD_SOLID_BREP ( 'S\X2\00f3\X0\lido-Mover/Copiar1', #88 ) ;
#161 = DIRECTION ( 'NONE',  ( -0.000000000000000000, -1.000000000000000000, 0.000000000000000000 ) ) ;
#162 = DIRECTION ( 'NONE',  ( 0.000000000000000000, 1.000000000000000000, 0.000000000000000000 ) ) ;
#163 = B_SPLINE_CURVE_WITH_KNOTS ( 'NONE', 3,
 ( #266, #964, #787, #171 ),
 .UNSPECIFIED., .F., .F.,
 ( 4, 4 ),
 ( 0.000000000000000000, 5.533677279307819388E-05 ),
 .UNSPECIFIED. ) ;
#164 = ORIENTED_EDGE ( 'NONE', *, *, #69, .F. ) ;
#165 = DIRECTION ( 'NONE',  ( 0.000000000000000000, 1.000000000000000000, 0.000000000000000000 ) ) ;
#166 = VERTEX_POINT ( 'NONE', #302 ) ;
#167 = ADVANCED_FACE ( 'NONE', ( #487 ), #751, .T. ) ;
#168 = FACE_OUTER_BOUND ( 'NONE', #935, .T. ) ;
#169 = VERTEX_POINT ( 'NONE', #566 ) ;
#170 = AXIS2_PLACEMENT_3D ( 'NONE', #387, #737, #947 ) ;
#171 = CARTESIAN_POINT ( 'NONE',  ( 7.890384256887130299, 11.02000000000000135, 4.224255707064584087 ) ) ;
#172 = ORIENTED_EDGE ( 'NONE', *, *, #31, .T. ) ;
#173 = AXIS2_PLACEMENT_3D ( 'NONE', #367, #727, #1067 ) ;
#174 = EDGE_CURVE ( 'NONE', #832, #418, #25, .T. ) ;
#175 = CARTESIAN_POINT ( 'NONE',  ( 1.836970198721028701E-16, 9.699999999999986855, -1.499999999999998890 ) ) ;
#176 = ORIENTED_EDGE ( 'NONE', *, *, #896, .F. ) ;
#177 = DIRECTION ( 'NONE',  ( 0.000000000000000000, 1.000000000000000000, 0.000000000000000000 ) ) ;
#178 = ORIENTED_EDGE ( 'NONE', *, *, #1133, .T. ) ;
#179 = CARTESIAN_POINT ( 'NONE',  ( 0.000000000000000000, 10.99999999999999645, 0.000000000000000000 ) ) ;
#180 = EDGE_CURVE ( 'NONE', #670, #35, #821, .T. ) ;
#181 = CIRCLE ( 'NONE', #509, 8.949999999999999289 ) ;
#182 = CARTESIAN_POINT ( 'NONE',  ( 0.000000000000000000, 12.69999999999998863, 1.750000000000000000 ) ) ;
#183 = EDGE_LOOP ( 'NONE', ( #51, #1115, #514, #757 ) ) ;
#184 = VECTOR ( 'NONE', #532, 1000.000000000000000 ) ;
#185 = ORIENTED_EDGE ( 'NONE', *, *, #745, .T. ) ;
#186 = FACE_OUTER_BOUND ( 'NONE', #593, .T. ) ;
#187 = FACE_OUTER_BOUND ( 'NONE', #416, .T. ) ;
#188 = ORIENTED_EDGE ( 'NONE', *, *, #708, .T. ) ;
#189 = CIRCLE ( 'NONE', #1007, 3.150000000000000355 ) ;
#190 = DIRECTION ( 'NONE',  ( 0.000000000000000000, 0.000000000000000000, 1.000000000000000000 ) ) ;
#191 = CARTESIAN_POINT ( 'NONE',  ( 0.000000000000000000, 12.69999999999998863, 0.000000000000000000 ) ) ;
#192 = VERTEX_POINT ( 'NONE', #666 ) ;
#193 = ADVANCED_FACE ( 'NONE', ( #1015 ), #1038, .T. ) ;
#194 = DIRECTION ( 'NONE',  ( 0.000000000000000000, 1.000000000000000000, 0.000000000000000000 ) ) ;
#195 = DIRECTION ( 'NONE',  ( 0.000000000000000000, 0.000000000000000000, 1.000000000000000000 ) ) ;
#196 = CARTESIAN_POINT ( 'NONE',  ( 1.387778780781445676E-14, 11.39999999999999325, 1.387778780781445676E-14 ) ) ;
#197 = DIRECTION ( 'NONE',  ( 0.000000000000000000, -1.000000000000000000, 0.000000000000000000 ) ) ;
#198 = DIRECTION ( 'NONE',  ( 0.000000000000000000, 0.000000000000000000, -1.000000000000000000 ) ) ;
#199 = ORIENTED_EDGE ( 'NONE', *, *, #1066, .T. ) ;
#200 = VERTEX_POINT ( 'NONE', #824 ) ;
#201 = CIRCLE ( 'NONE', #476, 3.025000000000000799 ) ;
#202 = CC_DESIGN_APPROVAL ( #795, ( #518 ) ) ;
#203 = FACE_OUTER_BOUND ( 'NONE', #776, .T. ) ;
#204 = EDGE_CURVE ( 'NONE', #855, #35, #469, .T. ) ;
#205 = CARTESIAN_POINT ( 'NONE',  ( 2.143131898507868297E-16, 12.69999999999998863, -1.750000000000000000 ) ) ;
#206 = CARTESIAN_POINT ( 'NONE',  ( 1.387778780781445676E-14, 4.200000000000009059, 1.387778780781445676E-14 ) ) ;
#207 = CONICAL_SURFACE ( 'NONE', #502, 3.025000000000000799, 1.047197551196600074 ) ;
#208 = EDGE_LOOP ( 'NONE', ( #248, #87, #700, #1145 ) ) ;
#209 = DIRECTION ( 'NONE',  ( 0.000000000000000000, 1.000000000000000000, 0.000000000000000000 ) ) ;
#210 = PLANE ( 'NONE',  #957 ) ;
#211 = EDGE_CURVE ( 'NONE', #674, #410, #734, .T. ) ;
#212 = DIRECTION ( 'NONE',  ( 0.000000000000000000, 1.000000000000000000, 0.000000000000000000 ) ) ;
#213 = AXIS2_PLACEMENT_3D ( 'NONE', #1146, #808, #703 ) ;
#214 = ORIENTED_EDGE ( 'NONE', *, *, #1003, .F. ) ;
#215 = AXIS2_PLACEMENT_3D ( 'NONE', #265, #103, #713 ) ;
#216 = LINE ( 'NONE', #565, #286 ) ;
#217 = CARTESIAN_POINT ( 'NONE',  ( 7.890384256887130299, 11.19999999999998863, 4.224255707064584087 ) ) ;
#218 = ORIENTED_EDGE ( 'NONE', *, *, #501, .F. ) ;
#219 = EDGE_CURVE ( 'NONE', #1097, #338, #157, .T. ) ;
#220 = CIRCLE ( 'NONE', #830, 1.499999999999998890 ) ;
#221 = DIRECTION ( 'NONE',  ( 0.000000000000000000, 1.000000000000000000, 0.000000000000000000 ) ) ;
#222 = DIRECTION ( 'NONE',  ( 0.000000000000000000, 1.000000000000000000, 0.000000000000000000 ) ) ;
#223 = VERTEX_POINT ( 'NONE', #120 ) ;
#224 = PRODUCT_DEFINITION ( 'UNKNOWN', '', #278, #783 ) ;
#225 = ORIENTED_EDGE ( 'NONE', *, *, #211, .F. ) ;
#226 = PLANE ( 'NONE',  #424 ) ;
#227 = PERSON_AND_ORGANIZATION_ROLE ( 'creator' ) ;
#228 = DIRECTION ( 'NONE',  ( -0.000000000000000000, 1.000000000000000000, -0.000000000000000000 ) ) ;
#229 = CARTESIAN_POINT ( 'NONE',  ( -4.946598422480293245, 11.02000000000000135, 4.952894511971332570 ) ) ;
#230 = AXIS2_PLACEMENT_3D ( 'NONE', #1095, #932, #728 ) ;
#231 = ORIENTED_EDGE ( 'NONE', *, *, #540, .F. ) ;
#232 = VERTEX_POINT ( 'NONE', #474 ) ;
#233 = APPROVAL_ROLE ( '' ) ;
#234 = CARTESIAN_POINT ( 'NONE',  ( 0.000000000000000000, 11.39999999999999325, 8.949999999999999289 ) ) ;
#235 = CYLINDRICAL_SURFACE ( 'NONE', #259, 3.024999999999999911 ) ;
#236 = VERTEX_POINT ( 'NONE', #831 ) ;
#237 = ORIENTED_EDGE ( 'NONE', *, *, #613, .F. ) ;
#238 = LINE ( 'NONE', #419, #1028 ) ;
#239 = PERSON_AND_ORGANIZATION_ROLE ( 'creator' ) ;
#240 = AXIS2_PLACEMENT_3D ( 'NONE', #678, #843, #767 ) ;
#241 = FACE_OUTER_BOUND ( 'NONE', #470, .T. ) ;
#242 = EDGE_CURVE ( 'NONE', #670, #351, #389, .T. ) ;
#243 = ORIENTED_EDGE ( 'NONE', *, *, #606, .F. ) ;
#244 = ORIENTED_EDGE ( 'NONE', *, *, #958, .F. ) ;
#245 = CARTESIAN_POINT ( 'NONE',  ( 0.000000000000000000, 12.69999999999998863, 0.000000000000000000 ) ) ;
#246 = LINE ( 'NONE', #529, #900 ) ;
#247 = EDGE_CURVE ( 'NONE', #373, #627, #507, .T. ) ;
#248 = ORIENTED_EDGE ( 'NONE', *, *, #308, .T. ) ;
#249 = CIRCLE ( 'NONE', #213, 1.499999999999998890 ) ;
#250 = CIRCLE ( 'NONE', #963, 8.949999999999999289 ) ;
#251 = ORIENTED_EDGE ( 'NONE', *, *, #128, .F. ) ;
#252 = DIRECTION ( 'NONE',  ( 0.000000000000000000, -1.000000000000000000, 0.000000000000000000 ) ) ;
#253 = EDGE_LOOP ( 'NONE', ( #619, #384 ) ) ;
#254 = DIRECTION ( 'NONE',  ( 0.000000000000000000, 1.000000000000000000, 0.000000000000000000 ) ) ;
#255 = EDGE_LOOP ( 'NONE', ( #642, #599, #522, #659 ) ) ;
#256 = EDGE_CURVE ( 'NONE', #349, #510, #41, .T. ) ;
#257 = CARTESIAN_POINT ( 'NONE',  ( 3.857637417314163182E-16, 12.69999999999998863, 3.150000000000000355 ) ) ;
#258 = VERTEX_POINT ( 'NONE', #760 ) ;
#259 = AXIS2_PLACEMENT_3D ( 'NONE', #587, #260, #864 ) ;
#260 = DIRECTION ( 'NONE',  ( -0.000000000000000000, -1.000000000000000000, 0.000000000000000000 ) ) ;
#261 = VERTEX_POINT ( 'NONE', #1121 ) ;
#262 = EDGE_CURVE ( 'NONE', #429, #763, #690, .T. ) ;
#263 = AXIS2_PLACEMENT_3D ( 'NONE', #1087, #221, #1082 ) ;
#264 = ORIENTED_EDGE ( 'NONE', *, *, #425, .F. ) ;
#265 = CARTESIAN_POINT ( 'NONE',  ( 4.952894511971281055, 11.02000000000000135, 4.946598422480344759 ) ) ;
#266 = CARTESIAN_POINT ( 'NONE',  ( 7.914605571054002198, 10.99999999999999645, 4.178698200952175590 ) ) ;
#267 = DIRECTION ( 'NONE',  ( 0.000000000000000000, -0.000000000000000000, 1.000000000000000000 ) ) ;
#268 = AXIS2_PLACEMENT_3D ( 'NONE', #179, #625, #19 ) ;
#269 = CYLINDRICAL_SURFACE ( 'NONE', #268, 8.949999999999999289 ) ;
#270 = CIRCLE ( 'NONE', #480, 1.750000000000000000 ) ;
#271 = DIRECTION ( 'NONE',  ( 0.000000000000000000, 1.000000000000000000, 0.000000000000000000 ) ) ;
#272 = DIRECTION ( 'NONE',  ( 0.000000000000000000, 1.000000000000000000, 0.000000000000000000 ) ) ;
#273 = DIRECTION ( 'NONE',  ( -0.000000000000000000, 1.000000000000000000, -0.000000000000000000 ) ) ;
#274 = DIRECTION ( 'NONE',  ( 0.000000000000000000, 0.000000000000000000, 1.000000000000000000 ) ) ;
#275 = ADVANCED_FACE ( 'NONE', ( #65 ), #949, .F. ) ;
#276 = DIRECTION ( 'NONE',  ( 0.000000000000000000, -0.000000000000000000, 1.000000000000000000 ) ) ;
#277 = AXIS2_PLACEMENT_3D ( 'NONE', #990, #382, #28 ) ;
#278 = PRODUCT_DEFINITION_FORMATION_WITH_SPECIFIED_SOURCE ( 'ANY', '', #293, .NOT_KNOWN. ) ;
#279 = CARTESIAN_POINT ( 'NONE',  ( -4.234288873483544435, 10.99999999999999645, -7.885004612293734283 ) ) ;
#280 =( NAMED_UNIT ( * ) PLANE_ANGLE_UNIT ( ) SI_UNIT ( $, .RADIAN. ) );
#281 = CARTESIAN_POINT ( 'NONE',  ( -7.885004612293688986, 10.99999999999999645, 4.234288873483627036 ) ) ;
#282 = EDGE_CURVE ( 'NONE', #663, #687, #786, .T. ) ;
#283 = CONICAL_SURFACE ( 'NONE', #1098, 11.05000000000000071, 0.9827937232473301643 ) ;
#284 = CARTESIAN_POINT ( 'NONE',  ( -4.224255707064501486, 11.19999999999998863, 7.890384256887174708 ) ) ;
#285 = CARTESIAN_POINT ( 'NONE',  ( 1.530808498934191571E-16, 0.000000000000000000, 1.250000000000000000 ) ) ;
#286 = VECTOR ( 'NONE', #197, 1000.000000000000000 ) ;
#287 = PLANE ( 'NONE',  #967 ) ;
#288 = ADVANCED_FACE ( 'NONE', ( #241 ), #511, .T. ) ;
#289 = CIRCLE ( 'NONE', #934, 1.250000000000000000 ) ;
#290 = CARTESIAN_POINT ( 'NONE',  ( 0.000000000000000000, 10.99999999999999645, 8.949999999999999289 ) ) ;
#291 = DIRECTION ( 'NONE',  ( 0.000000000000000000, 0.000000000000000000, -1.000000000000000000 ) ) ;
#292 = CARTESIAN_POINT ( 'NONE',  ( -4.952894511971281055, 11.02000000000000135, -4.946598422480344759 ) ) ;
#293 = PRODUCT ( 'disco_hub_Predeterminado_sldprt', 'disco_hub_Predeterminado_sldprt', '', ( #300 ) ) ;
#294 = EDGE_CURVE ( 'NONE', #298, #84, #452, .T. ) ;
#295 = FACE_OUTER_BOUND ( 'NONE', #1004, .T. ) ;
#296 = DIRECTION ( 'NONE',  ( 0.000000000000000000, 0.000000000000000000, 1.000000000000000000 ) ) ;
#297 = CARTESIAN_POINT ( 'NONE',  ( 4.224255707064555665, 10.99999999999999645, -7.890384256887145398 ) ) ;
#298 = VERTEX_POINT ( 'NONE', #493 ) ;
#299 = CARTESIAN_POINT ( 'NONE',  ( 0.000000000000000000, 10.99999999999999645, 0.000000000000000000 ) ) ;
#300 = MECHANICAL_CONTEXT ( 'NONE', #779, 'mechanical' ) ;
#301 = AXIS2_PLACEMENT_3D ( 'NONE', #499, #602, #505 ) ;
#302 = CARTESIAN_POINT ( 'NONE',  ( 7.885004612293718296, 11.39999999999999325, -4.234288873483571081 ) ) ;
#303 = EDGE_CURVE ( 'NONE', #504, #410, #771, .T. ) ;
#304 = CARTESIAN_POINT ( 'NONE',  ( 0.000000000000000000, 9.699999999999986855, 1.499999999999998890 ) ) ;
#305 = EDGE_LOOP ( 'NONE', ( #1091, #794, #322, #315, #601, #218, #929, #105, #264, #251, #961 ) ) ;
#306 = DIRECTION ( 'NONE',  ( 0.000000000000000000, 0.000000000000000000, 1.000000000000000000 ) ) ;
#307 = DIRECTION ( 'NONE',  ( 0.000000000000000000, 0.000000000000000000, 1.000000000000000000 ) ) ;
#308 = EDGE_CURVE ( 'NONE', #223, #236, #978, .T. ) ;
#309 = ORIENTED_EDGE ( 'NONE', *, *, #952, .F. ) ;
#310 = ORIENTED_EDGE ( 'NONE', *, *, #854, .T. ) ;
#311 = CYLINDRICAL_SURFACE ( 'NONE', #7, 8.949999999999999289 ) ;
#312 = PERSON_AND_ORGANIZATION ( #891, #461 ) ;
#313 = CARTESIAN_POINT ( 'NONE',  ( -7.885004612293688986, 11.19999999999998863, 4.234288873483627036 ) ) ;
#314 = DIRECTION ( 'NONE',  ( -0.000000000000000000, 1.000000000000000000, -0.000000000000000000 ) ) ;
#315 = ORIENTED_EDGE ( 'NONE', *, *, #515, .F. ) ;
#316 = ORIENTED_EDGE ( 'NONE', *, *, #138, .F. ) ;
#317 = DIRECTION ( 'NONE',  ( 0.000000000000000000, 0.000000000000000000, 1.000000000000000000 ) ) ;
#318 = FACE_OUTER_BOUND ( 'NONE', #5, .T. ) ;
#319 = AXIS2_PLACEMENT_3D ( 'NONE', #1027, #936, #1126 ) ;
#320 = ORIENTED_EDGE ( 'NONE', *, *, #540, .T. ) ;
#321 = EDGE_CURVE ( 'NONE', #885, #1055, #805, .T. ) ;
#322 = ORIENTED_EDGE ( 'NONE', *, *, #545, .F. ) ;
#323 = DIRECTION ( 'NONE',  ( 0.000000000000000000, -0.000000000000000000, 1.000000000000000000 ) ) ;
#324 = PERSON_AND_ORGANIZATION_ROLE ( 'classification_officer' ) ;
#325 = DIRECTION ( 'NONE',  ( 1.000000000000000000, 0.000000000000000000, -3.440773836648211460E-15 ) ) ;
#326 = AXIS2_PLACEMENT_3D ( 'NONE', #706, #883, #552 ) ;
#327 = DIRECTION ( 'NONE',  ( -1.000000000000000000, 0.000000000000000000, 1.060905266299865141E-14 ) ) ;
#328 = ORIENTED_EDGE ( 'NONE', *, *, #669, .F. ) ;
#329 = ORIENTED_EDGE ( 'NONE', *, *, #1046, .T. ) ;
#330 = CARTESIAN_POINT ( 'NONE',  ( 4.952894511971281055, 11.39999999999999325, 4.946598422480344759 ) ) ;
#331 = EDGE_CURVE ( 'NONE', #356, #232, #466, .T. ) ;
#332 = CARTESIAN_POINT ( 'NONE',  ( 1.387778780781445676E-14, 4.200000000000009059, 11.05000000000001492 ) ) ;
#333 = DIRECTION ( 'NONE',  ( -0.000000000000000000, 1.000000000000000000, -0.000000000000000000 ) ) ;
#334 = ORIENTED_EDGE ( 'NONE', *, *, #769, .F. ) ;
#335 = VERTEX_POINT ( 'NONE', #234 ) ;
#336 = DIRECTION ( 'NONE',  ( 0.000000000000000000, 1.000000000000000000, 0.000000000000000000 ) ) ;
#337 = CARTESIAN_POINT ( 'NONE',  ( 1.387778780781445676E-14, 4.200000000000009059, 1.387778780781445676E-14 ) ) ;
#338 = VERTEX_POINT ( 'NONE', #408 ) ;
#339 = CARTESIAN_POINT ( 'NONE',  ( 7.885004612293718296, 10.50999999999999091, -4.234288873483571969 ) ) ;
#340 = ADVANCED_FACE ( 'NONE', ( #71 ), #677, .T. ) ;
#341 = EDGE_LOOP ( 'NONE', ( #965, #770 ) ) ;
#342 = AXIS2_PLACEMENT_3D ( 'NONE', #780, #847, #344 ) ;
#343 = CIRCLE ( 'NONE', #1043, 8.949999999999999289 ) ;
#344 = DIRECTION ( 'NONE',  ( 0.000000000000000000, 0.000000000000000000, -1.000000000000000000 ) ) ;
#345 = EDGE_LOOP ( 'NONE', ( #524, #1118, #955, #172 ) ) ;
#346 = CARTESIAN_POINT ( 'NONE',  ( -4.946598422480293245, 11.02000000000000135, 4.952894511971332570 ) ) ;
#347 = ORIENTED_EDGE ( 'NONE', *, *, #138, .T. ) ;
#348 = EDGE_CURVE ( 'NONE', #258, #159, #436, .T. ) ;
#349 = VERTEX_POINT ( 'NONE', #257 ) ;
#350 = CARTESIAN_POINT ( 'NONE',  ( 0.000000000000000000, 12.69999999999998863, 0.000000000000000000 ) ) ;
#351 = VERTEX_POINT ( 'NONE', #852 ) ;
#352 = AXIS2_PLACEMENT_3D ( 'NONE', #752, #1002, #567 ) ;
#353 = DIRECTION ( 'NONE',  ( -0.000000000000000000, 1.000000000000000000, -0.000000000000000000 ) ) ;
#354 = DIRECTION ( 'NONE',  ( 0.000000000000000000, 1.000000000000000000, 0.000000000000000000 ) ) ;
#355 = CIRCLE ( 'NONE', #263, 3.150000000000000355 ) ;
#356 = VERTEX_POINT ( 'NONE', #586 ) ;
#357 = CYLINDRICAL_SURFACE ( 'NONE', #43, 8.949999999999999289 ) ;
#358 = CARTESIAN_POINT ( 'NONE',  ( 1.523102252087228204E-14, 11.39999999999999325, 11.05000000000001492 ) ) ;
#359 = DIRECTION ( 'NONE',  ( 0.000000000000000000, 0.000000000000000000, 1.000000000000000000 ) ) ;
#360 = AXIS2_PLACEMENT_3D ( 'NONE', #995, #212, #914 ) ;
#361 = ADVANCED_FACE ( 'NONE', ( #148 ), #78, .T. ) ;
#362 = PLANE ( 'NONE',  #215 ) ;
#363 = CARTESIAN_POINT ( 'NONE',  ( 4.219126183912144334, 11.01335392507853150, 7.893147056198481337 ) ) ;
#364 = LINE ( 'NONE', #543, #490 ) ;
#365 = CARTESIAN_POINT ( 'NONE',  ( -7.885004612293688986, 11.02000000000000135, 4.234288873483627036 ) ) ;
#366 = ADVANCED_FACE ( 'NONE', ( #168 ), #283, .T. ) ;
#367 = CARTESIAN_POINT ( 'NONE',  ( -4.946598422480293245, 11.02000000000000135, 4.952894511971332570 ) ) ;
#368 = LINE ( 'NONE', #616, #184 ) ;
#369 = AXIS2_PLACEMENT_3D ( 'NONE', #626, #551, #903 ) ;
#370 = CARTESIAN_POINT ( 'NONE',  ( -4.952894511971281055, 12.70099999999998985, -7.971598422480346002 ) ) ;
#371 = FACE_OUTER_BOUND ( 'NONE', #13, .T. ) ;
#372 = EDGE_CURVE ( 'NONE', #68, #261, #62, .T. ) ;
#373 = VERTEX_POINT ( 'NONE', #943 ) ;
#374 = AXIS2_PLACEMENT_3D ( 'NONE', #1042, #252, #420 ) ;
#375 = DIRECTION ( 'NONE',  ( 0.000000000000000000, 0.000000000000000000, 1.000000000000000000 ) ) ;
#376 = CARTESIAN_POINT ( 'NONE',  ( 0.000000000000000000, 2.199999999999993516, 0.000000000000000000 ) ) ;
#377 = VECTOR ( 'NONE', #381, 1000.000000000000000 ) ;
#378 = CARTESIAN_POINT ( 'NONE',  ( 0.000000000000000000, 9.699999999999986855, 0.000000000000000000 ) ) ;
#379 = EDGE_CURVE ( 'NONE', #687, #223, #250, .T. ) ;
#380 = AXIS2_PLACEMENT_3D ( 'NONE', #18, #450, #723 ) ;
#381 = DIRECTION ( 'NONE',  ( -0.000000000000000000, -1.000000000000000000, -0.000000000000000000 ) ) ;
#382 = DIRECTION ( 'NONE',  ( 0.000000000000000000, 1.000000000000000000, 0.000000000000000000 ) ) ;
#383 = DIRECTION ( 'NONE',  ( 0.000000000000000000, -1.000000000000000000, 0.000000000000000000 ) ) ;
#384 = ORIENTED_EDGE ( 'NONE', *, *, #860, .T. ) ;
#385 = AXIS2_PLACEMENT_3D ( 'NONE', #867, #430, #323 ) ;
#386 = AXIS2_PLACEMENT_3D ( 'NONE', #330, #862, #1119 ) ;
#387 = CARTESIAN_POINT ( 'NONE',  ( 0.000000000000000000, 10.99999999999999645, 0.000000000000000000 ) ) ;
#388 = PERSON_AND_ORGANIZATION ( #891, #461 ) ;
#389 = LINE ( 'NONE', #217, #893 ) ;
#390 = ORIENTED_EDGE ( 'NONE', *, *, #788, .F. ) ;
#391 = DIRECTION ( 'NONE',  ( -0.000000000000000000, 1.000000000000000000, -0.000000000000000000 ) ) ;
#392 = EDGE_CURVE ( 'NONE', #526, #679, #764, .T. ) ;
#393 = AXIS2_PLACEMENT_3D ( 'NONE', #378, #842, #1085 ) ;
#394 = CARTESIAN_POINT ( 'NONE',  ( 0.000000000000000000, 0.000000000000000000, 0.000000000000000000 ) ) ;
#395 = LINE ( 'NONE', #115, #671 ) ;
#396 = CARTESIAN_POINT ( 'NONE',  ( -4.952894511971281055, 11.02000000000000135, -4.946598422480344759 ) ) ;
#397 = ORIENTED_EDGE ( 'NONE', *, *, #417, .F. ) ;
#398 = ORIENTED_EDGE ( 'NONE', *, *, #348, .T. ) ;
#399 = LINE ( 'NONE', #901, #956 ) ;
#400 = APPROVAL_ROLE ( '' ) ;
#401 = ADVANCED_FACE ( 'NONE', ( #11 ), #269, .F. ) ;
#402 = CARTESIAN_POINT ( 'NONE',  ( 4.224255707064555665, 11.19999999999998863, -7.890384256887145398 ) ) ;
#403 = LINE ( 'NONE', #142, #660 ) ;
#404 = ORIENTED_EDGE ( 'NONE', *, *, #576, .T. ) ;
#405 = VECTOR ( 'NONE', #161, 1000.000000000000000 ) ;
#406 = EDGE_LOOP ( 'NONE', ( #52, #136, #921, #603 ) ) ;
#407 = AXIS2_PLACEMENT_3D ( 'NONE', #23, #113, #274 ) ;
#408 = CARTESIAN_POINT ( 'NONE',  ( 0.000000000000000000, 0.000000000000000000, -1.250000000000000000 ) ) ;
#409 = DIRECTION ( 'NONE',  ( 0.000000000000000000, 0.000000000000000000, -1.000000000000000000 ) ) ;
#410 = VERTEX_POINT ( 'NONE', #802 ) ;
#411 = ADVANCED_FACE ( 'NONE', ( #1074 ), #1070, .T. ) ;
#412 = ORIENTED_EDGE ( 'NONE', *, *, #69, .T. ) ;
#413 = PERSON_AND_ORGANIZATION ( #891, #461 ) ;
#414 = CARTESIAN_POINT ( 'NONE',  ( 4.946598422480327883, 11.39999999999999325, -4.952894511971297931 ) ) ;
#415 = CYLINDRICAL_SURFACE ( 'NONE', #240, 11.05000000000000071 ) ;
#416 = EDGE_LOOP ( 'NONE', ( #789, #1143, #844, #42 ) ) ;
#417 = EDGE_CURVE ( 'NONE', #35, #670, #24, .T. ) ;
#418 = VERTEX_POINT ( 'NONE', #365 ) ;
#419 = CARTESIAN_POINT ( 'NONE',  ( -4.234288873483544435, 11.19999999999998863, -7.885004612293734283 ) ) ;
#420 = DIRECTION ( 'NONE',  ( 0.000000000000000000, 0.000000000000000000, -1.000000000000000000 ) ) ;
#421 = CARTESIAN_POINT ( 'NONE',  ( 2.143131898507868297E-16, 12.69999999999998863, -1.750000000000000000 ) ) ;
#422 = ORIENTED_EDGE ( 'NONE', *, *, #321, .F. ) ;
#423 = EDGE_LOOP ( 'NONE', ( #859, #1110, #244, #151 ) ) ;
#424 = AXIS2_PLACEMENT_3D ( 'NONE', #396, #154, #926 ) ;
#425 = EDGE_CURVE ( 'NONE', #647, #832, #725, .T. ) ;
#426 = DIRECTION ( 'NONE',  ( 0.000000000000000000, 1.000000000000000000, 0.000000000000000000 ) ) ;
#427 = DIRECTION ( 'NONE',  ( 0.000000000000000000, 1.000000000000000000, 0.000000000000000000 ) ) ;
#428 = ORIENTED_EDGE ( 'NONE', *, *, #902, .T. ) ;
#429 = VERTEX_POINT ( 'NONE', #175 ) ;
#430 = DIRECTION ( 'NONE',  ( 0.000000000000000000, 1.000000000000000000, 0.000000000000000000 ) ) ;
#431 = DIRECTION ( 'NONE',  ( -0.000000000000000000, -1.000000000000000000, -0.000000000000000000 ) ) ;
#432 = CC_DESIGN_PERSON_AND_ORGANIZATION_ASSIGNMENT ( #924, #1026, ( #293 ) ) ;
#433 = EDGE_LOOP ( 'NONE', ( #927, #1030 ) ) ;
#434 = DIRECTION ( 'NONE',  ( -0.000000000000000000, 1.000000000000000000, -0.000000000000000000 ) ) ;
#435 = ORIENTED_EDGE ( 'NONE', *, *, #36, .F. ) ;
#436 = CIRCLE ( 'NONE', #319, 3.059641016151388282 ) ;
#437 = CIRCLE ( 'NONE', #618, 3.025000000000000799 ) ;
#438 = DIRECTION ( 'NONE',  ( 0.000000000000000000, 1.000000000000000000, 0.000000000000000000 ) ) ;
#439 = ORIENTED_EDGE ( 'NONE', *, *, #661, .T. ) ;
#440 = CARTESIAN_POINT ( 'NONE',  ( -4.952894511971281055, 12.70099999999998985, -4.946598422480344759 ) ) ;
#441 = CIRCLE ( 'NONE', #583, 3.025000000000000799 ) ;
#442 = ORIENTED_EDGE ( 'NONE', *, *, #483, .F. ) ;
#443 = DIRECTION ( 'NONE',  ( -0.000000000000000000, -1.000000000000000000, -0.000000000000000000 ) ) ;
#444 = VECTOR ( 'NONE', #254, 1000.000000000000000 ) ;
#445 = DIRECTION ( 'NONE',  ( 0.000000000000000000, 1.000000000000000000, 0.000000000000000000 ) ) ;
#446 = ORIENTED_EDGE ( 'NONE', *, *, #600, .T. ) ;
#447 = ADVANCED_FACE ( 'NONE', ( #977 ), #837, .F. ) ;
#448 = DIRECTION ( 'NONE',  ( 0.000000000000000000, -1.000000000000000000, 0.000000000000000000 ) ) ;
#449 = DIRECTION ( 'NONE',  ( 1.000000000000000000, 0.000000000000000000, -3.491481338843133355E-15 ) ) ;
#450 = DIRECTION ( 'NONE',  ( 0.000000000000000000, -1.000000000000000000, 0.000000000000000000 ) ) ;
#451 = EDGE_CURVE ( 'NONE', #763, #429, #249, .T. ) ;
#452 = CIRCLE ( 'NONE', #617, 8.949999999999999289 ) ;
#453 = DIRECTION ( 'NONE',  ( 0.000000000000000000, 1.000000000000000000, 0.000000000000000000 ) ) ;
#454 = CARTESIAN_POINT ( 'NONE',  ( 1.387778780781445676E-14, 2.199999999999993516, 1.387778780781445676E-14 ) ) ;
#455 = CARTESIAN_POINT ( 'NONE',  ( 0.000000000000000000, 11.39999999999999325, 0.000000000000000000 ) ) ;
#456 = LINE ( 'NONE', #284, #998 ) ;
#457 = EDGE_CURVE ( 'NONE', #298, #491, #1041, .T. ) ;
#458 = DIRECTION ( 'NONE',  ( 0.000000000000000000, 1.000000000000000000, 0.000000000000000000 ) ) ;
#459 = ORIENTED_EDGE ( 'NONE', *, *, #98, .F. ) ;
#460 = AXIS2_PLACEMENT_3D ( 'NONE', #488, #581, #40 ) ;
#461 = ORGANIZATION ( 'UNSPECIFIED', 'UNSPECIFIED', '' ) ;
#462 = DIRECTION ( 'NONE',  ( 0.000000000000000000, 0.000000000000000000, 1.000000000000000000 ) ) ;
#463 = FACE_OUTER_BOUND ( 'NONE', #612, .T. ) ;
#464 = EDGE_CURVE ( 'NONE', #236, #910, #634, .T. ) ;
#465 = DIRECTION ( 'NONE',  ( 1.000000000000000000, 0.000000000000000000, -3.440773836648211460E-15 ) ) ;
#466 = CIRCLE ( 'NONE', #82, 3.025000000000000799 ) ;
#467 = DIRECTION ( 'NONE',  ( 0.000000000000000000, 1.000000000000000000, 0.000000000000000000 ) ) ;
#468 = CYLINDRICAL_SURFACE ( 'NONE', #407, 8.949999999999999289 ) ;
#469 = LINE ( 'NONE', #29, #544 ) ;
#470 = EDGE_LOOP ( 'NONE', ( #1039, #489 ) ) ;
#471 = AXIS2_PLACEMENT_3D ( 'NONE', #904, #110, #465 ) ;
#472 = DIRECTION ( 'NONE',  ( -0.000000000000000000, 1.000000000000000000, -0.000000000000000000 ) ) ;
#473 = APPROVAL_STATUS ( 'not_yet_approved' ) ;
#474 = CARTESIAN_POINT ( 'NONE',  ( 4.946598422480327883, 11.02000000000000135, -7.977894511971298286 ) ) ;
#475 = EDGE_LOOP ( 'NONE', ( #554, #1022, #178 ) ) ;
#476 = AXIS2_PLACEMENT_3D ( 'NONE', #969, #888, #870 ) ;
#477 = ADVANCED_FACE ( 'NONE', ( #881 ), #362, .T. ) ;
#478 = CARTESIAN_POINT ( 'NONE',  ( 4.946598422480327883, 11.39999999999999325, -4.952894511971297931 ) ) ;
#479 = CARTESIAN_POINT ( 'NONE',  ( -4.946598422480293245, 11.02000000000000135, 4.952894511971332570 ) ) ;
#480 = AXIS2_PLACEMENT_3D ( 'NONE', #112, #467, #26 ) ;
#481 = LINE ( 'NONE', #495, #1051 ) ;
#482 = ORIENTED_EDGE ( 'NONE', *, *, #174, .T. ) ;
#483 = EDGE_CURVE ( 'NONE', #975, #169, #1081, .T. ) ;
#484 = ORIENTED_EDGE ( 'NONE', *, *, #661, .F. ) ;
#485 = DIRECTION ( 'NONE',  ( 0.000000000000000000, 0.000000000000000000, 1.000000000000000000 ) ) ;
#486 = DIRECTION ( 'NONE',  ( 1.000000000000000000, 0.000000000000000000, 0.000000000000000000 ) ) ;
#487 = FACE_OUTER_BOUND ( 'NONE', #735, .T. ) ;
#488 = CARTESIAN_POINT ( 'NONE',  ( 1.387778780781445676E-14, 4.200000000000009059, 1.387778780781445676E-14 ) ) ;
#489 = ORIENTED_EDGE ( 'NONE', *, *, #262, .T. ) ;
#490 = VECTOR ( 'NONE', #894, 1000.000000000000000 ) ;
#491 = VERTEX_POINT ( 'NONE', #279 ) ;
#492 = COORDINATED_UNIVERSAL_TIME_OFFSET ( 5, 0, .BEHIND. ) ;
#493 = CARTESIAN_POINT ( 'NONE',  ( -7.890384256887130299, 10.99999999999999645, -4.224255707064584975 ) ) ;
#494 = EDGE_CURVE ( 'NONE', #526, #373, #456, .T. ) ;
#495 = CARTESIAN_POINT ( 'NONE',  ( -4.946598422480293245, 11.02000000000000135, 1.927894511971332880 ) ) ;
#496 = EDGE_LOOP ( 'NONE', ( #243, #845, #801, #117 ) ) ;
#497 = VERTEX_POINT ( 'NONE', #523 ) ;
#498 = PERSON_AND_ORGANIZATION ( #891, #461 ) ;
#499 = CARTESIAN_POINT ( 'NONE',  ( 0.000000000000000000, 9.699999999999986855, 0.000000000000000000 ) ) ;
#500 = LINE ( 'NONE', #421, #607 ) ;
#501 = EDGE_CURVE ( 'NONE', #335, #855, #343, .T. ) ;
#502 = AXIS2_PLACEMENT_3D ( 'NONE', #1005, #130, #732 ) ;
#503 = ORIENTED_EDGE ( 'NONE', *, *, #958, .T. ) ;
#504 = VERTEX_POINT ( 'NONE', #812 ) ;
#505 = DIRECTION ( 'NONE',  ( 0.000000000000000000, -0.000000000000000000, 1.000000000000000000 ) ) ;
#506 = FACE_OUTER_BOUND ( 'NONE', #345, .T. ) ;
#507 = CIRCLE ( 'NONE', #712, 3.025000000000000799 ) ;
#508 = EDGE_LOOP ( 'NONE', ( #328, #851, #512, #134 ) ) ;
#509 = AXIS2_PLACEMENT_3D ( 'NONE', #968, #614, #535 ) ;
#510 = VERTEX_POINT ( 'NONE', #1054 ) ;
#511 = PLANE ( 'NONE',  #301 ) ;
#512 = ORIENTED_EDGE ( 'NONE', *, *, #211, .T. ) ;
#513 = DIRECTION ( 'NONE',  ( 0.000000000000000000, 0.000000000000000000, 1.000000000000000000 ) ) ;
#514 = ORIENTED_EDGE ( 'NONE', *, *, #331, .F. ) ;
#515 = EDGE_CURVE ( 'NONE', #351, #166, #181, .T. ) ;
#516 = FACE_BOUND ( 'NONE', #853, .T. ) ;
#517 = CIRCLE ( 'NONE', #460, 11.05000000000000071 ) ;
#518 = SECURITY_CLASSIFICATION ( '', '', #765 ) ;
#519 = CARTESIAN_POINT ( 'NONE',  ( 0.000000000000000000, 9.699999999999986855, 0.000000000000000000 ) ) ;
#520 = LINE ( 'NONE', #697, #716 ) ;
#521 = ORIENTED_EDGE ( 'NONE', *, *, #515, .T. ) ;
#522 = ORIENTED_EDGE ( 'NONE', *, *, #989, .T. ) ;
#523 = CARTESIAN_POINT ( 'NONE',  ( 4.224255707064555665, 11.02000000000000135, -7.890384256887145398 ) ) ;
#524 = ORIENTED_EDGE ( 'NONE', *, *, #156, .F. ) ;
#525 = CARTESIAN_POINT ( 'NONE',  ( 4.946598422480327883, 11.02000000000000135, -4.952894511971297931 ) ) ;
#526 = VERTEX_POINT ( 'NONE', #962 ) ;
#527 = AXIS2_PLACEMENT_3D ( 'NONE', #245, #431, #153 ) ;
#528 = DIRECTION ( 'NONE',  ( 0.000000000000000000, 0.000000000000000000, -1.000000000000000000 ) ) ;
#529 = CARTESIAN_POINT ( 'NONE',  ( -7.890384256887130299, 11.19999999999998863, -4.224255707064584087 ) ) ;
#530 = ADVANCED_FACE ( 'NONE', ( #186 ), #721, .T. ) ;
#531 = CIRCLE ( 'NONE', #326, 1.499999999999998890 ) ;
#532 = DIRECTION ( 'NONE',  ( -0.000000000000000000, 1.000000000000000000, -0.000000000000000000 ) ) ;
#533 = ORIENTED_EDGE ( 'NONE', *, *, #282, .T. ) ;
#534 = AXIS2_PLACEMENT_3D ( 'NONE', #229, #1102, #409 ) ;
#535 = DIRECTION ( 'NONE',  ( 0.000000000000000000, 0.000000000000000000, 1.000000000000000000 ) ) ;
#536 = CC_DESIGN_SECURITY_CLASSIFICATION ( #518, ( #278 ) ) ;
#537 = CARTESIAN_POINT ( 'NONE',  ( 0.000000000000000000, 10.99999999999999645, -3.150000000000000355 ) ) ;
#538 = FACE_BOUND ( 'NONE', #341, .T. ) ;
#539 = ADVANCED_FACE ( 'NONE', ( #6 ), #357, .F. ) ;
#540 = EDGE_CURVE ( 'NONE', #258, #192, #806, .T. ) ;
#541 = DIRECTION ( 'NONE',  ( 0.000000000000000000, 0.000000000000000000, 1.000000000000000000 ) ) ;
#542 = DIRECTION ( 'NONE',  ( -0.000000000000000000, 1.000000000000000000, -0.000000000000000000 ) ) ;
#543 = CARTESIAN_POINT ( 'NONE',  ( 0.000000000000000000, 12.69999999999998863, -3.150000000000000355 ) ) ;
#544 = VECTOR ( 'NONE', #383, 1000.000000000000000 ) ;
#545 = EDGE_CURVE ( 'NONE', #166, #663, #980, .T. ) ;
#546 = DIRECTION ( 'NONE',  ( 0.000000000000000000, 1.000000000000000000, 0.000000000000000000 ) ) ;
#547 = CARTESIAN_POINT ( 'NONE',  ( 4.946598422480327883, 12.70099999999998985, -4.952894511971297931 ) ) ;
#548 = CARTESIAN_POINT ( 'NONE',  ( 4.234288873483544435, 11.02000000000000135, 7.885004612293734283 ) ) ;
#549 = CC_DESIGN_DATE_AND_TIME_ASSIGNMENT ( #665, #759, ( #224 ) ) ;
#550 = CARTESIAN_POINT ( 'NONE',  ( 1.387778780781445676E-14, 11.39999999999999325, -11.04999999999998650 ) ) ;
#551 = DIRECTION ( 'NONE',  ( 0.000000000000000000, 1.000000000000000000, 0.000000000000000000 ) ) ;
#552 = DIRECTION ( 'NONE',  ( 0.000000000000000000, 0.000000000000000000, 1.000000000000000000 ) ) ;
#553 = AXIS2_PLACEMENT_3D ( 'NONE', #1147, #445, #597 ) ;
#554 = ORIENTED_EDGE ( 'NONE', *, *, #247, .T. ) ;
#555 = DIRECTION ( 'NONE',  ( 0.000000000000000000, 0.000000000000000000, 1.000000000000000000 ) ) ;
#556 = FACE_BOUND ( 'NONE', #1019, .T. ) ;
#557 = CARTESIAN_POINT ( 'NONE',  ( 0.000000000000000000, 2.199999999999993516, -1.250000000000000000 ) ) ;
#558 = ORIENTED_EDGE ( 'NONE', *, *, #31, .F. ) ;
#559 = VECTOR ( 'NONE', #696, 1000.000000000000114 ) ;
#560 = CARTESIAN_POINT ( 'NONE',  ( 0.000000000000000000, 10.99999999999999645, 0.000000000000000000 ) ) ;
#561 = PLANE ( 'NONE',  #72 ) ;
#562 = DIRECTION ( 'NONE',  ( 0.000000000000000000, 0.000000000000000000, -1.000000000000000000 ) ) ;
#563 = EDGE_CURVE ( 'NONE', #129, #338, #817, .T. ) ;
#564 = ORIENTED_EDGE ( 'NONE', *, *, #156, .T. ) ;
#565 = CARTESIAN_POINT ( 'NONE',  ( 7.885004612293718296, 11.19999999999998863, -4.234288873483571081 ) ) ;
#566 = CARTESIAN_POINT ( 'NONE',  ( -4.234288873483544435, 11.02000000000000135, -7.885004612293734283 ) ) ;
#567 = DIRECTION ( 'NONE',  ( 0.000000000000000000, 0.000000000000000000, 1.000000000000000000 ) ) ;
#568 = ORIENTED_EDGE ( 'NONE', *, *, #606, .T. ) ;
#569 = AXIS2_PLACEMENT_3D ( 'NONE', #440, #793, #291 ) ;
#570 = EDGE_CURVE ( 'NONE', #166, #356, #216, .T. ) ;
#571 = CIRCLE ( 'NONE', #107, 1.250000000000000000 ) ;
#572 = DIRECTION ( 'NONE',  ( -0.000000000000000000, -1.000000000000000000, -0.000000000000000000 ) ) ;
#573 = PERSON_AND_ORGANIZATION ( #891, #461 ) ;
#574 = DIRECTION ( 'NONE',  ( 0.000000000000000000, 0.000000000000000000, 1.000000000000000000 ) ) ;
#575 = ORIENTED_EDGE ( 'NONE', *, *, #860, .F. ) ;
#576 = EDGE_CURVE ( 'NONE', #169, #910, #437, .T. ) ;
#577 = ORIENTED_EDGE ( 'NONE', *, *, #372, .T. ) ;
#578 = AXIS2_PLACEMENT_3D ( 'NONE', #519, #1114, #1132 ) ;
#579 = DATE_AND_TIME ( #750, #702 ) ;
#580 = LINE ( 'NONE', #402, #880 ) ;
#581 = DIRECTION ( 'NONE',  ( -0.000000000000000000, 1.000000000000000000, -0.000000000000000000 ) ) ;
#582 = ORIENTED_EDGE ( 'NONE', *, *, #976, .F. ) ;
#583 = AXIS2_PLACEMENT_3D ( 'NONE', #292, #48, #909 ) ;
#584 = ORIENTED_EDGE ( 'NONE', *, *, #563, .T. ) ;
#585 = PRODUCT_RELATED_PRODUCT_CATEGORY ( 'detail', '', ( #293 ) ) ;
#586 = CARTESIAN_POINT ( 'NONE',  ( 7.885004612293718296, 11.02000000000000135, -4.234288873483571081 ) ) ;
#587 = CARTESIAN_POINT ( 'NONE',  ( 4.946598422480327883, 12.70099999999998985, -4.952894511971297931 ) ) ;
#588 = EDGE_LOOP ( 'NONE', ( #1112, #404, #747 ) ) ;
#589 = AXIS2_PLACEMENT_3D ( 'NONE', #525, #427, #781 ) ;
#590 = ORIENTED_EDGE ( 'NONE', *, *, #707, .F. ) ;
#591 = CALENDAR_DATE ( 2026, 13, 6 ) ;
#592 = DIRECTION ( 'NONE',  ( 0.000000000000000000, 0.000000000000000000, 1.000000000000000000 ) ) ;
#593 = EDGE_LOOP ( 'NONE', ( #101, #889, #754, #595 ) ) ;
#594 = CIRCLE ( 'NONE', #1058, 8.949999999999999289 ) ;
#595 = ORIENTED_EDGE ( 'NONE', *, *, #563, .F. ) ;
#596 = CARTESIAN_POINT ( 'NONE',  ( 0.000000000000000000, 11.39999999999999325, 0.000000000000000000 ) ) ;
#597 = DIRECTION ( 'NONE',  ( 1.000000000000000000, 0.000000000000000000, -3.440773836648211460E-15 ) ) ;
#598 = AXIS2_PLACEMENT_3D ( 'NONE', #672, #953, #863 ) ;
#599 = ORIENTED_EDGE ( 'NONE', *, *, #174, .F. ) ;
#600 = EDGE_CURVE ( 'NONE', #155, #491, #1080, .T. ) ;
#601 = ORIENTED_EDGE ( 'NONE', *, *, #708, .F. ) ;
#602 = DIRECTION ( 'NONE',  ( 0.000000000000000000, 1.000000000000000000, 0.000000000000000000 ) ) ;
#603 = ORIENTED_EDGE ( 'NONE', *, *, #922, .F. ) ;
#604 = DIRECTION ( 'NONE',  ( -0.000000000000000000, 1.000000000000000000, -0.000000000000000000 ) ) ;
#605 = VERTEX_POINT ( 'NONE', #124 ) ;
#606 = EDGE_CURVE ( 'NONE', #349, #121, #726, .T. ) ;
#607 = VECTOR ( 'NONE', #653, 1000.000000000000000 ) ;
#608 = APPROVAL_PERSON_ORGANIZATION ( #573, #20, #400 ) ;
#609 = CARTESIAN_POINT ( 'NONE',  ( 0.000000000000000000, 10.99999999999999645, 0.000000000000000000 ) ) ;
#610 = CARTESIAN_POINT ( 'NONE',  ( -4.952894511971281055, 11.02000000000000135, -7.971598422480346002 ) ) ;
#611 = ORIENTED_EDGE ( 'NONE', *, *, #501, .T. ) ;
#612 = EDGE_LOOP ( 'NONE', ( #185, #59 ) ) ;
#613 = EDGE_CURVE ( 'NONE', #1055, #885, #270, .T. ) ;
#614 = DIRECTION ( 'NONE',  ( 0.000000000000000000, 1.000000000000000000, 0.000000000000000000 ) ) ;
#615 = LINE ( 'NONE', #182, #624 ) ;
#616 = CARTESIAN_POINT ( 'NONE',  ( -4.224255707064501486, 11.19999999999998863, 7.890384256887174708 ) ) ;
#617 = AXIS2_PLACEMENT_3D ( 'NONE', #857, #426, #317 ) ;
#618 = AXIS2_PLACEMENT_3D ( 'NONE', #749, #209, #742 ) ;
#619 = ORIENTED_EDGE ( 'NONE', *, *, #1060, .T. ) ;
#620 = DIRECTION ( 'NONE',  ( -0.000000000000000000, 1.000000000000000000, -0.000000000000000000 ) ) ;
#621 = CC_DESIGN_DATE_AND_TIME_ASSIGNMENT ( #119, #931, ( #518 ) ) ;
#622 = DIRECTION ( 'NONE',  ( 0.000000000000000000, 0.000000000000000000, 1.000000000000000000 ) ) ;
#623 = ORIENTED_EDGE ( 'NONE', *, *, #1060, .F. ) ;
#624 = VECTOR ( 'NONE', #685, 1000.000000000000000 ) ;
#625 = DIRECTION ( 'NONE',  ( -0.000000000000000000, 1.000000000000000000, -0.000000000000000000 ) ) ;
#626 = CARTESIAN_POINT ( 'NONE',  ( 0.000000000000000000, 2.199999999999993516, 0.000000000000000000 ) ) ;
#627 = VERTEX_POINT ( 'NONE', #655 ) ;
#628 = ADVANCED_FACE ( 'NONE', ( #834 ), #637, .F. ) ;
#629 = DIRECTION ( 'NONE',  ( 0.000000000000000000, 0.000000000000000000, 1.000000000000000000 ) ) ;
#630 = FACE_OUTER_BOUND ( 'NONE', #992, .T. ) ;
#631 = DIRECTION ( 'NONE',  ( 0.000000000000000000, 0.000000000000000000, 1.000000000000000000 ) ) ;
#632 = ADVANCED_FACE ( 'NONE', ( #203 ), #207, .T. ) ;
#633 = AXIS2_PLACEMENT_3D ( 'NONE', #206, #34, #307 ) ;
#634 = LINE ( 'NONE', #370, #66 ) ;
#635 = DIRECTION ( 'NONE',  ( 0.000000000000000000, 1.000000000000000000, 0.000000000000000000 ) ) ;
#636 = AXIS2_PLACEMENT_3D ( 'NONE', #455, #720, #1072 ) ;
#637 = PLANE ( 'NONE',  #871 ) ;
#638 = FACE_OUTER_BOUND ( 'NONE', #475, .T. ) ;
#639 = CARTESIAN_POINT ( 'NONE',  ( 0.000000000000000000, 2.199999999999993516, 0.000000000000000000 ) ) ;
#640 = CIRCLE ( 'NONE', #886, 3.025000000000000799 ) ;
#641 = CC_DESIGN_APPROVAL ( #1079, ( #278 ) ) ;
#642 = ORIENTED_EDGE ( 'NONE', *, *, #1133, .F. ) ;
#643 = CARTESIAN_POINT ( 'NONE',  ( 4.224255707064556553, 11.39999999999999325, -7.890384256887145398 ) ) ;
#644 = EDGE_CURVE ( 'NONE', #971, #121, #355, .T. ) ;
#645 = DIRECTION ( 'NONE',  ( 0.000000000000000000, 1.000000000000000000, 0.000000000000000000 ) ) ;
#646 = DIRECTION ( 'NONE',  ( -0.000000000000000000, -1.000000000000000000, -0.000000000000000000 ) ) ;
#647 = VERTEX_POINT ( 'NONE', #822 ) ;
#648 = AXIS2_PLACEMENT_3D ( 'NONE', #639, #1107, #562 ) ;
#649 = DIRECTION ( 'NONE',  ( 0.000000000000000000, 0.000000000000000000, 1.000000000000000000 ) ) ;
#650 = APPROVAL_DATE_TIME ( #1094, #795 ) ;
#651 = ADVANCED_FACE ( 'NONE', ( #295 ), #311, .F. ) ;
#652 = DIRECTION ( 'NONE',  ( 0.000000000000000000, -1.000000000000000000, 0.000000000000000000 ) ) ;
#653 = DIRECTION ( 'NONE',  ( 8.659560562354948882E-17, 0.7071067811865463515, -0.7071067811865487940 ) ) ;
#654 = ORIENTED_EDGE ( 'NONE', *, *, #392, .F. ) ;
#655 = CARTESIAN_POINT ( 'NONE',  ( -4.946598422480293245, 11.02000000000000135, 1.927894511971332880 ) ) ;
#656 = PERSON_AND_ORGANIZATION_ROLE ( 'design_supplier' ) ;
#657 = CARTESIAN_POINT ( 'NONE',  ( 0.000000000000000000, 12.69999999999998863, 0.000000000000000000 ) ) ;
#658 = CARTESIAN_POINT ( 'NONE',  ( 1.387778780781445676E-14, 2.199999999999993516, 1.387778780781445676E-14 ) ) ;
#659 = ORIENTED_EDGE ( 'NONE', *, *, #16, .F. ) ;
#660 = VECTOR ( 'NONE', #314, 1000.000000000000000 ) ;
#661 = EDGE_CURVE ( 'NONE', #679, #159, #594, .T. ) ;
#662 = AXIS2_PLACEMENT_3D ( 'NONE', #17, #12, #198 ) ;
#663 = VERTEX_POINT ( 'NONE', #45 ) ;
#664 = DIRECTION ( 'NONE',  ( 0.000000000000000000, 0.000000000000000000, 1.000000000000000000 ) ) ;
#665 = DATE_AND_TIME ( #743, #718 ) ;
#666 = CARTESIAN_POINT ( 'NONE',  ( 7.885004612293718296, 10.99999999999999645, -4.234288873483571081 ) ) ;
#667 = CARTESIAN_POINT ( 'NONE',  ( -7.885004612293690762, 11.39999999999999325, 4.234288873483626148 ) ) ;
#668 = ORIENTED_EDGE ( 'NONE', *, *, #896, .T. ) ;
#669 = EDGE_CURVE ( 'NONE', #872, #261, #399, .T. ) ;
#670 = VERTEX_POINT ( 'NONE', #982 ) ;
#671 = VECTOR ( 'NONE', #1008, 1000.000000000000000 ) ;
#672 = CARTESIAN_POINT ( 'NONE',  ( -4.952894511971281055, 11.39999999999999325, -4.946598422480344759 ) ) ;
#673 = CYLINDRICAL_SURFACE ( 'NONE', #884, 3.025000000000000799 ) ;
#674 = VERTEX_POINT ( 'NONE', #550 ) ;
#675 = ORIENTED_EDGE ( 'NONE', *, *, #242, .T. ) ;
#676 = COORDINATED_UNIVERSAL_TIME_OFFSET ( 5, 0, .BEHIND. ) ;
#677 = CYLINDRICAL_SURFACE ( 'NONE', #342, 3.150000000000000355 ) ;
#678 = CARTESIAN_POINT ( 'NONE',  ( 1.387778780781445676E-14, 11.39999999999999325, 1.387778780781445676E-14 ) ) ;
#679 = VERTEX_POINT ( 'NONE', #290 ) ;
#680 = AXIS2_PLACEMENT_3D ( 'NONE', #1049, #90, #799 ) ;
#681 = LOCAL_TIME ( 23, 19, 40.00000000000000000, #139 ) ;
#682 = ORIENTED_EDGE ( 'NONE', *, *, #16, .T. ) ;
#683 = CARTESIAN_POINT ( 'NONE',  ( 0.000000000000000000, 12.69999999999998863, 0.000000000000000000 ) ) ;
#684 = EDGE_CURVE ( 'NONE', #1078, #1050, #220, .T. ) ;
#685 = DIRECTION ( 'NONE',  ( 0.000000000000000000, 0.7071067811865463515, 0.7071067811865487940 ) ) ;
#686 = ORIENTED_EDGE ( 'NONE', *, *, #1011, .T. ) ;
#687 = VERTEX_POINT ( 'NONE', #643 ) ;
#688 = LINE ( 'NONE', #930, #2 ) ;
#689 = DIRECTION ( 'NONE',  ( 0.000000000000000000, 1.000000000000000000, 0.000000000000000000 ) ) ;
#690 = CIRCLE ( 'NONE', #578, 1.499999999999998890 ) ;
#691 = ORIENTED_EDGE ( 'NONE', *, *, #669, .T. ) ;
#692 = CARTESIAN_POINT ( 'NONE',  ( 0.000000000000000000, 10.99999999999999645, 8.949999999999999289 ) ) ;
#693 = ADVANCED_FACE ( 'NONE', ( #993 ), #912, .F. ) ;
#694 = EDGE_LOOP ( 'NONE', ( #792, #724, #428 ) ) ;
#695 = ORIENTED_EDGE ( 'NONE', *, *, #922, .T. ) ;
#696 = DIRECTION ( 'NONE',  ( 0.000000000000000000, 0.5547001962252282592, 0.8320502943378442762 ) ) ;
#697 = CARTESIAN_POINT ( 'NONE',  ( -7.890384256887130299, 11.19999999999998863, -4.224255707064584087 ) ) ;
#698 = ORIENTED_EDGE ( 'NONE', *, *, #122, .T. ) ;
#699 = EDGE_CURVE ( 'NONE', #223, #169, #238, .T. ) ;
#700 = ORIENTED_EDGE ( 'NONE', *, *, #576, .F. ) ;
#701 = AXIS2_PLACEMENT_3D ( 'NONE', #784, #1138, #664 ) ;
#702 = LOCAL_TIME ( 23, 19, 40.00000000000000000, #492 ) ;
#703 = DIRECTION ( 'NONE',  ( 0.000000000000000000, 0.000000000000000000, 1.000000000000000000 ) ) ;
#704 = EDGE_LOOP ( 'NONE', ( #459, #1045 ) ) ;
#705 = CYLINDRICAL_SURFACE ( 'NONE', #680, 3.024999999999999911 ) ;
#706 = CARTESIAN_POINT ( 'NONE',  ( 0.000000000000000000, 12.44999999999998863, 0.000000000000000000 ) ) ;
#707 = EDGE_CURVE ( 'NONE', #663, #232, #76, .T. ) ;
#708 = EDGE_CURVE ( 'NONE', #855, #351, #106, .T. ) ;
#709 = CARTESIAN_POINT ( 'NONE',  ( 0.000000000000000000, 10.99999999999999645, 0.000000000000000000 ) ) ;
#710 = CARTESIAN_POINT ( 'NONE',  ( -4.946598422480293245, 11.02000000000000135, 4.952894511971332570 ) ) ;
#711 = ORIENTED_EDGE ( 'NONE', *, *, #684, .T. ) ;
#712 = AXIS2_PLACEMENT_3D ( 'NONE', #479, #835, #39 ) ;
#713 = DIRECTION ( 'NONE',  ( 0.000000000000000000, -0.000000000000000000, 1.000000000000000000 ) ) ;
#714 = CARTESIAN_POINT ( 'NONE',  ( 4.234288873483544435, 11.02000000000000135, 7.885004612293734283 ) ) ;
#715 = ORIENTED_EDGE ( 'NONE', *, *, #1100, .T. ) ;
#716 = VECTOR ( 'NONE', #333, 1000.000000000000000 ) ;
#717 = DIRECTION ( 'NONE',  ( 0.000000000000000000, 0.000000000000000000, 1.000000000000000000 ) ) ;
#718 = LOCAL_TIME ( 23, 19, 40.00000000000000000, #38 ) ;
#719 = EDGE_CURVE ( 'NONE', #491, #169, #1040, .T. ) ;
#720 = DIRECTION ( 'NONE',  ( 0.000000000000000000, 1.000000000000000000, 0.000000000000000000 ) ) ;
#721 = CYLINDRICAL_SURFACE ( 'NONE', #158, 1.250000000000000000 ) ;
#722 = DIRECTION ( 'NONE',  ( 0.000000000000000000, 1.000000000000000000, 0.000000000000000000 ) ) ;
#723 = DIRECTION ( 'NONE',  ( 0.000000000000000000, 0.000000000000000000, -1.000000000000000000 ) ) ;
#724 = ORIENTED_EDGE ( 'NONE', *, *, #331, .T. ) ;
#725 = CIRCLE ( 'NONE', #1137, 8.949999999999999289 ) ;
#726 = LINE ( 'NONE', #906, #377 ) ;
#727 = DIRECTION ( 'NONE',  ( 0.000000000000000000, 1.000000000000000000, 0.000000000000000000 ) ) ;
#728 = DIRECTION ( 'NONE',  ( 0.000000000000000000, 0.000000000000000000, 1.000000000000000000 ) ) ;
#729 = CIRCLE ( 'NONE', #141, 11.05000000000000071 ) ;
#730 = APPLICATION_CONTEXT ( 'configuration controlled 3d designs of mechanical parts and assemblies' ) ;
#731 = EDGE_CURVE ( 'NONE', #762, #1097, #688, .T. ) ;
#732 = DIRECTION ( 'NONE',  ( 0.000000000000000000, 0.000000000000000000, 1.000000000000000000 ) ) ;
#733 = CARTESIAN_POINT ( 'NONE',  ( 4.188762213784724686, 10.99999999999999645, 7.909283856100328691 ) ) ;
#734 = LINE ( 'NONE', #1090, #1117 ) ;
#735 = EDGE_LOOP ( 'NONE', ( #996, #905, #584, #63 ) ) ;
#736 = ADVANCED_FACE ( 'NONE', ( #758, #516 ), #137, .F. ) ;
#737 = DIRECTION ( 'NONE',  ( -0.000000000000000000, 1.000000000000000000, -0.000000000000000000 ) ) ;
#738 = CALENDAR_DATE ( 2026, 13, 6 ) ;
#739 = CARTESIAN_POINT ( 'NONE',  ( 4.188762213784724686, 10.99999999999999645, 7.909283856100328691 ) ) ;
#740 = ORIENTED_EDGE ( 'NONE', *, *, #719, .T. ) ;
#741 = AXIS2_PLACEMENT_3D ( 'NONE', #609, #194, #541 ) ;
#742 = DIRECTION ( 'NONE',  ( 0.000000000000000000, 0.000000000000000000, -1.000000000000000000 ) ) ;
#743 = CALENDAR_DATE ( 2026, 13, 6 ) ;
#744 = LINE ( 'NONE', #140, #1017 ) ;
#745 = EDGE_CURVE ( 'NONE', #510, #349, #940, .T. ) ;
#746 = CARTESIAN_POINT ( 'NONE',  ( 4.234288873483544435, 11.39999999999999325, 7.885004612293734283 ) ) ;
#747 = ORIENTED_EDGE ( 'NONE', *, *, #102, .T. ) ;
#748 = EDGE_LOOP ( 'NONE', ( #214, #939, #412, #668 ) ) ;
#749 = CARTESIAN_POINT ( 'NONE',  ( -4.952894511971281055, 11.02000000000000135, -4.946598422480344759 ) ) ;
#750 = CALENDAR_DATE ( 2026, 13, 6 ) ;
#751 = CYLINDRICAL_SURFACE ( 'NONE', #648, 1.250000000000000000 ) ;
#752 = CARTESIAN_POINT ( 'NONE',  ( 0.000000000000000000, 9.699999999999986855, 0.000000000000000000 ) ) ;
#753 = ADVANCED_FACE ( 'NONE', ( #1013 ), #226, .T. ) ;
#754 = ORIENTED_EDGE ( 'NONE', *, *, #219, .T. ) ;
#755 = AXIS2_PLACEMENT_3D ( 'NONE', #658, #57, #761 ) ;
#756 = APPROVAL_PERSON_ORGANIZATION ( #1120, #1079, #233 ) ;
#757 = ORIENTED_EDGE ( 'NONE', *, *, #570, .F. ) ;
#758 = FACE_OUTER_BOUND ( 'NONE', #253, .T. ) ;
#759 = DATE_TIME_ROLE ( 'creation_date' ) ;
#760 = CARTESIAN_POINT ( 'NONE',  ( 7.914605571054002198, 10.99999999999999645, 4.178698200952175590 ) ) ;
#761 = DIRECTION ( 'NONE',  ( 0.000000000000000000, 0.000000000000000000, 1.000000000000000000 ) ) ;
#762 = VERTEX_POINT ( 'NONE', #1096 ) ;
#763 = VERTEX_POINT ( 'NONE', #304 ) ;
#764 = CIRCLE ( 'NONE', #741, 8.949999999999999289 ) ;
#765 = SECURITY_CLASSIFICATION_LEVEL ( 'unclassified' ) ;
#766 = CARTESIAN_POINT ( 'NONE',  ( 1.523102252087228204E-14, 4.200000000000009059, -11.04999999999998650 ) ) ;
#767 = DIRECTION ( 'NONE',  ( 0.000000000000000000, 0.000000000000000000, -1.000000000000000000 ) ) ;
#768 = EDGE_LOOP ( 'NONE', ( #773, #568, #966, #435 ) ) ;
#769 = EDGE_CURVE ( 'NONE', #261, #410, #517, .T. ) ;
#770 = ORIENTED_EDGE ( 'NONE', *, *, #970, .F. ) ;
#771 = LINE ( 'NONE', #766, #114 ) ;
#772 = CARTESIAN_POINT ( 'NONE',  ( -4.946598422480293245, 11.39999999999999325, 4.952894511971332570 ) ) ;
#773 = ORIENTED_EDGE ( 'NONE', *, *, #256, .F. ) ;
#774 = CIRCLE ( 'NONE', #589, 3.025000000000000799 ) ;
#775 = CC_DESIGN_APPROVAL ( #20, ( #224 ) ) ;
#776 = EDGE_LOOP ( 'NONE', ( #945, #1048, #398, #715 ) ) ;
#777 = CARTESIAN_POINT ( 'NONE',  ( 4.946598422480327883, 12.70099999999998985, -7.977894511971298286 ) ) ;
#778 = ADVANCED_FACE ( 'NONE', ( #132 ), #415, .T. ) ;
#779 = APPLICATION_CONTEXT ( 'configuration controlled 3d designs of mechanical parts and assemblies' ) ;
#780 = CARTESIAN_POINT ( 'NONE',  ( 0.000000000000000000, 12.69999999999998863, 0.000000000000000000 ) ) ;
#781 = DIRECTION ( 'NONE',  ( 1.000000000000000000, 0.000000000000000000, -3.440773836648211460E-15 ) ) ;
#782 = ORIENTED_EDGE ( 'NONE', *, *, #457, .F. ) ;
#783 = DESIGN_CONTEXT ( 'detailed design', #730, 'design' ) ;
#784 = CARTESIAN_POINT ( 'NONE',  ( 0.000000000000000000, 12.69999999999998863, 0.000000000000000000 ) ) ;
#785 = DIRECTION ( 'NONE',  ( 0.000000000000000000, 0.000000000000000000, 1.000000000000000000 ) ) ;
#786 = CIRCLE ( 'NONE', #911, 3.024999999999999911 ) ;
#787 = CARTESIAN_POINT ( 'NONE',  ( 7.898505771890310889, 11.01335526305953927, 4.209085727175345681 ) ) ;
#788 = EDGE_CURVE ( 'NONE', #605, #84, #640, .T. ) ;
#789 = ORIENTED_EDGE ( 'NONE', *, *, #854, .F. ) ;
#790 = AXIS2_PLACEMENT_3D ( 'NONE', #892, #453, #897 ) ;
#791 = DIRECTION ( 'NONE',  ( 0.000000000000000000, 1.000000000000000000, 0.000000000000000000 ) ) ;
#792 = ORIENTED_EDGE ( 'NONE', *, *, #1003, .T. ) ;
#793 = DIRECTION ( 'NONE',  ( 0.000000000000000000, -1.000000000000000000, 0.000000000000000000 ) ) ;
#794 = ORIENTED_EDGE ( 'NONE', *, *, #282, .F. ) ;
#795 = APPROVAL ( #473, 'UNSPECIFIED' ) ;
#796 = ORIENTED_EDGE ( 'NONE', *, *, #1100, .F. ) ;
#797 = DIRECTION ( 'NONE',  ( 0.000000000000000000, 0.000000000000000000, -1.000000000000000000 ) ) ;
#798 = ORIENTED_EDGE ( 'NONE', *, *, #1011, .F. ) ;
#799 = DIRECTION ( 'NONE',  ( 0.000000000000000000, 0.000000000000000000, -1.000000000000000000 ) ) ;
#800 = CARTESIAN_POINT ( 'NONE',  ( 1.387778780781445676E-14, 2.199999999999993516, 8.049999999999984723 ) ) ;
#801 = ORIENTED_EDGE ( 'NONE', *, *, #36, .T. ) ;
#802 = CARTESIAN_POINT ( 'NONE',  ( 1.387778780781445676E-14, 4.200000000000009059, -11.04999999999998650 ) ) ;
#803 = CYLINDRICAL_SURFACE ( 'NONE', #662, 3.024999999999999911 ) ;
#804 = CARTESIAN_POINT ( 'NONE',  ( 1.387778780781445676E-14, 11.39999999999999325, 1.387778780781445676E-14 ) ) ;
#805 = CIRCLE ( 'NONE', #856, 1.750000000000000000 ) ;
#806 = CIRCLE ( 'NONE', #895, 8.949999999999999289 ) ;
#807 = EDGE_CURVE ( 'NONE', #155, #497, #403, .T. ) ;
#808 = DIRECTION ( 'NONE',  ( 0.000000000000000000, 1.000000000000000000, 0.000000000000000000 ) ) ;
#809 = CARTESIAN_POINT ( 'NONE',  ( 1.990051048614448376E-16, 12.44999999999998863, -1.499999999999998890 ) ) ;
#810 = EDGE_LOOP ( 'NONE', ( #309, #310, #1129, #347 ) ) ;
#811 = VECTOR ( 'NONE', #336, 1000.000000000000000 ) ;
#812 = CARTESIAN_POINT ( 'NONE',  ( 1.504732550100017616E-14, 2.199999999999993516, -8.049999999999956302 ) ) ;
#813 = ADVANCED_FACE ( 'NONE', ( #506 ), #938, .F. ) ;
#814 = CIRCLE ( 'NONE', #173, 3.025000000000000799 ) ;
#815 = CARTESIAN_POINT ( 'NONE',  ( 0.000000000000000000, 12.69999999999998863, 0.000000000000000000 ) ) ;
#816 = ORIENTED_EDGE ( 'NONE', *, *, #204, .T. ) ;
#817 = LINE ( 'NONE', #108, #135 ) ;
#818 = CYLINDRICAL_SURFACE ( 'NONE', #56, 3.024999999999999911 ) ;
#819 = CYLINDRICAL_SURFACE ( 'NONE', #393, 1.499999999999998890 ) ;
#820 = ADVANCED_FACE ( 'NONE', ( #858 ), #673, .T. ) ;
#821 = CIRCLE ( 'NONE', #928, 3.025000000000000799 ) ;
#822 = CARTESIAN_POINT ( 'NONE',  ( -7.890384256887130299, 11.39999999999999325, -4.224255707064584975 ) ) ;
#823 = DIRECTION ( 'NONE',  ( 0.000000000000000000, 0.000000000000000000, -1.000000000000000000 ) ) ;
#824 = CARTESIAN_POINT ( 'NONE',  ( -4.224255707064502374, 11.39999999999999325, 7.890384256887174708 ) ) ;
#825 = CIRCLE ( 'NONE', #471, 3.025000000000000799 ) ;
#826 = ORIENTED_EDGE ( 'NONE', *, *, #600, .F. ) ;
#827 = CC_DESIGN_PERSON_AND_ORGANIZATION_ASSIGNMENT ( #33, #239, ( #224 ) ) ;
#828 = CARTESIAN_POINT ( 'NONE',  ( 0.000000000000000000, 10.99999999999999645, 0.000000000000000000 ) ) ;
#829 = APPROVAL_ROLE ( '' ) ;
#830 = AXIS2_PLACEMENT_3D ( 'NONE', #988, #1092, #555 ) ;
#831 = CARTESIAN_POINT ( 'NONE',  ( -4.952894511971281055, 11.39999999999999325, -7.971598422480346002 ) ) ;
#832 = VERTEX_POINT ( 'NONE', #667 ) ;
#833 = EDGE_CURVE ( 'NONE', #1078, #1055, #500, .T. ) ;
#834 = FACE_OUTER_BOUND ( 'NONE', #704, .T. ) ;
#835 = DIRECTION ( 'NONE',  ( 0.000000000000000000, 1.000000000000000000, 0.000000000000000000 ) ) ;
#836 = ORIENTED_EDGE ( 'NONE', *, *, #874, .T. ) ;
#837 = CONICAL_SURFACE ( 'NONE', #133, 1.750000000000000000, 0.7853981633974500554 ) ;
#838 = EDGE_LOOP ( 'NONE', ( #1135, #558, #695, #30 ) ) ;
#839 = DIRECTION ( 'NONE',  ( 0.000000000000000000, 0.000000000000000000, 1.000000000000000000 ) ) ;
#840 = ADVANCED_FACE ( 'NONE', ( #126 ), #150, .T. ) ;
#841 = APPLICATION_PROTOCOL_DEFINITION ( 'international standard', 'config_control_design', 1994, #779 ) ;
#842 = DIRECTION ( 'NONE',  ( -0.000000000000000000, 1.000000000000000000, -0.000000000000000000 ) ) ;
#843 = DIRECTION ( 'NONE',  ( -0.000000000000000000, -1.000000000000000000, -0.000000000000000000 ) ) ;
#844 = ORIENTED_EDGE ( 'NONE', *, *, #494, .F. ) ;
#845 = ORIENTED_EDGE ( 'NONE', *, *, #745, .F. ) ;
#846 = APPROVAL_STATUS ( 'not_yet_approved' ) ;
#847 = DIRECTION ( 'NONE',  ( -0.000000000000000000, -1.000000000000000000, -0.000000000000000000 ) ) ;
#848 = DIRECTION ( 'NONE',  ( -0.000000000000000000, -1.000000000000000000, -0.000000000000000000 ) ) ;
#849 = EDGE_LOOP ( 'NONE', ( #21, #740, #442, #81 ) ) ;
#850 = CIRCLE ( 'NONE', #54, 3.025000000000000799 ) ;
#851 = ORIENTED_EDGE ( 'NONE', *, *, #92, .F. ) ;
#852 = CARTESIAN_POINT ( 'NONE',  ( 7.890384256887130299, 11.39999999999999325, 4.224255707064584087 ) ) ;
#853 = EDGE_LOOP ( 'NONE', ( #199, #329 ) ) ;
#854 = EDGE_CURVE ( 'NONE', #627, #605, #481, .T. ) ;
#855 = VERTEX_POINT ( 'NONE', #746 ) ;
#856 = AXIS2_PLACEMENT_3D ( 'NONE', #683, #1034, #785 ) ;
#857 = CARTESIAN_POINT ( 'NONE',  ( 0.000000000000000000, 10.99999999999999645, 0.000000000000000000 ) ) ;
#858 = FACE_OUTER_BOUND ( 'NONE', #849, .T. ) ;
#859 = ORIENTED_EDGE ( 'NONE', *, *, #464, .F. ) ;
#860 = EDGE_CURVE ( 'NONE', #504, #68, #1069, .T. ) ;
#861 = ORIENTED_EDGE ( 'NONE', *, *, #981, .F. ) ;
#862 = DIRECTION ( 'NONE',  ( 0.000000000000000000, 1.000000000000000000, 0.000000000000000000 ) ) ;
#863 = DIRECTION ( 'NONE',  ( 0.000000000000000000, 0.000000000000000000, 1.000000000000000000 ) ) ;
#864 = DIRECTION ( 'NONE',  ( 0.000000000000000000, 0.000000000000000000, -1.000000000000000000 ) ) ;
#865 = ORIENTED_EDGE ( 'NONE', *, *, #122, .F. ) ;
#866 = CIRCLE ( 'NONE', #369, 1.250000000000000000 ) ;
#867 = CARTESIAN_POINT ( 'NONE',  ( 1.387778780781445676E-14, 2.199999999999993516, 1.387778780781445676E-14 ) ) ;
#868 = ADVANCED_FACE ( 'NONE', ( #318 ), #235, .F. ) ;
#869 = DIRECTION ( 'NONE',  ( 1.018967729690453948E-16, 0.5547001962252282592, -0.8320502943378442762 ) ) ;
#870 = DIRECTION ( 'NONE',  ( -1.000000000000000000, 0.000000000000000000, 1.060905266299865141E-14 ) ) ;
#871 = AXIS2_PLACEMENT_3D ( 'NONE', #923, #37, #118 ) ;
#872 = VERTEX_POINT ( 'NONE', #358 ) ;
#873 = CARTESIAN_POINT ( 'NONE',  ( 0.000000000000000000, 11.39999999999999325, 0.000000000000000000 ) ) ;
#874 = EDGE_CURVE ( 'NONE', #258, #670, #163, .T. ) ;
#875 = VECTOR ( 'NONE', #652, 1000.000000000000000 ) ;
#876 = FACE_OUTER_BOUND ( 'NONE', #208, .T. ) ;
#877 = ORIENTED_EDGE ( 'NONE', *, *, #92, .T. ) ;
#878 = AXIS2_PLACEMENT_3D ( 'NONE', #916, #22, #306 ) ;
#879 = ORIENTED_EDGE ( 'NONE', *, *, #204, .F. ) ;
#880 = VECTOR ( 'NONE', #228, 1000.000000000000000 ) ;
#881 = FACE_OUTER_BOUND ( 'NONE', #433, .T. ) ;
#882 = DIRECTION ( 'NONE',  ( -0.000000000000000000, 1.000000000000000000, -0.000000000000000000 ) ) ;
#883 = DIRECTION ( 'NONE',  ( 0.000000000000000000, 1.000000000000000000, 0.000000000000000000 ) ) ;
#884 = AXIS2_PLACEMENT_3D ( 'NONE', #920, #1109, #67 ) ;
#885 = VERTEX_POINT ( 'NONE', #1044 ) ;
#886 = AXIS2_PLACEMENT_3D ( 'NONE', #1029, #50, #327 ) ;
#887 = DIRECTION ( 'NONE',  ( 0.000000000000000000, 0.000000000000000000, -1.000000000000000000 ) ) ;
#888 = DIRECTION ( 'NONE',  ( 0.000000000000000000, 1.000000000000000000, 0.000000000000000000 ) ) ;
#889 = ORIENTED_EDGE ( 'NONE', *, *, #731, .T. ) ;
#890 = EDGE_CURVE ( 'NONE', #298, #975, #246, .T. ) ;
#891 = PERSON ( 'UNSPECIFIED', 'UNSPECIFIED', 'UNSPECIFIED', ('UNSPECIFIED'), ('UNSPECIFIED'), ('UNSPECIFIED') ) ;
#892 = CARTESIAN_POINT ( 'NONE',  ( -4.952894511971281055, 11.02000000000000135, -4.946598422480344759 ) ) ;
#893 = VECTOR ( 'NONE', #125, 1000.000000000000000 ) ;
#894 = DIRECTION ( 'NONE',  ( -0.000000000000000000, -1.000000000000000000, -0.000000000000000000 ) ) ;
#895 = AXIS2_PLACEMENT_3D ( 'NONE', #299, #999, #462 ) ;
#896 = EDGE_CURVE ( 'NONE', #192, #356, #1142, .T. ) ;
#897 = DIRECTION ( 'NONE',  ( 0.000000000000000000, 0.000000000000000000, -1.000000000000000000 ) ) ;
#898 = DIRECTION ( 'NONE',  ( -0.000000000000000000, -1.000000000000000000, 0.000000000000000000 ) ) ;
#899 = DIRECTION ( 'NONE',  ( 0.000000000000000000, 0.000000000000000000, 1.000000000000000000 ) ) ;
#900 = VECTOR ( 'NONE', #353, 1000.000000000000000 ) ;
#901 = CARTESIAN_POINT ( 'NONE',  ( 1.523102252087228204E-14, 11.39999999999999325, 11.05000000000001492 ) ) ;
#902 = EDGE_CURVE ( 'NONE', #232, #497, #147, .T. ) ;
#903 = DIRECTION ( 'NONE',  ( 0.000000000000000000, 0.000000000000000000, 1.000000000000000000 ) ) ;
#904 = CARTESIAN_POINT ( 'NONE',  ( 4.946598422480327883, 10.99999999999999645, -4.952894511971297931 ) ) ;
#905 = ORIENTED_EDGE ( 'NONE', *, *, #1066, .F. ) ;
#906 = CARTESIAN_POINT ( 'NONE',  ( 3.857637417314163182E-16, 12.69999999999998863, 3.150000000000000355 ) ) ;
#907 = CARTESIAN_POINT ( 'NONE',  ( 4.946598422480327883, 11.02000000000000135, -4.952894511971297931 ) ) ;
#908 = EDGE_CURVE ( 'NONE', #763, #1050, #1035, .T. ) ;
#909 = DIRECTION ( 'NONE',  ( 0.000000000000000000, 0.000000000000000000, -1.000000000000000000 ) ) ;
#910 = VERTEX_POINT ( 'NONE', #610 ) ;
#911 = AXIS2_PLACEMENT_3D ( 'NONE', #414, #162, #959 ) ;
#912 = CYLINDRICAL_SURFACE ( 'NONE', #170, 8.949999999999999289 ) ;
#913 = PLANE ( 'NONE',  #277 ) ;
#914 = DIRECTION ( 'NONE',  ( 0.000000000000000000, 0.000000000000000000, 1.000000000000000000 ) ) ;
#915 = EDGE_LOOP ( 'NONE', ( #44, #698, #64, #79, #1053, #826 ) ) ;
#916 = CARTESIAN_POINT ( 'NONE',  ( 0.000000000000000000, 10.99999999999999645, 0.000000000000000000 ) ) ;
#917 = AXIS2_PLACEMENT_3D ( 'NONE', #772, #165, #513 ) ;
#918 = DIRECTION ( 'NONE',  ( 0.000000000000000000, 0.000000000000000000, 1.000000000000000000 ) ) ;
#919 =( GEOMETRIC_REPRESENTATION_CONTEXT ( 3 ) GLOBAL_UNCERTAINTY_ASSIGNED_CONTEXT ( ( #1031 ) ) GLOBAL_UNIT_ASSIGNED_CONTEXT ( ( #1084, #280, #1014 ) ) REPRESENTATION_CONTEXT ( 'NONE', 'WORKASPACE' ) );
#920 = CARTESIAN_POINT ( 'NONE',  ( -4.952894511971281055, 11.02000000000000135, -4.946598422480344759 ) ) ;
#921 = ORIENTED_EDGE ( 'NONE', *, *, #613, .T. ) ;
#922 = EDGE_CURVE ( 'NONE', #1050, #885, #615, .T. ) ;
#923 = CARTESIAN_POINT ( 'NONE',  ( 0.000000000000000000, 0.000000000000000000, 0.000000000000000000 ) ) ;
#924 = PERSON_AND_ORGANIZATION ( #891, #461 ) ;
#925 = FACE_OUTER_BOUND ( 'NONE', #1104, .T. ) ;
#926 = DIRECTION ( 'NONE',  ( 0.000000000000000000, 0.000000000000000000, -1.000000000000000000 ) ) ;
#927 = ORIENTED_EDGE ( 'NONE', *, *, #180, .T. ) ;
#928 = AXIS2_PLACEMENT_3D ( 'NONE', #1001, #1101, #918 ) ;
#929 = ORIENTED_EDGE ( 'NONE', *, *, #77, .F. ) ;
#930 = CARTESIAN_POINT ( 'NONE',  ( 1.530808498934191571E-16, 2.199999999999993516, 1.250000000000000000 ) ) ;
#931 = DATE_TIME_ROLE ( 'classification_date' ) ;
#932 = DIRECTION ( 'NONE',  ( 0.000000000000000000, 1.000000000000000000, 0.000000000000000000 ) ) ;
#933 = EDGE_LOOP ( 'NONE', ( #1010, #623, #577, #861 ) ) ;
#934 = AXIS2_PLACEMENT_3D ( 'NONE', #1064, #272, #899 ) ;
#935 = EDGE_LOOP ( 'NONE', ( #575, #152, #334, #143 ) ) ;
#936 = DIRECTION ( 'NONE',  ( 0.000000000000000000, 1.000000000000000000, 0.000000000000000000 ) ) ;
#937 = ADVANCED_FACE ( 'NONE', ( #950 ), #705, .T. ) ;
#938 = CYLINDRICAL_SURFACE ( 'NONE', #352, 1.499999999999998890 ) ;
#939 = ORIENTED_EDGE ( 'NONE', *, *, #807, .F. ) ;
#940 = CIRCLE ( 'NONE', #701, 3.150000000000000355 ) ;
#941 = ORIENTED_EDGE ( 'NONE', *, *, #902, .F. ) ;
#942 = DIRECTION ( 'NONE',  ( -0.000000000000000000, -1.000000000000000000, -0.000000000000000000 ) ) ;
#943 = CARTESIAN_POINT ( 'NONE',  ( -4.224255707064502374, 11.02000000000000135, 7.890384256887174708 ) ) ;
#944 = ADVANCED_FACE ( 'NONE', ( #187 ), #8, .T. ) ;
#945 = ORIENTED_EDGE ( 'NONE', *, *, #180, .F. ) ;
#946 = ORIENTED_EDGE ( 'NONE', *, *, #348, .F. ) ;
#947 = DIRECTION ( 'NONE',  ( 0.000000000000000000, 0.000000000000000000, 1.000000000000000000 ) ) ;
#948 = AXIS2_PLACEMENT_3D ( 'NONE', #657, #222, #574 ) ;
#949 = CYLINDRICAL_SURFACE ( 'NONE', #374, 3.025000000000000799 ) ;
#950 = FACE_OUTER_BOUND ( 'NONE', #748, .T. ) ;
#951 = ORIENTED_EDGE ( 'NONE', *, *, #86, .F. ) ;
#952 = EDGE_CURVE ( 'NONE', #627, #418, #850, .T. ) ;
#953 = DIRECTION ( 'NONE',  ( 0.000000000000000000, 1.000000000000000000, 0.000000000000000000 ) ) ;
#954 = DIRECTION ( 'NONE',  ( 0.000000000000000000, 0.000000000000000000, 1.000000000000000000 ) ) ;
#955 = ORIENTED_EDGE ( 'NONE', *, *, #908, .T. ) ;
#956 = VECTOR ( 'NONE', #1105, 1000.000000000000000 ) ;
#957 = AXIS2_PLACEMENT_3D ( 'NONE', #815, #645, #994 ) ;
#958 = EDGE_CURVE ( 'NONE', #975, #647, #520, .T. ) ;
#959 = DIRECTION ( 'NONE',  ( 0.000000000000000000, 0.000000000000000000, 1.000000000000000000 ) ) ;
#960 = DIRECTION ( 'NONE',  ( -1.000000000000000000, 0.000000000000000000, 1.060905266299865141E-14 ) ) ;
#961 = ORIENTED_EDGE ( 'NONE', *, *, #308, .F. ) ;
#962 = CARTESIAN_POINT ( 'NONE',  ( -4.224255707064502374, 10.99999999999999645, 7.890384256887174708 ) ) ;
#963 = AXIS2_PLACEMENT_3D ( 'NONE', #596, #689, #1047 ) ;
#964 = CARTESIAN_POINT ( 'NONE',  ( 7.906579522602434018, 11.00668826837473446, 4.193899827088721111 ) ) ;
#965 = ORIENTED_EDGE ( 'NONE', *, *, #644, .F. ) ;
#966 = ORIENTED_EDGE ( 'NONE', *, *, #970, .T. ) ;
#967 = AXIS2_PLACEMENT_3D ( 'NONE', #804, #635, #276 ) ;
#968 = CARTESIAN_POINT ( 'NONE',  ( 0.000000000000000000, 11.39999999999999325, 0.000000000000000000 ) ) ;
#969 = CARTESIAN_POINT ( 'NONE',  ( -4.946598422480293245, 10.99999999999999645, 4.952894511971332570 ) ) ;
#970 = EDGE_CURVE ( 'NONE', #121, #971, #189, .T. ) ;
#971 = VERTEX_POINT ( 'NONE', #537 ) ;
#972 = VECTOR ( 'NONE', #882, 1000.000000000000000 ) ;
#973 = DIRECTION ( 'NONE',  ( -0.000000000000000000, -1.000000000000000000, -0.000000000000000000 ) ) ;
#974 = FACE_OUTER_BOUND ( 'NONE', #838, .T. ) ;
#975 = VERTEX_POINT ( 'NONE', #80 ) ;
#976 = EDGE_CURVE ( 'NONE', #526, #605, #201, .T. ) ;
#977 = FACE_OUTER_BOUND ( 'NONE', #406, .T. ) ;
#978 = CIRCLE ( 'NONE', #598, 3.024999999999999911 ) ;
#979 = PLANE ( 'NONE',  #27 ) ;
#980 = CIRCLE ( 'NONE', #1140, 3.024999999999999911 ) ;
#981 = EDGE_CURVE ( 'NONE', #410, #261, #1127, .T. ) ;
#982 = CARTESIAN_POINT ( 'NONE',  ( 7.890384256887130299, 11.02000000000000135, 4.224255707064584087 ) ) ;
#983 = FACE_OUTER_BOUND ( 'NONE', #1059, .T. ) ;
#984 = CARTESIAN_POINT ( 'NONE',  ( 1.387778780781445676E-14, 11.39999999999999325, 1.387778780781445676E-14 ) ) ;
#985 = ORIENTED_EDGE ( 'NONE', *, *, #77, .T. ) ;
#986 = CC_DESIGN_PERSON_AND_ORGANIZATION_ASSIGNMENT ( #413, #324, ( #518 ) ) ;
#987 = AXIS2_PLACEMENT_3D ( 'NONE', #346, #1056, #73 ) ;
#988 = CARTESIAN_POINT ( 'NONE',  ( 0.000000000000000000, 12.44999999999998863, 0.000000000000000000 ) ) ;
#989 = EDGE_CURVE ( 'NONE', #832, #200, #1086, .T. ) ;
#990 = CARTESIAN_POINT ( 'NONE',  ( -4.946598422480293245, 11.02000000000000135, 4.952894511971332570 ) ) ;
#991 = CARTESIAN_POINT ( 'NONE',  ( 3.857637417314163182E-16, 10.99999999999999645, 3.150000000000000355 ) ) ;
#992 = EDGE_LOOP ( 'NONE', ( #397, #879, #188, #94 ) ) ;
#993 = FACE_OUTER_BOUND ( 'NONE', #915, .T. ) ;
#994 = DIRECTION ( 'NONE',  ( 0.000000000000000000, -0.000000000000000000, 1.000000000000000000 ) ) ;
#995 = CARTESIAN_POINT ( 'NONE',  ( 0.000000000000000000, 0.000000000000000000, 0.000000000000000000 ) ) ;
#996 = ORIENTED_EDGE ( 'NONE', *, *, #731, .F. ) ;
#997 = CIRCLE ( 'NONE', #230, 3.024999999999999911 ) ;
#998 = VECTOR ( 'NONE', #620, 1000.000000000000000 ) ;
#999 = DIRECTION ( 'NONE',  ( 0.000000000000000000, 1.000000000000000000, 0.000000000000000000 ) ) ;
#1000 = SHAPE_DEFINITION_REPRESENTATION ( #111, #144 ) ;
#1001 = CARTESIAN_POINT ( 'NONE',  ( 4.952894511971281055, 11.02000000000000135, 4.946598422480344759 ) ) ;
#1002 = DIRECTION ( 'NONE',  ( -0.000000000000000000, 1.000000000000000000, -0.000000000000000000 ) ) ;
#1003 = EDGE_CURVE ( 'NONE', #497, #356, #774, .T. ) ;
#1004 = EDGE_LOOP ( 'NONE', ( #484, #686, #611, #816, #796 ) ) ;
#1005 = CARTESIAN_POINT ( 'NONE',  ( 4.952894511971281055, 11.02000000000000135, 4.946598422480344759 ) ) ;
#1006 = APPROVAL_DATE_TIME ( #1020, #20 ) ;
#1007 = AXIS2_PLACEMENT_3D ( 'NONE', #1063, #271, #622 ) ;
#1008 = DIRECTION ( 'NONE',  ( 0.000000000000000000, 1.000000000000000000, 0.000000000000000000 ) ) ;
#1009 = CIRCLE ( 'NONE', #1052, 8.049999999999970512 ) ;
#1010 = ORIENTED_EDGE ( 'NONE', *, *, #303, .F. ) ;
#1011 = EDGE_CURVE ( 'NONE', #679, #335, #1134, .T. ) ;
#1012 = ORIENTED_EDGE ( 'NONE', *, *, #294, .T. ) ;
#1013 = FACE_OUTER_BOUND ( 'NONE', #588, .T. ) ;
#1014 =( NAMED_UNIT ( * ) SI_UNIT ( $, .STERADIAN. ) SOLID_ANGLE_UNIT ( ) );
#1015 = FACE_OUTER_BOUND ( 'NONE', #933, .T. ) ;
#1016 = EDGE_LOOP ( 'NONE', ( #1122, #176, #231, #836, #675, #521 ) ) ;
#1017 = VECTOR ( 'NONE', #131, 1000.000000000000000 ) ;
#1018 = ADVANCED_FACE ( 'NONE', ( #876 ), #85, .F. ) ;
#1019 = EDGE_LOOP ( 'NONE', ( #422, #237 ) ) ;
#1020 = DATE_AND_TIME ( #1113, #4 ) ;
#1021 = CARTESIAN_POINT ( 'NONE',  ( 4.946598422480327883, 11.02000000000000135, -4.952894511971297931 ) ) ;
#1022 = ORIENTED_EDGE ( 'NONE', *, *, #952, .T. ) ;
#1023 = AXIS2_PLACEMENT_3D ( 'NONE', #984, #354, #631 ) ;
#1024 = ORIENTED_EDGE ( 'NONE', *, *, #425, .T. ) ;
#1025 = ADVANCED_FACE ( 'NONE', ( #638 ), #913, .T. ) ;
#1026 = PERSON_AND_ORGANIZATION_ROLE ( 'design_owner' ) ;
#1027 = CARTESIAN_POINT ( 'NONE',  ( 4.952894511971281055, 10.99999999999999645, 4.946598422480344759 ) ) ;
#1028 = VECTOR ( 'NONE', #1124, 1000.000000000000000 ) ;
#1029 = CARTESIAN_POINT ( 'NONE',  ( -4.946598422480293245, 10.99999999999999645, 4.952894511971332570 ) ) ;
#1030 = ORIENTED_EDGE ( 'NONE', *, *, #417, .T. ) ;
#1031 = UNCERTAINTY_MEASURE_WITH_UNIT (LENGTH_MEASURE( 1.000000000000000082E-05 ), #1084, 'distance_accuracy_value', 'NONE');
#1032 = LOCAL_TIME ( 23, 19, 40.00000000000000000, #676 ) ;
#1033 = EDGE_LOOP ( 'NONE', ( #951, #691, #127, #225 ) ) ;
#1034 = DIRECTION ( 'NONE',  ( 0.000000000000000000, 1.000000000000000000, 0.000000000000000000 ) ) ;
#1035 = LINE ( 'NONE', #1128, #972 ) ;
#1036 = ADVANCED_FACE ( 'NONE', ( #1071 ), #561, .T. ) ;
#1037 = ORIENTED_EDGE ( 'NONE', *, *, #494, .T. ) ;
#1038 = CONICAL_SURFACE ( 'NONE', #633, 11.05000000000000071, 0.9827937232473301643 ) ;
#1039 = ORIENTED_EDGE ( 'NONE', *, *, #451, .T. ) ;
#1040 = LINE ( 'NONE', #1131, #811 ) ;
#1041 = CIRCLE ( 'NONE', #14, 3.025000000000000799 ) ;
#1042 = CARTESIAN_POINT ( 'NONE',  ( -4.952894511971281055, 12.70099999999998985, -4.946598422480344759 ) ) ;
#1043 = AXIS2_PLACEMENT_3D ( 'NONE', #873, #15, #717 ) ;
#1044 = CARTESIAN_POINT ( 'NONE',  ( 0.000000000000000000, 12.69999999999998863, 1.750000000000000000 ) ) ;
#1045 = ORIENTED_EDGE ( 'NONE', *, *, #219, .F. ) ;
#1046 = EDGE_CURVE ( 'NONE', #762, #129, #866, .T. ) ;
#1047 = DIRECTION ( 'NONE',  ( 0.000000000000000000, 0.000000000000000000, 1.000000000000000000 ) ) ;
#1048 = ORIENTED_EDGE ( 'NONE', *, *, #874, .F. ) ;
#1049 = CARTESIAN_POINT ( 'NONE',  ( 4.946598422480327883, 11.02000000000000135, -4.952894511971297931 ) ) ;
#1050 = VERTEX_POINT ( 'NONE', #1075 ) ;
#1051 = VECTOR ( 'NONE', #848, 1000.000000000000000 ) ;
#1052 = AXIS2_PLACEMENT_3D ( 'NONE', #454, #109, #296 ) ;
#1053 = ORIENTED_EDGE ( 'NONE', *, *, #719, .F. ) ;
#1054 = CARTESIAN_POINT ( 'NONE',  ( 0.000000000000000000, 12.69999999999998863, -3.150000000000000355 ) ) ;
#1055 = VERTEX_POINT ( 'NONE', #205 ) ;
#1056 = DIRECTION ( 'NONE',  ( -0.000000000000000000, -1.000000000000000000, -0.000000000000000000 ) ) ;
#1057 = DIRECTION ( 'NONE',  ( 0.000000000000000000, 1.000000000000000000, 0.000000000000000000 ) ) ;
#1058 = AXIS2_PLACEMENT_3D ( 'NONE', #560, #32, #839 ) ;
#1059 = EDGE_LOOP ( 'NONE', ( #1123, #503, #1024, #482, #316, #1130 ) ) ;
#1060 = EDGE_CURVE ( 'NONE', #68, #504, #1009, .T. ) ;
#1061 = CARTESIAN_POINT ( 'NONE',  ( -4.952894511971281055, 10.99999999999999645, -4.946598422480344759 ) ) ;
#1062 = AXIS2_PLACEMENT_3D ( 'NONE', #95, #973, #528 ) ;
#1063 = CARTESIAN_POINT ( 'NONE',  ( 0.000000000000000000, 10.99999999999999645, 0.000000000000000000 ) ) ;
#1064 = CARTESIAN_POINT ( 'NONE',  ( 0.000000000000000000, 0.000000000000000000, 0.000000000000000000 ) ) ;
#1065 = DIRECTION ( 'NONE',  ( 0.000000000000000000, 0.000000000000000000, 1.000000000000000000 ) ) ;
#1066 = EDGE_CURVE ( 'NONE', #129, #762, #571, .T. ) ;
#1067 = DIRECTION ( 'NONE',  ( -1.000000000000000000, 0.000000000000000000, 1.060905266299865141E-14 ) ) ;
#1068 = CYLINDRICAL_SURFACE ( 'NONE', #380, 3.024999999999999911 ) ;
#1069 = CIRCLE ( 'NONE', #755, 8.049999999999970512 ) ;
#1070 = CYLINDRICAL_SURFACE ( 'NONE', #1062, 11.05000000000000071 ) ;
#1071 = FACE_OUTER_BOUND ( 'NONE', #694, .T. ) ;
#1072 = DIRECTION ( 'NONE',  ( 0.000000000000000000, 0.000000000000000000, 1.000000000000000000 ) ) ;
#1073 = ADVANCED_FACE ( 'NONE', ( #1089 ), #818, .F. ) ;
#1074 = FACE_OUTER_BOUND ( 'NONE', #1033, .T. ) ;
#1075 = CARTESIAN_POINT ( 'NONE',  ( 0.000000000000000000, 12.44999999999998863, 1.499999999999998890 ) ) ;
#1076 = AXIS2_PLACEMENT_3D ( 'NONE', #99, #438, #629 ) ;
#1077 = FACE_OUTER_BOUND ( 'NONE', #60, .T. ) ;
#1078 = VERTEX_POINT ( 'NONE', #809 ) ;
#1079 = APPROVAL ( #47, 'UNSPECIFIED' ) ;
#1080 = CIRCLE ( 'NONE', #878, 8.949999999999999289 ) ;
#1081 = CIRCLE ( 'NONE', #790, 3.025000000000000799 ) ;
#1082 = DIRECTION ( 'NONE',  ( 0.000000000000000000, 0.000000000000000000, 1.000000000000000000 ) ) ;
#1083 = CIRCLE ( 'NONE', #1023, 11.05000000000000071 ) ;
#1084 =( LENGTH_UNIT ( ) NAMED_UNIT ( * ) SI_UNIT ( .MILLI., .METRE. ) );
#1085 = DIRECTION ( 'NONE',  ( 0.000000000000000000, 0.000000000000000000, 1.000000000000000000 ) ) ;
#1086 = CIRCLE ( 'NONE', #917, 3.024999999999999911 ) ;
#1087 = CARTESIAN_POINT ( 'NONE',  ( 0.000000000000000000, 10.99999999999999645, 0.000000000000000000 ) ) ;
#1088 = APPROVAL_PERSON_ORGANIZATION ( #388, #795, #829 ) ;
#1089 = FACE_OUTER_BOUND ( 'NONE', #183, .T. ) ;
#1090 = CARTESIAN_POINT ( 'NONE',  ( 1.387778780781445676E-14, 11.39999999999999325, -11.04999999999998650 ) ) ;
#1091 = ORIENTED_EDGE ( 'NONE', *, *, #379, .F. ) ;
#1092 = DIRECTION ( 'NONE',  ( 0.000000000000000000, 1.000000000000000000, 0.000000000000000000 ) ) ;
#1093 = ADVANCED_FACE ( 'NONE', ( #983 ), #468, .F. ) ;
#1094 = DATE_AND_TIME ( #738, #681 ) ;
#1095 = CARTESIAN_POINT ( 'NONE',  ( -4.952894511971281055, 11.39999999999999325, -4.946598422480344759 ) ) ;
#1096 = CARTESIAN_POINT ( 'NONE',  ( 1.530808498934191571E-16, 2.199999999999993516, 1.250000000000000000 ) ) ;
#1097 = VERTEX_POINT ( 'NONE', #285 ) ;
#1098 = AXIS2_PLACEMENT_3D ( 'NONE', #337, #1139, #592 ) ;
#1099 = DIRECTION ( 'NONE',  ( 0.000000000000000000, 1.000000000000000000, 0.000000000000000000 ) ) ;
#1100 = EDGE_CURVE ( 'NONE', #159, #35, #46, .T. ) ;
#1101 = DIRECTION ( 'NONE',  ( 0.000000000000000000, 1.000000000000000000, 0.000000000000000000 ) ) ;
#1102 = DIRECTION ( 'NONE',  ( -0.000000000000000000, -1.000000000000000000, -0.000000000000000000 ) ) ;
#1103 = EDGE_LOOP ( 'NONE', ( #798, #654, #1037, #682, #985 ) ) ;
#1104 = EDGE_LOOP ( 'NONE', ( #1141, #564, #711, #145 ) ) ;
#1105 = DIRECTION ( 'NONE',  ( -0.000000000000000000, -1.000000000000000000, -0.000000000000000000 ) ) ;
#1106 = APPROVAL_DATE_TIME ( #579, #1079 ) ;
#1107 = DIRECTION ( 'NONE',  ( -0.000000000000000000, -1.000000000000000000, -0.000000000000000000 ) ) ;
#1108 = CONICAL_SURFACE ( 'NONE', #149, 1.750000000000000000, 0.7853981633974500554 ) ;
#1109 = DIRECTION ( 'NONE',  ( -0.000000000000000000, -1.000000000000000000, -0.000000000000000000 ) ) ;
#1110 = ORIENTED_EDGE ( 'NONE', *, *, #128, .T. ) ;
#1111 = ADVANCED_FACE ( 'NONE', ( #556, #463 ), #210, .T. ) ;
#1112 = ORIENTED_EDGE ( 'NONE', *, *, #483, .T. ) ;
#1113 = CALENDAR_DATE ( 2026, 13, 6 ) ;
#1114 = DIRECTION ( 'NONE',  ( 0.000000000000000000, 1.000000000000000000, 0.000000000000000000 ) ) ;
#1115 = ORIENTED_EDGE ( 'NONE', *, *, #707, .T. ) ;
#1116 = CC_DESIGN_PERSON_AND_ORGANIZATION_ASSIGNMENT ( #498, #656, ( #278 ) ) ;
#1117 = VECTOR ( 'NONE', #646, 1000.000000000000000 ) ;
#1118 = ORIENTED_EDGE ( 'NONE', *, *, #451, .F. ) ;
#1119 = DIRECTION ( 'NONE',  ( 0.000000000000000000, 0.000000000000000000, 1.000000000000000000 ) ) ;
#1120 = PERSON_AND_ORGANIZATION ( #891, #461 ) ;
#1121 = CARTESIAN_POINT ( 'NONE',  ( 1.523102252087228204E-14, 4.200000000000009059, 11.05000000000001492 ) ) ;
#1122 = ORIENTED_EDGE ( 'NONE', *, *, #570, .T. ) ;
#1123 = ORIENTED_EDGE ( 'NONE', *, *, #890, .T. ) ;
#1124 = DIRECTION ( 'NONE',  ( 0.000000000000000000, -1.000000000000000000, 0.000000000000000000 ) ) ;
#1125 = ADVANCED_FACE ( 'NONE', ( #630 ), #803, .F. ) ;
#1126 = DIRECTION ( 'NONE',  ( 0.000000000000000000, 0.000000000000000000, 1.000000000000000000 ) ) ;
#1127 = CIRCLE ( 'NONE', #123, 11.05000000000000071 ) ;
#1128 = CARTESIAN_POINT ( 'NONE',  ( 0.000000000000000000, 9.699999999999986855, 1.499999999999998890 ) ) ;
#1129 = ORIENTED_EDGE ( 'NONE', *, *, #788, .T. ) ;
#1130 = ORIENTED_EDGE ( 'NONE', *, *, #294, .F. ) ;
#1131 = CARTESIAN_POINT ( 'NONE',  ( -4.234288873483545323, 10.50999999999999091, -7.885004612293734283 ) ) ;
#1132 = DIRECTION ( 'NONE',  ( 0.000000000000000000, 0.000000000000000000, 1.000000000000000000 ) ) ;
#1133 = EDGE_CURVE ( 'NONE', #418, #373, #814, .T. ) ;
#1134 = LINE ( 'NONE', #692, #93 ) ;
#1135 = ORIENTED_EDGE ( 'NONE', *, *, #833, .F. ) ;
#1136 = ADVANCED_FACE ( 'NONE', ( #974 ), #1108, .F. ) ;
#1137 = AXIS2_PLACEMENT_3D ( 'NONE', #83, #791, #1065 ) ;
#1138 = DIRECTION ( 'NONE',  ( 0.000000000000000000, 1.000000000000000000, 0.000000000000000000 ) ) ;
#1139 = DIRECTION ( 'NONE',  ( -0.000000000000000000, 1.000000000000000000, -0.000000000000000000 ) ) ;
#1140 = AXIS2_PLACEMENT_3D ( 'NONE', #478, #1099, #375 ) ;
#1141 = ORIENTED_EDGE ( 'NONE', *, *, #262, .F. ) ;
#1142 = LINE ( 'NONE', #339, #444 ) ;
#1143 = ORIENTED_EDGE ( 'NONE', *, *, #247, .F. ) ;
#1144 = CIRCLE ( 'NONE', #636, 8.949999999999999289 ) ;
#1145 = ORIENTED_EDGE ( 'NONE', *, *, #699, .F. ) ;
#1146 = CARTESIAN_POINT ( 'NONE',  ( 0.000000000000000000, 9.699999999999986855, 0.000000000000000000 ) ) ;
#1147 = CARTESIAN_POINT ( 'NONE',  ( 4.946598422480327883, 11.02000000000000135, -4.952894511971297931 ) ) ;
ENDSEC;
END-ISO-10303-21;
