ISO-10303-21;
HEADER;
FILE_DESCRIPTION (( 'STEP AP203' ),
    '1' );
FILE_NAME ('pendulo_r_Predeterminado_sldprt.STEP',
    '2026-06-14T04:19:44',
    ( '' ),
    ( '' ),
    'SwSTEP 2.0',
    'SolidWorks 2025',
    '' );
FILE_SCHEMA (( 'CONFIG_CONTROL_DESIGN' ));
ENDSEC;

DATA;
#1 = CARTESIAN_POINT ( 'NONE',  ( -4.750000000000215827, -7.149999999999991473, 1.168143294142157906E-14 ) ) ;
#2 = VECTOR ( 'NONE', #407, 999.9999999999997726 ) ;
#3 = AXIS2_PLACEMENT_3D ( 'NONE', #896, #71, #147 ) ;
#4 = VECTOR ( 'NONE', #648, 1000.000000000000000 ) ;
#5 = VERTEX_POINT ( 'NONE', #585 ) ;
#6 = CARTESIAN_POINT ( 'NONE',  ( -3.805003588656241664, -1.424222673939992356, 2.845139034787259380 ) ) ;
#7 = CARTESIAN_POINT ( 'NONE',  ( 3.877535645137243137, -1.604911454809731408, -2.746904406083552797 ) ) ;
#8 = B_SPLINE_CURVE_WITH_KNOTS ( 'NONE', 3,
 ( #618, #901, #142, #547, #412, #277, #262, #633, #271, #558, #562, #266, #700, #842, #833, #905, #828, #846, #79, #771, #7, #328, #611, #553, #214, #775, #697, #282, #217, #204, #480, #692 ),
 .UNSPECIFIED., .F., .F.,
 ( 4, 2, 2, 2, 2, 2, 2, 2, 2, 2, 2, 2, 2, 2, 2, 4 ),
 ( 0.000000000000000000, 0.0006414923116180102757, 0.001282984623236020551, 0.002565969246472041103, 0.003207461558090052029, 0.003848953869708062522, 0.004490446181326072581, 0.005131938492944082206, 0.005773430804562092698, 0.006414923116180104058, 0.007056415427798112816, 0.007697907739416124176, 0.008339400051034133801, 0.008980892362652145161, 0.009622384674270156521, 0.01026387698588816962 ),
 .UNSPECIFIED. ) ;
#9 = CARTESIAN_POINT ( 'NONE',  ( 3.850000000000262990, 120.5999999999999801, -2.073155036504833956E-13 ) ) ;
#10 = EDGE_LOOP ( 'NONE', ( #222, #726, #306, #382 ) ) ;
#11 = DIRECTION ( 'NONE',  ( 0.000000000000000000, -1.000000000000000000, 1.715124499442882891E-15 ) ) ;
#12 = APPLICATION_CONTEXT ( 'configuration controlled 3d designs of mechanical parts and assemblies' ) ;
#13 = CARTESIAN_POINT ( 'NONE',  ( 4.750000000000219380, 3.174999999999999822, -5.445520285731153493E-15 ) ) ;
#14 = ORIENTED_EDGE ( 'NONE', *, *, #227, .F. ) ;
#15 = DIRECTION ( 'NONE',  ( 5.753405375723203803E-15, -1.715124499442882693E-15, -1.000000000000000000 ) ) ;
#16 = CARTESIAN_POINT ( 'NONE',  ( -1.044469840471358379, -4.749999999999999112, 0.6030249435565782079 ) ) ;
#17 = EDGE_CURVE ( 'NONE', #587, #567, #721, .T. ) ;
#18 = EDGE_LOOP ( 'NONE', ( #502, #150, #42, #215 ) ) ;
#19 = SECURITY_CLASSIFICATION ( '', '', #743 ) ;
#20 = DIRECTION ( 'NONE',  ( -1.000000000000000000, -0.000000000000000000, 0.000000000000000000 ) ) ;
#21 = VECTOR ( 'NONE', #673, 1000.000000000000000 ) ;
#22 = CARTESIAN_POINT ( 'NONE',  ( -6.938893903907228378E-15, -4.749999999999998224, 0.9173747525183572060 ) ) ;
#23 = ORIENTED_EDGE ( 'NONE', *, *, #594, .T. ) ;
#24 = LINE ( 'NONE', #709, #881 ) ;
#25 = ADVANCED_FACE ( 'NONE', ( #650 ), #98, .F. ) ;
#26 = DIRECTION ( 'NONE',  ( 0.8660254037844380415, 8.575622497214437133E-16, 0.5000000000000013323 ) ) ;
#27 = CARTESIAN_POINT ( 'NONE',  ( 1.247649730810371782, -7.049999999999999822, 1.276104443790687155E-14 ) ) ;
#28 = DIRECTION ( 'NONE',  ( -0.8660254037844418162, 8.575622497214322748E-16, 0.4999999999999946709 ) ) ;
#29 = EDGE_CURVE ( 'NONE', #389, #85, #422, .T. ) ;
#30 = EDGE_LOOP ( 'NONE', ( #560, #773, #194, #903 ) ) ;
#31 = CARTESIAN_POINT ( 'NONE',  ( 0.000000000000000000, 120.5999999999999943, -2.068440146328116741E-13 ) ) ;
#32 = LINE ( 'NONE', #176, #571 ) ;
#33 = ORIENTED_EDGE ( 'NONE', *, *, #335, .T. ) ;
#34 = LOCAL_TIME ( 23, 19, 44.00000000000000000, #519 ) ;
#35 = ORIENTED_EDGE ( 'NONE', *, *, #578, .T. ) ;
#36 = CARTESIAN_POINT ( 'NONE',  ( 4.750000000000215827, -3.174999999999999822, 5.056637762384939975E-15 ) ) ;
#37 = AXIS2_PLACEMENT_3D ( 'NONE', #459, #678, #614 ) ;
#38 = LINE ( 'NONE', #804, #376 ) ;
#39 = CALENDAR_DATE ( 2026, 13, 6 ) ;
#40 = CARTESIAN_POINT ( 'NONE',  ( 0.7944698404713581574, -4.750000000000000888, -0.4586873762591591186 ) ) ;
#41 = LINE ( 'NONE', #654, #764 ) ;
#42 = ORIENTED_EDGE ( 'NONE', *, *, #253, .T. ) ;
#43 = CARTESIAN_POINT ( 'NONE',  ( 0.000000000000000000, 0.000000000000000000, 0.000000000000000000 ) ) ;
#44 = CYLINDRICAL_SURFACE ( 'NONE', #435, 3.174999999999999822 ) ;
#45 = EDGE_CURVE ( 'NONE', #414, #541, #38, .T. ) ;
#46 = DIRECTION ( 'NONE',  ( 0.8660254037844405950, -8.575622497214358247E-16, -0.4999999999999967248 ) ) ;
#47 = DATE_AND_TIME ( #178, #34 ) ;
#48 = VECTOR ( 'NONE', #15, 1000.000000000000000 ) ;
#49 = CARTESIAN_POINT ( 'NONE',  ( 4.678254821735982283, -3.066795664802875354, 0.8490651028816903478 ) ) ;
#50 = AXIS2_PLACEMENT_3D ( 'NONE', #660, #172, #515 ) ;
#51 = CC_DESIGN_SECURITY_CLASSIFICATION ( #19, ( #362 ) ) ;
#52 = AXIS2_PLACEMENT_3D ( 'NONE', #378, #313, #591 ) ;
#53 = LINE ( 'NONE', #688, #794 ) ;
#54 = APPROVAL ( #251, 'UNSPECIFIED' ) ;
#55 = ORIENTED_EDGE ( 'NONE', *, *, #192, .T. ) ;
#56 = CARTESIAN_POINT ( 'NONE',  ( 1.044469840471358824, -4.853553390593275729, -0.6030249435565618876 ) ) ;
#57 = CARTESIAN_POINT ( 'NONE',  ( 0.000000000000000000, -7.149999999999991473, 1.226314017101659784E-14 ) ) ;
#58 = ORIENTED_EDGE ( 'NONE', *, *, #461, .T. ) ;
#59 = CARTESIAN_POINT ( 'NONE',  ( -3.552463487839284451, -0.4249967332790581809, 3.153680140294992107 ) ) ;
#60 = ADVANCED_FACE ( 'NONE', ( #309 ), #523, .F. ) ;
#61 = CARTESIAN_POINT ( 'NONE',  ( 0.000000000000000000, -8.050000000000000711, 1.380675222051520758E-14 ) ) ;
#62 = CYLINDRICAL_SURFACE ( 'NONE', #37, 0.2499999999999979461 ) ;
#63 = VERTEX_POINT ( 'NONE', #366 ) ;
#64 = CARTESIAN_POINT ( 'NONE',  ( -4.735122737842472951, 3.152862781573489759, -0.4304719732858579562 ) ) ;
#65 = CARTESIAN_POINT ( 'NONE',  ( 0.000000000000000000, -5.000000000000001776, -1.206049887113151087 ) ) ;
#66 = AXIS2_PLACEMENT_3D ( 'NONE', #353, #652, #361 ) ;
#67 = CONICAL_SURFACE ( 'NONE', #824, 4.750000000000215827, 0.7853981633974407295 ) ;
#68 = DIRECTION ( 'NONE',  ( -0.5000000000000056621, 1.485341387170600222E-15, 0.8660254037844354880 ) ) ;
#69 = ORIENTED_EDGE ( 'NONE', *, *, #436, .T. ) ;
#70 = CARTESIAN_POINT ( 'NONE',  ( -4.531823468828498847, -2.838939978003383491, -1.437111248088514426 ) ) ;
#71 = DIRECTION ( 'NONE',  ( -0.000000000000000000, -1.000000000000000000, 1.715124499442882891E-15 ) ) ;
#72 = EDGE_CURVE ( 'NONE', #404, #894, #185, .T. ) ;
#73 = PLANE ( 'NONE',  #883 ) ;
#74 = EDGE_LOOP ( 'NONE', ( #269, #715, #847, #631, #879, #465 ) ) ;
#75 = CARTESIAN_POINT ( 'NONE',  ( -4.106028084772776587, -2.095760415735377524, 2.393569113751869093 ) ) ;
#76 = CARTESIAN_POINT ( 'NONE',  ( 4.750000000000215827, 119.7000000000000313, -2.058821098129081573E-13 ) ) ;
#77 = EDGE_LOOP ( 'NONE', ( #521, #14, #452, #528 ) ) ;
#78 = CARTESIAN_POINT ( 'NONE',  ( -4.031019803103308874, 1.955752889319616550, -2.533146260700764429 ) ) ;
#79 = CARTESIAN_POINT ( 'NONE',  ( 3.679581882464961762, -1.043877744298783217, -3.005585734460530123 ) ) ;
#80 = VECTOR ( 'NONE', #623, 1000.000000000000000 ) ;
#81 = EDGE_CURVE ( 'NONE', #490, #174, #512, .T. ) ;
#82 = ORIENTED_EDGE ( 'NONE', *, *, #359, .F. ) ;
#83 =( LENGTH_UNIT ( ) NAMED_UNIT ( * ) SI_UNIT ( .MILLI., .METRE. ) );
#84 = CARTESIAN_POINT ( 'NONE',  ( -0.7944698404713581574, -4.749999999999999112, 0.4586873762591743287 ) ) ;
#85 = VERTEX_POINT ( 'NONE', #27 ) ;
#86 = LINE ( 'NONE', #791, #279 ) ;
#87 = CARTESIAN_POINT ( 'NONE',  ( 1.044469840471351496, -5.000000000000000888, -0.6030249435565687710 ) ) ;
#88 = ADVANCED_FACE ( 'NONE', ( #866 ), #67, .T. ) ;
#89 = ORIENTED_EDGE ( 'NONE', *, *, #319, .T. ) ;
#90 = DIRECTION ( 'NONE',  ( 0.8660254037844353769, 8.575622497214509116E-16, 0.5000000000000055511 ) ) ;
#91 = LINE ( 'NONE', #801, #4 ) ;
#92 = APPROVAL ( #805, 'UNSPECIFIED' ) ;
#93 = VECTOR ( 'NONE', #26, 999.9999999999997726 ) ;
#94 = ORIENTED_EDGE ( 'NONE', *, *, #630, .F. ) ;
#95 =( NAMED_UNIT ( * ) PLANE_ANGLE_UNIT ( ) SI_UNIT ( $, .RADIAN. ) );
#96 = DIRECTION ( 'NONE',  ( 0.000000000000000000, 1.000000000000000000, -1.715124499442883088E-15 ) ) ;
#97 = EDGE_CURVE ( 'NONE', #851, #174, #197, .T. ) ;
#98 = PLANE ( 'NONE',  #493 ) ;
#99 = CARTESIAN_POINT ( 'NONE',  ( -1.044469840471358379, -7.049999999999998934, 0.6030249435565822047 ) ) ;
#100 = DIRECTION ( 'NONE',  ( -0.000000000000000000, -1.000000000000000000, 1.715124499442882693E-15 ) ) ;
#101 = DIRECTION ( 'NONE',  ( -0.4999999999999985567, 0.000000000000000000, -0.8660254037844395958 ) ) ;
#102 = ORIENTED_EDGE ( 'NONE', *, *, #29, .T. ) ;
#103 = CARTESIAN_POINT ( 'NONE',  ( 4.750000000000219380, 3.174999999999999822, -5.445520285731153493E-15 ) ) ;
#104 = VERTEX_POINT ( 'NONE', #393 ) ;
#105 = PERSON_AND_ORGANIZATION_ROLE ( 'creator' ) ;
#106 = LINE ( 'NONE', #809, #613 ) ;
#107 = ADVANCED_FACE ( 'NONE', ( #682 ), #62, .F. ) ;
#108 = ORIENTED_EDGE ( 'NONE', *, *, #468, .F. ) ;
#109 = DATE_AND_TIME ( #113, #245 ) ;
#110 = CARTESIAN_POINT ( 'NONE',  ( 0.9409164498780855368, -4.750000000000001776, -0.5432383656220376444 ) ) ;
#111 = EDGE_CURVE ( 'NONE', #85, #212, #329, .T. ) ;
#112 = VERTEX_POINT ( 'NONE', #267 ) ;
#113 = CALENDAR_DATE ( 2026, 13, 6 ) ;
#114 = CARTESIAN_POINT ( 'NONE',  ( -4.750000000000216716, -3.175000000000001155, -0.2138331198491890961 ) ) ;
#115 = CARTESIAN_POINT ( 'NONE',  ( 0.000000000000000000, -4.750000000000001776, -0.9173747525183402196 ) ) ;
#116 = DATE_AND_TIME ( #39, #747 ) ;
#117 = ORIENTED_EDGE ( 'NONE', *, *, #468, .T. ) ;
#118 = CARTESIAN_POINT ( 'NONE',  ( 4.750000000000216716, -3.175000000000000711, 0.2138331198491991714 ) ) ;
#119 = VECTOR ( 'NONE', #476, 999.9999999999998863 ) ;
#120 = AXIS2_PLACEMENT_3D ( 'NONE', #231, #11, #782 ) ;
#121 = FACE_OUTER_BOUND ( 'NONE', #30, .T. ) ;
#122 = EDGE_CURVE ( 'NONE', #563, #404, #798, .T. ) ;
#123 = ORIENTED_EDGE ( 'NONE', *, *, #870, .F. ) ;
#124 = CARTESIAN_POINT ( 'NONE',  ( -3.869144398534510643, 1.617161943944909641, -2.762871671121434058 ) ) ;
#125 = DIRECTION ( 'NONE',  ( -0.8660254037844405950, 8.575622497214358247E-16, 0.4999999999999967248 ) ) ;
#126 = ADVANCED_BREP_SHAPE_REPRESENTATION ( 'pendulo_r_Predeterminado_sldprt', ( #144, #169 ), #182 ) ;
#127 = DIRECTION ( 'NONE',  ( 0.4999999999999985567, 0.000000000000000000, -0.8660254037844395958 ) ) ;
#128 = CC_DESIGN_PERSON_AND_ORGANIZATION_ASSIGNMENT ( #529, #596, ( #362 ) ) ;
#129 = ORIENTED_EDGE ( 'NONE', *, *, #864, .F. ) ;
#130 = CARTESIAN_POINT ( 'NONE',  ( -4.678135357716741716, -3.066615037073375571, 0.8499809169112820806 ) ) ;
#131 = PRODUCT_DEFINITION_SHAPE ( 'NONE', 'NONE',  #818 ) ;
#132 = LINE ( 'NONE', #767, #80 ) ;
#133 = ORIENTED_EDGE ( 'NONE', *, *, #443, .T. ) ;
#134 = CARTESIAN_POINT ( 'NONE',  ( -4.678254821735982283, -3.066795664802877130, -0.8490651028816800228 ) ) ;
#135 = LINE ( 'NONE', #65, #2 ) ;
#136 = EDGE_CURVE ( 'NONE', #587, #777, #464, .T. ) ;
#137 = CIRCLE ( 'NONE', #559, 1.247649730810371782 ) ;
#138 = CARTESIAN_POINT ( 'NONE',  ( -1.044469840471358379, -4.999999999999999112, 0.6030249435565786520 ) ) ;
#139 = DESIGN_CONTEXT ( 'detailed design', #12, 'design' ) ;
#140 = EDGE_LOOP ( 'NONE', ( #129, #597, #399, #831 ) ) ;
#141 = CARTESIAN_POINT ( 'NONE',  ( -3.681701886260807299, 1.051073795388795862, -3.002978651714701464 ) ) ;
#142 = CARTESIAN_POINT ( 'NONE',  ( 4.735173025953094417, 3.152937385368725032, -0.4297870985688364565 ) ) ;
#143 = EDGE_CURVE ( 'NONE', #246, #112, #819, .T. ) ;
#144 = MANIFOLD_SOLID_BREP ( 'S\X2\00f3\X0\lido-Mover/Copiar2', #540 ) ;
#145 = ORIENTED_EDGE ( 'NONE', *, *, #431, .F. ) ;
#146 = CARTESIAN_POINT ( 'NONE',  ( -4.469620787030902598, -2.739362629352950940, -1.618038265327179648 ) ) ;
#147 = DIRECTION ( 'NONE',  ( 1.000000000000000000, 0.000000000000000000, 0.000000000000000000 ) ) ;
#148 = ADVANCED_FACE ( 'NONE', ( #898 ), #73, .T. ) ;
#149 = CARTESIAN_POINT ( 'NONE',  ( 3.850000000000249223, 120.5999999999999943, -2.065988067316957764E-13 ) ) ;
#150 = ORIENTED_EDGE ( 'NONE', *, *, #482, .F. ) ;
#151 = DIRECTION ( 'NONE',  ( 0.000000000000000000, 1.000000000000000000, -1.715124499442882891E-15 ) ) ;
#152 = CARTESIAN_POINT ( 'NONE',  ( -4.750000000000215827, -8.050000000000000711, 1.322504499092018723E-14 ) ) ;
#153 = AXIS2_PLACEMENT_3D ( 'NONE', #706, #863, #224 ) ;
#154 = AXIS2_PLACEMENT_3D ( 'NONE', #57, #403, #254 ) ;
#155 = ORIENTED_EDGE ( 'NONE', *, *, #45, .T. ) ;
#156 = ADVANCED_FACE ( 'NONE', ( #467 ), #733, .T. ) ;
#157 = FACE_OUTER_BOUND ( 'NONE', #811, .T. ) ;
#158 = DIRECTION ( 'NONE',  ( -1.000000000000000000, 0.000000000000000000, 0.000000000000000000 ) ) ;
#159 = ORIENTED_EDGE ( 'NONE', *, *, #192, .F. ) ;
#160 = DIRECTION ( 'NONE',  ( -1.000000000000000000, 0.000000000000000000, 0.000000000000000000 ) ) ;
#161 = CARTESIAN_POINT ( 'NONE',  ( 5.549999999999992717, 0.000000000000000000, 0.000000000000000000 ) ) ;
#162 = DIRECTION ( 'NONE',  ( -1.000000000000000000, 0.000000000000000000, 0.000000000000000000 ) ) ;
#163 = PERSON ( 'UNSPECIFIED', 'UNSPECIFIED', 'UNSPECIFIED', ('UNSPECIFIED'), ('UNSPECIFIED'), ('UNSPECIFIED') ) ;
#164 = ORIENTED_EDGE ( 'NONE', *, *, #458, .F. ) ;
#165 = FACE_OUTER_BOUND ( 'NONE', #535, .T. ) ;
#166 = ADVANCED_FACE ( 'NONE', ( #742 ), #481, .F. ) ;
#167 = CARTESIAN_POINT ( 'NONE',  ( 0.000000000000000000, -7.049999999999999822, 1.209162772107232312E-14 ) ) ;
#168 = CIRCLE ( 'NONE', #184, 4.750000000000215827 ) ;
#169 = AXIS2_PLACEMENT_3D ( 'NONE', #43, #601, #586 ) ;
#170 = DIRECTION ( 'NONE',  ( -1.000000000000000000, -1.973561303025850188E-29, -1.150681075144640761E-14 ) ) ;
#171 = CARTESIAN_POINT ( 'NONE',  ( 0.000000000000000000, 119.7000000000000313, -2.053004025833131211E-13 ) ) ;
#172 = DIRECTION ( 'NONE',  ( 0.000000000000000000, -1.000000000000000000, 1.715124499442882891E-15 ) ) ;
#173 = DATE_TIME_ROLE ( 'classification_date' ) ;
#174 = VERTEX_POINT ( 'NONE', #115 ) ;
#175 = DIRECTION ( 'NONE',  ( -0.8660254037844405950, 8.575622497214358247E-16, 0.4999999999999967248 ) ) ;
#176 = CARTESIAN_POINT ( 'NONE',  ( 1.044469840471344613, -7.049999999999998934, 0.6030249435565966376 ) ) ;
#177 = ORIENTED_EDGE ( 'NONE', *, *, #788, .T. ) ;
#178 = CALENDAR_DATE ( 2026, 13, 6 ) ;
#179 = CARTESIAN_POINT ( 'NONE',  ( 0.000000000000000000, -8.050000000000000711, 1.380675222051520758E-14 ) ) ;
#180 = ORIENTED_EDGE ( 'NONE', *, *, #589, .T. ) ;
#181 = PERSON_AND_ORGANIZATION ( #163, #420 ) ;
#182 =( GEOMETRIC_REPRESENTATION_CONTEXT ( 3 ) GLOBAL_UNCERTAINTY_ASSIGNED_CONTEXT ( ( #526 ) ) GLOBAL_UNIT_ASSIGNED_CONTEXT ( ( #83, #95, #285 ) ) REPRESENTATION_CONTEXT ( 'NONE', 'WORKASPACE' ) );
#183 = CARTESIAN_POINT ( 'NONE',  ( 4.471138565727496683, 2.741823446088203831, 1.613813345942120892 ) ) ;
#184 = AXIS2_PLACEMENT_3D ( 'NONE', #171, #590, #447 ) ;
#185 = LINE ( 'NONE', #317, #453 ) ;
#186 = PERSON_AND_ORGANIZATION_ROLE ( 'design_owner' ) ;
#187 = DIRECTION ( 'NONE',  ( -0.000000000000000000, -1.000000000000000000, 1.715124499442882891E-15 ) ) ;
#188 = DIRECTION ( 'NONE',  ( 0.000000000000000000, 1.000000000000000000, -1.715124499442883088E-15 ) ) ;
#189 = APPROVAL_ROLE ( '' ) ;
#190 = EDGE_LOOP ( 'NONE', ( #907, #395, #483, #55, #352, #737 ) ) ;
#191 = CARTESIAN_POINT ( 'NONE',  ( 3.804711377526583505, -1.423289228910852522, 2.845506425695309094 ) ) ;
#192 = EDGE_CURVE ( 'NONE', #174, #246, #53, .T. ) ;
#193 = CARTESIAN_POINT ( 'NONE',  ( -6.938893903907228378E-15, -4.749999999999998224, 1.206049887113167740 ) ) ;
#194 = ORIENTED_EDGE ( 'NONE', *, *, #630, .T. ) ;
#195 = CARTESIAN_POINT ( 'NONE',  ( -4.106545521865069936, 2.096732857133210004, 2.392618019215633218 ) ) ;
#196 = VECTOR ( 'NONE', #607, 1000.000000000000227 ) ;
#197 = LINE ( 'NONE', #906, #119 ) ;
#198 = ORIENTED_EDGE ( 'NONE', *, *, #482, .T. ) ;
#199 = CARTESIAN_POINT ( 'NONE',  ( -4.532309478723090201, -2.839706369731110680, 1.435406744703685344 ) ) ;
#200 = CARTESIAN_POINT ( 'NONE',  ( -1.824999999999999067, -8.050000000000000711, 1.380675222051520758E-14 ) ) ;
#201 = CARTESIAN_POINT ( 'NONE',  ( 0.000000000000000000, 120.5999999999999943, -2.068440146328116741E-13 ) ) ;
#202 = ORIENTED_EDGE ( 'NONE', *, *, #81, .F. ) ;
#203 = CARTESIAN_POINT ( 'NONE',  ( -4.532451399128311742, 2.839924135430681673, -1.434767645357805543 ) ) ;
#204 = CARTESIAN_POINT ( 'NONE',  ( 4.735244985233237003, -3.153049703170176077, -0.4299685035631716779 ) ) ;
#205 = DIRECTION ( 'NONE',  ( 0.000000000000000000, 1.000000000000000000, -1.715124499442883088E-15 ) ) ;
#206 = ORIENTED_EDGE ( 'NONE', *, *, #741, .F. ) ;
#207 = CARTESIAN_POINT ( 'NONE',  ( -3.878045903533596572, 1.606104315007100158, 2.746169023041503010 ) ) ;
#208 = ADVANCED_FACE ( 'NONE', ( #121 ), #893, .F. ) ;
#209 = VECTOR ( 'NONE', #100, 1000.000000000000000 ) ;
#210 = CARTESIAN_POINT ( 'NONE',  ( 0.000000000000000000, -4.750000000000001776, -1.206049887113151531 ) ) ;
#211 = AXIS2_PLACEMENT_3D ( 'NONE', #283, #855, #640 ) ;
#212 = VERTEX_POINT ( 'NONE', #325 ) ;
#213 = CARTESIAN_POINT ( 'NONE',  ( -4.750000000000214939, -3.174999999999999822, 0.2141132555055862974 ) ) ;
#214 = CARTESIAN_POINT ( 'NONE',  ( 4.333142024514724966, -2.510507013170943935, -1.954266264920609730 ) ) ;
#215 = ORIENTED_EDGE ( 'NONE', *, *, #443, .F. ) ;
#216 = CARTESIAN_POINT ( 'NONE',  ( -0.7944698404713443907, -4.750000000000000888, -0.4586873762591774373 ) ) ;
#217 = CARTESIAN_POINT ( 'NONE',  ( 4.678135357716740828, -3.066615037073378680, -0.8499809169112740870 ) ) ;
#218 = ORIENTED_EDGE ( 'NONE', *, *, #111, .T. ) ;
#219 = CARTESIAN_POINT ( 'NONE',  ( -1.824999999999999067, -8.050000000000000711, 1.380675222051520758E-14 ) ) ;
#220 = CARTESIAN_POINT ( 'NONE',  ( 0.9409164498780721031, -4.750000000000001776, 0.5432383656220708401 ) ) ;
#221 = APPROVAL_PERSON_ORGANIZATION ( #456, #54, #449 ) ;
#222 = ORIENTED_EDGE ( 'NONE', *, *, #425, .F. ) ;
#223 = CARTESIAN_POINT ( 'NONE',  ( -6.938893903907228378E-15, -4.999999999999998224, 1.206049887113168184 ) ) ;
#224 = DIRECTION ( 'NONE',  ( 1.000000000000000000, 0.000000000000000000, 5.753405375723132016E-15 ) ) ;
#225 = ORIENTED_EDGE ( 'NONE', *, *, #97, .F. ) ;
#226 = FACE_OUTER_BOUND ( 'NONE', #280, .T. ) ;
#227 = EDGE_CURVE ( 'NONE', #63, #404, #386, .T. ) ;
#228 = CARTESIAN_POINT ( 'NONE',  ( 0.000000000000000000, -7.050000000000001599, -1.206049887113147534 ) ) ;
#229 = CARTESIAN_POINT ( 'NONE',  ( -1.044469840471358379, -4.999999999999999112, 0.6030249435565786520 ) ) ;
#230 = ORIENTED_EDGE ( 'NONE', *, *, #436, .F. ) ;
#231 = CARTESIAN_POINT ( 'NONE',  ( 0.000000000000000000, -8.050000000000000711, 1.380675222051520758E-14 ) ) ;
#232 = FACE_OUTER_BOUND ( 'NONE', #576, .T. ) ;
#233 = AXIS2_PLACEMENT_3D ( 'NONE', #61, #685, #333 ) ;
#234 = CARTESIAN_POINT ( 'NONE',  ( 0.000000000000000000, -7.149999999999991473, 1.226314017101659784E-14 ) ) ;
#235 = VECTOR ( 'NONE', #711, 1000.000000000000000 ) ;
#236 = ORIENTED_EDGE ( 'NONE', *, *, #302, .T. ) ;
#237 = DIRECTION ( 'NONE',  ( 0.000000000000000000, -1.000000000000000000, 1.715124499442882891E-15 ) ) ;
#238 = CARTESIAN_POINT ( 'NONE',  ( 1.044469840471344613, -4.749999999999999112, 0.6030249435565926408 ) ) ;
#239 = CARTESIAN_POINT ( 'NONE',  ( 3.532821517196685690, -0.2146730549379177178, 3.175164905535467152 ) ) ;
#240 = CYLINDRICAL_SURFACE ( 'NONE', #289, 0.2500000000000009437 ) ;
#241 = EDGE_CURVE ( 'NONE', #835, #563, #620, .T. ) ;
#242 = DIRECTION ( 'NONE',  ( 0.4999999999999966693, 1.485341387170609491E-15, 0.8660254037844405950 ) ) ;
#243 = MECHANICAL_CONTEXT ( 'NONE', #872, 'mechanical' ) ;
#244 = CARTESIAN_POINT ( 'NONE',  ( 4.259539203235866545, 2.382484029677737869, 2.108242973159544675 ) ) ;
#245 = LOCAL_TIME ( 23, 19, 44.00000000000000000, #318 ) ;
#246 = VERTEX_POINT ( 'NONE', #604 ) ;
#247 = COORDINATED_UNIVERSAL_TIME_OFFSET ( 5, 0, .BEHIND. ) ;
#248 = ORIENTED_EDGE ( 'NONE', *, *, #495, .T. ) ;
#249 = DIRECTION ( 'NONE',  ( 1.150681075144640761E-14, -1.715124499442882693E-15, -1.000000000000000000 ) ) ;
#250 = ORIENTED_EDGE ( 'NONE', *, *, #308, .T. ) ;
#251 = APPROVAL_STATUS ( 'not_yet_approved' ) ;
#252 = CARTESIAN_POINT ( 'NONE',  ( 3.680102619028649436, -1.045504112586336021, 3.004925988834333150 ) ) ;
#253 = EDGE_CURVE ( 'NONE', #556, #587, #748, .T. ) ;
#254 = DIRECTION ( 'NONE',  ( 1.000000000000000000, 0.000000000000000000, 0.000000000000000000 ) ) ;
#255 = ORIENTED_EDGE ( 'NONE', *, *, #241, .F. ) ;
#256 = CARTESIAN_POINT ( 'NONE',  ( 4.031019803103309762, 1.955752889319629428, 2.533146260700754659 ) ) ;
#257 = APPROVAL ( #812, 'UNSPECIFIED' ) ;
#258 = CARTESIAN_POINT ( 'NONE',  ( -43.10276507976425364, -5.000000000000044409, -25.80276777413751788 ) ) ;
#259 = ORIENTED_EDGE ( 'NONE', *, *, #111, .F. ) ;
#260 = CIRCLE ( 'NONE', #569, 1.824999999999999067 ) ;
#261 = CARTESIAN_POINT ( 'NONE',  ( -3.532821517196686134, -0.2146730549379289033, -3.175164905535467152 ) ) ;
#262 = CARTESIAN_POINT ( 'NONE',  ( 4.335073638846399291, 2.523643924636513436, -1.967990086833406149 ) ) ;
#263 = DIRECTION ( 'NONE',  ( 1.000000000000000000, 0.000000000000000000, 0.000000000000000000 ) ) ;
#264 = ORIENTED_EDGE ( 'NONE', *, *, #401, .T. ) ;
#265 = CARTESIAN_POINT ( 'NONE',  ( -4.750000000000219380, 3.174999999999999822, -5.445520285731153493E-15 ) ) ;
#266 = CARTESIAN_POINT ( 'NONE',  ( 3.681849823138996669, 1.051614797549507374, -3.002802159500999490 ) ) ;
#267 = CARTESIAN_POINT ( 'NONE',  ( 0.7944698404713512740, -4.749999999999999112, 0.4586873762591839876 ) ) ;
#268 = ADVANCED_FACE ( 'NONE', ( #463 ), #902, .F. ) ;
#269 = ORIENTED_EDGE ( 'NONE', *, *, #693, .F. ) ;
#270 = CARTESIAN_POINT ( 'NONE',  ( -3.804711377526583949, -1.423289228910861848, -2.845506425695303765 ) ) ;
#271 = CARTESIAN_POINT ( 'NONE',  ( 4.027598093653648625, 1.939555991657160305, -2.521733120102910952 ) ) ;
#272 = DIRECTION ( 'NONE',  ( 1.000000000000000000, 0.000000000000000000, 0.000000000000000000 ) ) ;
#273 = CC_DESIGN_PERSON_AND_ORGANIZATION_ASSIGNMENT ( #375, #816, ( #19 ) ) ;
#274 = ORIENTED_EDGE ( 'NONE', *, *, #296, .T. ) ;
#275 = CARTESIAN_POINT ( 'NONE',  ( -4.469325470815954660, -2.738867616853570830, 1.618766899444784801 ) ) ;
#276 = VECTOR ( 'NONE', #603, 1000.000000000000000 ) ;
#277 = CARTESIAN_POINT ( 'NONE',  ( 4.480705382005215398, 2.758735548222844169, -1.625862938240365985 ) ) ;
#278 = CIRCLE ( 'NONE', #3, 3.850000000000221245 ) ;
#279 = VECTOR ( 'NONE', #852, 1000.000000000000114 ) ;
#280 = EDGE_LOOP ( 'NONE', ( #498, #264, #305, #58, #33, #765, #856, #286 ) ) ;
#281 = CARTESIAN_POINT ( 'NONE',  ( -4.027453284020191759, -1.939288027456103958, 2.521980678059635661 ) ) ;
#282 = CARTESIAN_POINT ( 'NONE',  ( 4.636622565907043025, -3.003393393154935254, -1.050691636487872449 ) ) ;
#283 = CARTESIAN_POINT ( 'NONE',  ( 0.000000000000000000, 120.5999999999999943, -2.068440146328116741E-13 ) ) ;
#284 = VERTEX_POINT ( 'NONE', #149 ) ;
#285 =( NAMED_UNIT ( * ) SI_UNIT ( $, .STERADIAN. ) SOLID_ANGLE_UNIT ( ) );
#286 = ORIENTED_EDGE ( 'NONE', *, *, #17, .F. ) ;
#287 = CARTESIAN_POINT ( 'NONE',  ( 5.549999999999992717, -3.174999999999999822, 5.056694927001868293E-15 ) ) ;
#288 = CARTESIAN_POINT ( 'NONE',  ( 1.044469840471351496, -4.750000000000000888, -0.6030249435565692151 ) ) ;
#289 = AXIS2_PLACEMENT_3D ( 'NONE', #575, #593, #101 ) ;
#290 = ADVANCED_FACE ( 'NONE', ( #554, #838 ), #768, .F. ) ;
#291 = EDGE_LOOP ( 'NONE', ( #35, #626, #781, #255 ) ) ;
#292 = FACE_OUTER_BOUND ( 'NONE', #695, .T. ) ;
#293 = CARTESIAN_POINT ( 'NONE',  ( 3.850000000000221245, -8.050000000000000711, 1.380675222051520758E-14 ) ) ;
#294 = DIRECTION ( 'NONE',  ( 1.150681075144640761E-14, -1.715124499442882891E-15, -1.000000000000000000 ) ) ;
#295 = ORIENTED_EDGE ( 'NONE', *, *, #675, .F. ) ;
#296 = EDGE_CURVE ( 'NONE', #284, #478, #346, .T. ) ;
#297 = PLANE ( 'NONE',  #762 ) ;
#298 = DIRECTION ( 'NONE',  ( -1.150681075144640761E-14, 1.715124499442882693E-15, 1.000000000000000000 ) ) ;
#299 = DIRECTION ( 'NONE',  ( -5.753405375723203803E-15, 1.715124499442882693E-15, 1.000000000000000000 ) ) ;
#300 = CARTESIAN_POINT ( 'NONE',  ( -6.319348899946876358E-15, -4.750000000000001776, -1.086476731244102378 ) ) ;
#301 = LINE ( 'NONE', #367, #48 ) ;
#302 = EDGE_CURVE ( 'NONE', #284, #104, #351, .T. ) ;
#303 = PLANE ( 'NONE',  #385 ) ;
#304 = PLANE ( 'NONE',  #689 ) ;
#305 = ORIENTED_EDGE ( 'NONE', *, *, #772, .T. ) ;
#306 = ORIENTED_EDGE ( 'NONE', *, *, #136, .F. ) ;
#307 = CARTESIAN_POINT ( 'NONE',  ( 4.027344410304544375, -1.939106595687691836, 2.522177770491307314 ) ) ;
#308 = EDGE_CURVE ( 'NONE', #85, #389, #137, .T. ) ;
#309 = FACE_OUTER_BOUND ( 'NONE', #494, .T. ) ;
#310 = PERSON_AND_ORGANIZATION ( #163, #420 ) ;
#311 = CARTESIAN_POINT ( 'NONE',  ( 4.531823468828497958, -2.838939978003377718, 1.437111248088525528 ) ) ;
#312 = CARTESIAN_POINT ( 'NONE',  ( -1.247649730810371782, -7.049999999999999822, 1.209162772107232312E-14 ) ) ;
#313 = DIRECTION ( 'NONE',  ( -0.000000000000000000, -1.000000000000000000, 1.715124499442882891E-15 ) ) ;
#314 = APPROVAL_DATE_TIME ( #383, #54 ) ;
#315 = DIRECTION ( 'NONE',  ( -1.000000000000000000, 0.000000000000000000, 0.000000000000000000 ) ) ;
#316 = AXIS2_PLACEMENT_3D ( 'NONE', #426, #237, #365 ) ;
#317 = CARTESIAN_POINT ( 'NONE',  ( -1.044469840471358379, -4.749999999999999112, 0.6030249435565782079 ) ) ;
#318 = COORDINATED_UNIVERSAL_TIME_OFFSET ( 5, 0, .BEHIND. ) ;
#319 = EDGE_CURVE ( 'NONE', #5, #729, #32, .T. ) ;
#320 = CARTESIAN_POINT ( 'NONE',  ( 4.750000000000215827, -8.050000000000000711, 1.380675222051520758E-14 ) ) ;
#321 = AXIS2_PLACEMENT_3D ( 'NONE', #506, #822, #751 ) ;
#322 = CARTESIAN_POINT ( 'NONE',  ( -43.89723492023536267, -4.750000000000041744, -24.42670564536014055 ) ) ;
#323 = ORIENTED_EDGE ( 'NONE', *, *, #578, .F. ) ;
#324 = CARTESIAN_POINT ( 'NONE',  ( 4.636823590299181674, -3.003712578399613253, 1.050037944291691838 ) ) ;
#325 = CARTESIAN_POINT ( 'NONE',  ( 1.824999999999999067, -8.050000000000000711, 1.358325417967081468E-14 ) ) ;
#326 = VERTEX_POINT ( 'NONE', #514 ) ;
#327 = CARTESIAN_POINT ( 'NONE',  ( -4.333142024514725854, -2.510507013170937274, 1.954266264920618612 ) ) ;
#328 = CARTESIAN_POINT ( 'NONE',  ( 4.027453284020190871, -1.939288027456111063, -2.521980678059630332 ) ) ;
#329 = LINE ( 'NONE', #757, #659 ) ;
#330 = ORIENTED_EDGE ( 'NONE', *, *, #857, .F. ) ;
#331 = VECTOR ( 'NONE', #736, 1000.000000000000114 ) ;
#332 = CARTESIAN_POINT ( 'NONE',  ( -3.877535645137244913, -1.604911454809723192, 2.746904406083558126 ) ) ;
#333 = DIRECTION ( 'NONE',  ( 1.000000000000000000, 0.000000000000000000, 0.000000000000000000 ) ) ;
#334 = AXIS2_PLACEMENT_3D ( 'NONE', #258, #752, #127 ) ;
#335 = EDGE_CURVE ( 'NONE', #326, #478, #168, .T. ) ;
#336 = CARTESIAN_POINT ( 'NONE',  ( -1.044469840471358379, -4.999999999999999112, 0.6030249435565786520 ) ) ;
#337 = ORIENTED_EDGE ( 'NONE', *, *, #754, .F. ) ;
#338 = CARTESIAN_POINT ( 'NONE',  ( -4.334881189844078442, 2.513505652599022255, -1.950456013196058436 ) ) ;
#339 = DIRECTION ( 'NONE',  ( 1.000000000000000000, 0.000000000000000000, 0.000000000000000000 ) ) ;
#340 = B_SPLINE_CURVE_WITH_KNOTS ( 'NONE', 3,
 ( #740, #114, #470, #134, #770, #70, #146, #561, #750, #415, #755, #699, #270, #684, #627, #484, #261, #474, #552, #759, #141, #124, #78, #610, #338, #466, #203, #622, #349, #64, #405, #265 ),
 .UNSPECIFIED., .F., .F.,
 ( 4, 2, 2, 2, 2, 2, 2, 2, 2, 2, 2, 2, 2, 2, 2, 4 ),
 ( 0.01026387698588817135, 0.01090452999930692848, 0.01154518301272568562, 0.01218583602614444275, 0.01282648903956319815, 0.01346714205298195355, 0.01410779506640071068, 0.01474844807981946782, 0.01538910109323822148, 0.01602975410665697861, 0.01667040712007573575, 0.01795171314691325001, 0.01859236616033200368, 0.01923301917375076081, 0.01987367218716951447, 0.02051432520058827161 ),
 .UNSPECIFIED. ) ;
#341 = DIRECTION ( 'NONE',  ( 0.000000000000000000, 1.000000000000000000, -1.715124499442882693E-15 ) ) ;
#342 = ADVANCED_FACE ( 'NONE', ( #875 ), #304, .T. ) ;
#343 = EDGE_LOOP ( 'NONE', ( #337, #123 ) ) ;
#344 = CARTESIAN_POINT ( 'NONE',  ( -4.259278442521523544, -2.382057501016526579, 2.108835433200308085 ) ) ;
#345 = LINE ( 'NONE', #1, #555 ) ;
#346 = LINE ( 'NONE', #9, #235 ) ;
#347 = ORIENTED_EDGE ( 'NONE', *, *, #227, .T. ) ;
#348 = ADVANCED_FACE ( 'NONE', ( #437 ), #240, .F. ) ;
#349 = CARTESIAN_POINT ( 'NONE',  ( -4.678580896734096939, 3.067291245428734214, -0.8470975474714740328 ) ) ;
#350 = CARTESIAN_POINT ( 'NONE',  ( 0.000000000000000000, -7.149999999999991473, 1.226314017101659784E-14 ) ) ;
#351 = CIRCLE ( 'NONE', #211, 3.850000000000249223 ) ;
#352 = ORIENTED_EDGE ( 'NONE', *, *, #143, .T. ) ;
#353 = CARTESIAN_POINT ( 'NONE',  ( 0.000000000000000000, -4.750000000000001776, -1.206049887113151531 ) ) ;
#354 = CC_DESIGN_DATE_AND_TIME_ASSIGNMENT ( #116, #173, ( #19 ) ) ;
#355 = CARTESIAN_POINT ( 'NONE',  ( 1.044469840471351496, -4.750000000000000888, -0.6030249435565692151 ) ) ;
#356 = EDGE_LOOP ( 'NONE', ( #94, #155, #769, #89 ) ) ;
#357 = CARTESIAN_POINT ( 'NONE',  ( -0.9409164498780692165, -4.750000000000000888, -0.5432383656220606261 ) ) ;
#358 = CARTESIAN_POINT ( 'NONE',  ( 1.044469840471344613, -4.999999999999999112, 0.6030249435565930849 ) ) ;
#359 = EDGE_CURVE ( 'NONE', #490, #63, #871, .T. ) ;
#360 = EDGE_LOOP ( 'NONE', ( #448, #518, #295, #428 ) ) ;
#361 = DIRECTION ( 'NONE',  ( -0.8660254037844379305, -8.575622497214436147E-16, -0.5000000000000012212 ) ) ;
#362 = PRODUCT_DEFINITION_FORMATION_WITH_SPECIFIED_SOURCE ( 'ANY', '', #645, .NOT_KNOWN. ) ;
#363 = ADVANCED_FACE ( 'NONE', ( #728 ), #369, .F. ) ;
#364 = ORIENTED_EDGE ( 'NONE', *, *, #675, .T. ) ;
#365 = DIRECTION ( 'NONE',  ( -1.000000000000000000, 0.000000000000000000, 0.000000000000000000 ) ) ;
#366 = CARTESIAN_POINT ( 'NONE',  ( -1.044469840471344613, -5.000000000000000888, -0.6030249435565833149 ) ) ;
#367 = CARTESIAN_POINT ( 'NONE',  ( 1.044469840471351496, -5.000000000000000888, -0.6030249435565687710 ) ) ;
#368 = CARTESIAN_POINT ( 'NONE',  ( -7.821276182275010810E-15, -4.750000000000000000, 1.086476731244118366 ) ) ;
#369 = CYLINDRICAL_SURFACE ( 'NONE', #839, 0.2500000000000000000 ) ;
#370 = ORIENTED_EDGE ( 'NONE', *, *, #754, .T. ) ;
#371 = APPLICATION_PROTOCOL_DEFINITION ( 'international standard', 'config_control_design', 1994, #12 ) ;
#372 = CARTESIAN_POINT ( 'NONE',  ( 1.044469840471344613, -4.999999999999999112, 0.6030249435565930849 ) ) ;
#373 = VECTOR ( 'NONE', #160, 1000.000000000000000 ) ;
#374 = DIRECTION ( 'NONE',  ( 0.8660254037844405950, -8.575622497214357261E-16, -0.4999999999999966693 ) ) ;
#375 = PERSON_AND_ORGANIZATION ( #163, #420 ) ;
#376 = VECTOR ( 'NONE', #46, 999.9999999999998863 ) ;
#377 = LINE ( 'NONE', #671, #331 ) ;
#378 = CARTESIAN_POINT ( 'NONE',  ( 0.000000000000000000, -8.050000000000000711, 1.380675222051520758E-14 ) ) ;
#379 = PERSON_AND_ORGANIZATION ( #163, #420 ) ;
#380 = CARTESIAN_POINT ( 'NONE',  ( 4.104957102826943149, -2.093636447313755422, 2.395340675088285298 ) ) ;
#381 = EDGE_CURVE ( 'NONE', #679, #5, #41, .T. ) ;
#382 = ORIENTED_EDGE ( 'NONE', *, *, #253, .F. ) ;
#383 = DATE_AND_TIME ( #867, #795 ) ;
#384 = DIRECTION ( 'NONE',  ( 0.000000000000000000, 1.000000000000000000, -1.715124499442883088E-15 ) ) ;
#385 = AXIS2_PLACEMENT_3D ( 'NONE', #16, #170, #298 ) ;
#386 = LINE ( 'NONE', #336, #21 ) ;
#387 = CALENDAR_DATE ( 2026, 13, 6 ) ;
#388 = AXIS2_PLACEMENT_3D ( 'NONE', #720, #865, #475 ) ;
#389 = VERTEX_POINT ( 'NONE', #312 ) ;
#390 = CARTESIAN_POINT ( 'NONE',  ( 3.627733953640911668, 0.8487240002602445266, 3.066798644164299148 ) ) ;
#391 = CC_DESIGN_APPROVAL ( #257, ( #19 ) ) ;
#392 = AXIS2_PLACEMENT_3D ( 'NONE', #350, #402, #339 ) ;
#393 = CARTESIAN_POINT ( 'NONE',  ( -3.850000000000249223, 120.5999999999999943, -2.060722086080623976E-13 ) ) ;
#394 = ADVANCED_FACE ( 'NONE', ( #537 ), #797, .T. ) ;
#395 = ORIENTED_EDGE ( 'NONE', *, *, #760, .T. ) ;
#396 = CARTESIAN_POINT ( 'NONE',  ( -3.681849823138995337, 1.051614797549516256, 3.002802159500995938 ) ) ;
#397 = LINE ( 'NONE', #860, #719 ) ;
#398 = CARTESIAN_POINT ( 'NONE',  ( 0.000000000000000000, -8.050000000000000711, 1.380675222051520758E-14 ) ) ;
#399 = ORIENTED_EDGE ( 'NONE', *, *, #663, .T. ) ;
#400 = CARTESIAN_POINT ( 'NONE',  ( -4.750000000000215827, -3.174999999999999822, 5.056752091629902196E-15 ) ) ;
#401 = EDGE_CURVE ( 'NONE', #777, #657, #397, .T. ) ;
#402 = DIRECTION ( 'NONE',  ( 0.000000000000000000, 1.000000000000000000, -1.715124499442883088E-15 ) ) ;
#403 = DIRECTION ( 'NONE',  ( 0.000000000000000000, 1.000000000000000000, -1.715124499442883088E-15 ) ) ;
#404 = VERTEX_POINT ( 'NONE', #229 ) ;
#405 = CARTESIAN_POINT ( 'NONE',  ( -4.750000000000219380, 3.174999999999999378, -0.2170115729130928095 ) ) ;
#406 = LOCAL_TIME ( 23, 19, 44.00000000000000000, #247 ) ;
#407 = DIRECTION ( 'NONE',  ( -0.8660254037844380415, -8.575622497214437133E-16, -0.5000000000000013323 ) ) ;
#408 = VECTOR ( 'NONE', #681, 999.9999999999998863 ) ;
#409 = CARTESIAN_POINT ( 'NONE',  ( -1.044469840471353272, -4.853553390593274841, 0.6030249435565838700 ) ) ;
#410 = ORIENTED_EDGE ( 'NONE', *, *, #308, .F. ) ;
#411 = CARTESIAN_POINT ( 'NONE',  ( -3.626506564864112381, -0.8439047670614951979, 3.068247935666183146 ) ) ;
#412 = CARTESIAN_POINT ( 'NONE',  ( 4.636513671605795750, 3.003219614540431071, -1.051025083707623820 ) ) ;
#413 = ADVANCED_FACE ( 'NONE', ( #501 ), #789, .F. ) ;
#414 = VERTEX_POINT ( 'NONE', #485 ) ;
#415 = CARTESIAN_POINT ( 'NONE',  ( -4.104957102826942261, -2.093636447313762528, -2.395340675088278637 ) ) ;
#416 = CARTESIAN_POINT ( 'NONE',  ( 5.549999999999992717, 3.174999999999999822, -5.445520285731153493E-15 ) ) ;
#417 = PRODUCT_RELATED_PRODUCT_CATEGORY ( 'detail', '', ( #645 ) ) ;
#418 = ORIENTED_EDGE ( 'NONE', *, *, #704, .T. ) ;
#419 = DIRECTION ( 'NONE',  ( 1.000000000000000000, 0.000000000000000000, 0.000000000000000000 ) ) ;
#420 = ORGANIZATION ( 'UNSPECIFIED', 'UNSPECIFIED', '' ) ;
#421 = LINE ( 'NONE', #210, #823 ) ;
#422 = CIRCLE ( 'NONE', #50, 1.247649730810371782 ) ;
#423 = ORIENTED_EDGE ( 'NONE', *, *, #814, .F. ) ;
#424 = PLANE ( 'NONE',  #66 ) ;
#425 = EDGE_CURVE ( 'NONE', #683, #556, #278, .T. ) ;
#426 = CARTESIAN_POINT ( 'NONE',  ( 0.000000000000000000, 120.5999999999999801, -2.068440146328116488E-13 ) ) ;
#427 = DIRECTION ( 'NONE',  ( 0.000000000000000000, 1.000000000000000000, -1.715124499442882693E-15 ) ) ;
#428 = ORIENTED_EDGE ( 'NONE', *, *, #143, .F. ) ;
#429 = FACE_BOUND ( 'NONE', #74, .T. ) ;
#430 = CYLINDRICAL_SURFACE ( 'NONE', #153, 0.2500000000000000000 ) ;
#431 = EDGE_CURVE ( 'NONE', #63, #725, #132, .T. ) ;
#432 = EDGE_LOOP ( 'NONE', ( #145, #347, #637, #790 ) ) ;
#433 = CARTESIAN_POINT ( 'NONE',  ( -1.044469840471342392, -4.853553390593274841, -0.6030249435565865346 ) ) ;
#434 = CARTESIAN_POINT ( 'NONE',  ( -43.10276507976451654, -4.749999999999955591, 25.80276777413738287 ) ) ;
#435 = AXIS2_PLACEMENT_3D ( 'NONE', #813, #315, #384 ) ;
#436 = EDGE_CURVE ( 'NONE', #669, #799, #488, .T. ) ;
#437 = FACE_OUTER_BOUND ( 'NONE', #820, .T. ) ;
#438 = VECTOR ( 'NONE', #876, 1000.000000000000000 ) ;
#439 = CARTESIAN_POINT ( 'NONE',  ( -5.881264426396265296E-15, -4.853553390593274841, -1.206049887113152197 ) ) ;
#440 = CARTESIAN_POINT ( 'NONE',  ( -4.750000000000219380, 3.174999999999999822, -5.445520285731153493E-15 ) ) ;
#441 = DIRECTION ( 'NONE',  ( 0.000000000000000000, -1.000000000000000000, 1.715124499442882891E-15 ) ) ;
#442 = CARTESIAN_POINT ( 'NONE',  ( -1.044469840471344613, -5.000000000000000888, -0.6030249435565833149 ) ) ;
#443 = EDGE_CURVE ( 'NONE', #777, #587, #705, .T. ) ;
#444 = EDGE_LOOP ( 'NONE', ( #889, #785, #690, #206 ) ) ;
#445 = ORIENTED_EDGE ( 'NONE', *, *, #302, .F. ) ;
#446 = CARTESIAN_POINT ( 'NONE',  ( 4.678580896734096939, 3.067291245428736435, 0.8470975474714630415 ) ) ;
#447 = DIRECTION ( 'NONE',  ( 1.000000000000000000, 0.000000000000000000, 0.000000000000000000 ) ) ;
#448 = ORIENTED_EDGE ( 'NONE', *, *, #704, .F. ) ;
#449 = APPROVAL_ROLE ( '' ) ;
#450 = DIRECTION ( 'NONE',  ( -1.000000000000000000, 0.000000000000000000, 0.000000000000000000 ) ) ;
#451 = VECTOR ( 'NONE', #573, 1000.000000000000000 ) ;
#452 = ORIENTED_EDGE ( 'NONE', *, *, #857, .T. ) ;
#453 = VECTOR ( 'NONE', #884, 1000.000000000000000 ) ;
#454 = CARTESIAN_POINT ( 'NONE',  ( 4.735122737842472951, 3.152862781573491091, 0.4304719732858464099 ) ) ;
#455 = ORIENTED_EDGE ( 'NONE', *, *, #788, .F. ) ;
#456 = PERSON_AND_ORGANIZATION ( #163, #420 ) ;
#457 = DIRECTION ( 'NONE',  ( 1.000000000000000000, 0.000000000000000000, 0.000000000000000000 ) ) ;
#458 = EDGE_CURVE ( 'NONE', #669, #567, #8, .T. ) ;
#459 = CARTESIAN_POINT ( 'NONE',  ( -43.89723492023535556, -5.000000000000041744, -24.42670564536014410 ) ) ;
#460 = CARTESIAN_POINT ( 'NONE',  ( 3.533119575622833075, 0.2195235381405979680, 3.174833241929827299 ) ) ;
#461 = EDGE_CURVE ( 'NONE', #799, #326, #837, .T. ) ;
#462 = CONICAL_SURFACE ( 'NONE', #717, 3.850000000000262990, 0.7853981633974463916 ) ;
#463 = FACE_OUTER_BOUND ( 'NONE', #647, .T. ) ;
#464 = CIRCLE ( 'NONE', #154, 4.750000000000215827 ) ;
#465 = ORIENTED_EDGE ( 'NONE', *, *, #589, .F. ) ;
#466 = CARTESIAN_POINT ( 'NONE',  ( -4.471138565727496683, 2.741823446088198502, -1.613813345942130217 ) ) ;
#467 = FACE_OUTER_BOUND ( 'NONE', #18, .T. ) ;
#468 = EDGE_CURVE ( 'NONE', #490, #600, #421, .T. ) ;
#469 = ORIENTED_EDGE ( 'NONE', *, *, #870, .T. ) ;
#470 = CARTESIAN_POINT ( 'NONE',  ( -4.735095095585021951, -3.152823026557481256, -0.4311080627802311160 ) ) ;
#471 = DIRECTION ( 'NONE',  ( 0.000000000000000000, 1.000000000000000000, -1.715124499442882693E-15 ) ) ;
#472 = DIRECTION ( 'NONE',  ( -1.000000000000000000, 0.000000000000000000, 0.000000000000000000 ) ) ;
#473 = ORIENTED_EDGE ( 'NONE', *, *, #724, .F. ) ;
#474 = CARTESIAN_POINT ( 'NONE',  ( -3.533119575622833963, 0.2195235381405866715, -3.174833241929828631 ) ) ;
#475 = DIRECTION ( 'NONE',  ( 0.4999999999999985567, 0.000000000000000000, 0.8660254037844395958 ) ) ;
#476 = DIRECTION ( 'NONE',  ( 0.8660254037844418162, -8.575622497214322748E-16, -0.4999999999999946709 ) ) ;
#477 = AXIS2_PLACEMENT_3D ( 'NONE', #161, #158, #96 ) ;
#478 = VERTEX_POINT ( 'NONE', #76 ) ;
#479 = CARTESIAN_POINT ( 'NONE',  ( -3.806976706901533003, 1.429317042915007496, 2.842493145525886611 ) ) ;
#480 = CARTESIAN_POINT ( 'NONE',  ( 4.750000000000215827, -3.175000000000000711, -0.2141132555055766662 ) ) ;
#481 = CONICAL_SURFACE ( 'NONE', #869, 1.824999999999999067, 0.5235987755983000369 ) ;
#482 = EDGE_CURVE ( 'NONE', #556, #683, #672, .T. ) ;
#483 = ORIENTED_EDGE ( 'NONE', *, *, #97, .T. ) ;
#484 = CARTESIAN_POINT ( 'NONE',  ( -3.552786751076265848, -0.4271822469484048979, -3.153312636422491710 ) ) ;
#485 = CARTESIAN_POINT ( 'NONE',  ( -6.938893903907228378E-15, -4.999999999999998224, 1.206049887113168184 ) ) ;
#486 = ORIENTED_EDGE ( 'NONE', *, *, #17, .T. ) ;
#487 = CARTESIAN_POINT ( 'NONE',  ( -3.850000000000262990, 120.5999999999999801, -2.068440146328116488E-13 ) ) ;
#488 = LINE ( 'NONE', #416, #584 ) ;
#489 = CARTESIAN_POINT ( 'NONE',  ( 0.000000000000000000, -7.049999999999999822, 1.209162772107232312E-14 ) ) ;
#490 = VERTEX_POINT ( 'NONE', #761 ) ;
#491 = CONICAL_SURFACE ( 'NONE', #316, 3.850000000000262990, 0.7853981633974463916 ) ;
#492 = DIRECTION ( 'NONE',  ( 0.000000000000000000, 1.000000000000000000, -1.715124499442882891E-15 ) ) ;
#493 = AXIS2_PLACEMENT_3D ( 'NONE', #238, #242, #374 ) ;
#494 = EDGE_LOOP ( 'NONE', ( #259, #655, #621, #370 ) ) ;
#495 = EDGE_CURVE ( 'NONE', #616, #490, #135, .T. ) ;
#496 = CARTESIAN_POINT ( 'NONE',  ( -0.7944698404713443907, -4.750000000000000888, -0.4586873762591774373 ) ) ;
#497 = CARTESIAN_POINT ( 'NONE',  ( -6.938893903907228378E-15, -4.749999999999998224, 1.206049887113167740 ) ) ;
#498 = ORIENTED_EDGE ( 'NONE', *, *, #136, .T. ) ;
#499 = CYLINDRICAL_SURFACE ( 'NONE', #629, 4.750000000000215827 ) ;
#500 = DIRECTION ( 'NONE',  ( 1.000000000000000000, 9.867806515129250940E-30, 5.753405375723203803E-15 ) ) ;
#501 = FACE_OUTER_BOUND ( 'NONE', #545, .T. ) ;
#502 = ORIENTED_EDGE ( 'NONE', *, *, #525, .F. ) ;
#503 = FACE_OUTER_BOUND ( 'NONE', #605, .T. ) ;
#504 = LINE ( 'NONE', #434, #792 ) ;
#505 = AXIS2_PLACEMENT_3D ( 'NONE', #167, #642, #20 ) ;
#506 = CARTESIAN_POINT ( 'NONE',  ( 0.000000000000000000, -8.050000000000000711, 1.380675222051520758E-14 ) ) ;
#507 = VECTOR ( 'NONE', #90, 1000.000000000000227 ) ;
#508 = VERTEX_POINT ( 'NONE', #200 ) ;
#509 = COORDINATED_UNIVERSAL_TIME_OFFSET ( 5, 0, .BEHIND. ) ;
#510 = ORIENTED_EDGE ( 'NONE', *, *, #425, .T. ) ;
#511 = CARTESIAN_POINT ( 'NONE',  ( -4.750000000000215827, -3.174999999999999822, 5.056752091629902196E-15 ) ) ;
#512 =( BOUNDED_CURVE ( )  B_SPLINE_CURVE ( 3, ( #665, #439, #300, #581 ),
 .UNSPECIFIED., .F., .T. ) 
 B_SPLINE_CURVE_WITH_KNOTS ( ( 4, 4 ),
 ( 3.141592653589794892, 4.712388980384689674 ),
 .UNSPECIFIED. ) 
 CURVE ( )  GEOMETRIC_REPRESENTATION_ITEM ( )  RATIONAL_B_SPLINE_CURVE ( ( 1.000000000000000000, 0.8047378541243654926, 0.8047378541243654926, 1.000000000000000000 ) ) 
 REPRESENTATION_ITEM ( '' )  );
#513 = CC_DESIGN_PERSON_AND_ORGANIZATION_ASSIGNMENT ( #379, #186, ( #645 ) ) ;
#514 = CARTESIAN_POINT ( 'NONE',  ( -4.750000000000215827, 119.7000000000000313, -2.053004025833131211E-13 ) ) ;
#515 = DIRECTION ( 'NONE',  ( -1.000000000000000000, 0.000000000000000000, 0.000000000000000000 ) ) ;
#516 = CARTESIAN_POINT ( 'NONE',  ( 3.553580739597470117, 0.4333761219272857512, 3.152423113956786427 ) ) ;
#517 = CARTESIAN_POINT ( 'NONE',  ( -0.7944698404713512740, -5.000000000000000000, 6.668288319790703769E-13 ) ) ;
#518 = ORIENTED_EDGE ( 'NONE', *, *, #803, .F. ) ;
#519 = COORDINATED_UNIVERSAL_TIME_OFFSET ( 5, 0, .BEHIND. ) ;
#520 = CARTESIAN_POINT ( 'NONE',  ( -1.044469840471344613, -7.050000000000000711, -0.6030249435565797622 ) ) ;
#521 = ORIENTED_EDGE ( 'NONE', *, *, #122, .T. ) ;
#522 = APPROVAL_DATE_TIME ( #738, #257 ) ;
#523 = CONICAL_SURFACE ( 'NONE', #52, 1.824999999999999067, 0.5235987755983000369 ) ;
#524 = B_SPLINE_CURVE_WITH_KNOTS ( 'NONE', 3,
 ( #900, #904, #546, #542, #691, #909, #895, #195, #832, #207, #479, #396, #680, #632, #827, #766, #59, #411, #696, #6, #332, #281, #75, #344, #327, #275, #199, #557, #130, #841, #213, #400 ),
 .UNSPECIFIED., .F., .F.,
 ( 4, 2, 2, 2, 2, 2, 2, 2, 2, 2, 2, 2, 2, 2, 2, 4 ),
 ( 0.000000000000000000, 0.0006414923116180115768, 0.001282984623236022937, 0.002565969246472045006, 0.003207461558090056366, 0.003848953869708067726, 0.004490446181326078652, 0.005131938492944089145, 0.005773430804562099637, 0.006414923116180109262, 0.007056415427798119755, 0.007697907739416131115, 0.008339400051034140740, 0.008980892362652150365, 0.009622384674270161725, 0.01026387698588817135 ),
 .UNSPECIFIED. ) ;
#525 = EDGE_CURVE ( 'NONE', #683, #777, #345, .T. ) ;
#526 = UNCERTAINTY_MEASURE_WITH_UNIT (LENGTH_MEASURE( 1.000000000000000082E-05 ), #83, 'distance_accuracy_value', 'NONE');
#527 = LINE ( 'NONE', #320, #276 ) ;
#528 = ORIENTED_EDGE ( 'NONE', *, *, #760, .F. ) ;
#529 = PERSON_AND_ORGANIZATION ( #163, #420 ) ;
#530 = ORIENTED_EDGE ( 'NONE', *, *, #619, .F. ) ;
#531 = CARTESIAN_POINT ( 'NONE',  ( 3.552786751076265404, -0.4271822469483929630, 3.153312636422494375 ) ) ;
#532 = CC_DESIGN_PERSON_AND_ORGANIZATION_ASSIGNMENT ( #310, #105, ( #362 ) ) ;
#533 = EDGE_CURVE ( 'NONE', #894, #725, #91, .T. ) ;
#534 = DIRECTION ( 'NONE',  ( 0.7071067811865421326, 0.7071067811865530128, -1.212776164135254874E-15 ) ) ;
#535 = EDGE_LOOP ( 'NONE', ( #712, #164, #69, #550 ) ) ;
#536 = CARTESIAN_POINT ( 'NONE',  ( 4.532451399128311742, 2.839924135430685226, 1.434767645357794441 ) ) ;
#537 = FACE_OUTER_BOUND ( 'NONE', #595, .T. ) ;
#538 = CC_DESIGN_APPROVAL ( #92, ( #818 ) ) ;
#539 = DIRECTION ( 'NONE',  ( 0.5000000000000009992, -0.8660254037844380415, 1.424109047213236987E-15 ) ) ;
#540 = CLOSED_SHELL ( 'NONE', ( #908, #88, #668, #166, #730, #636, #394, #156, #646, #290, #148, #60, #897, #830, #551, #208, #25, #566, #849, #348, #363, #107, #413, #625, #268, #342 ) ) ;
#541 = VERTEX_POINT ( 'NONE', #358 ) ;
#542 = CARTESIAN_POINT ( 'NONE',  ( -4.678787056907928843, 3.067604748697454475, 0.8458913712296730614 ) ) ;
#543 = DIRECTION ( 'NONE',  ( -0.000000000000000000, -1.000000000000000000, 1.715124499442882693E-15 ) ) ;
#544 = DIRECTION ( 'NONE',  ( -0.000000000000000000, -1.000000000000000000, 1.715124499442882891E-15 ) ) ;
#545 = EDGE_LOOP ( 'NONE', ( #364, #807, #323, #530 ) ) ;
#546 = CARTESIAN_POINT ( 'NONE',  ( -4.735173025953094417, 3.152937385368727252, 0.4297870985688259093 ) ) ;
#547 = CARTESIAN_POINT ( 'NONE',  ( 4.678787056907927955, 3.067604748697450479, -0.8458913712296830534 ) ) ;
#548 = DIRECTION ( 'NONE',  ( 0.8660254037844380415, 8.575622497214437133E-16, 0.5000000000000013323 ) ) ;
#549 = B_SPLINE_CURVE_WITH_KNOTS ( 'NONE', 3,
 ( #36, #118, #667, #49, #324, #311, #817, #887, #592, #380, #307, #606, #191, #252, #744, #531, #239, #460, #516, #390, #878, #890, #256, #244, #882, #183, #536, #821, #446, #454, #727, #103 ),
 .UNSPECIFIED., .F., .F.,
 ( 4, 2, 2, 2, 2, 2, 2, 2, 2, 2, 2, 2, 2, 2, 2, 4 ),
 ( 0.01026387698588816962, 0.01090452999930692501, 0.01154518301272568041, 0.01218583602614443581, 0.01282648903956319121, 0.01346714205298194661, 0.01410779506640070201, 0.01474844807981945741, 0.01538910109323821107, 0.01602975410665696820, 0.01667040712007572187, 0.01795171314691323267, 0.01859236616033198633, 0.01923301917375073999, 0.01987367218716949713, 0.02051432520058825079 ),
 .UNSPECIFIED. ) ;
#550 = ORIENTED_EDGE ( 'NONE', *, *, #772, .F. ) ;
#551 = ADVANCED_FACE ( 'NONE', ( #780 ), #303, .F. ) ;
#552 = CARTESIAN_POINT ( 'NONE',  ( -3.553580739597469673, 0.4333761219272760923, -3.152423113956787759 ) ) ;
#553 = CARTESIAN_POINT ( 'NONE',  ( 4.259278442521522656, -2.382057501016532353, -2.108835433200300535 ) ) ;
#554 = FACE_BOUND ( 'NONE', #343, .T. ) ;
#555 = VECTOR ( 'NONE', #756, 999.9999999999998863 ) ;
#556 = VERTEX_POINT ( 'NONE', #293 ) ;
#557 = CARTESIAN_POINT ( 'NONE',  ( -4.636622565907041249, -3.003393393154932589, 1.050691636487880887 ) ) ;
#558 = CARTESIAN_POINT ( 'NONE',  ( 3.878045903533596572, 1.606104315007092165, -2.746169023041507451 ) ) ;
#559 = AXIS2_PLACEMENT_3D ( 'NONE', #489, #784, #162 ) ;
#560 = ORIENTED_EDGE ( 'NONE', *, *, #72, .F. ) ;
#561 = CARTESIAN_POINT ( 'NONE',  ( -4.332854822084757807, -2.510025606343471605, -1.954974909981861853 ) ) ;
#562 = CARTESIAN_POINT ( 'NONE',  ( 3.806976706901533891, 1.429317042914998170, -2.842493145525891052 ) ) ;
#563 = VERTEX_POINT ( 'NONE', #84 ) ;
#564 = CARTESIAN_POINT ( 'NONE',  ( -6.938893903907228378E-15, -4.749999999999998224, 0.9173747525183572060 ) ) ;
#565 = CARTESIAN_POINT ( 'NONE',  ( 1.044469840471351496, -7.050000000000000711, -0.6030249435565652183 ) ) ;
#566 = ADVANCED_FACE ( 'NONE', ( #859 ), #639, .F. ) ;
#567 = VERTEX_POINT ( 'NONE', #854 ) ;
#568 = LINE ( 'NONE', #487, #687 ) ;
#569 = AXIS2_PLACEMENT_3D ( 'NONE', #179, #598, #450 ) ;
#570 = DIRECTION ( 'NONE',  ( 5.753405375723203803E-15, -1.715124499442882693E-15, -1.000000000000000000 ) ) ;
#571 = VECTOR ( 'NONE', #125, 999.9999999999998863 ) ;
#572 = ORIENTED_EDGE ( 'NONE', *, *, #335, .F. ) ;
#573 = DIRECTION ( 'NONE',  ( -0.5000000000000009992, -0.8660254037844380415, 1.485341387170604758E-15 ) ) ;
#574 = CARTESIAN_POINT ( 'NONE',  ( -8.445214674907684901E-15, -4.853553390593273065, 1.206049887113166630 ) ) ;
#575 = CARTESIAN_POINT ( 'NONE',  ( -43.89723492023599505, -4.999999999999958256, 24.42670564535978173 ) ) ;
#576 = EDGE_LOOP ( 'NONE', ( #445, #274, #572, #609 ) ) ;
#577 = CARTESIAN_POINT ( 'NONE',  ( -1.044469840471344613, -5.000000000000000888, -0.6030249435565833149 ) ) ;
#578 = EDGE_CURVE ( 'NONE', #835, #414, #608, .T. ) ;
#579 = CARTESIAN_POINT ( 'NONE',  ( 4.750000000000215827, -7.149999999999991473, 1.226314017101659784E-14 ) ) ;
#580 = DIRECTION ( 'NONE',  ( 0.000000000000000000, 1.000000000000000000, -1.715124499442882693E-15 ) ) ;
#581 = CARTESIAN_POINT ( 'NONE',  ( 0.000000000000000000, -4.750000000000001776, -0.9173747525183402196 ) ) ;
#582 = CARTESIAN_POINT ( 'NONE',  ( 0.000000000000000000, -7.050000000000001599, -1.206049887113147534 ) ) ;
#583 = VECTOR ( 'NONE', #471, 1000.000000000000000 ) ;
#584 = VECTOR ( 'NONE', #628, 1000.000000000000000 ) ;
#585 = CARTESIAN_POINT ( 'NONE',  ( 1.044469840471344613, -7.049999999999998934, 0.6030249435565966376 ) ) ;
#586 = DIRECTION ( 'NONE',  ( 1.000000000000000000, 0.000000000000000000, 0.000000000000000000 ) ) ;
#587 = VERTEX_POINT ( 'NONE', #579 ) ;
#588 = CARTESIAN_POINT ( 'NONE',  ( -6.938893903907228378E-15, -7.049999999999998046, 1.206049887113171515 ) ) ;
#589 = EDGE_CURVE ( 'NONE', #600, #679, #714, .T. ) ;
#590 = DIRECTION ( 'NONE',  ( -0.000000000000000000, -1.000000000000000000, 1.715124499442882891E-15 ) ) ;
#591 = DIRECTION ( 'NONE',  ( -1.000000000000000000, 0.000000000000000000, 0.000000000000000000 ) ) ;
#592 = CARTESIAN_POINT ( 'NONE',  ( 4.257476577820813901, -2.378812217928103045, 2.112397442501989797 ) ) ;
#593 = DIRECTION ( 'NONE',  ( 0.8660254037844417052, -8.575622497214321762E-16, -0.4999999999999946154 ) ) ;
#594 = EDGE_CURVE ( 'NONE', #104, #284, #745, .T. ) ;
#595 = EDGE_LOOP ( 'NONE', ( #734, #133, #486, #749, #840, #862, #800, #177 ) ) ;
#596 = PERSON_AND_ORGANIZATION_ROLE ( 'design_supplier' ) ;
#597 = ORIENTED_EDGE ( 'NONE', *, *, #803, .T. ) ;
#598 = DIRECTION ( 'NONE',  ( 0.000000000000000000, -1.000000000000000000, 1.715124499442882891E-15 ) ) ;
#599 = AXIS2_PLACEMENT_3D ( 'NONE', #288, #500, #570 ) ;
#600 = VERTEX_POINT ( 'NONE', #228 ) ;
#601 = DIRECTION ( 'NONE',  ( 0.000000000000000000, 0.000000000000000000, 1.000000000000000000 ) ) ;
#602 = VECTOR ( 'NONE', #534, 999.9999999999998863 ) ;
#603 = DIRECTION ( 'NONE',  ( 0.000000000000000000, 1.000000000000000000, -1.715124499442882693E-15 ) ) ;
#604 = CARTESIAN_POINT ( 'NONE',  ( 0.7944698404713581574, -4.750000000000000888, -0.4586873762591591186 ) ) ;
#605 = EDGE_LOOP ( 'NONE', ( #102, #250 ) ) ;
#606 = CARTESIAN_POINT ( 'NONE',  ( 3.876915332761380562, -1.603466210317051610, 2.747801158703351287 ) ) ;
#607 = DIRECTION ( 'NONE',  ( -0.8660254037844353769, -8.575622497214509116E-16, -0.5000000000000055511 ) ) ;
#608 =( BOUNDED_CURVE ( )  B_SPLINE_CURVE ( 3, ( #22, #368, #574, #653 ),
 .UNSPECIFIED., .F., .T. ) 
 B_SPLINE_CURVE_WITH_KNOTS ( ( 4, 4 ),
 ( 1.570796326794910769, 3.141592653589794892 ),
 .UNSPECIFIED. ) 
 CURVE ( )  GEOMETRIC_REPRESENTATION_ITEM ( )  RATIONAL_B_SPLINE_CURVE ( ( 1.000000000000000000, 0.8047378541243679351, 0.8047378541243679351, 1.000000000000000000 ) ) 
 REPRESENTATION_ITEM ( '' )  );
#609 = ORIENTED_EDGE ( 'NONE', *, *, #892, .F. ) ;
#610 = CARTESIAN_POINT ( 'NONE',  ( -4.259539203235864768, 2.382484029677726767, -2.108242973159557554 ) ) ;
#611 = CARTESIAN_POINT ( 'NONE',  ( 4.106028084772777476, -2.095760415735384630, -2.393569113751861543 ) ) ;
#612 = CC_DESIGN_DATE_AND_TIME_ASSIGNMENT ( #109, #885, ( #818 ) ) ;
#613 = VECTOR ( 'NONE', #249, 1000.000000000000000 ) ;
#614 = DIRECTION ( 'NONE',  ( -0.5000000000000045519, 0.000000000000000000, 0.8660254037844360431 ) ) ;
#615 = VECTOR ( 'NONE', #694, 1000.000000000000000 ) ;
#616 = VERTEX_POINT ( 'NONE', #87 ) ;
#617 = LINE ( 'NONE', #223, #507 ) ;
#618 = CARTESIAN_POINT ( 'NONE',  ( 4.750000000000219380, 3.174999999999999822, -5.445520285731153493E-15 ) ) ;
#619 = EDGE_CURVE ( 'NONE', #112, #835, #504, .T. ) ;
#620 = LINE ( 'NONE', #322, #196 ) ;
#621 = ORIENTED_EDGE ( 'NONE', *, *, #814, .T. ) ;
#622 = CARTESIAN_POINT ( 'NONE',  ( -4.636100962980349571, 3.002579815506797978, -1.052730612587304604 ) ) ;
#623 = DIRECTION ( 'NONE',  ( -0.000000000000000000, -1.000000000000000000, 1.715124499442882693E-15 ) ) ;
#624 = DIRECTION ( 'NONE',  ( 1.000000000000000000, 0.000000000000000000, 0.000000000000000000 ) ) ;
#625 = ADVANCED_FACE ( 'NONE', ( #787 ), #430, .F. ) ;
#626 = ORIENTED_EDGE ( 'NONE', *, *, #796, .F. ) ;
#627 = CARTESIAN_POINT ( 'NONE',  ( -3.626580925572005842, -0.8439669325320494631, -3.068156624411813915 ) ) ;
#628 = DIRECTION ( 'NONE',  ( -1.000000000000000000, 0.000000000000000000, 0.000000000000000000 ) ) ;
#629 = AXIS2_PLACEMENT_3D ( 'NONE', #786, #151, #419 ) ;
#630 = EDGE_CURVE ( 'NONE', #414, #729, #868, .T. ) ;
#631 = ORIENTED_EDGE ( 'NONE', *, *, #319, .F. ) ;
#632 = CARTESIAN_POINT ( 'NONE',  ( -3.553813510921896679, 0.4349595027883120801, 3.152158770993579662 ) ) ;
#633 = CARTESIAN_POINT ( 'NONE',  ( 4.106545521865071713, 2.096732857133202454, -2.392618019215639436 ) ) ;
#634 = ORIENTED_EDGE ( 'NONE', *, *, #693, .T. ) ;
#635 = DIRECTION ( 'NONE',  ( -0.000000000000000000, -1.000000000000000000, 1.715124499442882693E-15 ) ) ;
#636 = ADVANCED_FACE ( 'NONE', ( #165 ), #718, .F. ) ;
#637 = ORIENTED_EDGE ( 'NONE', *, *, #72, .T. ) ;
#638 = DIRECTION ( 'NONE',  ( -0.000000000000000000, -1.000000000000000000, 1.715124499442882693E-15 ) ) ;
#639 = PLANE ( 'NONE',  #599 ) ;
#640 = DIRECTION ( 'NONE',  ( 1.000000000000000000, 0.000000000000000000, 0.000000000000000000 ) ) ;
#641 = ORIENTED_EDGE ( 'NONE', *, *, #81, .T. ) ;
#642 = DIRECTION ( 'NONE',  ( 0.000000000000000000, -1.000000000000000000, 1.715124499442882693E-15 ) ) ;
#643 = CC_DESIGN_APPROVAL ( #54, ( #362 ) ) ;
#644 = DIRECTION ( 'NONE',  ( 1.000000000000000000, 0.000000000000000000, 0.000000000000000000 ) ) ;
#645 = PRODUCT ( 'pendulo_r_Predeterminado_sldprt', 'pendulo_r_Predeterminado_sldprt', '', ( #243 ) ) ;
#646 = ADVANCED_FACE ( 'NONE', ( #848 ), #491, .T. ) ;
#647 = EDGE_LOOP ( 'NONE', ( #418, #159, #202, #698 ) ) ;
#648 = DIRECTION ( 'NONE',  ( 1.150681075144640761E-14, -1.715124499442882693E-15, -1.000000000000000000 ) ) ;
#649 = DIRECTION ( 'NONE',  ( -1.000000000000000000, -0.000000000000000000, 0.000000000000000000 ) ) ;
#650 = FACE_OUTER_BOUND ( 'NONE', #356, .T. ) ;
#651 = CC_DESIGN_PERSON_AND_ORGANIZATION_ASSIGNMENT ( #181, #656, ( #818 ) ) ;
#652 = DIRECTION ( 'NONE',  ( 0.5000000000000012212, -1.485341387170604561E-15, -0.8660254037844379305 ) ) ;
#653 = CARTESIAN_POINT ( 'NONE',  ( -6.938893903907228378E-15, -4.999999999999998224, 1.206049887113168184 ) ) ;
#654 = CARTESIAN_POINT ( 'NONE',  ( 1.044469840471351496, -7.050000000000000711, -0.6030249435565652183 ) ) ;
#655 = ORIENTED_EDGE ( 'NONE', *, *, #29, .F. ) ;
#656 = PERSON_AND_ORGANIZATION_ROLE ( 'creator' ) ;
#657 = VERTEX_POINT ( 'NONE', #511 ) ;
#658 = VECTOR ( 'NONE', #635, 1000.000000000000000 ) ;
#659 = VECTOR ( 'NONE', #539, 1000.000000000000000 ) ;
#660 = CARTESIAN_POINT ( 'NONE',  ( 0.000000000000000000, -7.049999999999999822, 1.209162772107232312E-14 ) ) ;
#661 = APPROVAL_ROLE ( '' ) ;
#662 = CARTESIAN_POINT ( 'NONE',  ( 1.044469840471351496, -5.000000000000000888, -0.6030249435565687710 ) ) ;
#663 = EDGE_CURVE ( 'NONE', #616, #679, #783, .T. ) ;
#664 = DIRECTION ( 'NONE',  ( -1.000000000000000000, 0.000000000000000000, -1.150681075144626403E-14 ) ) ;
#665 = CARTESIAN_POINT ( 'NONE',  ( 0.000000000000000000, -5.000000000000001776, -1.206049887113151087 ) ) ;
#666 = COORDINATED_UNIVERSAL_TIME_OFFSET ( 5, 0, .BEHIND. ) ;
#667 = CARTESIAN_POINT ( 'NONE',  ( 4.735095095585021951, -3.152823026557479480, 0.4311080627802413301 ) ) ;
#668 = ADVANCED_FACE ( 'NONE', ( #232 ), #462, .T. ) ;
#669 = VERTEX_POINT ( 'NONE', #13 ) ;
#670 = SHAPE_DEFINITION_REPRESENTATION ( #131, #126 ) ;
#671 = CARTESIAN_POINT ( 'NONE',  ( -1.044469840471344613, -7.050000000000000711, -0.6030249435565797622 ) ) ;
#672 = CIRCLE ( 'NONE', #233, 3.850000000000221245 ) ;
#673 = DIRECTION ( 'NONE',  ( -1.150681075144640761E-14, 1.715124499442882693E-15, 1.000000000000000000 ) ) ;
#674 = APPROVAL_PERSON_ORGANIZATION ( #808, #92, #189 ) ;
#675 = EDGE_CURVE ( 'NONE', #112, #541, #739, .T. ) ;
#676 = ORIENTED_EDGE ( 'NONE', *, *, #431, .T. ) ;
#677 = CARTESIAN_POINT ( 'NONE',  ( -3.850000000000221245, -8.050000000000000711, 1.250834807213251286E-14 ) ) ;
#678 = DIRECTION ( 'NONE',  ( -0.8660254037844354880, -8.575622497214511088E-16, -0.5000000000000056621 ) ) ;
#679 = VERTEX_POINT ( 'NONE', #565 ) ;
#680 = CARTESIAN_POINT ( 'NONE',  ( -3.627821465706936088, 0.8489333811901036420, 3.066693137716708151 ) ) ;
#681 = DIRECTION ( 'NONE',  ( -0.8660254037844418162, 8.575622497214322748E-16, 0.4999999999999946709 ) ) ;
#682 = FACE_OUTER_BOUND ( 'NONE', #291, .T. ) ;
#683 = VERTEX_POINT ( 'NONE', #677 ) ;
#684 = CARTESIAN_POINT ( 'NONE',  ( -3.680102619028649436, -1.045504112586345791, -3.004925988834330042 ) ) ;
#685 = DIRECTION ( 'NONE',  ( -0.000000000000000000, -1.000000000000000000, 1.715124499442882891E-15 ) ) ;
#686 = EDGE_CURVE ( 'NONE', #669, #478, #527, .T. ) ;
#687 = VECTOR ( 'NONE', #774, 1000.000000000000000 ) ;
#688 = CARTESIAN_POINT ( 'NONE',  ( -43.10276507976425364, -4.750000000000044409, -25.80276777413751788 ) ) ;
#689 = AXIS2_PLACEMENT_3D ( 'NONE', #723, #802, #649 ) ;
#690 = ORIENTED_EDGE ( 'NONE', *, *, #892, .T. ) ;
#691 = CARTESIAN_POINT ( 'NONE',  ( -4.636513671605795750, 3.003219614540434623, 1.051025083707614050 ) ) ;
#692 = CARTESIAN_POINT ( 'NONE',  ( 4.750000000000215827, -3.174999999999999822, 5.056637762384939975E-15 ) ) ;
#693 = EDGE_CURVE ( 'NONE', #725, #600, #377, .T. ) ;
#694 = DIRECTION ( 'NONE',  ( -5.753405375723203803E-15, 1.715124499442882693E-15, 1.000000000000000000 ) ) ;
#695 = EDGE_LOOP ( 'NONE', ( #108, #703, #676, #634 ) ) ;
#696 = CARTESIAN_POINT ( 'NONE',  ( -3.679581882464961762, -1.043877744298775001, 3.005585734460532343 ) ) ;
#697 = CARTESIAN_POINT ( 'NONE',  ( 4.532309478723090201, -2.839706369731114677, -1.435406744703678239 ) ) ;
#698 = ORIENTED_EDGE ( 'NONE', *, *, #495, .F. ) ;
#699 = CARTESIAN_POINT ( 'NONE',  ( -3.876915332761378785, -1.603466210317059382, -2.747801158703346402 ) ) ;
#700 = CARTESIAN_POINT ( 'NONE',  ( 3.627821465706935644, 0.8489333811900943161, -3.066693137716710815 ) ) ;
#701 = CARTESIAN_POINT ( 'NONE',  ( 0.000000000000000000, -8.050000000000000711, 1.380675222051520758E-14 ) ) ;
#702 = AXIS2_PLACEMENT_3D ( 'NONE', #806, #187, #457 ) ;
#703 = ORIENTED_EDGE ( 'NONE', *, *, #359, .T. ) ;
#704 = EDGE_CURVE ( 'NONE', #616, #246, #891, .T. ) ;
#705 = CIRCLE ( 'NONE', #392, 4.750000000000215827 ) ;
#706 = CARTESIAN_POINT ( 'NONE',  ( 0.7944698404713512740, -5.000000000000000000, 3.468440413401780901E-13 ) ) ;
#707 = DIRECTION ( 'NONE',  ( 1.000000000000000000, 0.000000000000000000, 0.000000000000000000 ) ) ;
#708 = EDGE_LOOP ( 'NONE', ( #473, #753, #455, #230 ) ) ;
#709 = CARTESIAN_POINT ( 'NONE',  ( 1.044469840471344613, -4.749999999999999112, 0.6030249435565926408 ) ) ;
#710 = CARTESIAN_POINT ( 'NONE',  ( 0.7944698404713512740, -4.749999999999999112, 0.4586873762591839876 ) ) ;
#711 = DIRECTION ( 'NONE',  ( 0.7071067811865462405, -0.7071067811865489050, 1.126180558511698519E-15 ) ) ;
#712 = ORIENTED_EDGE ( 'NONE', *, *, #886, .F. ) ;
#713 = PLANE ( 'NONE',  #505 ) ;
#714 = LINE ( 'NONE', #582, #93 ) ;
#715 = ORIENTED_EDGE ( 'NONE', *, *, #533, .F. ) ;
#716 = LINE ( 'NONE', #287, #373 ) ;
#717 = AXIS2_PLACEMENT_3D ( 'NONE', #793, #441, #722 ) ;
#718 = CYLINDRICAL_SURFACE ( 'NONE', #477, 3.174999999999999822 ) ;
#719 = VECTOR ( 'NONE', #580, 1000.000000000000000 ) ;
#720 = CARTESIAN_POINT ( 'NONE',  ( -43.10276507976452365, -4.999999999999955591, 25.80276777413737932 ) ) ;
#721 = LINE ( 'NONE', #873, #438 ) ;
#722 = DIRECTION ( 'NONE',  ( -1.000000000000000000, 0.000000000000000000, 0.000000000000000000 ) ) ;
#723 = CARTESIAN_POINT ( 'NONE',  ( -58.00000000000000000, -4.750000000000000000, 8.146841372353693730E-15 ) ) ;
#724 = EDGE_CURVE ( 'NONE', #567, #669, #549, .T. ) ;
#725 = VERTEX_POINT ( 'NONE', #520 ) ;
#726 = ORIENTED_EDGE ( 'NONE', *, *, #525, .T. ) ;
#727 = CARTESIAN_POINT ( 'NONE',  ( 4.750000000000219380, 3.175000000000000266, 0.2170115729130814020 ) ) ;
#728 = FACE_OUTER_BOUND ( 'NONE', #77, .T. ) ;
#729 = VERTEX_POINT ( 'NONE', #588 ) ;
#730 = ADVANCED_FACE ( 'NONE', ( #874 ), #44, .F. ) ;
#731 = CARTESIAN_POINT ( 'NONE',  ( 1.044469840471343947, -4.853553390593274841, 0.6030249435565953053 ) ) ;
#732 = CIRCLE ( 'NONE', #702, 4.750000000000215827 ) ;
#733 = CONICAL_SURFACE ( 'NONE', #746, 4.750000000000215827, 0.7853981633974407295 ) ;
#734 = ORIENTED_EDGE ( 'NONE', *, *, #401, .F. ) ;
#735 = APPROVAL_DATE_TIME ( #47, #92 ) ;
#736 = DIRECTION ( 'NONE',  ( 0.8660254037844417052, -8.575622497214323734E-16, -0.4999999999999947264 ) ) ;
#737 = ORIENTED_EDGE ( 'NONE', *, *, #619, .T. ) ;
#738 = DATE_AND_TIME ( #387, #406 ) ;
#739 =( BOUNDED_CURVE ( )  B_SPLINE_CURVE ( 3, ( #710, #220, #731, #372 ),
 .UNSPECIFIED., .F., .T. ) 
 B_SPLINE_CURVE_WITH_KNOTS ( ( 4, 4 ),
 ( 1.570796326794911879, 3.141592653589794004 ),
 .UNSPECIFIED. ) 
 CURVE ( )  GEOMETRIC_REPRESENTATION_ITEM ( )  RATIONAL_B_SPLINE_CURVE ( ( 1.000000000000000000, 0.8047378541243684902, 0.8047378541243684902, 1.000000000000000000 ) ) 
 REPRESENTATION_ITEM ( '' )  );
#740 = CARTESIAN_POINT ( 'NONE',  ( -4.750000000000215827, -3.174999999999999822, 5.056752091629902196E-15 ) ) ;
#741 = EDGE_CURVE ( 'NONE', #478, #326, #732, .T. ) ;
#742 = FACE_OUTER_BOUND ( 'NONE', #899, .T. ) ;
#743 = SECURITY_CLASSIFICATION_LEVEL ( 'unclassified' ) ;
#744 = CARTESIAN_POINT ( 'NONE',  ( 3.626580925572005842, -0.8439669325320371396, 3.068156624411817468 ) ) ;
#745 = CIRCLE ( 'NONE', #850, 3.850000000000249223 ) ;
#746 = AXIS2_PLACEMENT_3D ( 'NONE', #815, #188, #263 ) ;
#747 = LOCAL_TIME ( 23, 19, 44.00000000000000000, #509 ) ;
#748 = LINE ( 'NONE', #888, #602 ) ;
#749 = ORIENTED_EDGE ( 'NONE', *, *, #724, .T. ) ;
#750 = CARTESIAN_POINT ( 'NONE',  ( -4.257476577820813013, -2.378812217928109263, -2.112397442501982248 ) ) ;
#751 = DIRECTION ( 'NONE',  ( 1.000000000000000000, 0.000000000000000000, 0.000000000000000000 ) ) ;
#752 = DIRECTION ( 'NONE',  ( 0.8660254037844379305, 8.575622497214436147E-16, 0.5000000000000013323 ) ) ;
#753 = ORIENTED_EDGE ( 'NONE', *, *, #886, .T. ) ;
#754 = EDGE_CURVE ( 'NONE', #508, #212, #260, .T. ) ;
#755 = CARTESIAN_POINT ( 'NONE',  ( -4.027344410304543487, -1.939106595687699164, -2.522177770491302429 ) ) ;
#756 = DIRECTION ( 'NONE',  ( -0.7071067811865421326, 0.7071067811865530128, -1.299371769758803340E-15 ) ) ;
#757 = CARTESIAN_POINT ( 'NONE',  ( 1.824999999999999067, -8.050000000000000711, 1.358325417967081468E-14 ) ) ;
#758 = EDGE_LOOP ( 'NONE', ( #198, #510 ) ) ;
#759 = CARTESIAN_POINT ( 'NONE',  ( -3.627733953640911224, 0.8487240002602344235, -3.066798644164301813 ) ) ;
#760 = EDGE_CURVE ( 'NONE', #563, #851, #106, .T. ) ;
#761 = CARTESIAN_POINT ( 'NONE',  ( 0.000000000000000000, -5.000000000000001776, -1.206049887113151087 ) ) ;
#762 = AXIS2_PLACEMENT_3D ( 'NONE', #858, #778, #28 ) ;
#763 = CARTESIAN_POINT ( 'NONE',  ( -0.7944698404713581574, -4.749999999999999112, 0.4586873762591743287 ) ) ;
#764 = VECTOR ( 'NONE', #299, 1000.000000000000000 ) ;
#765 = ORIENTED_EDGE ( 'NONE', *, *, #686, .F. ) ;
#766 = CARTESIAN_POINT ( 'NONE',  ( -3.532803132587391648, -0.2126662811457176450, 3.175185362981502557 ) ) ;
#767 = CARTESIAN_POINT ( 'NONE',  ( -1.044469840471344613, -4.750000000000000888, -0.6030249435565837590 ) ) ;
#768 = PLANE ( 'NONE',  #853 ) ;
#769 = ORIENTED_EDGE ( 'NONE', *, *, #864, .T. ) ;
#770 = CARTESIAN_POINT ( 'NONE',  ( -4.636823590299181674, -3.003712578399617250, -1.050037944291681402 ) ) ;
#771 = CARTESIAN_POINT ( 'NONE',  ( 3.805003588656240332, -1.424222673939999906, -2.845139034787254051 ) ) ;
#772 = EDGE_CURVE ( 'NONE', #657, #799, #340, .T. ) ;
#773 = ORIENTED_EDGE ( 'NONE', *, *, #796, .T. ) ;
#774 = DIRECTION ( 'NONE',  ( -0.7071067811865462405, -0.7071067811865489050, 1.212776164135247774E-15 ) ) ;
#775 = CARTESIAN_POINT ( 'NONE',  ( 4.469325470815957324, -2.738867616853576603, -1.618766899444775920 ) ) ;
#776 = CIRCLE ( 'NONE', #120, 1.824999999999999067 ) ;
#777 = VERTEX_POINT ( 'NONE', #836 ) ;
#778 = DIRECTION ( 'NONE',  ( -0.4999999999999946709, -1.485341387170611069E-15, -0.8660254037844418162 ) ) ;
#779 = AXIS2_PLACEMENT_3D ( 'NONE', #193, #68, #834 ) ;
#780 = FACE_OUTER_BOUND ( 'NONE', #432, .T. ) ;
#781 = ORIENTED_EDGE ( 'NONE', *, *, #122, .F. ) ;
#782 = DIRECTION ( 'NONE',  ( -1.000000000000000000, 0.000000000000000000, 0.000000000000000000 ) ) ;
#783 = LINE ( 'NONE', #355, #658 ) ;
#784 = DIRECTION ( 'NONE',  ( 0.000000000000000000, -1.000000000000000000, 1.715124499442882891E-15 ) ) ;
#785 = ORIENTED_EDGE ( 'NONE', *, *, #594, .F. ) ;
#786 = CARTESIAN_POINT ( 'NONE',  ( 0.000000000000000000, -8.050000000000000711, 1.380675222051520758E-14 ) ) ;
#787 = FACE_OUTER_BOUND ( 'NONE', #360, .T. ) ;
#788 = EDGE_CURVE ( 'NONE', #799, #657, #524, .T. ) ;
#789 = CYLINDRICAL_SURFACE ( 'NONE', #388, 0.2500000000000009437 ) ;
#790 = ORIENTED_EDGE ( 'NONE', *, *, #533, .T. ) ;
#791 = CARTESIAN_POINT ( 'NONE',  ( -6.938893903907228378E-15, -7.049999999999998046, 1.206049887113171515 ) ) ;
#792 = VECTOR ( 'NONE', #175, 999.9999999999998863 ) ;
#793 = CARTESIAN_POINT ( 'NONE',  ( 0.000000000000000000, 120.5999999999999801, -2.068440146328116488E-13 ) ) ;
#794 = VECTOR ( 'NONE', #548, 999.9999999999997726 ) ;
#795 = LOCAL_TIME ( 23, 19, 44.00000000000000000, #666 ) ;
#796 = EDGE_CURVE ( 'NONE', #404, #414, #617, .T. ) ;
#797 = CYLINDRICAL_SURFACE ( 'NONE', #321, 4.750000000000215827 ) ;
#798 =( BOUNDED_CURVE ( )  B_SPLINE_CURVE ( 3, ( #763, #829, #409, #138 ),
 .UNSPECIFIED., .F., .T. ) 
 B_SPLINE_CURVE_WITH_KNOTS ( ( 4, 4 ),
 ( 1.570796326794909215, 3.141592653589794004 ),
 .UNSPECIFIED. ) 
 CURVE ( )  GEOMETRIC_REPRESENTATION_ITEM ( )  RATIONAL_B_SPLINE_CURVE ( ( 1.000000000000000000, 0.8047378541243677130, 0.8047378541243677130, 1.000000000000000000 ) ) 
 REPRESENTATION_ITEM ( '' )  );
#799 = VERTEX_POINT ( 'NONE', #440 ) ;
#800 = ORIENTED_EDGE ( 'NONE', *, *, #461, .F. ) ;
#801 = CARTESIAN_POINT ( 'NONE',  ( -1.044469840471358379, -7.049999999999998934, 0.6030249435565822047 ) ) ;
#802 = DIRECTION ( 'NONE',  ( 0.000000000000000000, -1.000000000000000000, 1.715124499442882693E-15 ) ) ;
#803 = EDGE_CURVE ( 'NONE', #541, #616, #301, .T. ) ;
#804 = CARTESIAN_POINT ( 'NONE',  ( 1.044469840471344613, -4.999999999999999112, 0.6030249435565930849 ) ) ;
#805 = APPROVAL_STATUS ( 'not_yet_approved' ) ;
#806 = CARTESIAN_POINT ( 'NONE',  ( 0.000000000000000000, 119.7000000000000313, -2.053004025833131211E-13 ) ) ;
#807 = ORIENTED_EDGE ( 'NONE', *, *, #45, .F. ) ;
#808 = PERSON_AND_ORGANIZATION ( #163, #420 ) ;
#809 = CARTESIAN_POINT ( 'NONE',  ( -0.7944698404713512740, -4.750000000000000000, 6.664000508542097856E-13 ) ) ;
#810 = APPROVAL_PERSON_ORGANIZATION ( #880, #257, #661 ) ;
#811 = EDGE_LOOP ( 'NONE', ( #826, #248, #117, #180 ) ) ;
#812 = APPROVAL_STATUS ( 'not_yet_approved' ) ;
#813 = CARTESIAN_POINT ( 'NONE',  ( 5.549999999999992717, 0.000000000000000000, 0.000000000000000000 ) ) ;
#814 = EDGE_CURVE ( 'NONE', #389, #508, #845, .T. ) ;
#815 = CARTESIAN_POINT ( 'NONE',  ( 0.000000000000000000, -7.149999999999991473, 1.226314017101659784E-14 ) ) ;
#816 = PERSON_AND_ORGANIZATION_ROLE ( 'classification_officer' ) ;
#817 = CARTESIAN_POINT ( 'NONE',  ( 4.469620787030902598, -2.739362629352943834, 1.618038265327190084 ) ) ;
#818 = PRODUCT_DEFINITION ( 'UNKNOWN', '', #362, #139 ) ;
#819 = LINE ( 'NONE', #825, #615 ) ;
#820 = EDGE_LOOP ( 'NONE', ( #641, #225, #330, #82 ) ) ;
#821 = CARTESIAN_POINT ( 'NONE',  ( 4.636100962980349571, 3.002579815506801975, 1.052730612587293280 ) ) ;
#822 = DIRECTION ( 'NONE',  ( 0.000000000000000000, 1.000000000000000000, -1.715124499442882891E-15 ) ) ;
#823 = VECTOR ( 'NONE', #543, 1000.000000000000000 ) ;
#824 = AXIS2_PLACEMENT_3D ( 'NONE', #234, #205, #272 ) ;
#825 = CARTESIAN_POINT ( 'NONE',  ( 0.7944698404713581574, -4.750000000000000000, 3.464152602153173978E-13 ) ) ;
#826 = ORIENTED_EDGE ( 'NONE', *, *, #663, .F. ) ;
#827 = CARTESIAN_POINT ( 'NONE',  ( -3.533138435328198046, 0.2181654801072935301, 3.174812255822048623 ) ) ;
#828 = CARTESIAN_POINT ( 'NONE',  ( 3.552463487839284006, -0.4249967332790667296, -3.153680140294991219 ) ) ;
#829 = CARTESIAN_POINT ( 'NONE',  ( -0.9409164498780803187, -4.750000000000000888, 0.5432383656220604040 ) ) ;
#830 = ADVANCED_FACE ( 'NONE', ( #292 ), #297, .F. ) ;
#831 = ORIENTED_EDGE ( 'NONE', *, *, #381, .T. ) ;
#832 = CARTESIAN_POINT ( 'NONE',  ( -4.027598093653646849, 1.939555991657167411, 2.521733120102904291 ) ) ;
#833 = CARTESIAN_POINT ( 'NONE',  ( 3.533138435328198490, 0.2181654801072845651, -3.174812255822049956 ) ) ;
#834 = DIRECTION ( 'NONE',  ( 0.8660254037844353769, 8.575622497214509116E-16, 0.5000000000000055511 ) ) ;
#835 = VERTEX_POINT ( 'NONE', #564 ) ;
#836 = CARTESIAN_POINT ( 'NONE',  ( -4.750000000000215827, -7.149999999999991473, 1.168143294142157906E-14 ) ) ;
#837 = LINE ( 'NONE', #152, #583 ) ;
#838 = FACE_OUTER_BOUND ( 'NONE', #758, .T. ) ;
#839 = AXIS2_PLACEMENT_3D ( 'NONE', #517, #294, #664 ) ;
#840 = ORIENTED_EDGE ( 'NONE', *, *, #686, .T. ) ;
#841 = CARTESIAN_POINT ( 'NONE',  ( -4.735244985233237003, -3.153049703170174745, 0.4299685035631800600 ) ) ;
#842 = CARTESIAN_POINT ( 'NONE',  ( 3.553813510921896679, 0.4349595027883035869, -3.152158770993581438 ) ) ;
#843 = EDGE_CURVE ( 'NONE', #729, #894, #86, .T. ) ;
#844 = EDGE_LOOP ( 'NONE', ( #23, #236 ) ) ;
#845 = LINE ( 'NONE', #219, #451 ) ;
#846 = CARTESIAN_POINT ( 'NONE',  ( 3.626506564864111937, -0.8439047670615035246, -3.068247935666180481 ) ) ;
#847 = ORIENTED_EDGE ( 'NONE', *, *, #843, .F. ) ;
#848 = FACE_OUTER_BOUND ( 'NONE', #444, .T. ) ;
#849 = ADVANCED_FACE ( 'NONE', ( #157 ), #424, .F. ) ;
#850 = AXIS2_PLACEMENT_3D ( 'NONE', #31, #492, #644 ) ;
#851 = VERTEX_POINT ( 'NONE', #216 ) ;
#852 = DIRECTION ( 'NONE',  ( -0.8660254037844352659, -8.575622497214510102E-16, -0.5000000000000056621 ) ) ;
#853 = AXIS2_PLACEMENT_3D ( 'NONE', #701, #427, #707 ) ;
#854 = CARTESIAN_POINT ( 'NONE',  ( 4.750000000000215827, -3.174999999999999822, 5.056637762384939975E-15 ) ) ;
#855 = DIRECTION ( 'NONE',  ( 0.000000000000000000, 1.000000000000000000, -1.715124499442882891E-15 ) ) ;
#856 = ORIENTED_EDGE ( 'NONE', *, *, #458, .T. ) ;
#857 = EDGE_CURVE ( 'NONE', #63, #851, #861, .T. ) ;
#858 = CARTESIAN_POINT ( 'NONE',  ( -1.044469840471344613, -4.750000000000000888, -0.6030249435565837590 ) ) ;
#859 = FACE_OUTER_BOUND ( 'NONE', #140, .T. ) ;
#860 = CARTESIAN_POINT ( 'NONE',  ( -4.750000000000215827, -8.050000000000000711, 1.322504499092018723E-14 ) ) ;
#861 =( BOUNDED_CURVE ( )  B_SPLINE_CURVE ( 3, ( #577, #433, #357, #496 ),
 .UNSPECIFIED., .F., .T. ) 
 B_SPLINE_CURVE_WITH_KNOTS ( ( 4, 4 ),
 ( 9.902275914470631335E-16, 1.570796326794898112 ),
 .UNSPECIFIED. ) 
 CURVE ( )  GEOMETRIC_REPRESENTATION_ITEM ( )  RATIONAL_B_SPLINE_CURVE ( ( 1.000000000000000000, 0.8047378541243649375, 0.8047378541243649375, 1.000000000000000000 ) ) 
 REPRESENTATION_ITEM ( '' )  );
#862 = ORIENTED_EDGE ( 'NONE', *, *, #741, .T. ) ;
#863 = DIRECTION ( 'NONE',  ( -5.753405375723203803E-15, 1.715124499442882891E-15, 1.000000000000000000 ) ) ;
#864 = EDGE_CURVE ( 'NONE', #541, #5, #24, .T. ) ;
#865 = DIRECTION ( 'NONE',  ( -0.8660254037844405950, 8.575622497214358247E-16, 0.4999999999999967248 ) ) ;
#866 = FACE_OUTER_BOUND ( 'NONE', #10, .T. ) ;
#867 = CALENDAR_DATE ( 2026, 13, 6 ) ;
#868 = LINE ( 'NONE', #497, #209 ) ;
#869 = AXIS2_PLACEMENT_3D ( 'NONE', #398, #544, #472 ) ;
#870 = EDGE_CURVE ( 'NONE', #212, #508, #776, .T. ) ;
#871 = LINE ( 'NONE', #442, #408 ) ;
#872 = APPLICATION_CONTEXT ( 'configuration controlled 3d designs of mechanical parts and assemblies' ) ;
#873 = CARTESIAN_POINT ( 'NONE',  ( 4.750000000000215827, -8.050000000000000711, 1.380675222051520758E-14 ) ) ;
#874 = FACE_OUTER_BOUND ( 'NONE', #708, .T. ) ;
#875 = FACE_OUTER_BOUND ( 'NONE', #190, .T. ) ;
#876 = DIRECTION ( 'NONE',  ( 0.000000000000000000, 1.000000000000000000, -1.715124499442882693E-15 ) ) ;
#877 = APPLICATION_PROTOCOL_DEFINITION ( 'international standard', 'config_control_design', 1994, #872 ) ;
#878 = CARTESIAN_POINT ( 'NONE',  ( 3.681701886260809076, 1.051073795388810073, 3.002978651714697023 ) ) ;
#879 = ORIENTED_EDGE ( 'NONE', *, *, #381, .F. ) ;
#880 = PERSON_AND_ORGANIZATION ( #163, #420 ) ;
#881 = VECTOR ( 'NONE', #638, 1000.000000000000000 ) ;
#882 = CARTESIAN_POINT ( 'NONE',  ( 4.334881189844078442, 2.513505652599028917, 1.950456013196049332 ) ) ;
#883 = AXIS2_PLACEMENT_3D ( 'NONE', #201, #341, #624 ) ;
#884 = DIRECTION ( 'NONE',  ( -0.000000000000000000, -1.000000000000000000, 1.715124499442882693E-15 ) ) ;
#885 = DATE_TIME_ROLE ( 'creation_date' ) ;
#886 = EDGE_CURVE ( 'NONE', #567, #657, #716, .T. ) ;
#887 = CARTESIAN_POINT ( 'NONE',  ( 4.332854822084759583, -2.510025606343463611, 1.954974909981871400 ) ) ;
#888 = CARTESIAN_POINT ( 'NONE',  ( 4.750000000000215827, -7.149999999999991473, 1.226314017101659784E-14 ) ) ;
#889 = ORIENTED_EDGE ( 'NONE', *, *, #296, .F. ) ;
#890 = CARTESIAN_POINT ( 'NONE',  ( 3.869144398534512419, 1.617161943944923408, 2.762871671121425621 ) ) ;
#891 =( BOUNDED_CURVE ( )  B_SPLINE_CURVE ( 3, ( #662, #56, #110, #40 ),
 .UNSPECIFIED., .F., .T. ) 
 B_SPLINE_CURVE_WITH_KNOTS ( ( 4, 4 ),
 ( 3.141592653589794004, 4.712388980384685233 ),
 .UNSPECIFIED. ) 
 CURVE ( )  GEOMETRIC_REPRESENTATION_ITEM ( )  RATIONAL_B_SPLINE_CURVE ( ( 1.000000000000000000, 0.8047378541243662697, 0.8047378541243662697, 1.000000000000000000 ) ) 
 REPRESENTATION_ITEM ( '' )  );
#892 = EDGE_CURVE ( 'NONE', #104, #326, #568, .T. ) ;
#893 = PLANE ( 'NONE',  #779 ) ;
#894 = VERTEX_POINT ( 'NONE', #99 ) ;
#895 = CARTESIAN_POINT ( 'NONE',  ( -4.335073638846397515, 2.523643924636519653, 1.967990086833398822 ) ) ;
#896 = CARTESIAN_POINT ( 'NONE',  ( 0.000000000000000000, -8.050000000000000711, 1.380675222051520758E-14 ) ) ;
#897 = ADVANCED_FACE ( 'NONE', ( #429, #503 ), #713, .T. ) ;
#898 = FACE_OUTER_BOUND ( 'NONE', #844, .T. ) ;
#899 = EDGE_LOOP ( 'NONE', ( #410, #218, #469, #423 ) ) ;
#900 = CARTESIAN_POINT ( 'NONE',  ( -4.750000000000219380, 3.174999999999999822, -5.445520285731153493E-15 ) ) ;
#901 = CARTESIAN_POINT ( 'NONE',  ( 4.750000000000219380, 3.174999999999998934, -0.2172958725550961090 ) ) ;
#902 = CYLINDRICAL_SURFACE ( 'NONE', #334, 0.2500000000000009437 ) ;
#903 = ORIENTED_EDGE ( 'NONE', *, *, #843, .T. ) ;
#904 = CARTESIAN_POINT ( 'NONE',  ( -4.750000000000218492, 3.174999999999999822, 0.2172958725550852288 ) ) ;
#905 = CARTESIAN_POINT ( 'NONE',  ( 3.532803132587392980, -0.2126662811457263047, -3.175185362981503001 ) ) ;
#906 = CARTESIAN_POINT ( 'NONE',  ( -43.89723492023599505, -4.749999999999958256, 24.42670564535978173 ) ) ;
#907 = ORIENTED_EDGE ( 'NONE', *, *, #241, .T. ) ;
#908 = ADVANCED_FACE ( 'NONE', ( #226 ), #499, .T. ) ;
#909 = CARTESIAN_POINT ( 'NONE',  ( -4.480705382005214510, 2.758735548222850831, 1.625862938240356881 ) ) ;
ENDSEC;
END-ISO-10303-21;
