ISO-10303-21;
HEADER;
FILE_DESCRIPTION (( 'STEP AP203' ),
    '1' );
FILE_NAME ('Plastico_enc_Predeterminado_sldprt.STEP',
    '2026-06-14T04:19:26',
    ( '' ),
    ( '' ),
    'SwSTEP 2.0',
    'SolidWorks 2025',
    '' );
FILE_SCHEMA (( 'CONFIG_CONTROL_DESIGN' ));
ENDSEC;

DATA;
#1 = CARTESIAN_POINT ( 'NONE',  ( -4.699999999999999289, 0.000000000000000000, 0.6000000000024778846 ) ) ;
#2 = DIRECTION ( 'NONE',  ( 1.000000000000000000, 0.000000000000000000, -5.270506253651774387E-13 ) ) ;
#3 = VERTEX_POINT ( 'NONE', #369 ) ;
#4 = AXIS2_PLACEMENT_3D ( 'NONE', #633, #95, #585 ) ;
#5 = AXIS2_PLACEMENT_3D ( 'NONE', #581, #26, #438 ) ;
#6 = DIRECTION ( 'NONE',  ( -5.270506253651774387E-13, 0.000000000000000000, -1.000000000000000000 ) ) ;
#7 = VERTEX_POINT ( 'NONE', #419 ) ;
#8 = ORIENTED_EDGE ( 'NONE', *, *, #64, .F. ) ;
#9 = PERSON ( 'UNSPECIFIED', 'UNSPECIFIED', 'UNSPECIFIED', ('UNSPECIFIED'), ('UNSPECIFIED'), ('UNSPECIFIED') ) ;
#10 = FACE_OUTER_BOUND ( 'NONE', #382, .T. ) ;
#11 = ORIENTED_EDGE ( 'NONE', *, *, #224, .T. ) ;
#12 = EDGE_CURVE ( 'NONE', #587, #298, #540, .T. ) ;
#13 = DIRECTION ( 'NONE',  ( 0.000000000000000000, 1.224646799147353454E-16, 1.000000000000000000 ) ) ;
#14 = AXIS2_PLACEMENT_3D ( 'NONE', #316, #564, #573 ) ;
#15 = CIRCLE ( 'NONE', #623, 0.9999999999999991118 ) ;
#16 = EDGE_CURVE ( 'NONE', #133, #188, #620, .T. ) ;
#17 = ORIENTED_EDGE ( 'NONE', *, *, #622, .F. ) ;
#18 = CARTESIAN_POINT ( 'NONE',  ( 6.599999999993730881, 0.000000000000000000, -11.30000000000347882 ) ) ;
#19 = EDGE_LOOP ( 'NONE', ( #528, #167 ) ) ;
#20 = ADVANCED_FACE ( 'NONE', ( #517, #436 ), #288, .F. ) ;
#21 = DIRECTION ( 'NONE',  ( -5.270735398520228598E-13, 0.000000000000000000, -1.000000000000000000 ) ) ;
#22 = ORIENTED_EDGE ( 'NONE', *, *, #208, .T. ) ;
#23 = CARTESIAN_POINT ( 'NONE',  ( 4.600000000007064216, 1.641026710857453510E-15, 13.99999999999757883 ) ) ;
#24 = TOROIDAL_SURFACE ( 'NONE', #14, 13.69999999999999929, 0.5000000000000000000 ) ;
#25 = AXIS2_PLACEMENT_3D ( 'NONE', #228, #578, #75 ) ;
#26 = DIRECTION ( 'NONE',  ( 1.000000000000000000, 0.000000000000000000, -5.270506253651774387E-13 ) ) ;
#27 = DIRECTION ( 'NONE',  ( -1.000000000000000000, 0.000000000000000000, 5.270506253651774387E-13 ) ) ;
#28 = CARTESIAN_POINT ( 'NONE',  ( 4.100000000000002309, 0.000000000000000000, 0.5999999999978399279 ) ) ;
#29 = COORDINATED_UNIVERSAL_TIME_OFFSET ( 5, 0, .BEHIND. ) ;
#30 = FACE_OUTER_BOUND ( 'NONE', #467, .T. ) ;
#31 = DIRECTION ( 'NONE',  ( -1.000000000000000000, 0.000000000000000000, 5.270506253651774387E-13 ) ) ;
#32 = COORDINATED_UNIVERSAL_TIME_OFFSET ( 5, 0, .BEHIND. ) ;
#33 = CIRCLE ( 'NONE', #264, 5.599999999999998757 ) ;
#34 = LOCAL_TIME ( 23, 19, 26.00000000000000000, #82 ) ;
#35 = FACE_BOUND ( 'NONE', #563, .T. ) ;
#36 = ORIENTED_EDGE ( 'NONE', *, *, #126, .F. ) ;
#37 =( LENGTH_UNIT ( ) NAMED_UNIT ( * ) SI_UNIT ( .MILLI., .METRE. ) );
#38 = ORIENTED_EDGE ( 'NONE', *, *, #293, .T. ) ;
#39 = DIRECTION ( 'NONE',  ( -5.270735398520228598E-13, 0.000000000000000000, -1.000000000000000000 ) ) ;
#40 = APPROVAL ( #341, 'UNSPECIFIED' ) ;
#41 = FACE_OUTER_BOUND ( 'NONE', #363, .T. ) ;
#42 = ADVANCED_FACE ( 'NONE', ( #41 ), #237, .T. ) ;
#43 = ORIENTED_EDGE ( 'NONE', *, *, #44, .T. ) ;
#44 = EDGE_CURVE ( 'NONE', #587, #353, #250, .T. ) ;
#45 = DIRECTION ( 'NONE',  ( 5.270461646476678994E-13, 0.000000000000000000, 1.000000000000000000 ) ) ;
#46 = VERTEX_POINT ( 'NONE', #392 ) ;
#47 = AXIS2_PLACEMENT_3D ( 'NONE', #354, #508, #443 ) ;
#48 = ORIENTED_EDGE ( 'NONE', *, *, #387, .F. ) ;
#49 = CIRCLE ( 'NONE', #306, 12.90000000000000213 ) ;
#50 = CARTESIAN_POINT ( 'NONE',  ( -0.8999999999999989120, 0.000000000000000000, 0.6000000000004751533 ) ) ;
#51 = DIRECTION ( 'NONE',  ( -5.270520546795907776E-13, 0.000000000000000000, -1.000000000000000000 ) ) ;
#52 = VERTEX_POINT ( 'NONE', #572 ) ;
#53 = DIRECTION ( 'NONE',  ( -1.000000000000000000, 0.000000000000000000, 5.270506253651774387E-13 ) ) ;
#54 = CARTESIAN_POINT ( 'NONE',  ( 0.6000000000029539482, 6.858022075225177566E-16, 6.199999999999684874 ) ) ;
#55 = DIRECTION ( 'NONE',  ( 1.000000000000000000, -0.000000000000000000, -5.270506253651774387E-13 ) ) ;
#56 = ORIENTED_EDGE ( 'NONE', *, *, #521, .T. ) ;
#57 = AXIS2_PLACEMENT_3D ( 'NONE', #196, #202, #304 ) ;
#58 = AXIS2_PLACEMENT_3D ( 'NONE', #526, #27, #433 ) ;
#59 = CC_DESIGN_APPROVAL ( #76, ( #626 ) ) ;
#60 = DIRECTION ( 'NONE',  ( 1.000000000000000000, 0.000000000000000000, -5.270506253651774387E-13 ) ) ;
#61 = VERTEX_POINT ( 'NONE', #96 ) ;
#62 = CARTESIAN_POINT ( 'NONE',  ( 0.6000000000000024203, 0.000000000000000000, 0.5999999999996845634 ) ) ;
#63 = ORIENTED_EDGE ( 'NONE', *, *, #577, .F. ) ;
#64 = EDGE_CURVE ( 'NONE', #133, #587, #370, .T. ) ;
#65 = ADVANCED_FACE ( 'NONE', ( #247 ), #222, .T. ) ;
#66 = DIRECTION ( 'NONE',  ( -1.000000000000000000, -0.000000000000000000, 5.270506253651774387E-13 ) ) ;
#67 = EDGE_LOOP ( 'NONE', ( #636, #609 ) ) ;
#68 = DIRECTION ( 'NONE',  ( 1.000000000000000000, 0.000000000000000000, -5.270506253651774387E-13 ) ) ;
#69 = CIRCLE ( 'NONE', #162, 5.599999999999998757 ) ;
#70 = AXIS2_PLACEMENT_3D ( 'NONE', #477, #182, #427 ) ;
#71 = ORIENTED_EDGE ( 'NONE', *, *, #574, .T. ) ;
#72 = CARTESIAN_POINT ( 'NONE',  ( 6.600000000006802203, 0.000000000000000000, 13.49999999999652367 ) ) ;
#73 = ORIENTED_EDGE ( 'NONE', *, *, #368, .T. ) ;
#74 = DIRECTION ( 'NONE',  ( -1.000000000000000000, 0.000000000000000000, 5.270506253651774387E-13 ) ) ;
#75 = DIRECTION ( 'NONE',  ( -5.270647057484277147E-13, 0.000000000000000000, -1.000000000000000000 ) ) ;
#76 = APPROVAL ( #498, 'UNSPECIFIED' ) ;
#77 = VECTOR ( 'NONE', #300, 1000.000000000000000 ) ;
#78 = AXIS2_PLACEMENT_3D ( 'NONE', #428, #380, #634 ) ;
#79 = CC_DESIGN_APPROVAL ( #40, ( #435 ) ) ;
#80 = DIRECTION ( 'NONE',  ( -5.270606646159321030E-13, 0.000000000000000000, -1.000000000000000000 ) ) ;
#81 = ADVANCED_BREP_SHAPE_REPRESENTATION ( 'Plastico_enc_Predeterminado_sldprt', ( #541, #323 ), #180 ) ;
#82 = COORDINATED_UNIVERSAL_TIME_OFFSET ( 5, 0, .BEHIND. ) ;
#83 = PLANE ( 'NONE',  #391 ) ;
#84 = VERTEX_POINT ( 'NONE', #446 ) ;
#85 = CARTESIAN_POINT ( 'NONE',  ( -4.699999999999999289, 0.000000000000000000, 0.6000000000024778846 ) ) ;
#86 = VERTEX_POINT ( 'NONE', #455 ) ;
#87 = CIRCLE ( 'NONE', #375, 14.19999999999999929 ) ;
#88 = PERSON_AND_ORGANIZATION ( #9, #485 ) ;
#89 = VECTOR ( 'NONE', #171, 1000.000000000000000 ) ;
#90 = ADVANCED_FACE ( 'NONE', ( #544 ), #240, .T. ) ;
#91 = DIRECTION ( 'NONE',  ( 1.000000000000000000, 0.000000000000000000, -5.270506253651774387E-13 ) ) ;
#92 = EDGE_LOOP ( 'NONE', ( #355, #139 ) ) ;
#93 = PERSON_AND_ORGANIZATION_ROLE ( 'creator' ) ;
#94 = DIRECTION ( 'NONE',  ( -6.454508613420753787E-29, 1.000000000000000000, -1.224646799147353207E-16 ) ) ;
#95 = DIRECTION ( 'NONE',  ( -1.000000000000000000, 0.000000000000000000, 5.270506253651774387E-13 ) ) ;
#96 = CARTESIAN_POINT ( 'NONE',  ( 6.600000000006274625, 1.518562030942718164E-15, 12.49999999999652189 ) ) ;
#97 = DATE_AND_TIME ( #251, #360 ) ;
#98 = AXIS2_PLACEMENT_3D ( 'NONE', #551, #244, #153 ) ;
#99 = TOROIDAL_SURFACE ( 'NONE', #70, 13.40000000000000213, 0.5000000000000000000 ) ;
#100 = DIRECTION ( 'NONE',  ( 1.000000000000000000, 0.000000000000000000, -5.270506253651774387E-13 ) ) ;
#101 = APPROVAL_PERSON_ORGANIZATION ( #457, #76, #160 ) ;
#102 = DIRECTION ( 'NONE',  ( 1.000000000000000000, 0.000000000000000000, -5.270506253651774387E-13 ) ) ;
#103 = VERTEX_POINT ( 'NONE', #497 ) ;
#104 = DIRECTION ( 'NONE',  ( 0.000000000000000000, 0.000000000000000000, -1.000000000000000000 ) ) ;
#105 = ORIENTED_EDGE ( 'NONE', *, *, #577, .T. ) ;
#106 = DIRECTION ( 'NONE',  ( -5.270506253651774387E-13, 0.000000000000000000, -1.000000000000000000 ) ) ;
#107 = ORIENTED_EDGE ( 'NONE', *, *, #248, .F. ) ;
#108 = CIRCLE ( 'NONE', #47, 13.69999999999999929 ) ;
#109 = CC_DESIGN_PERSON_AND_ORGANIZATION_ASSIGNMENT ( #138, #289, ( #282 ) ) ;
#110 = APPROVAL_PERSON_ORGANIZATION ( #193, #40, #491 ) ;
#111 = CARTESIAN_POINT ( 'NONE',  ( 3.600000000000001421, 0.000000000000000000, 0.5999999999981033838 ) ) ;
#112 = ADVANCED_FACE ( 'NONE', ( #210, #147 ), #308, .T. ) ;
#113 = ORIENTED_EDGE ( 'NONE', *, *, #156, .T. ) ;
#114 = EDGE_CURVE ( 'NONE', #353, #103, #108, .T. ) ;
#115 = CARTESIAN_POINT ( 'NONE',  ( 6.600000000000002309, 0.000000000000000000, 0.5999999999965223152 ) ) ;
#116 = ORIENTED_EDGE ( 'NONE', *, *, #64, .T. ) ;
#117 = DIRECTION ( 'NONE',  ( 1.000000000000000000, 0.000000000000000000, -5.270506253651774387E-13 ) ) ;
#118 = EDGE_LOOP ( 'NONE', ( #335, #116, #161, #113 ) ) ;
#119 = DIRECTION ( 'NONE',  ( -5.270461646476678994E-13, 0.000000000000000000, -1.000000000000000000 ) ) ;
#120 = TOROIDAL_SURFACE ( 'NONE', #483, 11.90000000000000036, 1.000000000000000000 ) ;
#121 = ORIENTED_EDGE ( 'NONE', *, *, #460, .T. ) ;
#122 = CARTESIAN_POINT ( 'NONE',  ( 6.600000000000002309, 0.000000000000000000, 0.5999999999965223152 ) ) ;
#123 = CARTESIAN_POINT ( 'NONE',  ( -0.8999999999925147876, 0.000000000000000000, 14.80000000000047500 ) ) ;
#124 = DIRECTION ( 'NONE',  ( 1.000000000000000000, -0.000000000000000000, -5.270506253651774387E-13 ) ) ;
#125 = VECTOR ( 'NONE', #55, 1000.000000000000000 ) ;
#126 = EDGE_CURVE ( 'NONE', #303, #556, #452, .T. ) ;
#127 = DIRECTION ( 'NONE',  ( 1.000000000000000000, 0.000000000000000000, 0.000000000000000000 ) ) ;
#128 = ADVANCED_FACE ( 'NONE', ( #151, #610 ), #651, .T. ) ;
#129 = CYLINDRICAL_SURFACE ( 'NONE', #523, 13.99999999999999822 ) ;
#130 = ORIENTED_EDGE ( 'NONE', *, *, #271, .T. ) ;
#131 = DATE_AND_TIME ( #229, #324 ) ;
#132 = DIRECTION ( 'NONE',  ( 0.000000000000000000, 0.000000000000000000, -1.000000000000000000 ) ) ;
#133 = VERTEX_POINT ( 'NONE', #503 ) ;
#134 = EDGE_CURVE ( 'NONE', #638, #7, #136, .T. ) ;
#135 = CARTESIAN_POINT ( 'NONE',  ( -4.699999999999999289, 0.000000000000000000, 0.6000000000024778846 ) ) ;
#136 = CIRCLE ( 'NONE', #315, 14.09999999999999964 ) ;
#137 = AXIS2_PLACEMENT_3D ( 'NONE', #494, #100, #146 ) ;
#138 = PERSON_AND_ORGANIZATION ( #9, #485 ) ;
#139 = ORIENTED_EDGE ( 'NONE', *, *, #269, .T. ) ;
#140 = DIRECTION ( 'NONE',  ( 0.000000000000000000, -1.000000000000000000, -0.000000000000000000 ) ) ;
#141 = ORIENTED_EDGE ( 'NONE', *, *, #224, .F. ) ;
#142 = PERSON_AND_ORGANIZATION ( #9, #485 ) ;
#143 = CC_DESIGN_PERSON_AND_ORGANIZATION_ASSIGNMENT ( #142, #542, ( #626 ) ) ;
#144 = DIRECTION ( 'NONE',  ( 5.270735398520228598E-13, 0.000000000000000000, 1.000000000000000000 ) ) ;
#145 = PLANE ( 'NONE',  #273 ) ;
#146 = DIRECTION ( 'NONE',  ( -5.270506253651774387E-13, 0.000000000000000000, -1.000000000000000000 ) ) ;
#147 = FACE_OUTER_BOUND ( 'NONE', #67, .T. ) ;
#148 = CIRCLE ( 'NONE', #513, 12.90000000000000213 ) ;
#149 = VECTOR ( 'NONE', #175, 1000.000000000000000 ) ;
#150 = DIRECTION ( 'NONE',  ( 1.000000000000000000, 0.000000000000000000, -5.270506253651774387E-13 ) ) ;
#151 = FACE_BOUND ( 'NONE', #317, .T. ) ;
#152 = ORIENTED_EDGE ( 'NONE', *, *, #272, .T. ) ;
#153 = DIRECTION ( 'NONE',  ( 5.270529752388222109E-13, 0.000000000000000000, 1.000000000000000000 ) ) ;
#154 = ADVANCED_FACE ( 'NONE', ( #397 ), #145, .T. ) ;
#155 = EDGE_LOOP ( 'NONE', ( #504, #22 ) ) ;
#156 = EDGE_CURVE ( 'NONE', #298, #188, #87, .T. ) ;
#157 = EDGE_CURVE ( 'NONE', #556, #582, #600, .T. ) ;
#158 = CARTESIAN_POINT ( 'NONE',  ( -4.699999999999999289, 0.000000000000000000, 0.6000000000024778846 ) ) ;
#159 = EDGE_CURVE ( 'NONE', #291, #86, #501, .T. ) ;
#160 = APPROVAL_ROLE ( '' ) ;
#161 = ORIENTED_EDGE ( 'NONE', *, *, #12, .T. ) ;
#162 = AXIS2_PLACEMENT_3D ( 'NONE', #569, #575, #516 ) ;
#163 = CIRCLE ( 'NONE', #192, 14.09999999999999787 ) ;
#164 = CARTESIAN_POINT ( 'NONE',  ( 5.600000000000003197, 0.000000000000000000, 0.5999999999970493381 ) ) ;
#165 = ORIENTED_EDGE ( 'NONE', *, *, #272, .F. ) ;
#166 = DIRECTION ( 'NONE',  ( -5.270771418525959845E-13, 0.000000000000000000, -1.000000000000000000 ) ) ;
#167 = ORIENTED_EDGE ( 'NONE', *, *, #389, .F. ) ;
#168 = DIRECTION ( 'NONE',  ( -6.454508613420753787E-29, 1.000000000000000000, -1.224646799147353207E-16 ) ) ;
#169 = EDGE_LOOP ( 'NONE', ( #565, #38, #71, #186 ) ) ;
#170 = AXIS2_PLACEMENT_3D ( 'NONE', #158, #102, #594 ) ;
#171 = DIRECTION ( 'NONE',  ( -1.000000000000000000, 0.000000000000000000, 5.270506253651774387E-13 ) ) ;
#172 = CIRCLE ( 'NONE', #191, 0.5000000000000004441 ) ;
#173 = ORIENTED_EDGE ( 'NONE', *, *, #648, .F. ) ;
#174 = CARTESIAN_POINT ( 'NONE',  ( 4.600000000000002309, 0.000000000000000000, 0.5999999999975763609 ) ) ;
#175 = DIRECTION ( 'NONE',  ( -1.000000000000000000, 0.000000000000000000, 5.270506253651774387E-13 ) ) ;
#176 = EDGE_CURVE ( 'NONE', #84, #625, #449, .T. ) ;
#177 = EDGE_CURVE ( 'NONE', #253, #465, #495, .T. ) ;
#178 = DIRECTION ( 'NONE',  ( 1.000000000000000000, 0.000000000000000000, -5.270506253651774387E-13 ) ) ;
#179 = CIRCLE ( 'NONE', #348, 5.599999999999999645 ) ;
#180 =( GEOMETRIC_REPRESENTATION_CONTEXT ( 3 ) GLOBAL_UNCERTAINTY_ASSIGNED_CONTEXT ( ( #259 ) ) GLOBAL_UNIT_ASSIGNED_CONTEXT ( ( #37, #426, #531 ) ) REPRESENTATION_CONTEXT ( 'NONE', 'WORKASPACE' ) );
#181 = CARTESIAN_POINT ( 'NONE',  ( 0.000000000000000000, 0.000000000000000000, 0.000000000000000000 ) ) ;
#182 = DIRECTION ( 'NONE',  ( 1.000000000000000000, 0.000000000000000000, -5.270506253651774387E-13 ) ) ;
#183 = ORIENTED_EDGE ( 'NONE', *, *, #261, .F. ) ;
#184 = CARTESIAN_POINT ( 'NONE',  ( -0.8999999999925674121, 0.000000000000000000, 14.70000000000047535 ) ) ;
#185 = FACE_OUTER_BOUND ( 'NONE', #268, .T. ) ;
#186 = ORIENTED_EDGE ( 'NONE', *, *, #521, .F. ) ;
#187 = CALENDAR_DATE ( 2026, 13, 6 ) ;
#188 = VERTEX_POINT ( 'NONE', #302 ) ;
#189 = DIRECTION ( 'NONE',  ( -1.000000000000000000, 0.000000000000000000, 5.270506253651774387E-13 ) ) ;
#190 = ORIENTED_EDGE ( 'NONE', *, *, #555, .F. ) ;
#191 = AXIS2_PLACEMENT_3D ( 'NONE', #23, #168, #13 ) ;
#192 = AXIS2_PLACEMENT_3D ( 'NONE', #425, #639, #80 ) ;
#193 = PERSON_AND_ORGANIZATION ( #9, #485 ) ;
#194 = PRODUCT_DEFINITION_FORMATION_WITH_SPECIFIED_SOURCE ( 'ANY', '', #282, .NOT_KNOWN. ) ;
#195 = CARTESIAN_POINT ( 'NONE',  ( -4.699999999999999289, 0.000000000000000000, 0.6000000000024778846 ) ) ;
#196 = CARTESIAN_POINT ( 'NONE',  ( 3.600000000000001421, 0.000000000000000000, 0.5999999999981033838 ) ) ;
#197 = ORIENTED_EDGE ( 'NONE', *, *, #159, .T. ) ;
#198 = CARTESIAN_POINT ( 'NONE',  ( -6.599999999999998757, 0.000000000000000000, 0.6000000000034794168 ) ) ;
#199 = CARTESIAN_POINT ( 'NONE',  ( -0.8999999999999989120, 0.000000000000000000, 0.6000000000004751533 ) ) ;
#200 = ORIENTED_EDGE ( 'NONE', *, *, #379, .T. ) ;
#201 = CARTESIAN_POINT ( 'NONE',  ( -4.700000000007430678, 1.726751986797767995E-15, -13.49999999999752376 ) ) ;
#202 = DIRECTION ( 'NONE',  ( -1.000000000000000000, -0.000000000000000000, 5.270506253651774387E-13 ) ) ;
#203 = COORDINATED_UNIVERSAL_TIME_OFFSET ( 5, 0, .BEHIND. ) ;
#204 = VECTOR ( 'NONE', #74, 1000.000000000000000 ) ;
#205 = ORIENTED_EDGE ( 'NONE', *, *, #156, .F. ) ;
#206 = CIRCLE ( 'NONE', #562, 12.90000000000000213 ) ;
#207 = DIRECTION ( 'NONE',  ( -5.270498090247181436E-13, 0.000000000000000000, -1.000000000000000000 ) ) ;
#208 = EDGE_CURVE ( 'NONE', #61, #329, #588, .T. ) ;
#209 = ORIENTED_EDGE ( 'NONE', *, *, #574, .F. ) ;
#210 = FACE_BOUND ( 'NONE', #511, .T. ) ;
#211 = ORIENTED_EDGE ( 'NONE', *, *, #340, .F. ) ;
#212 = DIRECTION ( 'NONE',  ( 1.000000000000000000, -0.000000000000000000, -5.270506253651774387E-13 ) ) ;
#213 = ORIENTED_EDGE ( 'NONE', *, *, #225, .F. ) ;
#214 = AXIS2_PLACEMENT_3D ( 'NONE', #249, #451, #207 ) ;
#215 = AXIS2_PLACEMENT_3D ( 'NONE', #50, #543, #337 ) ;
#216 = DIRECTION ( 'NONE',  ( -5.270771418525959845E-13, 0.000000000000000000, -1.000000000000000000 ) ) ;
#217 = ORIENTED_EDGE ( 'NONE', *, *, #225, .T. ) ;
#218 = LINE ( 'NONE', #72, #204 ) ;
#219 = ORIENTED_EDGE ( 'NONE', *, *, #555, .T. ) ;
#220 = DIRECTION ( 'NONE',  ( -5.270193485598194215E-13, 0.000000000000000000, -1.000000000000000000 ) ) ;
#221 = DIRECTION ( 'NONE',  ( 1.000000000000000000, 0.000000000000000000, -5.270506253651774387E-13 ) ) ;
#222 = TOROIDAL_SURFACE ( 'NONE', #522, 13.69999999999999929, 0.5000000000000000000 ) ;
#223 = AXIS2_PLACEMENT_3D ( 'NONE', #198, #299, #539 ) ;
#224 = EDGE_CURVE ( 'NONE', #465, #46, #463, .T. ) ;
#225 = EDGE_CURVE ( 'NONE', #409, #46, #172, .T. ) ;
#226 = FACE_OUTER_BOUND ( 'NONE', #612, .T. ) ;
#227 = EDGE_CURVE ( 'NONE', #582, #3, #532, .T. ) ;
#228 = CARTESIAN_POINT ( 'NONE',  ( 4.100000000000002309, 0.000000000000000000, 0.5999999999978399279 ) ) ;
#229 = CALENDAR_DATE ( 2026, 13, 6 ) ;
#230 = DIRECTION ( 'NONE',  ( -1.000000000000000000, 0.000000000000000000, 5.270506253651774387E-13 ) ) ;
#231 = AXIS2_PLACEMENT_3D ( 'NONE', #466, #518, #267 ) ;
#232 = DIRECTION ( 'NONE',  ( -5.270506253651774387E-13, 0.000000000000000000, -1.000000000000000000 ) ) ;
#233 = DIRECTION ( 'NONE',  ( -5.270577810995159440E-13, 0.000000000000000000, -1.000000000000000000 ) ) ;
#234 = CARTESIAN_POINT ( 'NONE',  ( 4.099999999992517630, 1.738998454789241549E-15, -13.60000000000215969 ) ) ;
#235 = SECURITY_CLASSIFICATION_LEVEL ( 'unclassified' ) ;
#236 = CARTESIAN_POINT ( 'NONE',  ( 4.100000000000002309, 0.000000000000000000, 0.5999999999978399279 ) ) ;
#237 = CYLINDRICAL_SURFACE ( 'NONE', #4, 12.90000000000000213 ) ;
#238 = PERSON_AND_ORGANIZATION ( #9, #485 ) ;
#239 = DIRECTION ( 'NONE',  ( 1.000000000000000000, 0.000000000000000000, -5.270506253651774387E-13 ) ) ;
#240 = CYLINDRICAL_SURFACE ( 'NONE', #98, 14.09999999999999964 ) ;
#241 = AXIS2_PLACEMENT_3D ( 'NONE', #62, #212, #411 ) ;
#242 = CARTESIAN_POINT ( 'NONE',  ( 6.600000000000002309, 0.000000000000000000, 0.5999999999965223152 ) ) ;
#243 = ADVANCED_FACE ( 'NONE', ( #614 ), #24, .T. ) ;
#244 = DIRECTION ( 'NONE',  ( -1.000000000000000000, 0.000000000000000000, 5.270506253651774387E-13 ) ) ;
#245 = EDGE_CURVE ( 'NONE', #86, #625, #179, .T. ) ;
#246 = CARTESIAN_POINT ( 'NONE',  ( -4.699999999992620303, 0.000000000000000000, 14.60000000000247589 ) ) ;
#247 = FACE_OUTER_BOUND ( 'NONE', #515, .T. ) ;
#248 = EDGE_CURVE ( 'NONE', #46, #465, #533, .T. ) ;
#249 = CARTESIAN_POINT ( 'NONE',  ( 6.600000000000002309, 0.000000000000000000, 0.5999999999965223152 ) ) ;
#250 = CIRCLE ( 'NONE', #579, 0.5000000000000004441 ) ;
#251 = CALENDAR_DATE ( 2026, 13, 6 ) ;
#252 = AXIS2_PLACEMENT_3D ( 'NONE', #28, #189, #325 ) ;
#253 = VERTEX_POINT ( 'NONE', #373 ) ;
#254 = CIRCLE ( 'NONE', #215, 14.09999999999999964 ) ;
#255 = CARTESIAN_POINT ( 'NONE',  ( 4.100000000000002309, 0.000000000000000000, 0.5999999999978399279 ) ) ;
#256 = ORIENTED_EDGE ( 'NONE', *, *, #447, .F. ) ;
#257 = DIRECTION ( 'NONE',  ( -5.270506253651774387E-13, 0.000000000000000000, -1.000000000000000000 ) ) ;
#258 = ORIENTED_EDGE ( 'NONE', *, *, #478, .F. ) ;
#259 = UNCERTAINTY_MEASURE_WITH_UNIT (LENGTH_MEASURE( 1.000000000000000082E-05 ), #37, 'distance_accuracy_value', 'NONE');
#260 = CARTESIAN_POINT ( 'NONE',  ( 3.600000000000001421, 0.000000000000000000, 0.5999999999981033838 ) ) ;
#261 = EDGE_CURVE ( 'NONE', #625, #86, #357, .T. ) ;
#262 = ORIENTED_EDGE ( 'NONE', *, *, #362, .T. ) ;
#263 = AXIS2_PLACEMENT_3D ( 'NONE', #122, #617, #166 ) ;
#264 = AXIS2_PLACEMENT_3D ( 'NONE', #520, #178, #525 ) ;
#265 = CARTESIAN_POINT ( 'NONE',  ( 4.600000000000002309, 0.000000000000000000, 0.5999999999975763609 ) ) ;
#266 = ORIENTED_EDGE ( 'NONE', *, *, #478, .T. ) ;
#267 = DIRECTION ( 'NONE',  ( -5.270461646476678994E-13, 0.000000000000000000, -1.000000000000000000 ) ) ;
#268 = EDGE_LOOP ( 'NONE', ( #205, #190 ) ) ;
#269 = EDGE_CURVE ( 'NONE', #291, #84, #69, .T. ) ;
#270 = DIRECTION ( 'NONE',  ( -1.000000000000000000, -0.000000000000000000, 5.270506253651774387E-13 ) ) ;
#271 = EDGE_CURVE ( 'NONE', #587, #133, #630, .T. ) ;
#272 = EDGE_CURVE ( 'NONE', #409, #253, #148, .T. ) ;
#273 = AXIS2_PLACEMENT_3D ( 'NONE', #560, #60, #344 ) ;
#274 = DIRECTION ( 'NONE',  ( -1.000000000000000000, 0.000000000000000000, 5.270506253651774387E-13 ) ) ;
#275 = LOCAL_TIME ( 23, 19, 26.00000000000000000, #637 ) ;
#276 = DATE_TIME_ROLE ( 'creation_date' ) ;
#277 = FACE_OUTER_BOUND ( 'NONE', #450, .T. ) ;
#278 = DATE_AND_TIME ( #330, #34 ) ;
#279 = CARTESIAN_POINT ( 'NONE',  ( 4.099999999992941291, 0.000000000000000000, -12.80000000000216254 ) ) ;
#280 = VERTEX_POINT ( 'NONE', #470 ) ;
#281 = PERSON_AND_ORGANIZATION_ROLE ( 'creator' ) ;
#282 = PRODUCT ( 'Plastico_enc_Predeterminado_sldprt', 'Plastico_enc_Predeterminado_sldprt', '', ( #386 ) ) ;
#283 = CYLINDRICAL_SURFACE ( 'NONE', #371, 5.599999999999998757 ) ;
#284 = ORIENTED_EDGE ( 'NONE', *, *, #460, .F. ) ;
#285 = PERSON_AND_ORGANIZATION ( #9, #485 ) ;
#286 = EDGE_LOOP ( 'NONE', ( #309, #333, #56, #618 ) ) ;
#287 = DIRECTION ( 'NONE',  ( -5.270506253651774387E-13, 0.000000000000000000, -1.000000000000000000 ) ) ;
#288 = PLANE ( 'NONE',  #561 ) ;
#289 = PERSON_AND_ORGANIZATION_ROLE ( 'design_owner' ) ;
#290 = CYLINDRICAL_SURFACE ( 'NONE', #332, 13.99999999999999822 ) ;
#291 = VERTEX_POINT ( 'NONE', #319 ) ;
#292 = EDGE_CURVE ( 'NONE', #556, #303, #404, .T. ) ;
#293 = EDGE_CURVE ( 'NONE', #7, #591, #619, .T. ) ;
#294 = CARTESIAN_POINT ( 'NONE',  ( 5.599999999993204192, 0.000000000000000000, -12.30000000000295124 ) ) ;
#295 = DIRECTION ( 'NONE',  ( -5.270529752388222109E-13, 0.000000000000000000, -1.000000000000000000 ) ) ;
#296 = AXIS2_PLACEMENT_3D ( 'NONE', #567, #462, #119 ) ;
#297 = CIRCLE ( 'NONE', #78, 11.90000000000000036 ) ;
#298 = VERTEX_POINT ( 'NONE', #123 ) ;
#299 = DIRECTION ( 'NONE',  ( 1.000000000000000000, 0.000000000000000000, -5.270506253651774387E-13 ) ) ;
#300 = DIRECTION ( 'NONE',  ( -1.000000000000000000, 0.000000000000000000, 5.270506253651774387E-13 ) ) ;
#301 = ORIENTED_EDGE ( 'NONE', *, *, #44, .F. ) ;
#302 = CARTESIAN_POINT ( 'NONE',  ( -0.9000000000074830364, 1.738998454789241549E-15, -13.59999999999952358 ) ) ;
#303 = VERTEX_POINT ( 'NONE', #361 ) ;
#304 = DIRECTION ( 'NONE',  ( -5.270444194530239228E-13, 0.000000000000000000, -1.000000000000000000 ) ) ;
#305 = AXIS2_PLACEMENT_3D ( 'NONE', #608, #270, #220 ) ;
#306 = AXIS2_PLACEMENT_3D ( 'NONE', #174, #310, #320 ) ;
#307 = ORIENTED_EDGE ( 'NONE', *, *, #339, .T. ) ;
#308 = PLANE ( 'NONE',  #442 ) ;
#309 = ORIENTED_EDGE ( 'NONE', *, *, #293, .F. ) ;
#310 = DIRECTION ( 'NONE',  ( 1.000000000000000000, 0.000000000000000000, -5.270506253651774387E-13 ) ) ;
#311 = ORIENTED_EDGE ( 'NONE', *, *, #114, .F. ) ;
#312 = ADVANCED_FACE ( 'NONE', ( #468 ), #120, .T. ) ;
#313 = DIRECTION ( 'NONE',  ( 1.000000000000000000, 0.000000000000000000, -5.270506253651774387E-13 ) ) ;
#314 = EDGE_LOOP ( 'NONE', ( #36, #421, #458, #546 ) ) ;
#315 = AXIS2_PLACEMENT_3D ( 'NONE', #647, #506, #295 ) ;
#316 = CARTESIAN_POINT ( 'NONE',  ( 3.600000000000001421, 0.000000000000000000, 0.5999999999981033838 ) ) ;
#317 = EDGE_LOOP ( 'NONE', ( #183, #407 ) ) ;
#318 = CC_DESIGN_PERSON_AND_ORGANIZATION_ASSIGNMENT ( #395, #482, ( #194 ) ) ;
#319 = CARTESIAN_POINT ( 'NONE',  ( 0.6000000000029539482, 6.858022075227114219E-16, 6.199999999999684874 ) ) ;
#320 = DIRECTION ( 'NONE',  ( -5.270735398520228598E-13, 0.000000000000000000, -1.000000000000000000 ) ) ;
#321 = VECTOR ( 'NONE', #31, 1000.000000000000000 ) ;
#322 = DIRECTION ( 'NONE',  ( 1.000000000000000000, 0.000000000000000000, -5.270506253651774387E-13 ) ) ;
#323 = AXIS2_PLACEMENT_3D ( 'NONE', #181, #440, #127 ) ;
#324 = LOCAL_TIME ( 23, 19, 26.00000000000000000, #29 ) ;
#325 = DIRECTION ( 'NONE',  ( 5.270749603592911400E-13, 0.000000000000000000, 1.000000000000000000 ) ) ;
#326 = ORIENTED_EDGE ( 'NONE', *, *, #245, .T. ) ;
#327 = FACE_OUTER_BOUND ( 'NONE', #286, .T. ) ;
#328 = DIRECTION ( 'NONE',  ( 5.270461646476678994E-13, 0.000000000000000000, 1.000000000000000000 ) ) ;
#329 = VERTEX_POINT ( 'NONE', #18 ) ;
#330 = CALENDAR_DATE ( 2026, 13, 6 ) ;
#331 = LINE ( 'NONE', #474, #149 ) ;
#332 = AXIS2_PLACEMENT_3D ( 'NONE', #1, #53, #45 ) ;
#333 = ORIENTED_EDGE ( 'NONE', *, *, #134, .F. ) ;
#334 = APPLICATION_PROTOCOL_DEFINITION ( 'international standard', 'config_control_design', 1994, #613 ) ;
#335 = ORIENTED_EDGE ( 'NONE', *, *, #16, .F. ) ;
#336 = CC_DESIGN_PERSON_AND_ORGANIZATION_ASSIGNMENT ( #238, #93, ( #435 ) ) ;
#337 = DIRECTION ( 'NONE',  ( -5.270529752388222109E-13, 0.000000000000000000, -1.000000000000000000 ) ) ;
#338 = ORIENTED_EDGE ( 'NONE', *, *, #362, .F. ) ;
#339 = EDGE_CURVE ( 'NONE', #280, #409, #218, .T. ) ;
#340 = EDGE_CURVE ( 'NONE', #303, #3, #621, .T. ) ;
#341 = APPROVAL_STATUS ( 'not_yet_approved' ) ;
#342 = EDGE_LOOP ( 'NONE', ( #597, #43, #256, #493 ) ) ;
#343 = PLANE ( 'NONE',  #223 ) ;
#344 = DIRECTION ( 'NONE',  ( -5.270506253651774387E-13, 0.000000000000000000, -1.000000000000000000 ) ) ;
#345 = EDGE_LOOP ( 'NONE', ( #417, #538 ) ) ;
#346 = CARTESIAN_POINT ( 'NONE',  ( 5.600000000006275513, 1.457329690985350393E-15, 12.49999999999704947 ) ) ;
#347 = CARTESIAN_POINT ( 'NONE',  ( -4.699999999992620303, 0.000000000000000000, 14.60000000000247589 ) ) ;
#348 = AXIS2_PLACEMENT_3D ( 'NONE', #115, #117, #216 ) ;
#349 = AXIS2_PLACEMENT_3D ( 'NONE', #195, #150, #548 ) ;
#350 = ORIENTED_EDGE ( 'NONE', *, *, #177, .T. ) ;
#351 = DIRECTION ( 'NONE',  ( 0.000000000000000000, 1.224646799147353454E-16, 1.000000000000000000 ) ) ;
#352 = CARTESIAN_POINT ( 'NONE',  ( 4.599999999992940403, 0.000000000000000000, -12.80000000000242544 ) ) ;
#353 = VERTEX_POINT ( 'NONE', #424 ) ;
#354 = CARTESIAN_POINT ( 'NONE',  ( 4.100000000000002309, 0.000000000000000000, 0.5999999999978399279 ) ) ;
#355 = ORIENTED_EDGE ( 'NONE', *, *, #387, .T. ) ;
#356 = CARTESIAN_POINT ( 'NONE',  ( 6.600000000000002309, 0.000000000000000000, 0.5999999999965223152 ) ) ;
#357 = CIRCLE ( 'NONE', #263, 5.599999999999999645 ) ;
#358 = TOROIDAL_SURFACE ( 'NONE', #414, 13.40000000000000213, 0.5000000000000000000 ) ;
#359 = ORIENTED_EDGE ( 'NONE', *, *, #177, .F. ) ;
#360 = LOCAL_TIME ( 23, 19, 26.00000000000000000, #203 ) ;
#361 = CARTESIAN_POINT ( 'NONE',  ( -4.700000000007378276, 1.714505518806355183E-15, -13.39999999999752234 ) ) ;
#362 = EDGE_CURVE ( 'NONE', #253, #409, #49, .T. ) ;
#363 = EDGE_LOOP ( 'NONE', ( #17, #121, #307, #152 ) ) ;
#364 = ADVANCED_FACE ( 'NONE', ( #10 ), #510, .F. ) ;
#365 = DIRECTION ( 'NONE',  ( -1.000000000000000000, 0.000000000000000000, 5.270506253651774387E-13 ) ) ;
#366 = EDGE_LOOP ( 'NONE', ( #63, #284, #266, #649 ) ) ;
#367 = CARTESIAN_POINT ( 'NONE',  ( -4.700000000007378276, 1.714505518806294046E-15, -13.39999999999752234 ) ) ;
#368 = EDGE_CURVE ( 'NONE', #280, #568, #644, .T. ) ;
#369 = CARTESIAN_POINT ( 'NONE',  ( -6.600000000007377743, 1.714505518806294046E-15, -13.39999999999651870 ) ) ;
#370 = CIRCLE ( 'NONE', #57, 14.19999999999999929 ) ;
#371 = AXIS2_PLACEMENT_3D ( 'NONE', #584, #124, #233 ) ;
#372 = CARTESIAN_POINT ( 'NONE',  ( -0.9000000000074303008, 1.726751986797767601E-15, -13.49999999999952394 ) ) ;
#373 = CARTESIAN_POINT ( 'NONE',  ( 4.599999999993203303, 1.579794370900085936E-15, -12.30000000000242544 ) ) ;
#374 = FACE_OUTER_BOUND ( 'NONE', #415, .T. ) ;
#375 = AXIS2_PLACEMENT_3D ( 'NONE', #199, #400, #51 ) ;
#376 = FACE_OUTER_BOUND ( 'NONE', #384, .T. ) ;
#377 = CC_DESIGN_APPROVAL ( #641, ( #194 ) ) ;
#378 = ORIENTED_EDGE ( 'NONE', *, *, #595, .T. ) ;
#379 = EDGE_CURVE ( 'NONE', #133, #103, #431, .T. ) ;
#380 = DIRECTION ( 'NONE',  ( 1.000000000000000000, 0.000000000000000000, -5.270506253651774387E-13 ) ) ;
#381 = CARTESIAN_POINT ( 'NONE',  ( 3.599999999992780975, 0.000000000000000000, -13.10000000000189502 ) ) ;
#382 = EDGE_LOOP ( 'NONE', ( #607, #197, #326, #499 ) ) ;
#383 = CARTESIAN_POINT ( 'NONE',  ( 4.600000000006802203, 0.000000000000000000, 13.49999999999757883 ) ) ;
#384 = EDGE_LOOP ( 'NONE', ( #213, #338, #350, #107 ) ) ;
#385 = CC_DESIGN_PERSON_AND_ORGANIZATION_ASSIGNMENT ( #285, #281, ( #194 ) ) ;
#386 = MECHANICAL_CONTEXT ( 'NONE', #566, 'mechanical' ) ;
#387 = EDGE_CURVE ( 'NONE', #84, #291, #33, .T. ) ;
#388 = DIRECTION ( 'NONE',  ( 0.000000000000000000, -1.000000000000000000, -0.000000000000000000 ) ) ;
#389 = EDGE_CURVE ( 'NONE', #3, #582, #571, .T. ) ;
#390 = VECTOR ( 'NONE', #536, 1000.000000000000000 ) ;
#391 = AXIS2_PLACEMENT_3D ( 'NONE', #480, #322, #287 ) ;
#392 = CARTESIAN_POINT ( 'NONE',  ( 4.100000000007065104, 1.641026710857453510E-15, 13.99999999999784173 ) ) ;
#393 = EDGE_CURVE ( 'NONE', #52, #591, #163, .T. ) ;
#394 = APPROVAL_PERSON_ORGANIZATION ( #88, #641, #437 ) ;
#395 = PERSON_AND_ORGANIZATION ( #9, #485 ) ;
#396 = CARTESIAN_POINT ( 'NONE',  ( 3.600000000007486101, 1.738998454789241549E-15, 14.79999999999810356 ) ) ;
#397 = FACE_OUTER_BOUND ( 'NONE', #92, .T. ) ;
#398 = ORIENTED_EDGE ( 'NONE', *, *, #227, .T. ) ;
#399 = LINE ( 'NONE', #448, #535 ) ;
#400 = DIRECTION ( 'NONE',  ( 1.000000000000000000, 0.000000000000000000, -5.270506253651774387E-13 ) ) ;
#401 = EDGE_LOOP ( 'NONE', ( #469, #105, #173, #258 ) ) ;
#402 = DIRECTION ( 'NONE',  ( -1.000000000000000000, 0.000000000000000000, 5.270506253651774387E-13 ) ) ;
#403 = CARTESIAN_POINT ( 'NONE',  ( 0.5999999999970508924, 0.000000000000000000, -5.000000000000315303 ) ) ;
#404 = CIRCLE ( 'NONE', #231, 13.99999999999999822 ) ;
#405 = ORIENTED_EDGE ( 'NONE', *, *, #292, .F. ) ;
#406 = DIRECTION ( 'NONE',  ( 1.000000000000000000, 0.000000000000000000, -5.270506253651774387E-13 ) ) ;
#407 = ORIENTED_EDGE ( 'NONE', *, *, #245, .F. ) ;
#408 = DIRECTION ( 'NONE',  ( 1.000000000000000000, 0.000000000000000000, -5.270506253651774387E-13 ) ) ;
#409 = VERTEX_POINT ( 'NONE', #383 ) ;
#410 = ADVANCED_FACE ( 'NONE', ( #35, #185 ), #83, .F. ) ;
#411 = DIRECTION ( 'NONE',  ( -5.270577810995159440E-13, 0.000000000000000000, -1.000000000000000000 ) ) ;
#412 = ADVANCED_FACE ( 'NONE', ( #489 ), #632, .T. ) ;
#413 = AXIS2_PLACEMENT_3D ( 'NONE', #356, #406, #557 ) ;
#414 = AXIS2_PLACEMENT_3D ( 'NONE', #635, #91, #529 ) ;
#415 = EDGE_LOOP ( 'NONE', ( #486, #48, #461, #601 ) ) ;
#416 = CARTESIAN_POINT ( 'NONE',  ( 4.100000000000002309, 0.000000000000000000, 0.5999999999978399279 ) ) ;
#417 = ORIENTED_EDGE ( 'NONE', *, *, #292, .T. ) ;
#418 = DIRECTION ( 'NONE',  ( -5.270193485598194215E-13, 0.000000000000000000, -1.000000000000000000 ) ) ;
#419 = CARTESIAN_POINT ( 'NONE',  ( -0.9000000000074303008, 1.726751986797890268E-15, -13.49999999999952571 ) ) ;
#420 = DIRECTION ( 'NONE',  ( -5.270444194530239228E-13, 0.000000000000000000, -1.000000000000000000 ) ) ;
#421 = ORIENTED_EDGE ( 'NONE', *, *, #340, .T. ) ;
#422 = AXIS2_PLACEMENT_3D ( 'NONE', #500, #239, #492 ) ;
#423 = CC_DESIGN_SECURITY_CLASSIFICATION ( #626, ( #194 ) ) ;
#424 = CARTESIAN_POINT ( 'NONE',  ( 4.100000000007223200, 1.708382284810557762E-15, 14.29999999999783888 ) ) ;
#425 = CARTESIAN_POINT ( 'NONE',  ( -4.699999999999999289, 0.000000000000000000, 0.6000000000024778846 ) ) ;
#426 =( NAMED_UNIT ( * ) PLANE_ANGLE_UNIT ( ) SI_UNIT ( $, .RADIAN. ) );
#427 = DIRECTION ( 'NONE',  ( -5.270506253651774387E-13, 0.000000000000000000, -1.000000000000000000 ) ) ;
#428 = CARTESIAN_POINT ( 'NONE',  ( 6.600000000000002309, 0.000000000000000000, 0.5999999999965223152 ) ) ;
#429 = AXIS2_PLACEMENT_3D ( 'NONE', #260, #627, #420 ) ;
#430 = DIRECTION ( 'NONE',  ( 0.000000000000000000, 0.000000000000000000, -1.000000000000000000 ) ) ;
#431 = CIRCLE ( 'NONE', #473, 0.5000000000000004441 ) ;
#432 = ORIENTED_EDGE ( 'NONE', *, *, #157, .T. ) ;
#433 = DIRECTION ( 'NONE',  ( 5.270529752388222109E-13, 0.000000000000000000, 1.000000000000000000 ) ) ;
#434 = PRODUCT_DEFINITION_SHAPE ( 'NONE', 'NONE',  #435 ) ;
#435 = PRODUCT_DEFINITION ( 'UNKNOWN', '', #194, #559 ) ;
#436 = FACE_OUTER_BOUND ( 'NONE', #552, .T. ) ;
#437 = APPROVAL_ROLE ( '' ) ;
#438 = DIRECTION ( 'NONE',  ( -5.270461646476678994E-13, 0.000000000000000000, -1.000000000000000000 ) ) ;
#439 = CARTESIAN_POINT ( 'NONE',  ( 3.600000000007222312, 1.677766114831873778E-15, 14.29999999999810179 ) ) ;
#440 = DIRECTION ( 'NONE',  ( 0.000000000000000000, 0.000000000000000000, 1.000000000000000000 ) ) ;
#441 = FACE_OUTER_BOUND ( 'NONE', #19, .T. ) ;
#442 = AXIS2_PLACEMENT_3D ( 'NONE', #255, #2, #106 ) ;
#443 = DIRECTION ( 'NONE',  ( -5.270647057484277147E-13, 0.000000000000000000, -1.000000000000000000 ) ) ;
#444 = DATE_TIME_ROLE ( 'classification_date' ) ;
#445 = CYLINDRICAL_SURFACE ( 'NONE', #514, 12.90000000000000213 ) ;
#446 = CARTESIAN_POINT ( 'NONE',  ( 0.5999999999970508924, 0.000000000000000000, -5.000000000000315303 ) ) ;
#447 = EDGE_CURVE ( 'NONE', #103, #353, #550, .T. ) ;
#448 = CARTESIAN_POINT ( 'NONE',  ( 6.599999999993203303, 1.579794370900085936E-15, -12.30000000000348059 ) ) ;
#449 = LINE ( 'NONE', #403, #549 ) ;
#450 = EDGE_LOOP ( 'NONE', ( #130, #502, #219, #616 ) ) ;
#451 = DIRECTION ( 'NONE',  ( 1.000000000000000000, 0.000000000000000000, -5.270506253651774387E-13 ) ) ;
#452 = CIRCLE ( 'NONE', #170, 13.99999999999999822 ) ;
#453 = SHAPE_DEFINITION_REPRESENTATION ( #434, #81 ) ;
#454 = ORIENTED_EDGE ( 'NONE', *, *, #134, .T. ) ;
#455 = CARTESIAN_POINT ( 'NONE',  ( 6.600000000002954614, 6.858022075225177566E-16, 6.199999999996522959 ) ) ;
#456 = ADVANCED_FACE ( 'NONE', ( #277 ), #586, .T. ) ;
#457 = PERSON_AND_ORGANIZATION ( #9, #485 ) ;
#458 = ORIENTED_EDGE ( 'NONE', *, *, #389, .T. ) ;
#459 = ADVANCED_FACE ( 'NONE', ( #30 ), #99, .F. ) ;
#460 = EDGE_CURVE ( 'NONE', #568, #280, #206, .T. ) ;
#461 = ORIENTED_EDGE ( 'NONE', *, *, #176, .T. ) ;
#462 = DIRECTION ( 'NONE',  ( 1.000000000000000000, 0.000000000000000000, -5.270506253651774387E-13 ) ) ;
#463 = CIRCLE ( 'NONE', #305, 13.40000000000000213 ) ;
#464 = CIRCLE ( 'NONE', #349, 14.09999999999999787 ) ;
#465 = VERTEX_POINT ( 'NONE', #279 ) ;
#466 = CARTESIAN_POINT ( 'NONE',  ( -4.699999999999999289, 0.000000000000000000, 0.6000000000024778846 ) ) ;
#467 = EDGE_LOOP ( 'NONE', ( #165, #217, #141, #359 ) ) ;
#468 = FACE_OUTER_BOUND ( 'NONE', #401, .T. ) ;
#469 = ORIENTED_EDGE ( 'NONE', *, *, #368, .F. ) ;
#470 = CARTESIAN_POINT ( 'NONE',  ( 5.600000000006803091, 1.579794370900085541E-15, 13.49999999999704947 ) ) ;
#471 = PRODUCT_RELATED_PRODUCT_CATEGORY ( 'detail', '', ( #282 ) ) ;
#472 = AXIS2_PLACEMENT_3D ( 'NONE', #352, #554, #104 ) ;
#473 = AXIS2_PLACEMENT_3D ( 'NONE', #381, #388, #132 ) ;
#474 = CARTESIAN_POINT ( 'NONE',  ( -0.8999999999925674121, 0.000000000000000000, 14.70000000000047535 ) ) ;
#475 = CYLINDRICAL_SURFACE ( 'NONE', #58, 14.09999999999999964 ) ;
#476 = ADVANCED_FACE ( 'NONE', ( #226 ), #129, .T. ) ;
#477 = CARTESIAN_POINT ( 'NONE',  ( 4.600000000000002309, 0.000000000000000000, 0.5999999999975763609 ) ) ;
#478 = EDGE_CURVE ( 'NONE', #568, #329, #15, .T. ) ;
#479 = APPLICATION_PROTOCOL_DEFINITION ( 'international standard', 'config_control_design', 1994, #566 ) ;
#480 = CARTESIAN_POINT ( 'NONE',  ( -0.8999999999999989120, 0.000000000000000000, 0.6000000000004751533 ) ) ;
#481 = CARTESIAN_POINT ( 'NONE',  ( 4.100000000007486989, 0.000000000000000000, 14.79999999999783888 ) ) ;
#482 = PERSON_AND_ORGANIZATION_ROLE ( 'design_supplier' ) ;
#483 = AXIS2_PLACEMENT_3D ( 'NONE', #512, #68, #257 ) ;
#484 = DIRECTION ( 'NONE',  ( -1.000000000000000000, -0.000000000000000000, 5.270506253651774387E-13 ) ) ;
#485 = ORGANIZATION ( 'UNSPECIFIED', 'UNSPECIFIED', '' ) ;
#486 = ORIENTED_EDGE ( 'NONE', *, *, #159, .F. ) ;
#487 = APPROVAL_DATE_TIME ( #583, #40 ) ;
#488 = ORIENTED_EDGE ( 'NONE', *, *, #248, .T. ) ;
#489 = FACE_OUTER_BOUND ( 'NONE', #118, .T. ) ;
#490 = ORIENTED_EDGE ( 'NONE', *, *, #393, .F. ) ;
#491 = APPROVAL_ROLE ( '' ) ;
#492 = DIRECTION ( 'NONE',  ( -5.270520546795907776E-13, 0.000000000000000000, -1.000000000000000000 ) ) ;
#493 = ORIENTED_EDGE ( 'NONE', *, *, #379, .F. ) ;
#494 = CARTESIAN_POINT ( 'NONE',  ( 5.600000000000003197, 0.000000000000000000, 0.5999999999970493381 ) ) ;
#495 = CIRCLE ( 'NONE', #472, 0.5000000000000004441 ) ;
#496 = AXIS2_PLACEMENT_3D ( 'NONE', #236, #230, #628 ) ;
#497 = CARTESIAN_POINT ( 'NONE',  ( 4.099999999992781419, 0.000000000000000000, -13.10000000000215792 ) ) ;
#498 = APPROVAL_STATUS ( 'not_yet_approved' ) ;
#499 = ORIENTED_EDGE ( 'NONE', *, *, #176, .F. ) ;
#500 = CARTESIAN_POINT ( 'NONE',  ( -0.8999999999999989120, 0.000000000000000000, 0.6000000000004751533 ) ) ;
#501 = LINE ( 'NONE', #54, #125 ) ;
#502 = ORIENTED_EDGE ( 'NONE', *, *, #16, .T. ) ;
#503 = CARTESIAN_POINT ( 'NONE',  ( 3.599999999992517630, 0.000000000000000000, -13.60000000000189502 ) ) ;
#504 = ORIENTED_EDGE ( 'NONE', *, *, #648, .T. ) ;
#505 = CC_DESIGN_DATE_AND_TIME_ASSIGNMENT ( #278, #276, ( #435 ) ) ;
#506 = DIRECTION ( 'NONE',  ( 1.000000000000000000, 0.000000000000000000, -5.270506253651774387E-13 ) ) ;
#507 = ORIENTED_EDGE ( 'NONE', *, *, #622, .T. ) ;
#508 = DIRECTION ( 'NONE',  ( 1.000000000000000000, 0.000000000000000000, -5.270506253651774387E-13 ) ) ;
#509 = EDGE_LOOP ( 'NONE', ( #73, #507, #262, #558 ) ) ;
#510 = CYLINDRICAL_SURFACE ( 'NONE', #241, 5.599999999999998757 ) ;
#511 = EDGE_LOOP ( 'NONE', ( #11, #488 ) ) ;
#512 = CARTESIAN_POINT ( 'NONE',  ( 5.600000000000003197, 0.000000000000000000, 0.5999999999970493381 ) ) ;
#513 = AXIS2_PLACEMENT_3D ( 'NONE', #265, #313, #21 ) ;
#514 = AXIS2_PLACEMENT_3D ( 'NONE', #242, #593, #144 ) ;
#515 = EDGE_LOOP ( 'NONE', ( #301, #8, #200, #311 ) ) ;
#516 = DIRECTION ( 'NONE',  ( -5.270577810995159440E-13, 0.000000000000000000, -1.000000000000000000 ) ) ;
#517 = FACE_BOUND ( 'NONE', #345, .T. ) ;
#518 = DIRECTION ( 'NONE',  ( 1.000000000000000000, 0.000000000000000000, -5.270506253651774387E-13 ) ) ;
#519 = ADVANCED_FACE ( 'NONE', ( #376 ), #358, .F. ) ;
#520 = CARTESIAN_POINT ( 'NONE',  ( 0.6000000000000024203, 0.000000000000000000, 0.5999999999996845634 ) ) ;
#521 = EDGE_CURVE ( 'NONE', #638, #52, #331, .T. ) ;
#522 = AXIS2_PLACEMENT_3D ( 'NONE', #111, #408, #6 ) ;
#523 = AXIS2_PLACEMENT_3D ( 'NONE', #85, #274, #328 ) ;
#524 = ADVANCED_FACE ( 'NONE', ( #374 ), #283, .F. ) ;
#525 = DIRECTION ( 'NONE',  ( -5.270577810995159440E-13, 0.000000000000000000, -1.000000000000000000 ) ) ;
#526 = CARTESIAN_POINT ( 'NONE',  ( -0.8999999999999989120, 0.000000000000000000, 0.6000000000004751533 ) ) ;
#527 = DIRECTION ( 'NONE',  ( -5.270735398520228598E-13, 0.000000000000000000, -1.000000000000000000 ) ) ;
#528 = ORIENTED_EDGE ( 'NONE', *, *, #227, .F. ) ;
#529 = DIRECTION ( 'NONE',  ( -5.270506253651774387E-13, 0.000000000000000000, -1.000000000000000000 ) ) ;
#530 = DIRECTION ( 'NONE',  ( -6.454508613420753787E-29, 1.000000000000000000, -1.224646799147353207E-16 ) ) ;
#531 =( NAMED_UNIT ( * ) SI_UNIT ( $, .STERADIAN. ) SOLID_ANGLE_UNIT ( ) );
#532 = CIRCLE ( 'NONE', #296, 13.99999999999999822 ) ;
#533 = CIRCLE ( 'NONE', #643, 13.40000000000000213 ) ;
#534 = DIRECTION ( 'NONE',  ( -1.000000000000000000, -0.000000000000000000, 5.270506253651774387E-13 ) ) ;
#535 = VECTOR ( 'NONE', #402, 1000.000000000000000 ) ;
#536 = DIRECTION ( 'NONE',  ( -1.000000000000000000, 0.000000000000000000, 5.270506253651774387E-13 ) ) ;
#537 = CALENDAR_DATE ( 2026, 13, 6 ) ;
#538 = ORIENTED_EDGE ( 'NONE', *, *, #126, .T. ) ;
#539 = DIRECTION ( 'NONE',  ( -5.270506253651774387E-13, 0.000000000000000000, -1.000000000000000000 ) ) ;
#540 = LINE ( 'NONE', #481, #390 ) ;
#541 = MANIFOLD_SOLID_BREP ( 'S\X2\00f3\X0\lido-Mover/Copiar2', #570 ) ;
#542 = PERSON_AND_ORGANIZATION_ROLE ( 'classification_officer' ) ;
#543 = DIRECTION ( 'NONE',  ( 1.000000000000000000, 0.000000000000000000, -5.270506253651774387E-13 ) ) ;
#544 = FACE_OUTER_BOUND ( 'NONE', #169, .T. ) ;
#545 = ADVANCED_FACE ( 'NONE', ( #650 ), #445, .T. ) ;
#546 = ORIENTED_EDGE ( 'NONE', *, *, #157, .F. ) ;
#547 = ADVANCED_FACE ( 'NONE', ( #645 ), #290, .T. ) ;
#548 = DIRECTION ( 'NONE',  ( -5.270606646159321030E-13, 0.000000000000000000, -1.000000000000000000 ) ) ;
#549 = VECTOR ( 'NONE', #605, 1000.000000000000000 ) ;
#550 = CIRCLE ( 'NONE', #25, 13.69999999999999929 ) ;
#551 = CARTESIAN_POINT ( 'NONE',  ( -0.8999999999999989120, 0.000000000000000000, 0.6000000000004751533 ) ) ;
#552 = EDGE_LOOP ( 'NONE', ( #490, #209 ) ) ;
#553 = CARTESIAN_POINT ( 'NONE',  ( -6.599999999992620658, 0.000000000000000000, 14.60000000000347775 ) ) ;
#554 = DIRECTION ( 'NONE',  ( 0.000000000000000000, -1.000000000000000000, -0.000000000000000000 ) ) ;
#555 = EDGE_CURVE ( 'NONE', #188, #298, #624, .T. ) ;
#556 = VERTEX_POINT ( 'NONE', #246 ) ;
#557 = DIRECTION ( 'NONE',  ( -5.270506253651774387E-13, 0.000000000000000000, -1.000000000000000000 ) ) ;
#558 = ORIENTED_EDGE ( 'NONE', *, *, #339, .F. ) ;
#559 = DESIGN_CONTEXT ( 'detailed design', #613, 'design' ) ;
#560 = CARTESIAN_POINT ( 'NONE',  ( 0.6000000000000024203, 0.000000000000000000, 0.5999999999996845634 ) ) ;
#561 = AXIS2_PLACEMENT_3D ( 'NONE', #135, #221, #232 ) ;
#562 = AXIS2_PLACEMENT_3D ( 'NONE', #590, #484, #39 ) ;
#563 = EDGE_LOOP ( 'NONE', ( #454, #378 ) ) ;
#564 = DIRECTION ( 'NONE',  ( 1.000000000000000000, 0.000000000000000000, -5.270506253651774387E-13 ) ) ;
#565 = ORIENTED_EDGE ( 'NONE', *, *, #595, .F. ) ;
#566 = APPLICATION_CONTEXT ( 'configuration controlled 3d designs of mechanical parts and assemblies' ) ;
#567 = CARTESIAN_POINT ( 'NONE',  ( -6.599999999999998757, 0.000000000000000000, 0.6000000000034794168 ) ) ;
#568 = VERTEX_POINT ( 'NONE', #294 ) ;
#569 = CARTESIAN_POINT ( 'NONE',  ( 0.6000000000000024203, 0.000000000000000000, 0.5999999999996845634 ) ) ;
#570 = CLOSED_SHELL ( 'NONE', ( #90, #456, #243, #459, #545, #312, #364, #547, #154, #524, #128, #596, #42, #519, #112, #65, #412, #410, #646, #20, #476, #576 ) ) ;
#571 = CIRCLE ( 'NONE', #5, 13.99999999999999822 ) ;
#572 = CARTESIAN_POINT ( 'NONE',  ( -4.699999999992567901, 0.000000000000000000, 14.70000000000247908 ) ) ;
#573 = DIRECTION ( 'NONE',  ( -5.270506253651774387E-13, 0.000000000000000000, -1.000000000000000000 ) ) ;
#574 = EDGE_CURVE ( 'NONE', #591, #52, #464, .T. ) ;
#575 = DIRECTION ( 'NONE',  ( 1.000000000000000000, 0.000000000000000000, -5.270506253651774387E-13 ) ) ;
#576 = ADVANCED_FACE ( 'NONE', ( #441 ), #343, .F. ) ;
#577 = EDGE_CURVE ( 'NONE', #280, #61, #615, .T. ) ;
#578 = DIRECTION ( 'NONE',  ( 1.000000000000000000, 0.000000000000000000, -5.270506253651774387E-13 ) ) ;
#579 = AXIS2_PLACEMENT_3D ( 'NONE', #439, #530, #640 ) ;
#580 = TOROIDAL_SURFACE ( 'NONE', #137, 11.90000000000000036, 1.000000000000000000 ) ;
#581 = CARTESIAN_POINT ( 'NONE',  ( -6.599999999999998757, 0.000000000000000000, 0.6000000000034794168 ) ) ;
#582 = VERTEX_POINT ( 'NONE', #553 ) ;
#583 = DATE_AND_TIME ( #537, #631 ) ;
#584 = CARTESIAN_POINT ( 'NONE',  ( 0.6000000000000024203, 0.000000000000000000, 0.5999999999996845634 ) ) ;
#585 = DIRECTION ( 'NONE',  ( 5.270735398520228598E-13, 0.000000000000000000, 1.000000000000000000 ) ) ;
#586 = CYLINDRICAL_SURFACE ( 'NONE', #496, 14.19999999999999929 ) ;
#587 = VERTEX_POINT ( 'NONE', #396 ) ;
#588 = CIRCLE ( 'NONE', #214, 11.90000000000000036 ) ;
#589 = AXIS2_PLACEMENT_3D ( 'NONE', #164, #534, #527 ) ;
#590 = CARTESIAN_POINT ( 'NONE',  ( 5.600000000000003197, 0.000000000000000000, 0.5999999999970493381 ) ) ;
#591 = VERTEX_POINT ( 'NONE', #201 ) ;
#592 = APPROVAL_STATUS ( 'not_yet_approved' ) ;
#593 = DIRECTION ( 'NONE',  ( -1.000000000000000000, 0.000000000000000000, 5.270506253651774387E-13 ) ) ;
#594 = DIRECTION ( 'NONE',  ( -5.270461646476678994E-13, 0.000000000000000000, -1.000000000000000000 ) ) ;
#595 = EDGE_CURVE ( 'NONE', #7, #638, #254, .T. ) ;
#596 = ADVANCED_FACE ( 'NONE', ( #598 ), #580, .T. ) ;
#597 = ORIENTED_EDGE ( 'NONE', *, *, #271, .F. ) ;
#598 = FACE_OUTER_BOUND ( 'NONE', #366, .T. ) ;
#599 = CC_DESIGN_DATE_AND_TIME_ASSIGNMENT ( #611, #444, ( #626 ) ) ;
#600 = LINE ( 'NONE', #347, #77 ) ;
#601 = ORIENTED_EDGE ( 'NONE', *, *, #261, .T. ) ;
#602 = CARTESIAN_POINT ( 'NONE',  ( 6.599999999997050892, 0.000000000000000000, -5.000000000003477219 ) ) ;
#603 = VECTOR ( 'NONE', #365, 1000.000000000000000 ) ;
#604 = AXIS2_PLACEMENT_3D ( 'NONE', #346, #94, #351 ) ;
#605 = DIRECTION ( 'NONE',  ( 1.000000000000000000, -0.000000000000000000, -5.270506253651774387E-13 ) ) ;
#606 = APPROVAL_DATE_TIME ( #97, #76 ) ;
#607 = ORIENTED_EDGE ( 'NONE', *, *, #269, .F. ) ;
#608 = CARTESIAN_POINT ( 'NONE',  ( 4.100000000000002309, 0.000000000000000000, 0.5999999999978399279 ) ) ;
#609 = ORIENTED_EDGE ( 'NONE', *, *, #114, .T. ) ;
#610 = FACE_OUTER_BOUND ( 'NONE', #155, .T. ) ;
#611 = DATE_AND_TIME ( #187, #275 ) ;
#612 = EDGE_LOOP ( 'NONE', ( #211, #405, #432, #398 ) ) ;
#613 = APPLICATION_CONTEXT ( 'configuration controlled 3d designs of mechanical parts and assemblies' ) ;
#614 = FACE_OUTER_BOUND ( 'NONE', #342, .T. ) ;
#615 = CIRCLE ( 'NONE', #604, 0.9999999999999991118 ) ;
#616 = ORIENTED_EDGE ( 'NONE', *, *, #12, .F. ) ;
#617 = DIRECTION ( 'NONE',  ( 1.000000000000000000, 0.000000000000000000, -5.270506253651774387E-13 ) ) ;
#618 = ORIENTED_EDGE ( 'NONE', *, *, #393, .T. ) ;
#619 = LINE ( 'NONE', #372, #603 ) ;
#620 = LINE ( 'NONE', #234, #321 ) ;
#621 = LINE ( 'NONE', #367, #89 ) ;
#622 = EDGE_CURVE ( 'NONE', #568, #253, #399, .T. ) ;
#623 = AXIS2_PLACEMENT_3D ( 'NONE', #629, #140, #430 ) ;
#624 = CIRCLE ( 'NONE', #422, 14.19999999999999929 ) ;
#625 = VERTEX_POINT ( 'NONE', #602 ) ;
#626 = SECURITY_CLASSIFICATION ( '', '', #235 ) ;
#627 = DIRECTION ( 'NONE',  ( -1.000000000000000000, -0.000000000000000000, 5.270506253651774387E-13 ) ) ;
#628 = DIRECTION ( 'NONE',  ( 5.270749603592911400E-13, 0.000000000000000000, 1.000000000000000000 ) ) ;
#629 = CARTESIAN_POINT ( 'NONE',  ( 5.599999999993731770, 0.000000000000000000, -11.30000000000295124 ) ) ;
#630 = CIRCLE ( 'NONE', #429, 14.19999999999999929 ) ;
#631 = LOCAL_TIME ( 23, 19, 26.00000000000000000, #32 ) ;
#632 = CYLINDRICAL_SURFACE ( 'NONE', #252, 14.19999999999999929 ) ;
#633 = CARTESIAN_POINT ( 'NONE',  ( 6.600000000000002309, 0.000000000000000000, 0.5999999999965223152 ) ) ;
#634 = DIRECTION ( 'NONE',  ( -5.270498090247181436E-13, 0.000000000000000000, -1.000000000000000000 ) ) ;
#635 = CARTESIAN_POINT ( 'NONE',  ( 4.600000000000002309, 0.000000000000000000, 0.5999999999975763609 ) ) ;
#636 = ORIENTED_EDGE ( 'NONE', *, *, #447, .T. ) ;
#637 = COORDINATED_UNIVERSAL_TIME_OFFSET ( 5, 0, .BEHIND. ) ;
#638 = VERTEX_POINT ( 'NONE', #184 ) ;
#639 = DIRECTION ( 'NONE',  ( 1.000000000000000000, 0.000000000000000000, -5.270506253651774387E-13 ) ) ;
#640 = DIRECTION ( 'NONE',  ( 0.000000000000000000, 1.224646799147353454E-16, 1.000000000000000000 ) ) ;
#641 = APPROVAL ( #592, 'UNSPECIFIED' ) ;
#642 = APPROVAL_DATE_TIME ( #131, #641 ) ;
#643 = AXIS2_PLACEMENT_3D ( 'NONE', #416, #66, #418 ) ;
#644 = CIRCLE ( 'NONE', #589, 12.90000000000000213 ) ;
#645 = FACE_OUTER_BOUND ( 'NONE', #314, .T. ) ;
#646 = ADVANCED_FACE ( 'NONE', ( #327 ), #475, .T. ) ;
#647 = CARTESIAN_POINT ( 'NONE',  ( -0.8999999999999989120, 0.000000000000000000, 0.6000000000004751533 ) ) ;
#648 = EDGE_CURVE ( 'NONE', #329, #61, #297, .T. ) ;
#649 = ORIENTED_EDGE ( 'NONE', *, *, #208, .F. ) ;
#650 = FACE_OUTER_BOUND ( 'NONE', #509, .T. ) ;
#651 = PLANE ( 'NONE',  #413 ) ;
ENDSEC;
END-ISO-10303-21;
