ISO-10303-21;
HEADER;
FILE_DESCRIPTION (( 'STEP AP203' ),
    '1' );
FILE_NAME ('Sólido3_Predeterminado_sldprt.STEP',
    '2026-04-08T20:47:59',
    ( '' ),
    ( '' ),
    'SwSTEP 2.0',
    'SolidWorks 2025',
    '' );
FILE_SCHEMA (( 'CONFIG_CONTROL_DESIGN' ));
ENDSEC;

DATA;
#1 = CALENDAR_DATE ( 2026, 8, 4 ) ;
#2 = CARTESIAN_POINT ( 'NONE',  ( 1.000000000000000000, 0.000000000000000000, 5.580000000000000071 ) ) ;
#3 = EDGE_CURVE ( 'NONE', #171, #261, #176, .T. ) ;
#4 = DATE_AND_TIME ( #1, #304 ) ;
#5 = DIRECTION ( 'NONE',  ( 1.000000000000000000, 0.000000000000000000, 0.000000000000000000 ) ) ;
#6 = CLOSED_SHELL ( 'NONE', ( #164, #264, #77, #51, #213, #241, #39, #287, #175 ) ) ;
#7 = APPROVAL_DATE_TIME ( #27, #259 ) ;
#8 = CARTESIAN_POINT ( 'NONE',  ( 1.000000000000000000, 0.000000000000000000, 0.000000000000000000 ) ) ;
#9 = CIRCLE ( 'NONE', #198, 5.580000000000000071 ) ;
#10 = APPLICATION_CONTEXT ( 'configuration controlled 3d designs of mechanical parts and assemblies' ) ;
#11 = DIRECTION ( 'NONE',  ( 0.000000000000000000, 0.000000000000000000, 1.000000000000000000 ) ) ;
#12 = DIRECTION ( 'NONE',  ( 1.000000000000000000, 0.000000000000000000, 0.000000000000000000 ) ) ;
#13 = CIRCLE ( 'NONE', #170, 5.580000000000000071 ) ;
#14 = DIRECTION ( 'NONE',  ( -1.000000000000000000, -0.000000000000000000, -0.000000000000000000 ) ) ;
#15 = DIRECTION ( 'NONE',  ( -1.000000000000000000, -0.000000000000000000, -0.000000000000000000 ) ) ;
#16 = DIRECTION ( 'NONE',  ( 1.000000000000000000, 0.000000000000000000, 0.000000000000000000 ) ) ;
#17 = AXIS2_PLACEMENT_3D ( 'NONE', #24, #14, #79 ) ;
#18 = EDGE_LOOP ( 'NONE', ( #120, #148, #146, #263 ) ) ;
#19 =( NAMED_UNIT ( * ) SI_UNIT ( $, .STERADIAN. ) SOLID_ANGLE_UNIT ( ) );
#20 = AXIS2_PLACEMENT_3D ( 'NONE', #267, #128, #59 ) ;
#21 = ORIENTED_EDGE ( 'NONE', *, *, #116, .F. ) ;
#22 = APPLICATION_PROTOCOL_DEFINITION ( 'international standard', 'config_control_design', 1994, #95 ) ;
#23 = VERTEX_POINT ( 'NONE', #180 ) ;
#24 = CARTESIAN_POINT ( 'NONE',  ( 1.000000000000000000, 0.000000000000000000, 0.000000000000000000 ) ) ;
#25 = PRODUCT_DEFINITION ( 'UNKNOWN', '', #132, #112 ) ;
#26 = FACE_OUTER_BOUND ( 'NONE', #71, .T. ) ;
#27 = DATE_AND_TIME ( #60, #246 ) ;
#28 = PERSON ( 'UNSPECIFIED', 'UNSPECIFIED', 'UNSPECIFIED', ('UNSPECIFIED'), ('UNSPECIFIED'), ('UNSPECIFIED') ) ;
#29 = EDGE_LOOP ( 'NONE', ( #279, #194 ) ) ;
#30 = APPROVAL_DATE_TIME ( #286, #276 ) ;
#31 = DIRECTION ( 'NONE',  ( 0.000000000000000000, 0.000000000000000000, -1.000000000000000000 ) ) ;
#32 = APPROVAL_ROLE ( '' ) ;
#33 = CARTESIAN_POINT ( 'NONE',  ( 63.54999999999999716, 2.908536147974963713E-16, -2.375000000000000000 ) ) ;
#34 = CC_DESIGN_APPROVAL ( #259, ( #132 ) ) ;
#35 = CALENDAR_DATE ( 2026, 8, 4 ) ;
#36 = CARTESIAN_POINT ( 'NONE',  ( 0.000000000000000000, 0.000000000000000000, 0.000000000000000000 ) ) ;
#37 = APPROVAL_STATUS ( 'not_yet_approved' ) ;
#38 = DIRECTION ( 'NONE',  ( 0.000000000000000000, 0.000000000000000000, -1.000000000000000000 ) ) ;
#39 = ADVANCED_FACE ( 'NONE', ( #177, #56 ), #288, .T. ) ;
#40 = DIRECTION ( 'NONE',  ( 1.000000000000000000, 0.000000000000000000, 0.000000000000000000 ) ) ;
#41 = CIRCLE ( 'NONE', #204, 5.580000000000000071 ) ;
#42 = PRODUCT_DEFINITION_SHAPE ( 'NONE', 'NONE',  #25 ) ;
#43 = CC_DESIGN_DATE_AND_TIME_ASSIGNMENT ( #4, #290, ( #118 ) ) ;
#44 = MANIFOLD_SOLID_BREP ( 'Material-pendulo-1', #6 ) ;
#45 = APPROVAL_PERSON_ORGANIZATION ( #269, #57, #200 ) ;
#46 = VERTEX_POINT ( 'NONE', #54 ) ;
#47 = EDGE_LOOP ( 'NONE', ( #75, #140 ) ) ;
#48 = APPROVAL_PERSON_ORGANIZATION ( #219, #276, #206 ) ;
#49 = ORIENTED_EDGE ( 'NONE', *, *, #173, .F. ) ;
#50 = DIRECTION ( 'NONE',  ( -1.000000000000000000, 0.000000000000000000, 0.000000000000000000 ) ) ;
#51 = ADVANCED_FACE ( 'NONE', ( #26 ), #52, .T. ) ;
#52 = CYLINDRICAL_SURFACE ( 'NONE', #229, 3.174999999999999822 ) ;
#53 = VECTOR ( 'NONE', #88, 1000.000000000000000 ) ;
#54 = CARTESIAN_POINT ( 'NONE',  ( 63.54999999999999716, 3.398394867633904897E-16, -2.375000000000000000 ) ) ;
#55 = APPROVAL_STATUS ( 'not_yet_approved' ) ;
#56 = FACE_OUTER_BOUND ( 'NONE', #29, .T. ) ;
#57 = APPROVAL ( #55, 'UNSPECIFIED' ) ;
#58 = PERSON_AND_ORGANIZATION_ROLE ( 'classification_officer' ) ;
#59 = DIRECTION ( 'NONE',  ( 0.000000000000000000, 0.000000000000000000, -1.000000000000000000 ) ) ;
#60 = CALENDAR_DATE ( 2026, 8, 4 ) ;
#61 = AXIS2_PLACEMENT_3D ( 'NONE', #266, #50, #222 ) ;
#62 = FACE_OUTER_BOUND ( 'NONE', #18, .T. ) ;
#63 = CARTESIAN_POINT ( 'NONE',  ( 63.54999999999999716, 0.000000000000000000, 0.000000000000000000 ) ) ;
#64 = EDGE_CURVE ( 'NONE', #46, #23, #156, .T. ) ;
#65 = CARTESIAN_POINT ( 'NONE',  ( 0.000000000000000000, 0.000000000000000000, 0.000000000000000000 ) ) ;
#66 = CONICAL_SURFACE ( 'NONE', #113, 2.375000000000000000, 0.7853981633974512766 ) ;
#67 = PLANE ( 'NONE',  #178 ) ;
#68 = EDGE_LOOP ( 'NONE', ( #240, #73, #303, #143 ) ) ;
#69 = LOCAL_TIME ( 15, 47, 59.00000000000000000, #292 ) ;
#70 = MECHANICAL_CONTEXT ( 'NONE', #10, 'mechanical' ) ;
#71 = EDGE_LOOP ( 'NONE', ( #49, #242, #197, #192 ) ) ;
#72 = EDGE_CURVE ( 'NONE', #144, #165, #225, .T. ) ;
#73 = ORIENTED_EDGE ( 'NONE', *, *, #89, .F. ) ;
#74 = CC_DESIGN_APPROVAL ( #276, ( #25 ) ) ;
#75 = ORIENTED_EDGE ( 'NONE', *, *, #189, .F. ) ;
#76 = CC_DESIGN_PERSON_AND_ORGANIZATION_ASSIGNMENT ( #145, #243, ( #181 ) ) ;
#77 = ADVANCED_FACE ( 'NONE', ( #270 ), #125, .T. ) ;
#78 = DIRECTION ( 'NONE',  ( -0.7071067811865454633, 0.000000000000000000, 0.7071067811865496822 ) ) ;
#79 = DIRECTION ( 'NONE',  ( 0.000000000000000000, 0.000000000000000000, 1.000000000000000000 ) ) ;
#80 = PERSON_AND_ORGANIZATION_ROLE ( 'creator' ) ;
#81 = AXIS2_PLACEMENT_3D ( 'NONE', #135, #15, #11 ) ;
#82 = CARTESIAN_POINT ( 'NONE',  ( 63.54999999999999716, 0.000000000000000000, 3.174999999999999822 ) ) ;
#83 = SHAPE_DEFINITION_REPRESENTATION ( #42, #91 ) ;
#84 = FACE_OUTER_BOUND ( 'NONE', #167, .T. ) ;
#85 = COORDINATED_UNIVERSAL_TIME_OFFSET ( 5, 0, .BEHIND. ) ;
#86 = COORDINATED_UNIVERSAL_TIME_OFFSET ( 5, 0, .BEHIND. ) ;
#87 = LOCAL_TIME ( 15, 47, 59.00000000000000000, #109 ) ;
#88 = DIRECTION ( 'NONE',  ( -1.000000000000000000, -0.000000000000000000, -0.000000000000000000 ) ) ;
#89 = EDGE_CURVE ( 'NONE', #302, #46, #278, .T. ) ;
#90 = CARTESIAN_POINT ( 'NONE',  ( 62.75000000000000000, 0.000000000000000000, 0.000000000000000000 ) ) ;
#91 = ADVANCED_BREP_SHAPE_REPRESENTATION ( 'S\X2\00f3\X0\lido3_Predeterminado_sldprt', ( #44, #209 ), #274 ) ;
#92 = DIRECTION ( 'NONE',  ( 0.000000000000000000, 0.000000000000000000, -1.000000000000000000 ) ) ;
#93 = LOCAL_TIME ( 15, 47, 59.00000000000000000, #85 ) ;
#94 = ORIENTED_EDGE ( 'NONE', *, *, #134, .F. ) ;
#95 = APPLICATION_CONTEXT ( 'configuration controlled 3d designs of mechanical parts and assemblies' ) ;
#96 = ORIENTED_EDGE ( 'NONE', *, *, #142, .T. ) ;
#97 = VECTOR ( 'NONE', #78, 1000.000000000000114 ) ;
#98 = ORIENTED_EDGE ( 'NONE', *, *, #173, .T. ) ;
#99 = EDGE_CURVE ( 'NONE', #298, #165, #123, .T. ) ;
#100 = VERTEX_POINT ( 'NONE', #201 ) ;
#101 = CIRCLE ( 'NONE', #61, 3.174999999999999822 ) ;
#102 =( NAMED_UNIT ( * ) PLANE_ANGLE_UNIT ( ) SI_UNIT ( $, .RADIAN. ) );
#103 = DIRECTION ( 'NONE',  ( -1.000000000000000000, 0.000000000000000000, 0.000000000000000000 ) ) ;
#104 = PERSON_AND_ORGANIZATION ( #28, #191 ) ;
#105 = DIRECTION ( 'NONE',  ( 0.000000000000000000, 0.000000000000000000, -1.000000000000000000 ) ) ;
#106 = DIRECTION ( 'NONE',  ( 0.000000000000000000, 0.000000000000000000, -1.000000000000000000 ) ) ;
#107 = SECURITY_CLASSIFICATION_LEVEL ( 'unclassified' ) ;
#108 = DIRECTION ( 'NONE',  ( 1.000000000000000000, 0.000000000000000000, 0.000000000000000000 ) ) ;
#109 = COORDINATED_UNIVERSAL_TIME_OFFSET ( 5, 0, .BEHIND. ) ;
#110 = EDGE_CURVE ( 'NONE', #23, #100, #147, .T. ) ;
#111 = CYLINDRICAL_SURFACE ( 'NONE', #161, 3.174999999999999822 ) ;
#112 = DESIGN_CONTEXT ( 'detailed design', #95, 'design' ) ;
#113 = AXIS2_PLACEMENT_3D ( 'NONE', #305, #103, #199 ) ;
#114 = CARTESIAN_POINT ( 'NONE',  ( 63.54999999999999716, 0.000000000000000000, 2.375000000000000000 ) ) ;
#115 = DIRECTION ( 'NONE',  ( 0.000000000000000000, 0.000000000000000000, 1.000000000000000000 ) ) ;
#116 = EDGE_CURVE ( 'NONE', #302, #100, #285, .T. ) ;
#117 = CARTESIAN_POINT ( 'NONE',  ( 1.000000000000000000, 0.000000000000000000, 3.174999999999999822 ) ) ;
#118 = SECURITY_CLASSIFICATION ( '', '', #107 ) ;
#119 = FACE_OUTER_BOUND ( 'NONE', #283, .T. ) ;
#120 = ORIENTED_EDGE ( 'NONE', *, *, #271, .F. ) ;
#121 = EDGE_CURVE ( 'NONE', #261, #171, #268, .T. ) ;
#122 = ORIENTED_EDGE ( 'NONE', *, *, #3, .F. ) ;
#123 = CIRCLE ( 'NONE', #151, 5.580000000000000071 ) ;
#124 = EDGE_LOOP ( 'NONE', ( #96, #98, #218, #193 ) ) ;
#125 = CYLINDRICAL_SURFACE ( 'NONE', #17, 5.580000000000000071 ) ;
#126 = APPLICATION_PROTOCOL_DEFINITION ( 'international standard', 'config_control_design', 1994, #10 ) ;
#127 = CARTESIAN_POINT ( 'NONE',  ( 63.54999999999999716, 0.000000000000000000, 0.000000000000000000 ) ) ;
#128 = DIRECTION ( 'NONE',  ( 1.000000000000000000, 0.000000000000000000, 0.000000000000000000 ) ) ;
#129 = EDGE_CURVE ( 'NONE', #46, #302, #217, .T. ) ;
#130 = PERSON_AND_ORGANIZATION ( #28, #191 ) ;
#131 = DIRECTION ( 'NONE',  ( 1.000000000000000000, 0.000000000000000000, 0.000000000000000000 ) ) ;
#132 = PRODUCT_DEFINITION_FORMATION_WITH_SPECIFIED_SOURCE ( 'ANY', '', #181, .NOT_KNOWN. ) ;
#133 = CARTESIAN_POINT ( 'NONE',  ( 1.000000000000000000, 0.000000000000000000, 0.000000000000000000 ) ) ;
#134 = EDGE_CURVE ( 'NONE', #220, #144, #13, .T. ) ;
#135 = CARTESIAN_POINT ( 'NONE',  ( 1.000000000000000000, 0.000000000000000000, 0.000000000000000000 ) ) ;
#136 = CARTESIAN_POINT ( 'NONE',  ( 0.000000000000000000, 6.833529139242231049E-16, -5.580000000000000071 ) ) ;
#137 = AXIS2_PLACEMENT_3D ( 'NONE', #155, #131, #188 ) ;
#138 = LINE ( 'NONE', #236, #53 ) ;
#139 = CARTESIAN_POINT ( 'NONE',  ( 1.000000000000000000, 6.833529139242231049E-16, -5.580000000000000071 ) ) ;
#140 = ORIENTED_EDGE ( 'NONE', *, *, #99, .F. ) ;
#141 = AXIS2_PLACEMENT_3D ( 'NONE', #203, #5, #106 ) ;
#142 = EDGE_CURVE ( 'NONE', #100, #23, #101, .T. ) ;
#143 = ORIENTED_EDGE ( 'NONE', *, *, #110, .F. ) ;
#144 = VERTEX_POINT ( 'NONE', #251 ) ;
#145 = PERSON_AND_ORGANIZATION ( #28, #191 ) ;
#146 = ORIENTED_EDGE ( 'NONE', *, *, #72, .T. ) ;
#147 = CIRCLE ( 'NONE', #166, 3.174999999999999822 ) ;
#148 = ORIENTED_EDGE ( 'NONE', *, *, #299, .F. ) ;
#149 = DIRECTION ( 'NONE',  ( -1.000000000000000000, -0.000000000000000000, -0.000000000000000000 ) ) ;
#150 = CARTESIAN_POINT ( 'NONE',  ( 1.000000000000000000, 3.888253587292846081E-16, -3.174999999999999822 ) ) ;
#151 = AXIS2_PLACEMENT_3D ( 'NONE', #153, #295, #105 ) ;
#152 = CC_DESIGN_PERSON_AND_ORGANIZATION_ASSIGNMENT ( #207, #253, ( #132 ) ) ;
#153 = CARTESIAN_POINT ( 'NONE',  ( 0.000000000000000000, 0.000000000000000000, 0.000000000000000000 ) ) ;
#154 = APPROVAL_DATE_TIME ( #174, #57 ) ;
#155 = CARTESIAN_POINT ( 'NONE',  ( 1.000000000000000000, 0.000000000000000000, 0.000000000000000000 ) ) ;
#156 = LINE ( 'NONE', #33, #262 ) ;
#157 = CC_DESIGN_PERSON_AND_ORGANIZATION_ASSIGNMENT ( #104, #80, ( #25 ) ) ;
#158 = PERSON_AND_ORGANIZATION ( #28, #191 ) ;
#159 = DIRECTION ( 'NONE',  ( -1.000000000000000000, 0.000000000000000000, 0.000000000000000000 ) ) ;
#160 = LINE ( 'NONE', #163, #185 ) ;
#161 = AXIS2_PLACEMENT_3D ( 'NONE', #63, #208, #293 ) ;
#162 = EDGE_CURVE ( 'NONE', #100, #261, #245, .T. ) ;
#163 = CARTESIAN_POINT ( 'NONE',  ( 63.54999999999999716, 3.888253587292846081E-16, -3.174999999999999822 ) ) ;
#164 = ADVANCED_FACE ( 'NONE', ( #84 ), #66, .T. ) ;
#165 = VERTEX_POINT ( 'NONE', #284 ) ;
#166 = AXIS2_PLACEMENT_3D ( 'NONE', #90, #226, #31 ) ;
#167 = EDGE_LOOP ( 'NONE', ( #281, #169, #215, #21 ) ) ;
#168 = DIRECTION ( 'NONE',  ( 1.000000000000000000, 0.000000000000000000, 0.000000000000000000 ) ) ;
#169 = ORIENTED_EDGE ( 'NONE', *, *, #64, .T. ) ;
#170 = AXIS2_PLACEMENT_3D ( 'NONE', #8, #108, #205 ) ;
#171 = VERTEX_POINT ( 'NONE', #150 ) ;
#172 = DIRECTION ( 'NONE',  ( 0.000000000000000000, 0.000000000000000000, -1.000000000000000000 ) ) ;
#173 = EDGE_CURVE ( 'NONE', #23, #171, #160, .T. ) ;
#174 = DATE_AND_TIME ( #35, #87 ) ;
#175 = ADVANCED_FACE ( 'NONE', ( #119 ), #255, .T. ) ;
#176 = CIRCLE ( 'NONE', #294, 3.174999999999999822 ) ;
#177 = FACE_BOUND ( 'NONE', #195, .T. ) ;
#178 = AXIS2_PLACEMENT_3D ( 'NONE', #65, #40, #273 ) ;
#179 = CARTESIAN_POINT ( 'NONE',  ( 63.54999999999999716, 0.000000000000000000, 0.000000000000000000 ) ) ;
#180 = CARTESIAN_POINT ( 'NONE',  ( 62.75000000000000000, 3.888253587292846081E-16, -3.174999999999999822 ) ) ;
#181 = PRODUCT ( 'S\X2\00f3\X0\lido3_Predeterminado_sldprt', 'S\X2\00f3\X0\lido3_Predeterminado_sldprt', '', ( #70 ) ) ;
#182 = APPROVAL_STATUS ( 'not_yet_approved' ) ;
#183 = FACE_OUTER_BOUND ( 'NONE', #47, .T. ) ;
#184 = PERSON_AND_ORGANIZATION ( #28, #191 ) ;
#185 = VECTOR ( 'NONE', #231, 1000.000000000000000 ) ;
#186 = FACE_OUTER_BOUND ( 'NONE', #68, .T. ) ;
#187 =( LENGTH_UNIT ( ) NAMED_UNIT ( * ) SI_UNIT ( .MILLI., .METRE. ) );
#188 = DIRECTION ( 'NONE',  ( 0.000000000000000000, 0.000000000000000000, -1.000000000000000000 ) ) ;
#189 = EDGE_CURVE ( 'NONE', #165, #298, #9, .T. ) ;
#190 = FACE_OUTER_BOUND ( 'NONE', #124, .T. ) ;
#191 = ORGANIZATION ( 'UNSPECIFIED', 'UNSPECIFIED', '' ) ;
#192 = ORIENTED_EDGE ( 'NONE', *, *, #121, .T. ) ;
#193 = ORIENTED_EDGE ( 'NONE', *, *, #162, .F. ) ;
#194 = ORIENTED_EDGE ( 'NONE', *, *, #134, .T. ) ;
#195 = EDGE_LOOP ( 'NONE', ( #300, #122 ) ) ;
#196 = CARTESIAN_POINT ( 'NONE',  ( 0.000000000000000000, 0.000000000000000000, 0.000000000000000000 ) ) ;
#197 = ORIENTED_EDGE ( 'NONE', *, *, #162, .T. ) ;
#198 = AXIS2_PLACEMENT_3D ( 'NONE', #36, #16, #210 ) ;
#199 = DIRECTION ( 'NONE',  ( 0.000000000000000000, 0.000000000000000000, 1.000000000000000000 ) ) ;
#200 = APPROVAL_ROLE ( '' ) ;
#201 = CARTESIAN_POINT ( 'NONE',  ( 62.75000000000000000, 0.000000000000000000, 3.174999999999999822 ) ) ;
#202 = CALENDAR_DATE ( 2026, 8, 4 ) ;
#203 = CARTESIAN_POINT ( 'NONE',  ( 63.54999999999999716, 0.000000000000000000, 0.000000000000000000 ) ) ;
#204 = AXIS2_PLACEMENT_3D ( 'NONE', #233, #12, #92 ) ;
#205 = DIRECTION ( 'NONE',  ( 0.000000000000000000, 0.000000000000000000, -1.000000000000000000 ) ) ;
#206 = APPROVAL_ROLE ( '' ) ;
#207 = PERSON_AND_ORGANIZATION ( #28, #191 ) ;
#208 = DIRECTION ( 'NONE',  ( -1.000000000000000000, -0.000000000000000000, -0.000000000000000000 ) ) ;
#209 = AXIS2_PLACEMENT_3D ( 'NONE', #196, #277, #168 ) ;
#210 = DIRECTION ( 'NONE',  ( 0.000000000000000000, 0.000000000000000000, -1.000000000000000000 ) ) ;
#211 = CC_DESIGN_PERSON_AND_ORGANIZATION_ASSIGNMENT ( #130, #249, ( #132 ) ) ;
#212 = DIRECTION ( 'NONE',  ( 1.000000000000000000, 0.000000000000000000, 0.000000000000000000 ) ) ;
#213 = ADVANCED_FACE ( 'NONE', ( #183 ), #67, .F. ) ;
#214 = VECTOR ( 'NONE', #291, 1000.000000000000000 ) ;
#215 = ORIENTED_EDGE ( 'NONE', *, *, #142, .F. ) ;
#216 = ORIENTED_EDGE ( 'NONE', *, *, #129, .T. ) ;
#217 = CIRCLE ( 'NONE', #141, 2.375000000000000000 ) ;
#218 = ORIENTED_EDGE ( 'NONE', *, *, #3, .T. ) ;
#219 = PERSON_AND_ORGANIZATION ( #28, #191 ) ;
#220 = VERTEX_POINT ( 'NONE', #139 ) ;
#221 = CC_DESIGN_PERSON_AND_ORGANIZATION_ASSIGNMENT ( #184, #58, ( #118 ) ) ;
#222 = DIRECTION ( 'NONE',  ( 0.000000000000000000, 0.000000000000000000, -1.000000000000000000 ) ) ;
#223 = CC_DESIGN_APPROVAL ( #57, ( #118 ) ) ;
#224 = DATE_TIME_ROLE ( 'creation_date' ) ;
#225 = LINE ( 'NONE', #2, #252 ) ;
#226 = DIRECTION ( 'NONE',  ( -1.000000000000000000, 0.000000000000000000, 0.000000000000000000 ) ) ;
#227 = COORDINATED_UNIVERSAL_TIME_OFFSET ( 5, 0, .BEHIND. ) ;
#228 = DIRECTION ( 'NONE',  ( 0.000000000000000000, 0.000000000000000000, -1.000000000000000000 ) ) ;
#229 = AXIS2_PLACEMENT_3D ( 'NONE', #127, #272, #115 ) ;
#230 = DATE_AND_TIME ( #247, #93 ) ;
#231 = DIRECTION ( 'NONE',  ( -1.000000000000000000, -0.000000000000000000, -0.000000000000000000 ) ) ;
#232 = CC_DESIGN_DATE_AND_TIME_ASSIGNMENT ( #230, #224, ( #25 ) ) ;
#233 = CARTESIAN_POINT ( 'NONE',  ( 1.000000000000000000, 0.000000000000000000, 0.000000000000000000 ) ) ;
#234 = DIRECTION ( 'NONE',  ( -0.7071067811865454633, 8.659560562354958743E-17, -0.7071067811865496822 ) ) ;
#235 = AXIS2_PLACEMENT_3D ( 'NONE', #179, #212, #228 ) ;
#236 = CARTESIAN_POINT ( 'NONE',  ( 1.000000000000000000, 6.833529139242231049E-16, -5.580000000000000071 ) ) ;
#237 = UNCERTAINTY_MEASURE_WITH_UNIT (LENGTH_MEASURE( 1.000000000000000082E-05 ), #187, 'distance_accuracy_value', 'NONE');
#238 = CYLINDRICAL_SURFACE ( 'NONE', #81, 5.580000000000000071 ) ;
#239 = AXIS2_PLACEMENT_3D ( 'NONE', #296, #256, #38 ) ;
#240 = ORIENTED_EDGE ( 'NONE', *, *, #64, .F. ) ;
#241 = ADVANCED_FACE ( 'NONE', ( #62 ), #238, .T. ) ;
#242 = ORIENTED_EDGE ( 'NONE', *, *, #110, .T. ) ;
#243 = PERSON_AND_ORGANIZATION_ROLE ( 'design_owner' ) ;
#244 = CARTESIAN_POINT ( 'NONE',  ( 63.54999999999999716, 0.000000000000000000, 2.375000000000000000 ) ) ;
#245 = LINE ( 'NONE', #82, #214 ) ;
#246 = LOCAL_TIME ( 15, 47, 59.00000000000000000, #86 ) ;
#247 = CALENDAR_DATE ( 2026, 8, 4 ) ;
#248 = DIRECTION ( 'NONE',  ( 1.000000000000000000, 0.000000000000000000, 0.000000000000000000 ) ) ;
#249 = PERSON_AND_ORGANIZATION_ROLE ( 'creator' ) ;
#250 = ORIENTED_EDGE ( 'NONE', *, *, #89, .T. ) ;
#251 = CARTESIAN_POINT ( 'NONE',  ( 1.000000000000000000, 0.000000000000000000, 5.580000000000000071 ) ) ;
#252 = VECTOR ( 'NONE', #149, 1000.000000000000000 ) ;
#253 = PERSON_AND_ORGANIZATION_ROLE ( 'design_supplier' ) ;
#254 = DIRECTION ( 'NONE',  ( 0.000000000000000000, 0.000000000000000000, 1.000000000000000000 ) ) ;
#255 = PLANE ( 'NONE',  #239 ) ;
#256 = DIRECTION ( 'NONE',  ( 1.000000000000000000, 0.000000000000000000, 0.000000000000000000 ) ) ;
#257 = CC_DESIGN_SECURITY_CLASSIFICATION ( #118, ( #132 ) ) ;
#258 = ORIENTED_EDGE ( 'NONE', *, *, #271, .T. ) ;
#259 = APPROVAL ( #182, 'UNSPECIFIED' ) ;
#260 = ORIENTED_EDGE ( 'NONE', *, *, #72, .F. ) ;
#261 = VERTEX_POINT ( 'NONE', #117 ) ;
#262 = VECTOR ( 'NONE', #234, 1000.000000000000114 ) ;
#263 = ORIENTED_EDGE ( 'NONE', *, *, #189, .T. ) ;
#264 = ADVANCED_FACE ( 'NONE', ( #190 ), #111, .T. ) ;
#265 = ORIENTED_EDGE ( 'NONE', *, *, #99, .T. ) ;
#266 = CARTESIAN_POINT ( 'NONE',  ( 62.75000000000000000, 0.000000000000000000, 0.000000000000000000 ) ) ;
#267 = CARTESIAN_POINT ( 'NONE',  ( 1.000000000000000000, 0.000000000000000000, 0.000000000000000000 ) ) ;
#268 = CIRCLE ( 'NONE', #137, 3.174999999999999822 ) ;
#269 = PERSON_AND_ORGANIZATION ( #28, #191 ) ;
#270 = FACE_OUTER_BOUND ( 'NONE', #280, .T. ) ;
#271 = EDGE_CURVE ( 'NONE', #220, #298, #138, .T. ) ;
#272 = DIRECTION ( 'NONE',  ( -1.000000000000000000, -0.000000000000000000, -0.000000000000000000 ) ) ;
#273 = DIRECTION ( 'NONE',  ( 0.000000000000000000, 0.000000000000000000, -1.000000000000000000 ) ) ;
#274 =( GEOMETRIC_REPRESENTATION_CONTEXT ( 3 ) GLOBAL_UNCERTAINTY_ASSIGNED_CONTEXT ( ( #237 ) ) GLOBAL_UNIT_ASSIGNED_CONTEXT ( ( #187, #102, #19 ) ) REPRESENTATION_CONTEXT ( 'NONE', 'WORKASPACE' ) );
#275 = CARTESIAN_POINT ( 'NONE',  ( 63.54999999999999716, 0.000000000000000000, 0.000000000000000000 ) ) ;
#276 = APPROVAL ( #37, 'UNSPECIFIED' ) ;
#277 = DIRECTION ( 'NONE',  ( 0.000000000000000000, 0.000000000000000000, 1.000000000000000000 ) ) ;
#278 = CIRCLE ( 'NONE', #235, 2.375000000000000000 ) ;
#279 = ORIENTED_EDGE ( 'NONE', *, *, #299, .T. ) ;
#280 = EDGE_LOOP ( 'NONE', ( #94, #258, #265, #260 ) ) ;
#281 = ORIENTED_EDGE ( 'NONE', *, *, #129, .F. ) ;
#282 = CONICAL_SURFACE ( 'NONE', #289, 2.375000000000000000, 0.7853981633974512766 ) ;
#283 = EDGE_LOOP ( 'NONE', ( #250, #216 ) ) ;
#284 = CARTESIAN_POINT ( 'NONE',  ( 0.000000000000000000, 0.000000000000000000, 5.580000000000000071 ) ) ;
#285 = LINE ( 'NONE', #244, #97 ) ;
#286 = DATE_AND_TIME ( #202, #69 ) ;
#287 = ADVANCED_FACE ( 'NONE', ( #186 ), #282, .T. ) ;
#288 = PLANE ( 'NONE',  #20 ) ;
#289 = AXIS2_PLACEMENT_3D ( 'NONE', #275, #159, #254 ) ;
#290 = DATE_TIME_ROLE ( 'classification_date' ) ;
#291 = DIRECTION ( 'NONE',  ( -1.000000000000000000, -0.000000000000000000, -0.000000000000000000 ) ) ;
#292 = COORDINATED_UNIVERSAL_TIME_OFFSET ( 5, 0, .BEHIND. ) ;
#293 = DIRECTION ( 'NONE',  ( 0.000000000000000000, 0.000000000000000000, 1.000000000000000000 ) ) ;
#294 = AXIS2_PLACEMENT_3D ( 'NONE', #133, #248, #172 ) ;
#295 = DIRECTION ( 'NONE',  ( 1.000000000000000000, 0.000000000000000000, 0.000000000000000000 ) ) ;
#296 = CARTESIAN_POINT ( 'NONE',  ( 63.54999999999999716, 0.000000000000000000, 0.000000000000000000 ) ) ;
#297 = APPROVAL_PERSON_ORGANIZATION ( #158, #259, #32 ) ;
#298 = VERTEX_POINT ( 'NONE', #136 ) ;
#299 = EDGE_CURVE ( 'NONE', #144, #220, #41, .T. ) ;
#300 = ORIENTED_EDGE ( 'NONE', *, *, #121, .F. ) ;
#301 = PRODUCT_RELATED_PRODUCT_CATEGORY ( 'detail', '', ( #181 ) ) ;
#302 = VERTEX_POINT ( 'NONE', #114 ) ;
#303 = ORIENTED_EDGE ( 'NONE', *, *, #116, .T. ) ;
#304 = LOCAL_TIME ( 15, 47, 59.00000000000000000, #227 ) ;
#305 = CARTESIAN_POINT ( 'NONE',  ( 63.54999999999999716, 0.000000000000000000, 0.000000000000000000 ) ) ;
ENDSEC;
END-ISO-10303-21;
