ISO-10303-21;
HEADER;
FILE_DESCRIPTION (( 'STEP AP203' ),
    '1' );
FILE_NAME ('Sólido1_Predeterminado_sldprt.STEP',
    '2026-04-08T20:47:47',
    ( '' ),
    ( '' ),
    'SwSTEP 2.0',
    'SolidWorks 2025',
    '' );
FILE_SCHEMA (( 'CONFIG_CONTROL_DESIGN' ));
ENDSEC;

DATA;
#1 = FACE_OUTER_BOUND ( 'NONE', #121, .T. ) ;
#2 = EDGE_CURVE ( 'NONE', #240, #581, #686, .T. ) ;
#3 = ORIENTED_EDGE ( 'NONE', *, *, #108, .F. ) ;
#4 = EDGE_CURVE ( 'NONE', #809, #73, #713, .T. ) ;
#5 = DIRECTION ( 'NONE',  ( -1.000000000000000000, 0.000000000000000000, 0.000000000000000000 ) ) ;
#6 = CARTESIAN_POINT ( 'NONE',  ( 0.000000000000000000, 0.000000000000000000, 38.20000000000000284 ) ) ;
#7 = APPROVAL_PERSON_ORGANIZATION ( #711, #546, #317 ) ;
#8 = AXIS2_PLACEMENT_3D ( 'NONE', #88, #747, #143 ) ;
#9 = DIRECTION ( 'NONE',  ( -1.000000000000000000, 0.000000000000000000, -1.047444401652940007E-14 ) ) ;
#10 = CIRCLE ( 'NONE', #570, 13.99999999999999822 ) ;
#11 = DIRECTION ( 'NONE',  ( -0.000000000000000000, -1.000000000000000000, -0.000000000000000000 ) ) ;
#12 = DIRECTION ( 'NONE',  ( 0.000000000000000000, -1.000000000000000000, 0.000000000000000000 ) ) ;
#13 = DIRECTION ( 'NONE',  ( 0.000000000000000000, -1.000000000000000000, -0.000000000000000000 ) ) ;
#14 = ORIENTED_EDGE ( 'NONE', *, *, #294, .T. ) ;
#15 = ADVANCED_FACE ( 'NONE', ( #386 ), #649, .F. ) ;
#16 = CARTESIAN_POINT ( 'NONE',  ( 5.232590180780396061, -10.34999999999999964, 20.88259018078049678 ) ) ;
#17 = FACE_OUTER_BOUND ( 'NONE', #726, .T. ) ;
#18 = CC_DESIGN_DATE_AND_TIME_ASSIGNMENT ( #839, #404, ( #661 ) ) ;
#19 = CARTESIAN_POINT ( 'NONE',  ( -7.000000000000000000, 0.000000000000000000, 37.95000000000000284 ) ) ;
#20 = DIRECTION ( 'NONE',  ( 0.000000000000000000, 0.000000000000000000, -1.000000000000000000 ) ) ;
#21 = CARTESIAN_POINT ( 'NONE',  ( -5.232590180780441358, -10.15000000000000036, 13.76740981921952311 ) ) ;
#22 = CIRCLE ( 'NONE', #366, 3.224999999999998757 ) ;
#23 = VECTOR ( 'NONE', #415, 1000.000000000000000 ) ;
#24 = LINE ( 'NONE', #358, #663 ) ;
#25 = CARTESIAN_POINT ( 'NONE',  ( 7.000000000000000000, 8.572527594031471218E-16, 36.60000000000000853 ) ) ;
#26 = DIRECTION ( 'NONE',  ( 1.000000000000000000, 0.000000000000000000, 0.000000000000000000 ) ) ;
#27 = ADVANCED_FACE ( 'NONE', ( #848 ), #524, .T. ) ;
#28 = CARTESIAN_POINT ( 'NONE',  ( -5.232590180780454681, -10.34999999999999964, 24.23259018078044846 ) ) ;
#29 = VERTEX_POINT ( 'NONE', #638 ) ;
#30 = LINE ( 'NONE', #387, #583 ) ;
#31 = EDGE_CURVE ( 'NONE', #380, #36, #793, .T. ) ;
#32 = ORIENTED_EDGE ( 'NONE', *, *, #192, .F. ) ;
#33 = DATE_AND_TIME ( #755, #860 ) ;
#34 = FACE_BOUND ( 'NONE', #718, .T. ) ;
#35 = CARTESIAN_POINT ( 'NONE',  ( 0.000000000000000000, 0.000000000000000000, 38.20000000000000284 ) ) ;
#36 = VERTEX_POINT ( 'NONE', #829 ) ;
#37 = LINE ( 'NONE', #577, #754 ) ;
#38 = AXIS2_PLACEMENT_3D ( 'NONE', #40, #836, #232 ) ;
#39 = AXIS2_PLACEMENT_3D ( 'NONE', #791, #188, #458 ) ;
#40 = CARTESIAN_POINT ( 'NONE',  ( 0.000000000000000000, 0.000000000000000000, 38.20000000000000284 ) ) ;
#41 = ORIENTED_EDGE ( 'NONE', *, *, #620, .T. ) ;
#42 = EDGE_LOOP ( 'NONE', ( #770, #335, #276, #93 ) ) ;
#43 = DIRECTION ( 'NONE',  ( 0.000000000000000000, 0.000000000000000000, -1.000000000000000000 ) ) ;
#44 = ADVANCED_FACE ( 'NONE', ( #237, #34, #306, #171, #381, #243 ), #110, .F. ) ;
#45 = VERTEX_POINT ( 'NONE', #597 ) ;
#46 = ORIENTED_EDGE ( 'NONE', *, *, #744, .T. ) ;
#47 = DIRECTION ( 'NONE',  ( 1.000000000000000000, 0.000000000000000000, -0.000000000000000000 ) ) ;
#48 = EDGE_LOOP ( 'NONE', ( #832, #859 ) ) ;
#49 = ADVANCED_FACE ( 'NONE', ( #216 ), #221, .F. ) ;
#50 = DIRECTION ( 'NONE',  ( 0.000000000000000000, -1.000000000000000000, 0.000000000000000000 ) ) ;
#51 = DIRECTION ( 'NONE',  ( 1.000000000000000000, 0.000000000000000000, 0.000000000000000000 ) ) ;
#52 = AXIS2_PLACEMENT_3D ( 'NONE', #75, #209, #477 ) ;
#53 = ORIENTED_EDGE ( 'NONE', *, *, #547, .T. ) ;
#54 = VERTEX_POINT ( 'NONE', #593 ) ;
#55 = AXIS2_PLACEMENT_3D ( 'NONE', #349, #805, #346 ) ;
#56 = DIRECTION ( 'NONE',  ( 0.000000000000000000, 0.000000000000000000, -1.000000000000000000 ) ) ;
#57 = ORIENTED_EDGE ( 'NONE', *, *, #429, .T. ) ;
#58 = PLANE ( 'NONE',  #567 ) ;
#59 = EDGE_CURVE ( 'NONE', #233, #73, #383, .T. ) ;
#60 = DIRECTION ( 'NONE',  ( 1.000000000000000000, 0.000000000000000000, -0.000000000000000000 ) ) ;
#61 = ORIENTED_EDGE ( 'NONE', *, *, #536, .T. ) ;
#62 = CARTESIAN_POINT ( 'NONE',  ( 0.000000000000000000, 0.000000000000000000, 37.95000000000000284 ) ) ;
#63 = ORIENTED_EDGE ( 'NONE', *, *, #723, .F. ) ;
#64 = CARTESIAN_POINT ( 'NONE',  ( 0.000000000000000000, 0.000000000000000000, 0.000000000000000000 ) ) ;
#65 = DIRECTION ( 'NONE',  ( 0.000000000000000000, 0.000000000000000000, -1.000000000000000000 ) ) ;
#66 = DIRECTION ( 'NONE',  ( 0.000000000000000000, -1.000000000000000000, 0.000000000000000000 ) ) ;
#67 = CARTESIAN_POINT ( 'NONE',  ( 0.000000000000000000, 0.000000000000000000, 38.20000000000000284 ) ) ;
#68 = AXIS2_PLACEMENT_3D ( 'NONE', #750, #422, #418 ) ;
#69 = EDGE_CURVE ( 'NONE', #29, #142, #533, .T. ) ;
#70 = CARTESIAN_POINT ( 'NONE',  ( -5.232590180780441358, -10.34999999999999964, 13.76740981921952311 ) ) ;
#71 = DIRECTION ( 'NONE',  ( 1.000000000000000000, 0.000000000000000000, 0.000000000000000000 ) ) ;
#72 = EDGE_CURVE ( 'NONE', #268, #653, #666, .T. ) ;
#73 = VERTEX_POINT ( 'NONE', #462 ) ;
#74 = DIRECTION ( 'NONE',  ( 0.000000000000000000, 0.000000000000000000, 1.000000000000000000 ) ) ;
#75 = CARTESIAN_POINT ( 'NONE',  ( -5.232590180780454681, -10.15000000000000036, 24.23259018078044846 ) ) ;
#76 = DIRECTION ( 'NONE',  ( 0.000000000000000000, 0.000000000000000000, -1.000000000000000000 ) ) ;
#77 = CARTESIAN_POINT ( 'NONE',  ( -1.734723475976807094E-15, -10.34999999999999964, 18.99999999999999645 ) ) ;
#78 = DIRECTION ( 'NONE',  ( 0.000000000000000000, -1.000000000000000000, 0.000000000000000000 ) ) ;
#79 = CIRCLE ( 'NONE', #409, 3.224999999999998757 ) ;
#80 = VECTOR ( 'NONE', #559, 1000.000000000000000 ) ;
#81 = DIRECTION ( 'NONE',  ( 1.000000000000000000, 0.000000000000000000, 0.000000000000000000 ) ) ;
#82 = DIRECTION ( 'NONE',  ( 1.000000000000000000, 0.000000000000000000, 0.000000000000000000 ) ) ;
#83 = APPLICATION_PROTOCOL_DEFINITION ( 'international standard', 'config_control_design', 1994, #738 ) ;
#84 = ORIENTED_EDGE ( 'NONE', *, *, #69, .F. ) ;
#85 = LINE ( 'NONE', #562, #500 ) ;
#86 = CARTESIAN_POINT ( 'NONE',  ( 0.000000000000000000, 0.000000000000000000, 38.20000000000000284 ) ) ;
#87 = CALENDAR_DATE ( 2026, 8, 4 ) ;
#88 = CARTESIAN_POINT ( 'NONE',  ( 0.000000000000000000, 0.000000000000000000, 36.60000000000000853 ) ) ;
#89 = CARTESIAN_POINT ( 'NONE',  ( 5.232590180780451128, -10.15000000000000036, 13.76740981921953733 ) ) ;
#90 = CIRCLE ( 'NONE', #234, 7.000000000000000000 ) ;
#91 = AXIS2_PLACEMENT_3D ( 'NONE', #752, #761, #299 ) ;
#92 = CC_DESIGN_PERSON_AND_ORGANIZATION_ASSIGNMENT ( #664, #845, ( #365 ) ) ;
#93 = ORIENTED_EDGE ( 'NONE', *, *, #4, .F. ) ;
#94 = EDGE_CURVE ( 'NONE', #724, #107, #481, .T. ) ;
#95 = CIRCLE ( 'NONE', #731, 3.224999999999998757 ) ;
#96 = FACE_OUTER_BOUND ( 'NONE', #737, .T. ) ;
#97 = EDGE_CURVE ( 'NONE', #778, #719, #682, .T. ) ;
#98 = CYLINDRICAL_SURFACE ( 'NONE', #55, 3.350000000000002309 ) ;
#99 = ORIENTED_EDGE ( 'NONE', *, *, #662, .T. ) ;
#100 = DIRECTION ( 'NONE',  ( -0.000000000000000000, -0.000000000000000000, -1.000000000000000000 ) ) ;
#101 = ORIENTED_EDGE ( 'NONE', *, *, #94, .F. ) ;
#102 = EDGE_LOOP ( 'NONE', ( #765, #241 ) ) ;
#103 = CARTESIAN_POINT ( 'NONE',  ( 5.232590180780451128, -10.34999999999999964, 13.76740981921953733 ) ) ;
#104 = DIRECTION ( 'NONE',  ( 0.000000000000000000, -1.000000000000000000, 0.000000000000000000 ) ) ;
#105 = EDGE_LOOP ( 'NONE', ( #530, #670 ) ) ;
#106 = DIRECTION ( 'NONE',  ( 0.000000000000000000, -0.000000000000000000, -1.000000000000000000 ) ) ;
#107 = VERTEX_POINT ( 'NONE', #356 ) ;
#108 = EDGE_CURVE ( 'NONE', #576, #309, #128, .T. ) ;
#109 = LOCAL_TIME ( 15, 47, 47.00000000000000000, #716 ) ;
#110 = PLANE ( 'NONE',  #643 ) ;
#111 = CARTESIAN_POINT ( 'NONE',  ( 0.000000000000000000, 0.000000000000000000, 38.20000000000000284 ) ) ;
#112 = FACE_OUTER_BOUND ( 'NONE', #590, .T. ) ;
#113 = CIRCLE ( 'NONE', #861, 13.99999999999999822 ) ;
#114 = CARTESIAN_POINT ( 'NONE',  ( -9.299999999999988276, 0.000000000000000000, 38.20000000000000284 ) ) ;
#115 = COORDINATED_UNIVERSAL_TIME_OFFSET ( 5, 0, .BEHIND. ) ;
#116 = CARTESIAN_POINT ( 'NONE',  ( 0.000000000000000000, 0.000000000000000000, 37.95000000000000284 ) ) ;
#117 = ORIENTED_EDGE ( 'NONE', *, *, #826, .T. ) ;
#118 = VERTEX_POINT ( 'NONE', #399 ) ;
#119 = DIRECTION ( 'NONE',  ( 0.000000000000000000, 0.000000000000000000, 1.000000000000000000 ) ) ;
#120 = DIRECTION ( 'NONE',  ( -0.000000000000000000, -0.000000000000000000, -1.000000000000000000 ) ) ;
#121 = EDGE_LOOP ( 'NONE', ( #61, #708 ) ) ;
#122 = DIRECTION ( 'NONE',  ( 0.000000000000000000, 0.000000000000000000, 1.000000000000000000 ) ) ;
#123 = CALENDAR_DATE ( 2026, 8, 4 ) ;
#124 = DIRECTION ( 'NONE',  ( 1.000000000000000000, 0.000000000000000000, 0.000000000000000000 ) ) ;
#125 = CC_DESIGN_PERSON_AND_ORGANIZATION_ASSIGNMENT ( #688, #548, ( #779 ) ) ;
#126 = CC_DESIGN_APPROVAL ( #546, ( #365 ) ) ;
#127 = ORIENTED_EDGE ( 'NONE', *, *, #159, .T. ) ;
#128 = CIRCLE ( 'NONE', #642, 3.224999999999998757 ) ;
#129 = CARTESIAN_POINT ( 'NONE',  ( 9.299999999999988276, 1.426713521006665817E-15, 38.20000000000000284 ) ) ;
#130 = CALENDAR_DATE ( 2026, 8, 4 ) ;
#131 = VERTEX_POINT ( 'NONE', #129 ) ;
#132 = ORIENTED_EDGE ( 'NONE', *, *, #413, .F. ) ;
#133 = CARTESIAN_POINT ( 'NONE',  ( -5.232590180780441358, -10.15000000000000036, 10.41740981921952169 ) ) ;
#134 = ADVANCED_FACE ( 'NONE', ( #800, #201 ), #736, .T. ) ;
#135 = CARTESIAN_POINT ( 'NONE',  ( 5.232590180780451128, -9.350000000000001421, 10.41740981921953413 ) ) ;
#136 = EDGE_CURVE ( 'NONE', #778, #724, #733, .T. ) ;
#137 = AXIS2_PLACEMENT_3D ( 'NONE', #376, #255, #442 ) ;
#138 = CIRCLE ( 'NONE', #608, 3.350000000000001865 ) ;
#139 = AXIS2_PLACEMENT_3D ( 'NONE', #607, #13, #9 ) ;
#140 = CARTESIAN_POINT ( 'NONE',  ( 5.232590180780451128, -9.350000000000001421, 13.76740981921953733 ) ) ;
#141 = DIRECTION ( 'NONE',  ( 1.000000000000000000, 0.000000000000000000, -0.000000000000000000 ) ) ;
#142 = VERTEX_POINT ( 'NONE', #133 ) ;
#143 = DIRECTION ( 'NONE',  ( 1.000000000000000000, 0.000000000000000000, 0.000000000000000000 ) ) ;
#144 = PLANE ( 'NONE',  #584 ) ;
#145 = DIRECTION ( 'NONE',  ( 0.000000000000000000, 0.000000000000000000, -1.000000000000000000 ) ) ;
#146 = ADVANCED_FACE ( 'NONE', ( #408 ), #616, .T. ) ;
#147 = CARTESIAN_POINT ( 'NONE',  ( 5.232590180780451128, -9.350000000000001421, 13.76740981921953733 ) ) ;
#148 = CARTESIAN_POINT ( 'NONE',  ( -7.950000000000000178, 9.735942053221458872E-16, 36.60000000000000853 ) ) ;
#149 = MECHANICAL_CONTEXT ( 'NONE', #647, 'mechanical' ) ;
#150 = AXIS2_PLACEMENT_3D ( 'NONE', #443, #764, #702 ) ;
#151 = CARTESIAN_POINT ( 'NONE',  ( -5.232590180780454681, -9.350000000000001421, 20.88259018078044704 ) ) ;
#152 = CARTESIAN_POINT ( 'NONE',  ( -1.734723475976807094E-15, -5.850000000000000533, 15.77499999999999680 ) ) ;
#153 = CARTESIAN_POINT ( 'NONE',  ( 0.000000000000000000, 0.000000000000000000, 38.20000000000000284 ) ) ;
#154 = DIRECTION ( 'NONE',  ( 0.000000000000000000, 0.000000000000000000, 1.000000000000000000 ) ) ;
#155 = CC_DESIGN_PERSON_AND_ORGANIZATION_ASSIGNMENT ( #786, #455, ( #661 ) ) ;
#156 = CYLINDRICAL_SURFACE ( 'NONE', #489, 3.350000000000002309 ) ;
#157 = EDGE_CURVE ( 'NONE', #179, #45, #95, .T. ) ;
#158 = DESIGN_CONTEXT ( 'detailed design', #738, 'design' ) ;
#159 = EDGE_CURVE ( 'NONE', #853, #54, #113, .T. ) ;
#160 = DIRECTION ( 'NONE',  ( -0.000000000000000000, -1.000000000000000000, -0.000000000000000000 ) ) ;
#161 = DIRECTION ( 'NONE',  ( -0.000000000000000000, -1.000000000000000000, -0.000000000000000000 ) ) ;
#162 = AXIS2_PLACEMENT_3D ( 'NONE', #111, #775, #572 ) ;
#163 = AXIS2_PLACEMENT_3D ( 'NONE', #289, #628, #428 ) ;
#164 = VERTEX_POINT ( 'NONE', #808 ) ;
#165 = AXIS2_PLACEMENT_3D ( 'NONE', #753, #78, #269 ) ;
#166 = DIRECTION ( 'NONE',  ( 0.7071067811865470176, 8.659560562354926695E-17, -0.7071067811865480168 ) ) ;
#167 = ORIENTED_EDGE ( 'NONE', *, *, #787, .F. ) ;
#168 = CARTESIAN_POINT ( 'NONE',  ( -1.339774883251785611E-15, -5.850000000000000533, 22.22499999999999432 ) ) ;
#169 = ORIENTED_EDGE ( 'NONE', *, *, #31, .T. ) ;
#170 = APPROVAL_DATE_TIME ( #33, #692 ) ;
#171 = FACE_BOUND ( 'NONE', #48, .T. ) ;
#172 = FACE_OUTER_BOUND ( 'NONE', #503, .T. ) ;
#173 = ORIENTED_EDGE ( 'NONE', *, *, #97, .T. ) ;
#174 = ADVANCED_FACE ( 'NONE', ( #210 ), #144, .T. ) ;
#175 = PLANE ( 'NONE',  #379 ) ;
#176 = ORIENTED_EDGE ( 'NONE', *, *, #815, .T. ) ;
#177 = DATE_TIME_ROLE ( 'creation_date' ) ;
#178 = DIRECTION ( 'NONE',  ( 0.000000000000000000, -1.000000000000000000, 0.000000000000000000 ) ) ;
#179 = VERTEX_POINT ( 'NONE', #194 ) ;
#180 = CARTESIAN_POINT ( 'NONE',  ( -7.000000000000000000, 0.000000000000000000, 37.95000000000000284 ) ) ;
#181 = DIRECTION ( 'NONE',  ( 0.000000000000000000, -1.000000000000000000, 0.000000000000000000 ) ) ;
#182 = CIRCLE ( 'NONE', #520, 3.350000000000001421 ) ;
#183 = VERTEX_POINT ( 'NONE', #359 ) ;
#184 = DIRECTION ( 'NONE',  ( 0.000000000000000000, 0.000000000000000000, -1.000000000000000000 ) ) ;
#185 = DATE_AND_TIME ( #788, #606 ) ;
#186 = DIRECTION ( 'NONE',  ( 0.000000000000000000, 0.000000000000000000, 1.000000000000000000 ) ) ;
#187 = EDGE_LOOP ( 'NONE', ( #592, #579 ) ) ;
#188 = DIRECTION ( 'NONE',  ( 0.000000000000000000, -1.000000000000000000, 0.000000000000000000 ) ) ;
#189 = ADVANCED_FACE ( 'NONE', ( #17 ), #816, .F. ) ;
#190 = COORDINATED_UNIVERSAL_TIME_OFFSET ( 5, 0, .BEHIND. ) ;
#191 = PERSON_AND_ORGANIZATION ( #414, #828 ) ;
#192 = EDGE_CURVE ( 'NONE', #375, #54, #334, .T. ) ;
#193 = ORIENTED_EDGE ( 'NONE', *, *, #658, .F. ) ;
#194 = CARTESIAN_POINT ( 'NONE',  ( -1.734723475976807094E-15, -10.34999999999999964, 15.77499999999999680 ) ) ;
#195 = VECTOR ( 'NONE', #440, 1000.000000000000000 ) ;
#196 = ORIENTED_EDGE ( 'NONE', *, *, #693, .T. ) ;
#197 = DIRECTION ( 'NONE',  ( -1.000000000000000000, 0.000000000000000000, -1.035655806553317054E-14 ) ) ;
#198 = ORIENTED_EDGE ( 'NONE', *, *, #192, .T. ) ;
#199 = CIRCLE ( 'NONE', #312, 9.299999999999988276 ) ;
#200 = DIRECTION ( 'NONE',  ( 0.000000000000000000, 0.000000000000000000, 1.000000000000000000 ) ) ;
#201 = FACE_OUTER_BOUND ( 'NONE', #857, .T. ) ;
#202 = EDGE_LOOP ( 'NONE', ( #801, #305 ) ) ;
#203 = EDGE_CURVE ( 'NONE', #118, #380, #238, .T. ) ;
#204 = CARTESIAN_POINT ( 'NONE',  ( 9.427486409430668957, -10.34999999999999964, 30.64999999999999147 ) ) ;
#205 = LOCAL_TIME ( 15, 47, 47.00000000000000000, #190 ) ;
#206 = AXIS2_PLACEMENT_3D ( 'NONE', #6, #343, #537 ) ;
#207 = AXIS2_PLACEMENT_3D ( 'NONE', #35, #373, #772 ) ;
#208 = CARTESIAN_POINT ( 'NONE',  ( 0.000000000000000000, 0.000000000000000000, 30.64999999999999147 ) ) ;
#209 = DIRECTION ( 'NONE',  ( 0.000000000000000000, -1.000000000000000000, 0.000000000000000000 ) ) ;
#210 = FACE_OUTER_BOUND ( 'NONE', #214, .T. ) ;
#211 = ADVANCED_FACE ( 'NONE', ( #691 ), #156, .F. ) ;
#212 = ORIENTED_EDGE ( 'NONE', *, *, #203, .F. ) ;
#213 = CARTESIAN_POINT ( 'NONE',  ( -13.99999999999999822, 0.000000000000000000, 38.20000000000000284 ) ) ;
#214 = EDGE_LOOP ( 'NONE', ( #340, #531 ) ) ;
#215 = CARTESIAN_POINT ( 'NONE',  ( -1.734723475976807094E-15, -5.850000000000000533, 18.99999999999999645 ) ) ;
#216 = FACE_OUTER_BOUND ( 'NONE', #374, .T. ) ;
#217 = COORDINATED_UNIVERSAL_TIME_OFFSET ( 5, 0, .BEHIND. ) ;
#218 = DIRECTION ( 'NONE',  ( 0.000000000000000000, -1.000000000000000000, 0.000000000000000000 ) ) ;
#219 = PLANE ( 'NONE',  #767 ) ;
#220 = VECTOR ( 'NONE', #509, 1000.000000000000000 ) ;
#221 = CYLINDRICAL_SURFACE ( 'NONE', #223, 3.350000000000002309 ) ;
#222 = VECTOR ( 'NONE', #287, 1000.000000000000000 ) ;
#223 = AXIS2_PLACEMENT_3D ( 'NONE', #281, #852, #338 ) ;
#224 = CARTESIAN_POINT ( 'NONE',  ( -13.99999999999999822, 0.000000000000000000, 0.000000000000000000 ) ) ;
#225 = ADVANCED_FACE ( 'NONE', ( #820 ), #768, .T. ) ;
#226 = DIRECTION ( 'NONE',  ( 1.000000000000000000, 0.000000000000000000, 0.000000000000000000 ) ) ;
#227 = ADVANCED_FACE ( 'NONE', ( #695 ), #502, .T. ) ;
#228 = CYLINDRICAL_SURFACE ( 'NONE', #461, 3.350000000000002309 ) ;
#229 = LINE ( 'NONE', #496, #757 ) ;
#230 = VERTEX_POINT ( 'NONE', #568 ) ;
#231 = CARTESIAN_POINT ( 'NONE',  ( 0.000000000000000000, 0.000000000000000000, 0.000000000000000000 ) ) ;
#232 = DIRECTION ( 'NONE',  ( -1.000000000000000000, 0.000000000000000000, 0.000000000000000000 ) ) ;
#233 = VERTEX_POINT ( 'NONE', #377 ) ;
#234 = AXIS2_PLACEMENT_3D ( 'NONE', #244, #186, #51 ) ;
#235 = CIRCLE ( 'NONE', #730, 13.99999999999999822 ) ;
#236 = ORIENTED_EDGE ( 'NONE', *, *, #436, .T. ) ;
#237 = FACE_BOUND ( 'NONE', #851, .T. ) ;
#238 = CIRCLE ( 'NONE', #150, 7.000000000000000000 ) ;
#239 = CYLINDRICAL_SURFACE ( 'NONE', #38, 13.99999999999999822 ) ;
#240 = VERTEX_POINT ( 'NONE', #505 ) ;
#241 = ORIENTED_EDGE ( 'NONE', *, *, #203, .T. ) ;
#242 = ADVANCED_FACE ( 'NONE', ( #313, #172 ), #701, .T. ) ;
#243 = FACE_OUTER_BOUND ( 'NONE', #725, .T. ) ;
#244 = CARTESIAN_POINT ( 'NONE',  ( 0.000000000000000000, 0.000000000000000000, 36.60000000000000853 ) ) ;
#245 = CARTESIAN_POINT ( 'NONE',  ( 9.427486409430668957, -10.34999999999999964, 38.20000000000000284 ) ) ;
#246 = ORIENTED_EDGE ( 'NONE', *, *, #339, .T. ) ;
#247 = PLANE ( 'NONE',  #518 ) ;
#248 = ORIENTED_EDGE ( 'NONE', *, *, #361, .F. ) ;
#249 = ORIENTED_EDGE ( 'NONE', *, *, #351, .T. ) ;
#250 = DIRECTION ( 'NONE',  ( -0.000000000000000000, -0.000000000000000000, 1.000000000000000000 ) ) ;
#251 = AXIS2_PLACEMENT_3D ( 'NONE', #103, #178, #200 ) ;
#252 = SECURITY_CLASSIFICATION_LEVEL ( 'unclassified' ) ;
#253 = UNCERTAINTY_MEASURE_WITH_UNIT (LENGTH_MEASURE( 1.000000000000000082E-05 ), #360, 'distance_accuracy_value', 'NONE');
#254 = CIRCLE ( 'NONE', #519, 7.000000000000000000 ) ;
#255 = DIRECTION ( 'NONE',  ( -0.000000000000000000, -1.000000000000000000, -0.000000000000000000 ) ) ;
#256 = APPROVAL ( #515, 'UNSPECIFIED' ) ;
#257 = AXIS2_PLACEMENT_3D ( 'NONE', #403, #749, #60 ) ;
#258 = ORIENTED_EDGE ( 'NONE', *, *, #803, .F. ) ;
#259 = EDGE_CURVE ( 'NONE', #142, #29, #298, .T. ) ;
#260 = ORIENTED_EDGE ( 'NONE', *, *, #536, .F. ) ;
#261 = CARTESIAN_POINT ( 'NONE',  ( -5.232590180780454681, -10.34999999999999964, 20.88259018078044704 ) ) ;
#262 = EDGE_CURVE ( 'NONE', #131, #233, #426, .T. ) ;
#263 = CYLINDRICAL_SURFACE ( 'NONE', #137, 3.224999999999998757 ) ;
#264 = VERTEX_POINT ( 'NONE', #438 ) ;
#265 = ORIENTED_EDGE ( 'NONE', *, *, #94, .T. ) ;
#266 = CARTESIAN_POINT ( 'NONE',  ( 0.000000000000000000, 0.000000000000000000, 33.49999999999998579 ) ) ;
#267 = ORIENTED_EDGE ( 'NONE', *, *, #2, .T. ) ;
#268 = VERTEX_POINT ( 'NONE', #633 ) ;
#269 = DIRECTION ( 'NONE',  ( 0.000000000000000000, 0.000000000000000000, 1.000000000000000000 ) ) ;
#270 = CC_DESIGN_APPROVAL ( #256, ( #661 ) ) ;
#271 = ORIENTED_EDGE ( 'NONE', *, *, #308, .F. ) ;
#272 = EDGE_CURVE ( 'NONE', #653, #268, #807, .T. ) ;
#273 = VECTOR ( 'NONE', #166, 1000.000000000000000 ) ;
#274 = CARTESIAN_POINT ( 'NONE',  ( -13.99999999999999822, -10.34999999999999964, 7.349999999999999645 ) ) ;
#275 = DIRECTION ( 'NONE',  ( 1.000000000000000000, 0.000000000000000000, 0.000000000000000000 ) ) ;
#276 = ORIENTED_EDGE ( 'NONE', *, *, #744, .F. ) ;
#277 = CARTESIAN_POINT ( 'NONE',  ( -5.232590180780441358, -9.350000000000001421, 17.11740981921952454 ) ) ;
#278 = CIRCLE ( 'NONE', #251, 3.350000000000002309 ) ;
#279 = AXIS2_PLACEMENT_3D ( 'NONE', #543, #639, #776 ) ;
#280 = ADVANCED_FACE ( 'NONE', ( #296, #640 ), #239, .T. ) ;
#281 = CARTESIAN_POINT ( 'NONE',  ( -5.232590180780454681, -9.350000000000001421, 24.23259018078044846 ) ) ;
#282 = VECTOR ( 'NONE', #732, 1000.000000000000000 ) ;
#283 = DIRECTION ( 'NONE',  ( -0.000000000000000000, -1.000000000000000000, -0.000000000000000000 ) ) ;
#284 = EDGE_CURVE ( 'NONE', #679, #375, #782, .T. ) ;
#285 = DIRECTION ( 'NONE',  ( 0.000000000000000000, 0.000000000000000000, -1.000000000000000000 ) ) ;
#286 = DIRECTION ( 'NONE',  ( -0.000000000000000000, 0.000000000000000000, 1.000000000000000000 ) ) ;
#287 = DIRECTION ( 'NONE',  ( -0.000000000000000000, -1.000000000000000000, -0.000000000000000000 ) ) ;
#288 = VERTEX_POINT ( 'NONE', #25 ) ;
#289 = CARTESIAN_POINT ( 'NONE',  ( -1.734723475976807094E-15, -5.850000000000000533, 18.99999999999999645 ) ) ;
#290 = DIRECTION ( 'NONE',  ( 0.000000000000000000, 0.000000000000000000, 1.000000000000000000 ) ) ;
#291 = CARTESIAN_POINT ( 'NONE',  ( -5.232590180780441358, -10.34999999999999964, 10.41740981921952169 ) ) ;
#292 = EDGE_CURVE ( 'NONE', #264, #833, #355, .T. ) ;
#293 = DIRECTION ( 'NONE',  ( -1.000000000000000000, 0.000000000000000000, -1.035655806553317211E-14 ) ) ;
#294 = EDGE_CURVE ( 'NONE', #131, #809, #464, .T. ) ;
#295 = CC_DESIGN_APPROVAL ( #692, ( #680 ) ) ;
#296 = FACE_OUTER_BOUND ( 'NONE', #728, .T. ) ;
#297 = VECTOR ( 'NONE', #283, 1000.000000000000000 ) ;
#298 = CIRCLE ( 'NONE', #849, 3.350000000000001865 ) ;
#299 = DIRECTION ( 'NONE',  ( 1.000000000000000000, 0.000000000000000000, 0.000000000000000000 ) ) ;
#300 = LINE ( 'NONE', #492, #434 ) ;
#301 = ORIENTED_EDGE ( 'NONE', *, *, #284, .F. ) ;
#302 = CARTESIAN_POINT ( 'NONE',  ( 5.232590180780396061, -10.15000000000000036, 27.58259018078050318 ) ) ;
#303 = DIRECTION ( 'NONE',  ( 0.000000000000000000, 0.000000000000000000, -1.000000000000000000 ) ) ;
#304 = ORIENTED_EDGE ( 'NONE', *, *, #662, .F. ) ;
#305 = ORIENTED_EDGE ( 'NONE', *, *, #855, .F. ) ;
#306 = FACE_BOUND ( 'NONE', #202, .T. ) ;
#307 = DIRECTION ( 'NONE',  ( 0.000000000000000000, 0.000000000000000000, -1.000000000000000000 ) ) ;
#308 = EDGE_CURVE ( 'NONE', #268, #164, #300, .T. ) ;
#309 = VERTEX_POINT ( 'NONE', #762 ) ;
#310 = DIRECTION ( 'NONE',  ( 1.000000000000000000, 0.000000000000000000, 0.000000000000000000 ) ) ;
#311 = EDGE_LOOP ( 'NONE', ( #271, #631, #392, #333 ) ) ;
#312 = AXIS2_PLACEMENT_3D ( 'NONE', #486, #74, #412 ) ;
#313 = FACE_BOUND ( 'NONE', #603, .T. ) ;
#314 = ORIENTED_EDGE ( 'NONE', *, *, #499, .F. ) ;
#315 = FACE_OUTER_BOUND ( 'NONE', #341, .T. ) ;
#316 = VERTEX_POINT ( 'NONE', #822 ) ;
#317 = APPROVAL_ROLE ( '' ) ;
#318 = DIRECTION ( 'NONE',  ( 0.000000000000000000, -0.000000000000000000, 1.000000000000000000 ) ) ;
#319 = FACE_OUTER_BOUND ( 'NONE', #368, .T. ) ;
#320 = ORIENTED_EDGE ( 'NONE', *, *, #391, .T. ) ;
#321 = CARTESIAN_POINT ( 'NONE',  ( 0.000000000000000000, 0.000000000000000000, 36.60000000000000853 ) ) ;
#322 = PERSON_AND_ORGANIZATION_ROLE ( 'creator' ) ;
#323 = FACE_OUTER_BOUND ( 'NONE', #773, .T. ) ;
#324 = EDGE_CURVE ( 'NONE', #516, #452, #229, .T. ) ;
#325 = EDGE_LOOP ( 'NONE', ( #101, #627, #173, #703 ) ) ;
#326 = ORIENTED_EDGE ( 'NONE', *, *, #449, .F. ) ;
#327 = ADVANCED_FACE ( 'NONE', ( #432 ), #98, .F. ) ;
#328 = AXIS2_PLACEMENT_3D ( 'NONE', #655, #50, #525 ) ;
#329 = AXIS2_PLACEMENT_3D ( 'NONE', #615, #554, #293 ) ;
#330 = CARTESIAN_POINT ( 'NONE',  ( -9.427486409430668957, -10.34999999999999964, 30.64999999999999147 ) ) ;
#331 = AXIS2_PLACEMENT_3D ( 'NONE', #856, #545, #417 ) ;
#332 = ORIENTED_EDGE ( 'NONE', *, *, #693, .F. ) ;
#333 = ORIENTED_EDGE ( 'NONE', *, *, #781, .T. ) ;
#334 = LINE ( 'NONE', #245, #80 ) ;
#335 = ORIENTED_EDGE ( 'NONE', *, *, #262, .T. ) ;
#336 = DIRECTION ( 'NONE',  ( 1.000000000000000000, 0.000000000000000000, 0.000000000000000000 ) ) ;
#337 = EDGE_LOOP ( 'NONE', ( #117, #127 ) ) ;
#338 = DIRECTION ( 'NONE',  ( 0.000000000000000000, 0.000000000000000000, -1.000000000000000000 ) ) ;
#339 = EDGE_CURVE ( 'NONE', #73, #511, #813, .T. ) ;
#340 = ORIENTED_EDGE ( 'NONE', *, *, #108, .T. ) ;
#341 = EDGE_LOOP ( 'NONE', ( #838, #267 ) ) ;
#342 = DIRECTION ( 'NONE',  ( 0.000000000000000000, 0.000000000000000000, -1.000000000000000000 ) ) ;
#343 = DIRECTION ( 'NONE',  ( -0.000000000000000000, -0.000000000000000000, -1.000000000000000000 ) ) ;
#344 = AXIS2_PLACEMENT_3D ( 'NONE', #529, #795, #56 ) ;
#345 = CARTESIAN_POINT ( 'NONE',  ( 0.000000000000000000, 0.000000000000000000, 0.000000000000000000 ) ) ;
#346 = DIRECTION ( 'NONE',  ( 0.000000000000000000, 0.000000000000000000, -1.000000000000000000 ) ) ;
#347 = ORIENTED_EDGE ( 'NONE', *, *, #588, .F. ) ;
#348 = APPLICATION_PROTOCOL_DEFINITION ( 'international standard', 'config_control_design', 1994, #647 ) ;
#349 = CARTESIAN_POINT ( 'NONE',  ( -5.232590180780454681, -9.350000000000001421, 24.23259018078044846 ) ) ;
#350 = EDGE_CURVE ( 'NONE', #142, #385, #743, .T. ) ;
#351 = EDGE_CURVE ( 'NONE', #833, #264, #541, .T. ) ;
#352 = DIRECTION ( 'NONE',  ( 0.000000000000000000, 0.000000000000000000, -1.000000000000000000 ) ) ;
#353 = DIRECTION ( 'NONE',  ( 0.000000000000000000, 0.000000000000000000, -1.000000000000000000 ) ) ;
#354 = AXIS2_PLACEMENT_3D ( 'NONE', #147, #11, #819 ) ;
#355 = CIRCLE ( 'NONE', #830, 3.350000000000002309 ) ;
#356 = CARTESIAN_POINT ( 'NONE',  ( -7.950000000000000178, 9.735942053221458872E-16, 38.20000000000000284 ) ) ;
#357 = VECTOR ( 'NONE', #424, 1000.000000000000000 ) ;
#358 = CARTESIAN_POINT ( 'NONE',  ( 7.000000000000000000, 8.572527594031471218E-16, 37.95000000000000284 ) ) ;
#359 = CARTESIAN_POINT ( 'NONE',  ( 5.232590180780396061, -10.15000000000000036, 20.88259018078049678 ) ) ;
#360 =( LENGTH_UNIT ( ) NAMED_UNIT ( * ) SI_UNIT ( .MILLI., .METRE. ) );
#361 = EDGE_CURVE ( 'NONE', #375, #679, #10, .T. ) ;
#362 = FACE_OUTER_BOUND ( 'NONE', #325, .T. ) ;
#363 = DIRECTION ( 'NONE',  ( 0.000000000000000000, -1.000000000000000000, 0.000000000000000000 ) ) ;
#364 = CYLINDRICAL_SURFACE ( 'NONE', #622, 3.350000000000002309 ) ;
#365 = PRODUCT_DEFINITION_FORMATION_WITH_SPECIFIED_SOURCE ( 'ANY', '', #779, .NOT_KNOWN. ) ;
#366 = AXIS2_PLACEMENT_3D ( 'NONE', #77, #609, #285 ) ;
#367 = DIRECTION ( 'NONE',  ( 0.000000000000000000, 0.000000000000000000, 1.000000000000000000 ) ) ;
#368 = EDGE_LOOP ( 'NONE', ( #465, #439, #41, #332 ) ) ;
#369 = CARTESIAN_POINT ( 'NONE',  ( -5.232590180780441358, -9.350000000000001421, 13.76740981921952311 ) ) ;
#370 = DIRECTION ( 'NONE',  ( -1.000000000000000000, 0.000000000000000000, 0.000000000000000000 ) ) ;
#371 = ORIENTED_EDGE ( 'NONE', *, *, #411, .F. ) ;
#372 = ADVANCED_FACE ( 'NONE', ( #552 ), #604, .F. ) ;
#373 = DIRECTION ( 'NONE',  ( 0.000000000000000000, 0.000000000000000000, 1.000000000000000000 ) ) ;
#374 = EDGE_LOOP ( 'NONE', ( #745, #827, #696, #796 ) ) ;
#375 = VERTEX_POINT ( 'NONE', #204 ) ;
#376 = CARTESIAN_POINT ( 'NONE',  ( -1.734723475976807094E-15, -5.850000000000000533, 18.99999999999999645 ) ) ;
#377 = CARTESIAN_POINT ( 'NONE',  ( 13.99999999999999822, 1.714505518806294441E-15, 33.49999999999998579 ) ) ;
#378 = ORIENTED_EDGE ( 'NONE', *, *, #59, .T. ) ;
#379 = AXIS2_PLACEMENT_3D ( 'NONE', #445, #844, #47 ) ;
#380 = VERTEX_POINT ( 'NONE', #19 ) ;
#381 = FACE_BOUND ( 'NONE', #660, .T. ) ;
#382 = DIRECTION ( 'NONE',  ( -1.000000000000000000, 0.000000000000000000, 0.000000000000000000 ) ) ;
#383 = CIRCLE ( 'NONE', #625, 13.99999999999999822 ) ;
#384 = PLANE ( 'NONE',  #501 ) ;
#385 = VERTEX_POINT ( 'NONE', #291 ) ;
#386 = FACE_OUTER_BOUND ( 'NONE', #506, .T. ) ;
#387 = CARTESIAN_POINT ( 'NONE',  ( -13.99999999999999822, -10.34999999999999964, 7.349999999999999645 ) ) ;
#388 = EDGE_CURVE ( 'NONE', #809, #131, #199, .T. ) ;
#389 = SHAPE_DEFINITION_REPRESENTATION ( #650, #802 ) ;
#390 = LINE ( 'NONE', #850, #220 ) ;
#391 = EDGE_CURVE ( 'NONE', #29, #435, #549, .T. ) ;
#392 = ORIENTED_EDGE ( 'NONE', *, *, #411, .T. ) ;
#393 = ORIENTED_EDGE ( 'NONE', *, *, #475, .F. ) ;
#394 = CARTESIAN_POINT ( 'NONE',  ( -9.427486409430670733, -10.34999999999999964, 7.349999999999999645 ) ) ;
#395 = CARTESIAN_POINT ( 'NONE',  ( 7.950000000000000178, 0.000000000000000000, 38.20000000000000284 ) ) ;
#396 = ORIENTED_EDGE ( 'NONE', *, *, #388, .F. ) ;
#397 = CIRCLE ( 'NONE', #448, 3.350000000000002309 ) ;
#398 = VECTOR ( 'NONE', #446, 1000.000000000000000 ) ;
#399 = CARTESIAN_POINT ( 'NONE',  ( 7.000000000000000000, 8.572527594031471218E-16, 37.95000000000000284 ) ) ;
#400 = AXIS2_PLACEMENT_3D ( 'NONE', #617, #218, #76 ) ;
#401 = ORIENTED_EDGE ( 'NONE', *, *, #361, .T. ) ;
#402 = ORIENTED_EDGE ( 'NONE', *, *, #136, .T. ) ;
#403 = CARTESIAN_POINT ( 'NONE',  ( 0.000000000000000000, 0.000000000000000000, 36.60000000000000853 ) ) ;
#404 = DATE_TIME_ROLE ( 'classification_date' ) ;
#405 = ORIENTED_EDGE ( 'NONE', *, *, #413, .T. ) ;
#406 = EDGE_CURVE ( 'NONE', #435, #385, #818, .T. ) ;
#407 = ORIENTED_EDGE ( 'NONE', *, *, #748, .T. ) ;
#408 = FACE_OUTER_BOUND ( 'NONE', #672, .T. ) ;
#409 = AXIS2_PLACEMENT_3D ( 'NONE', #215, #814, #694 ) ;
#410 = ORIENTED_EDGE ( 'NONE', *, *, #308, .T. ) ;
#411 = EDGE_CURVE ( 'NONE', #653, #230, #739, .T. ) ;
#412 = DIRECTION ( 'NONE',  ( 1.000000000000000000, 0.000000000000000000, 0.000000000000000000 ) ) ;
#413 = EDGE_CURVE ( 'NONE', #385, #435, #182, .T. ) ;
#414 = PERSON ( 'UNSPECIFIED', 'UNSPECIFIED', 'UNSPECIFIED', ('UNSPECIFIED'), ('UNSPECIFIED'), ('UNSPECIFIED') ) ;
#415 = DIRECTION ( 'NONE',  ( -0.000000000000000000, -0.000000000000000000, -1.000000000000000000 ) ) ;
#416 = DIRECTION ( 'NONE',  ( -0.000000000000000000, -0.000000000000000000, -1.000000000000000000 ) ) ;
#417 = DIRECTION ( 'NONE',  ( 1.000000000000000000, 0.000000000000000000, 3.624795322936609767E-15 ) ) ;
#418 = DIRECTION ( 'NONE',  ( 1.000000000000000000, 0.000000000000000000, 3.624795322936610556E-15 ) ) ;
#419 = LINE ( 'NONE', #483, #698 ) ;
#420 = DIRECTION ( 'NONE',  ( 0.000000000000000000, -1.000000000000000000, 0.000000000000000000 ) ) ;
#421 = ADVANCED_FACE ( 'NONE', ( #1 ), #756, .T. ) ;
#422 = DIRECTION ( 'NONE',  ( -0.000000000000000000, -1.000000000000000000, 0.000000000000000000 ) ) ;
#423 = CARTESIAN_POINT ( 'NONE',  ( 5.232590180780451128, -10.15000000000000036, 13.76740981921953733 ) ) ;
#424 = DIRECTION ( 'NONE',  ( 1.000000000000000000, 0.000000000000000000, 0.000000000000000000 ) ) ;
#425 = FACE_OUTER_BOUND ( 'NONE', #512, .T. ) ;
#426 = LINE ( 'NONE', #626, #273 ) ;
#427 = ORIENTED_EDGE ( 'NONE', *, *, #771, .T. ) ;
#428 = DIRECTION ( 'NONE',  ( 0.000000000000000000, 0.000000000000000000, -1.000000000000000000 ) ) ;
#429 = EDGE_CURVE ( 'NONE', #581, #833, #683, .T. ) ;
#430 = AXIS2_PLACEMENT_3D ( 'NONE', #64, #470, #675 ) ;
#431 = CIRCLE ( 'NONE', #540, 7.000000000000000000 ) ;
#432 = FACE_OUTER_BOUND ( 'NONE', #441, .T. ) ;
#433 = CARTESIAN_POINT ( 'NONE',  ( -9.299999999999988276, 0.000000000000000000, 38.20000000000000284 ) ) ;
#434 = VECTOR ( 'NONE', #825, 1000.000000000000000 ) ;
#435 = VERTEX_POINT ( 'NONE', #689 ) ;
#436 = EDGE_CURVE ( 'NONE', #724, #778, #783, .T. ) ;
#437 = ADVANCED_FACE ( 'NONE', ( #112 ), #384, .F. ) ;
#438 = CARTESIAN_POINT ( 'NONE',  ( -5.232590180780454681, -10.34999999999999964, 27.58259018078044988 ) ) ;
#439 = ORIENTED_EDGE ( 'NONE', *, *, #806, .T. ) ;
#440 = DIRECTION ( 'NONE',  ( -0.000000000000000000, -1.000000000000000000, -0.000000000000000000 ) ) ;
#441 = EDGE_LOOP ( 'NONE', ( #347, #326, #57, #249 ) ) ;
#442 = DIRECTION ( 'NONE',  ( 0.000000000000000000, 0.000000000000000000, -1.000000000000000000 ) ) ;
#443 = CARTESIAN_POINT ( 'NONE',  ( 0.000000000000000000, 0.000000000000000000, 37.95000000000000284 ) ) ;
#444 = EDGE_LOOP ( 'NONE', ( #212, #99, #654, #634 ) ) ;
#445 = CARTESIAN_POINT ( 'NONE',  ( 0.000000000000000000, 0.000000000000000000, 37.95000000000000284 ) ) ;
#446 = DIRECTION ( 'NONE',  ( -0.000000000000000000, -1.000000000000000000, -0.000000000000000000 ) ) ;
#447 = CARTESIAN_POINT ( 'NONE',  ( -5.232590180780454681, -10.15000000000000036, 24.23259018078044846 ) ) ;
#448 = AXIS2_PLACEMENT_3D ( 'NONE', #704, #720, #119 ) ;
#449 = EDGE_CURVE ( 'NONE', #581, #240, #510, .T. ) ;
#450 = APPROVAL_ROLE ( '' ) ;
#451 = AXIS2_PLACEMENT_3D ( 'NONE', #707, #100, #370 ) ;
#452 = VERTEX_POINT ( 'NONE', #671 ) ;
#453 = DIRECTION ( 'NONE',  ( 1.000000000000000000, 0.000000000000000000, 0.000000000000000000 ) ) ;
#454 = LINE ( 'NONE', #168, #195 ) ;
#455 = PERSON_AND_ORGANIZATION_ROLE ( 'classification_officer' ) ;
#456 = CARTESIAN_POINT ( 'NONE',  ( -7.950000000000000178, 9.735942053221458872E-16, 36.60000000000000853 ) ) ;
#457 = ORIENTED_EDGE ( 'NONE', *, *, #855, .T. ) ;
#458 = DIRECTION ( 'NONE',  ( 1.000000000000000000, 0.000000000000000000, 3.491481338843133355E-15 ) ) ;
#459 = APPROVAL_DATE_TIME ( #185, #256 ) ;
#460 = ORIENTED_EDGE ( 'NONE', *, *, #723, .T. ) ;
#461 = AXIS2_PLACEMENT_3D ( 'NONE', #763, #681, #353 ) ;
#462 = CARTESIAN_POINT ( 'NONE',  ( -13.99999999999999822, 0.000000000000000000, 33.49999999999998579 ) ) ;
#463 = ADVANCED_FACE ( 'NONE', ( #797 ), #58, .T. ) ;
#464 = CIRCLE ( 'NONE', #700, 9.299999999999988276 ) ;
#465 = ORIENTED_EDGE ( 'NONE', *, *, #587, .F. ) ;
#466 = DIRECTION ( 'NONE',  ( 0.000000000000000000, 0.000000000000000000, 1.000000000000000000 ) ) ;
#467 = ORIENTED_EDGE ( 'NONE', *, *, #513, .F. ) ;
#468 = CARTESIAN_POINT ( 'NONE',  ( 0.000000000000000000, 0.000000000000000000, 36.60000000000000853 ) ) ;
#469 = ORIENTED_EDGE ( 'NONE', *, *, #350, .T. ) ;
#470 = DIRECTION ( 'NONE',  ( 0.000000000000000000, 0.000000000000000000, 1.000000000000000000 ) ) ;
#471 = PRODUCT_RELATED_PRODUCT_CATEGORY ( 'detail', '', ( #779 ) ) ;
#472 = EDGE_CURVE ( 'NONE', #516, #183, #846, .T. ) ;
#473 = CONICAL_SURFACE ( 'NONE', #162, 9.299999999999988276, 0.7853981633974476129 ) ;
#474 = CARTESIAN_POINT ( 'NONE',  ( -5.232590180780441358, -9.350000000000001421, 10.41740981921952169 ) ) ;
#475 = EDGE_CURVE ( 'NONE', #380, #118, #254, .T. ) ;
#476 = CIRCLE ( 'NONE', #329, 3.350000000000001421 ) ;
#477 = DIRECTION ( 'NONE',  ( 0.000000000000000000, 0.000000000000000000, -1.000000000000000000 ) ) ;
#478 = AXIS2_PLACEMENT_3D ( 'NONE', #89, #104, #367 ) ;
#479 = ORIENTED_EDGE ( 'NONE', *, *, #324, .T. ) ;
#480 = CYLINDRICAL_SURFACE ( 'NONE', #163, 3.224999999999998757 ) ;
#481 = LINE ( 'NONE', #148, #282 ) ;
#482 = DIRECTION ( 'NONE',  ( -0.000000000000000000, -1.000000000000000000, -0.000000000000000000 ) ) ;
#483 = CARTESIAN_POINT ( 'NONE',  ( -5.232590180780454681, -9.350000000000001421, 27.58259018078044988 ) ) ;
#484 = CARTESIAN_POINT ( 'NONE',  ( -13.99999999999999467, -10.34999999999999964, 30.64999999999999147 ) ) ;
#485 = APPROVAL_STATUS ( 'not_yet_approved' ) ;
#486 = CARTESIAN_POINT ( 'NONE',  ( 0.000000000000000000, 0.000000000000000000, 38.20000000000000284 ) ) ;
#487 = CIRCLE ( 'NONE', #817, 7.950000000000000178 ) ;
#488 = DIRECTION ( 'NONE',  ( 0.000000000000000000, -1.000000000000000000, 0.000000000000000000 ) ) ;
#489 = AXIS2_PLACEMENT_3D ( 'NONE', #556, #769, #303 ) ;
#490 = DIRECTION ( 'NONE',  ( -0.000000000000000000, -0.000000000000000000, 1.000000000000000000 ) ) ;
#491 = DIRECTION ( 'NONE',  ( -0.000000000000000000, -0.000000000000000000, -1.000000000000000000 ) ) ;
#492 = CARTESIAN_POINT ( 'NONE',  ( 5.232590180780451128, -9.350000000000001421, 17.11740981921953875 ) ) ;
#493 = APPROVAL_STATUS ( 'not_yet_approved' ) ;
#494 = DIRECTION ( 'NONE',  ( -0.000000000000000000, -1.000000000000000000, -0.000000000000000000 ) ) ;
#495 = CC_DESIGN_PERSON_AND_ORGANIZATION_ASSIGNMENT ( #651, #322, ( #365 ) ) ;
#496 = CARTESIAN_POINT ( 'NONE',  ( 5.232590180780396061, -9.350000000000001421, 27.58259018078050318 ) ) ;
#497 = ADVANCED_FACE ( 'NONE', ( #591 ), #858, .T. ) ;
#498 = EDGE_LOOP ( 'NONE', ( #63, #193 ) ) ;
#499 = EDGE_CURVE ( 'NONE', #233, #316, #85, .T. ) ;
#500 = VECTOR ( 'NONE', #416, 1000.000000000000000 ) ;
#501 = AXIS2_PLACEMENT_3D ( 'NONE', #231, #466, #141 ) ;
#502 = CYLINDRICAL_SURFACE ( 'NONE', #451, 7.000000000000000000 ) ;
#503 = EDGE_LOOP ( 'NONE', ( #565, #14 ) ) ;
#504 = VECTOR ( 'NONE', #490, 1000.000000000000000 ) ;
#505 = CARTESIAN_POINT ( 'NONE',  ( -5.232590180780454681, -10.15000000000000036, 27.58259018078044988 ) ) ;
#506 = EDGE_LOOP ( 'NONE', ( #790, #265, #535, #523 ) ) ;
#507 = DIRECTION ( 'NONE',  ( -1.000000000000000000, -0.000000000000000000, -0.000000000000000000 ) ) ;
#508 = DIRECTION ( 'NONE',  ( 0.000000000000000000, 1.000000000000000000, 0.000000000000000000 ) ) ;
#509 = DIRECTION ( 'NONE',  ( 0.000000000000000000, 0.000000000000000000, 1.000000000000000000 ) ) ;
#510 = CIRCLE ( 'NONE', #52, 3.350000000000002309 ) ;
#511 = VERTEX_POINT ( 'NONE', #224 ) ;
#512 = EDGE_LOOP ( 'NONE', ( #84, #320, #571, #792 ) ) ;
#513 = EDGE_CURVE ( 'NONE', #107, #719, #741, .T. ) ;
#514 = DIRECTION ( 'NONE',  ( 0.000000000000000000, -1.000000000000000000, 0.000000000000000000 ) ) ;
#515 = APPROVAL_STATUS ( 'not_yet_approved' ) ;
#516 = VERTEX_POINT ( 'NONE', #302 ) ;
#517 = ORIENTED_EDGE ( 'NONE', *, *, #406, .F. ) ;
#518 = AXIS2_PLACEMENT_3D ( 'NONE', #709, #514, #106 ) ;
#519 = AXIS2_PLACEMENT_3D ( 'NONE', #62, #668, #336 ) ;
#520 = AXIS2_PLACEMENT_3D ( 'NONE', #70, #539, #746 ) ;
#521 = DIRECTION ( 'NONE',  ( -0.000000000000000000, -1.000000000000000000, -0.000000000000000000 ) ) ;
#522 = AXIS2_PLACEMENT_3D ( 'NONE', #447, #582, #184 ) ;
#523 = ORIENTED_EDGE ( 'NONE', *, *, #97, .F. ) ;
#524 = PLANE ( 'NONE',  #39 ) ;
#525 = DIRECTION ( 'NONE',  ( -1.000000000000000000, 0.000000000000000000, -1.035655806553317211E-14 ) ) ;
#526 = EDGE_LOOP ( 'NONE', ( #46, #630, #780, #561 ) ) ;
#527 = ORIENTED_EDGE ( 'NONE', *, *, #815, .F. ) ;
#528 = CC_DESIGN_PERSON_AND_ORGANIZATION_ASSIGNMENT ( #823, #632, ( #680 ) ) ;
#529 = CARTESIAN_POINT ( 'NONE',  ( 5.232590180780396061, -9.350000000000001421, 24.23259018078049820 ) ) ;
#530 = ORIENTED_EDGE ( 'NONE', *, *, #259, .T. ) ;
#531 = ORIENTED_EDGE ( 'NONE', *, *, #587, .T. ) ;
#532 = CARTESIAN_POINT ( 'NONE',  ( 7.950000000000000178, 0.000000000000000000, 36.60000000000000853 ) ) ;
#533 = CIRCLE ( 'NONE', #331, 3.350000000000001865 ) ;
#534 = VECTOR ( 'NONE', #120, 1000.000000000000000 ) ;
#535 = ORIENTED_EDGE ( 'NONE', *, *, #513, .T. ) ;
#536 = EDGE_CURVE ( 'NONE', #183, #516, #138, .T. ) ;
#537 = DIRECTION ( 'NONE',  ( -1.000000000000000000, 0.000000000000000000, 0.000000000000000000 ) ) ;
#538 = ADVANCED_FACE ( 'NONE', ( #824 ), #480, .F. ) ;
#539 = DIRECTION ( 'NONE',  ( -0.000000000000000000, -1.000000000000000000, 0.000000000000000000 ) ) ;
#540 = AXIS2_PLACEMENT_3D ( 'NONE', #623, #544, #81 ) ;
#541 = CIRCLE ( 'NONE', #400, 3.350000000000002309 ) ;
#542 = CARTESIAN_POINT ( 'NONE',  ( 0.000000000000000000, 0.000000000000000000, 7.349999999999998757 ) ) ;
#543 = CARTESIAN_POINT ( 'NONE',  ( 0.000000000000000000, 0.000000000000000000, 36.60000000000000853 ) ) ;
#544 = DIRECTION ( 'NONE',  ( 0.000000000000000000, 0.000000000000000000, 1.000000000000000000 ) ) ;
#545 = DIRECTION ( 'NONE',  ( -0.000000000000000000, -1.000000000000000000, 0.000000000000000000 ) ) ;
#546 = APPROVAL ( #493, 'UNSPECIFIED' ) ;
#547 = EDGE_CURVE ( 'NONE', #511, #316, #235, .T. ) ;
#548 = PERSON_AND_ORGANIZATION_ROLE ( 'design_owner' ) ;
#549 = LINE ( 'NONE', #277, #714 ) ;
#550 = FACE_OUTER_BOUND ( 'NONE', #187, .T. ) ;
#551 = DIRECTION ( 'NONE',  ( 0.000000000000000000, 0.000000000000000000, -1.000000000000000000 ) ) ;
#552 = FACE_OUTER_BOUND ( 'NONE', #794, .T. ) ;
#553 = AXIS2_PLACEMENT_3D ( 'NONE', #345, #601, #275 ) ;
#554 = DIRECTION ( 'NONE',  ( 0.000000000000000000, -1.000000000000000000, 0.000000000000000000 ) ) ;
#555 = VECTOR ( 'NONE', #677, 1000.000000000000000 ) ;
#556 = CARTESIAN_POINT ( 'NONE',  ( 5.232590180780396061, -9.350000000000001421, 24.23259018078049820 ) ) ;
#557 = CARTESIAN_POINT ( 'NONE',  ( 0.000000000000000000, 0.000000000000000000, 0.000000000000000000 ) ) ;
#558 = ADVANCED_FACE ( 'NONE', ( #821 ), #685, .F. ) ;
#559 = DIRECTION ( 'NONE',  ( -0.000000000000000000, -0.000000000000000000, -1.000000000000000000 ) ) ;
#560 = ADVANCED_FACE ( 'NONE', ( #425 ), #228, .F. ) ;
#561 = ORIENTED_EDGE ( 'NONE', *, *, #339, .F. ) ;
#562 = CARTESIAN_POINT ( 'NONE',  ( 13.99999999999999822, 1.714505518806294441E-15, 38.20000000000000284 ) ) ;
#563 = DIRECTION ( 'NONE',  ( 0.000000000000000000, 0.000000000000000000, -1.000000000000000000 ) ) ;
#564 = ORIENTED_EDGE ( 'NONE', *, *, #59, .F. ) ;
#565 = ORIENTED_EDGE ( 'NONE', *, *, #388, .T. ) ;
#566 = AXIS2_PLACEMENT_3D ( 'NONE', #580, #43, #585 ) ;
#567 = AXIS2_PLACEMENT_3D ( 'NONE', #274, #727, #71 ) ;
#568 = CARTESIAN_POINT ( 'NONE',  ( 5.232590180780451128, -10.34999999999999964, 10.41740981921953413 ) ) ;
#569 = EDGE_LOOP ( 'NONE', ( #586, #3, #196, #594 ) ) ;
#570 = AXIS2_PLACEMENT_3D ( 'NONE', #208, #145, #5 ) ;
#571 = ORIENTED_EDGE ( 'NONE', *, *, #406, .T. ) ;
#572 = DIRECTION ( 'NONE',  ( -1.000000000000000000, 0.000000000000000000, 0.000000000000000000 ) ) ;
#573 = ADVANCED_FACE ( 'NONE', ( #362 ), #758, .F. ) ;
#574 = CARTESIAN_POINT ( 'NONE',  ( -13.99999999999999467, -10.34999999999999964, 30.64999999999999147 ) ) ;
#575 = ORIENTED_EDGE ( 'NONE', *, *, #620, .F. ) ;
#576 = VERTEX_POINT ( 'NONE', #152 ) ;
#577 = CARTESIAN_POINT ( 'NONE',  ( 5.232590180780396061, -9.350000000000001421, 20.88259018078049678 ) ) ;
#578 = ORIENTED_EDGE ( 'NONE', *, *, #781, .F. ) ;
#579 = ORIENTED_EDGE ( 'NONE', *, *, #72, .T. ) ;
#580 = CARTESIAN_POINT ( 'NONE',  ( 0.000000000000000000, 0.000000000000000000, 33.49999999999998579 ) ) ;
#581 = VERTEX_POINT ( 'NONE', #810 ) ;
#582 = DIRECTION ( 'NONE',  ( 0.000000000000000000, -1.000000000000000000, 0.000000000000000000 ) ) ;
#583 = VECTOR ( 'NONE', #507, 1000.000000000000000 ) ;
#584 = AXIS2_PLACEMENT_3D ( 'NONE', #811, #420, #687 ) ;
#585 = DIRECTION ( 'NONE',  ( 1.000000000000000000, 0.000000000000000000, 0.000000000000000000 ) ) ;
#586 = ORIENTED_EDGE ( 'NONE', *, *, #806, .F. ) ;
#587 = EDGE_CURVE ( 'NONE', #309, #576, #79, .T. ) ;
#588 = EDGE_CURVE ( 'NONE', #240, #264, #419, .T. ) ;
#589 = CARTESIAN_POINT ( 'NONE',  ( -1.734723475976807094E-15, -10.34999999999999964, 18.99999999999999645 ) ) ;
#590 = EDGE_LOOP ( 'NONE', ( #841, #167 ) ) ;
#591 = FACE_OUTER_BOUND ( 'NONE', #526, .T. ) ;
#592 = ORIENTED_EDGE ( 'NONE', *, *, #272, .T. ) ;
#593 = CARTESIAN_POINT ( 'NONE',  ( 9.427486409430661851, -10.34999999999999964, 7.349999999999999645 ) ) ;
#594 = ORIENTED_EDGE ( 'NONE', *, *, #157, .T. ) ;
#595 = ORIENTED_EDGE ( 'NONE', *, *, #624, .T. ) ;
#596 = CC_DESIGN_SECURITY_CLASSIFICATION ( #661, ( #365 ) ) ;
#597 = CARTESIAN_POINT ( 'NONE',  ( -1.339774883251785611E-15, -10.34999999999999964, 22.22499999999999432 ) ) ;
#598 =( NAMED_UNIT ( * ) PLANE_ANGLE_UNIT ( ) SI_UNIT ( $, .RADIAN. ) );
#599 = AXIS2_PLACEMENT_3D ( 'NONE', #86, #307, #831 ) ;
#600 = ADVANCED_FACE ( 'NONE', ( #96 ), #364, .F. ) ;
#601 = DIRECTION ( 'NONE',  ( 0.000000000000000000, 0.000000000000000000, 1.000000000000000000 ) ) ;
#602 = DIRECTION ( 'NONE',  ( -0.000000000000000000, -1.000000000000000000, -0.000000000000000000 ) ) ;
#603 = EDGE_LOOP ( 'NONE', ( #258, #467 ) ) ;
#604 = CYLINDRICAL_SURFACE ( 'NONE', #799, 3.350000000000002309 ) ;
#605 = CARTESIAN_POINT ( 'NONE',  ( 5.232590180780396061, -10.15000000000000036, 24.23259018078049820 ) ) ;
#606 = LOCAL_TIME ( 15, 47, 47.00000000000000000, #115 ) ;
#607 = CARTESIAN_POINT ( 'NONE',  ( 5.232590180780396061, -10.15000000000000036, 24.23259018078049820 ) ) ;
#608 = AXIS2_PLACEMENT_3D ( 'NONE', #690, #488, #618 ) ;
#609 = DIRECTION ( 'NONE',  ( 0.000000000000000000, -1.000000000000000000, 0.000000000000000000 ) ) ;
#610 = AXIS2_PLACEMENT_3D ( 'NONE', #484, #342, #612 ) ;
#611 = CC_DESIGN_DATE_AND_TIME_ASSIGNMENT ( #834, #177, ( #680 ) ) ;
#612 = DIRECTION ( 'NONE',  ( -1.000000000000000000, 0.000000000000000000, -0.000000000000000000 ) ) ;
#613 = PERSON_AND_ORGANIZATION ( #414, #828 ) ;
#614 = MANIFOLD_SOLID_BREP ( 'Material-soporte_enc-1', #785 ) ;
#615 = CARTESIAN_POINT ( 'NONE',  ( 5.232590180780396061, -10.34999999999999964, 24.23259018078049820 ) ) ;
#616 = PLANE ( 'NONE',  #610 ) ;
#617 = CARTESIAN_POINT ( 'NONE',  ( -5.232590180780454681, -10.34999999999999964, 24.23259018078044846 ) ) ;
#618 = DIRECTION ( 'NONE',  ( -1.000000000000000000, 0.000000000000000000, -1.035655806553317054E-14 ) ) ;
#619 = DIRECTION ( 'NONE',  ( 0.000000000000000000, 0.000000000000000000, 1.000000000000000000 ) ) ;
#620 = EDGE_CURVE ( 'NONE', #45, #179, #22, .T. ) ;
#621 = CIRCLE ( 'NONE', #566, 13.99999999999999822 ) ;
#622 = AXIS2_PLACEMENT_3D ( 'NONE', #369, #160, #20 ) ;
#623 = CARTESIAN_POINT ( 'NONE',  ( 0.000000000000000000, 0.000000000000000000, 36.60000000000000853 ) ) ;
#624 = EDGE_CURVE ( 'NONE', #667, #452, #476, .T. ) ;
#625 = AXIS2_PLACEMENT_3D ( 'NONE', #266, #862, #124 ) ;
#626 = CARTESIAN_POINT ( 'NONE',  ( 9.299999999999988276, 1.138921523207037193E-15, 38.20000000000000284 ) ) ;
#627 = ORIENTED_EDGE ( 'NONE', *, *, #136, .F. ) ;
#628 = DIRECTION ( 'NONE',  ( -0.000000000000000000, -1.000000000000000000, -0.000000000000000000 ) ) ;
#629 = DIRECTION ( 'NONE',  ( -0.000000000000000000, -1.000000000000000000, 0.000000000000000000 ) ) ;
#630 = ORIENTED_EDGE ( 'NONE', *, *, #499, .T. ) ;
#631 = ORIENTED_EDGE ( 'NONE', *, *, #272, .F. ) ;
#632 = PERSON_AND_ORGANIZATION_ROLE ( 'creator' ) ;
#633 = CARTESIAN_POINT ( 'NONE',  ( 5.232590180780451128, -10.15000000000000036, 17.11740981921953875 ) ) ;
#634 = ORIENTED_EDGE ( 'NONE', *, *, #31, .F. ) ;
#635 = FACE_OUTER_BOUND ( 'NONE', #102, .T. ) ;
#636 = ORIENTED_EDGE ( 'NONE', *, *, #72, .F. ) ;
#637 = COORDINATED_UNIVERSAL_TIME_OFFSET ( 5, 0, .BEHIND. ) ;
#638 = CARTESIAN_POINT ( 'NONE',  ( -5.232590180780441358, -10.15000000000000036, 17.11740981921952454 ) ) ;
#639 = DIRECTION ( 'NONE',  ( 0.000000000000000000, 0.000000000000000000, 1.000000000000000000 ) ) ;
#640 = FACE_BOUND ( 'NONE', #774, .T. ) ;
#641 = ORIENTED_EDGE ( 'NONE', *, *, #262, .F. ) ;
#642 = AXIS2_PLACEMENT_3D ( 'NONE', #669, #12, #65 ) ;
#643 = AXIS2_PLACEMENT_3D ( 'NONE', #645, #508, #318 ) ;
#644 = ORIENTED_EDGE ( 'NONE', *, *, #324, .F. ) ;
#645 = CARTESIAN_POINT ( 'NONE',  ( 0.000000000000000000, -10.34999999999999964, 0.000000000000000000 ) ) ;
#646 = CYLINDRICAL_SURFACE ( 'NONE', #697, 7.000000000000000000 ) ;
#647 = APPLICATION_CONTEXT ( 'configuration controlled 3d designs of mechanical parts and assemblies' ) ;
#648 = ORIENTED_EDGE ( 'NONE', *, *, #159, .F. ) ;
#649 = CYLINDRICAL_SURFACE ( 'NONE', #863, 7.950000000000000178 ) ;
#650 = PRODUCT_DEFINITION_SHAPE ( 'NONE', 'NONE',  #680 ) ;
#651 = PERSON_AND_ORGANIZATION ( #414, #828 ) ;
#652 = CARTESIAN_POINT ( 'NONE',  ( -1.734723475976807094E-15, -5.850000000000000533, 15.77499999999999680 ) ) ;
#653 = VERTEX_POINT ( 'NONE', #699 ) ;
#654 = ORIENTED_EDGE ( 'NONE', *, *, #658, .T. ) ;
#655 = CARTESIAN_POINT ( 'NONE',  ( 5.232590180780396061, -10.34999999999999964, 24.23259018078049820 ) ) ;
#656 = DATE_AND_TIME ( #123, #205 ) ;
#657 = DIRECTION ( 'NONE',  ( -0.000000000000000000, -0.000000000000000000, -1.000000000000000000 ) ) ;
#658 = EDGE_CURVE ( 'NONE', #288, #36, #431, .T. ) ;
#659 = ORIENTED_EDGE ( 'NONE', *, *, #259, .F. ) ;
#660 = EDGE_LOOP ( 'NONE', ( #837, #575 ) ) ;
#661 = SECURITY_CLASSIFICATION ( '', '', #252 ) ;
#662 = EDGE_CURVE ( 'NONE', #118, #288, #24, .T. ) ;
#663 = VECTOR ( 'NONE', #491, 1000.000000000000000 ) ;
#664 = PERSON_AND_ORGANIZATION ( #414, #828 ) ;
#665 = DIRECTION ( 'NONE',  ( 1.000000000000000000, 0.000000000000000000, 0.000000000000000000 ) ) ;
#666 = CIRCLE ( 'NONE', #165, 3.350000000000002309 ) ;
#667 = VERTEX_POINT ( 'NONE', #16 ) ;
#668 = DIRECTION ( 'NONE',  ( 0.000000000000000000, 0.000000000000000000, 1.000000000000000000 ) ) ;
#669 = CARTESIAN_POINT ( 'NONE',  ( -1.734723475976807094E-15, -5.850000000000000533, 18.99999999999999645 ) ) ;
#670 = ORIENTED_EDGE ( 'NONE', *, *, #69, .T. ) ;
#671 = CARTESIAN_POINT ( 'NONE',  ( 5.232590180780396061, -10.34999999999999964, 27.58259018078050318 ) ) ;
#672 = EDGE_LOOP ( 'NONE', ( #710, #401 ) ) ;
#673 = DIRECTION ( 'NONE',  ( 0.000000000000000000, -1.000000000000000000, 0.000000000000000000 ) ) ;
#674 = ADVANCED_FACE ( 'NONE', ( #550 ), #219, .T. ) ;
#675 = DIRECTION ( 'NONE',  ( 1.000000000000000000, 0.000000000000000000, 0.000000000000000000 ) ) ;
#676 = APPROVAL_PERSON_ORGANIZATION ( #613, #692, #812 ) ;
#677 = DIRECTION ( 'NONE',  ( -0.000000000000000000, -1.000000000000000000, -0.000000000000000000 ) ) ;
#678 = VECTOR ( 'NONE', #842, 1000.000000000000000 ) ;
#679 = VERTEX_POINT ( 'NONE', #330 ) ;
#680 = PRODUCT_DEFINITION ( 'UNKNOWN', '', #365, #158 ) ;
#681 = DIRECTION ( 'NONE',  ( -0.000000000000000000, -1.000000000000000000, -0.000000000000000000 ) ) ;
#682 = LINE ( 'NONE', #532, #504 ) ;
#683 = LINE ( 'NONE', #151, #297 ) ;
#684 = AXIS2_PLACEMENT_3D ( 'NONE', #605, #66, #197 ) ;
#685 = CYLINDRICAL_SURFACE ( 'NONE', #354, 3.350000000000002309 ) ;
#686 = CIRCLE ( 'NONE', #522, 3.350000000000002309 ) ;
#687 = DIRECTION ( 'NONE',  ( 0.000000000000000000, -0.000000000000000000, -1.000000000000000000 ) ) ;
#688 = PERSON_AND_ORGANIZATION ( #414, #828 ) ;
#689 = CARTESIAN_POINT ( 'NONE',  ( -5.232590180780441358, -10.34999999999999964, 17.11740981921952454 ) ) ;
#690 = CARTESIAN_POINT ( 'NONE',  ( 5.232590180780396061, -10.15000000000000036, 24.23259018078049820 ) ) ;
#691 = FACE_OUTER_BOUND ( 'NONE', #735, .T. ) ;
#692 = APPROVAL ( #485, 'UNSPECIFIED' ) ;
#693 = EDGE_CURVE ( 'NONE', #576, #179, #722, .T. ) ;
#694 = DIRECTION ( 'NONE',  ( 0.000000000000000000, 0.000000000000000000, -1.000000000000000000 ) ) ;
#695 = FACE_OUTER_BOUND ( 'NONE', #444, .T. ) ;
#696 = ORIENTED_EDGE ( 'NONE', *, *, #292, .T. ) ;
#697 = AXIS2_PLACEMENT_3D ( 'NONE', #116, #657, #382 ) ;
#698 = VECTOR ( 'NONE', #494, 1000.000000000000000 ) ;
#699 = CARTESIAN_POINT ( 'NONE',  ( 5.232590180780451128, -10.15000000000000036, 10.41740981921953413 ) ) ;
#700 = AXIS2_PLACEMENT_3D ( 'NONE', #153, #619, #226 ) ;
#701 = PLANE ( 'NONE',  #207 ) ;
#702 = DIRECTION ( 'NONE',  ( 1.000000000000000000, 0.000000000000000000, 0.000000000000000000 ) ) ;
#703 = ORIENTED_EDGE ( 'NONE', *, *, #803, .T. ) ;
#704 = CARTESIAN_POINT ( 'NONE',  ( 5.232590180780451128, -10.34999999999999964, 13.76740981921953733 ) ) ;
#705 = ORIENTED_EDGE ( 'NONE', *, *, #748, .F. ) ;
#706 = ADVANCED_FACE ( 'NONE', ( #323 ), #473, .T. ) ;
#707 = CARTESIAN_POINT ( 'NONE',  ( 0.000000000000000000, 0.000000000000000000, 37.95000000000000284 ) ) ;
#708 = ORIENTED_EDGE ( 'NONE', *, *, #472, .T. ) ;
#709 = CARTESIAN_POINT ( 'NONE',  ( -5.232590180780454681, -10.15000000000000036, 24.23259018078044846 ) ) ;
#710 = ORIENTED_EDGE ( 'NONE', *, *, #284, .T. ) ;
#711 = PERSON_AND_ORGANIZATION ( #414, #828 ) ;
#712 = CIRCLE ( 'NONE', #430, 13.99999999999999822 ) ;
#713 = LINE ( 'NONE', #114, #678 ) ;
#714 = VECTOR ( 'NONE', #482, 1000.000000000000000 ) ;
#715 = APPROVAL_DATE_TIME ( #656, #546 ) ;
#716 = COORDINATED_UNIVERSAL_TIME_OFFSET ( 5, 0, .BEHIND. ) ;
#717 = DIRECTION ( 'NONE',  ( -0.000000000000000000, 0.000000000000000000, 1.000000000000000000 ) ) ;
#718 = EDGE_LOOP ( 'NONE', ( #578, #527 ) ) ;
#719 = VERTEX_POINT ( 'NONE', #395 ) ;
#720 = DIRECTION ( 'NONE',  ( 0.000000000000000000, -1.000000000000000000, 0.000000000000000000 ) ) ;
#721 = ADVANCED_FACE ( 'NONE', ( #835 ), #646, .T. ) ;
#722 = LINE ( 'NONE', #652, #398 ) ;
#723 = EDGE_CURVE ( 'NONE', #36, #288, #90, .T. ) ;
#724 = VERTEX_POINT ( 'NONE', #456 ) ;
#725 = EDGE_LOOP ( 'NONE', ( #301, #705, #734, #32 ) ) ;
#726 = EDGE_LOOP ( 'NONE', ( #644, #260, #427, #595 ) ) ;
#727 = DIRECTION ( 'NONE',  ( -0.000000000000000000, 0.000000000000000000, 1.000000000000000000 ) ) ;
#728 = EDGE_LOOP ( 'NONE', ( #314, #378, #246, #53 ) ) ;
#729 = APPROVAL_PERSON_ORGANIZATION ( #191, #256, #450 ) ;
#730 = AXIS2_PLACEMENT_3D ( 'NONE', #557, #154, #26 ) ;
#731 = AXIS2_PLACEMENT_3D ( 'NONE', #589, #673, #551 ) ;
#732 = DIRECTION ( 'NONE',  ( -0.000000000000000000, -0.000000000000000000, 1.000000000000000000 ) ) ;
#733 = CIRCLE ( 'NONE', #784, 7.950000000000000178 ) ;
#734 = ORIENTED_EDGE ( 'NONE', *, *, #826, .F. ) ;
#735 = EDGE_LOOP ( 'NONE', ( #777, #479, #457, #854 ) ) ;
#736 = PLANE ( 'NONE',  #257 ) ;
#737 = EDGE_LOOP ( 'NONE', ( #847, #659, #469, #405 ) ) ;
#738 = APPLICATION_CONTEXT ( 'configuration controlled 3d designs of mechanical parts and assemblies' ) ;
#739 = LINE ( 'NONE', #135, #555 ) ;
#740 =( GEOMETRIC_REPRESENTATION_CONTEXT ( 3 ) GLOBAL_UNCERTAINTY_ASSIGNED_CONTEXT ( ( #253 ) ) GLOBAL_UNIT_ASSIGNED_CONTEXT ( ( #360, #598, #742 ) ) REPRESENTATION_CONTEXT ( 'NONE', 'WORKASPACE' ) );
#741 = CIRCLE ( 'NONE', #91, 7.950000000000000178 ) ;
#742 =( NAMED_UNIT ( * ) SI_UNIT ( $, .STERADIAN. ) SOLID_ANGLE_UNIT ( ) );
#743 = LINE ( 'NONE', #474, #222 ) ;
#744 = EDGE_CURVE ( 'NONE', #73, #233, #621, .T. ) ;
#745 = ORIENTED_EDGE ( 'NONE', *, *, #2, .F. ) ;
#746 = DIRECTION ( 'NONE',  ( 1.000000000000000000, 0.000000000000000000, 3.624795322936610556E-15 ) ) ;
#747 = DIRECTION ( 'NONE',  ( -0.000000000000000000, -0.000000000000000000, 1.000000000000000000 ) ) ;
#748 = EDGE_CURVE ( 'NONE', #853, #679, #390, .T. ) ;
#749 = DIRECTION ( 'NONE',  ( 0.000000000000000000, 0.000000000000000000, 1.000000000000000000 ) ) ;
#750 = CARTESIAN_POINT ( 'NONE',  ( -5.232590180780441358, -10.34999999999999964, 13.76740981921952311 ) ) ;
#751 = ORIENTED_EDGE ( 'NONE', *, *, #4, .T. ) ;
#752 = CARTESIAN_POINT ( 'NONE',  ( 0.000000000000000000, 0.000000000000000000, 38.20000000000000284 ) ) ;
#753 = CARTESIAN_POINT ( 'NONE',  ( 5.232590180780451128, -10.15000000000000036, 13.76740981921953733 ) ) ;
#754 = VECTOR ( 'NONE', #521, 1000.000000000000000 ) ;
#755 = CALENDAR_DATE ( 2026, 8, 4 ) ;
#756 = PLANE ( 'NONE',  #139 ) ;
#757 = VECTOR ( 'NONE', #161, 1000.000000000000000 ) ;
#758 = CYLINDRICAL_SURFACE ( 'NONE', #8, 7.950000000000000178 ) ;
#759 = DIRECTION ( 'NONE',  ( 1.000000000000000000, 0.000000000000000000, 3.624795322936609767E-15 ) ) ;
#760 = ADVANCED_FACE ( 'NONE', ( #319 ), #263, .F. ) ;
#761 = DIRECTION ( 'NONE',  ( 0.000000000000000000, 0.000000000000000000, 1.000000000000000000 ) ) ;
#762 = CARTESIAN_POINT ( 'NONE',  ( -1.339774883251785611E-15, -5.850000000000000533, 22.22499999999999432 ) ) ;
#763 = CARTESIAN_POINT ( 'NONE',  ( -5.232590180780441358, -9.350000000000001421, 13.76740981921952311 ) ) ;
#764 = DIRECTION ( 'NONE',  ( 0.000000000000000000, 0.000000000000000000, 1.000000000000000000 ) ) ;
#765 = ORIENTED_EDGE ( 'NONE', *, *, #475, .T. ) ;
#766 = CIRCLE ( 'NONE', #328, 3.350000000000001421 ) ;
#767 = AXIS2_PLACEMENT_3D ( 'NONE', #423, #181, #717 ) ;
#768 = CONICAL_SURFACE ( 'NONE', #599, 9.299999999999988276, 0.7853981633974476129 ) ;
#769 = DIRECTION ( 'NONE',  ( -0.000000000000000000, -1.000000000000000000, -0.000000000000000000 ) ) ;
#770 = ORIENTED_EDGE ( 'NONE', *, *, #294, .F. ) ;
#771 = EDGE_CURVE ( 'NONE', #183, #667, #37, .T. ) ;
#772 = DIRECTION ( 'NONE',  ( 1.000000000000000000, 0.000000000000000000, -0.000000000000000000 ) ) ;
#773 = EDGE_LOOP ( 'NONE', ( #641, #396, #751, #564 ) ) ;
#774 = EDGE_LOOP ( 'NONE', ( #248, #198, #648, #407 ) ) ;
#775 = DIRECTION ( 'NONE',  ( 0.000000000000000000, 0.000000000000000000, -1.000000000000000000 ) ) ;
#776 = DIRECTION ( 'NONE',  ( 1.000000000000000000, 0.000000000000000000, 0.000000000000000000 ) ) ;
#777 = ORIENTED_EDGE ( 'NONE', *, *, #472, .F. ) ;
#778 = VERTEX_POINT ( 'NONE', #789 ) ;
#779 = PRODUCT ( 'S\X2\00f3\X0\lido1_Predeterminado_sldprt', 'S\X2\00f3\X0\lido1_Predeterminado_sldprt', '', ( #149 ) ) ;
#780 = ORIENTED_EDGE ( 'NONE', *, *, #787, .T. ) ;
#781 = EDGE_CURVE ( 'NONE', #230, #164, #278, .T. ) ;
#782 = LINE ( 'NONE', #574, #357 ) ;
#783 = CIRCLE ( 'NONE', #279, 7.950000000000000178 ) ;
#784 = AXIS2_PLACEMENT_3D ( 'NONE', #468, #290, #82 ) ;
#785 = CLOSED_SHELL ( 'NONE', ( #497, #225, #560, #372, #211, #49, #760, #15, #227, #840, #721, #134, #174, #843, #421, #674, #27, #573, #538, #327, #189, #558, #600, #242, #463, #44, #146, #706, #280, #437 ) ) ;
#786 = PERSON_AND_ORGANIZATION ( #414, #828 ) ;
#787 = EDGE_CURVE ( 'NONE', #316, #511, #712, .T. ) ;
#788 = CALENDAR_DATE ( 2026, 8, 4 ) ;
#789 = CARTESIAN_POINT ( 'NONE',  ( 7.950000000000000178, 0.000000000000000000, 36.60000000000000853 ) ) ;
#790 = ORIENTED_EDGE ( 'NONE', *, *, #436, .F. ) ;
#791 = CARTESIAN_POINT ( 'NONE',  ( -5.232590180780441358, -10.15000000000000036, 13.76740981921952311 ) ) ;
#792 = ORIENTED_EDGE ( 'NONE', *, *, #350, .F. ) ;
#793 = LINE ( 'NONE', #180, #534 ) ;
#794 = EDGE_LOOP ( 'NONE', ( #636, #410, #176, #371 ) ) ;
#795 = DIRECTION ( 'NONE',  ( -0.000000000000000000, -1.000000000000000000, -0.000000000000000000 ) ) ;
#796 = ORIENTED_EDGE ( 'NONE', *, *, #429, .F. ) ;
#797 = FACE_OUTER_BOUND ( 'NONE', #337, .T. ) ;
#798 = EDGE_LOOP ( 'NONE', ( #304, #393, #169, #460 ) ) ;
#799 = AXIS2_PLACEMENT_3D ( 'NONE', #140, #602, #352 ) ;
#800 = FACE_BOUND ( 'NONE', #498, .T. ) ;
#801 = ORIENTED_EDGE ( 'NONE', *, *, #624, .F. ) ;
#802 = ADVANCED_BREP_SHAPE_REPRESENTATION ( 'S\X2\00f3\X0\lido1_Predeterminado_sldprt', ( #614, #553 ), #740 ) ;
#803 = EDGE_CURVE ( 'NONE', #719, #107, #487, .T. ) ;
#804 = LOCAL_TIME ( 15, 47, 47.00000000000000000, #637 ) ;
#805 = DIRECTION ( 'NONE',  ( -0.000000000000000000, -1.000000000000000000, -0.000000000000000000 ) ) ;
#806 = EDGE_CURVE ( 'NONE', #309, #45, #454, .T. ) ;
#807 = CIRCLE ( 'NONE', #478, 3.350000000000002309 ) ;
#808 = CARTESIAN_POINT ( 'NONE',  ( 5.232590180780451128, -10.34999999999999964, 17.11740981921953875 ) ) ;
#809 = VERTEX_POINT ( 'NONE', #433 ) ;
#810 = CARTESIAN_POINT ( 'NONE',  ( -5.232590180780454681, -10.15000000000000036, 20.88259018078044704 ) ) ;
#811 = CARTESIAN_POINT ( 'NONE',  ( -1.734723475976807094E-15, -5.850000000000000533, 18.99999999999999645 ) ) ;
#812 = APPROVAL_ROLE ( '' ) ;
#813 = LINE ( 'NONE', #213, #23 ) ;
#814 = DIRECTION ( 'NONE',  ( 0.000000000000000000, -1.000000000000000000, 0.000000000000000000 ) ) ;
#815 = EDGE_CURVE ( 'NONE', #164, #230, #397, .T. ) ;
#816 = CYLINDRICAL_SURFACE ( 'NONE', #344, 3.350000000000002309 ) ;
#817 = AXIS2_PLACEMENT_3D ( 'NONE', #67, #122, #310 ) ;
#818 = CIRCLE ( 'NONE', #68, 3.350000000000001421 ) ;
#819 = DIRECTION ( 'NONE',  ( 0.000000000000000000, 0.000000000000000000, -1.000000000000000000 ) ) ;
#820 = FACE_OUTER_BOUND ( 'NONE', #42, .T. ) ;
#821 = FACE_OUTER_BOUND ( 'NONE', #311, .T. ) ;
#822 = CARTESIAN_POINT ( 'NONE',  ( 13.99999999999999822, 1.714505518806294441E-15, 0.000000000000000000 ) ) ;
#823 = PERSON_AND_ORGANIZATION ( #414, #828 ) ;
#824 = FACE_OUTER_BOUND ( 'NONE', #569, .T. ) ;
#825 = DIRECTION ( 'NONE',  ( -0.000000000000000000, -1.000000000000000000, -0.000000000000000000 ) ) ;
#826 = EDGE_CURVE ( 'NONE', #54, #853, #30, .T. ) ;
#827 = ORIENTED_EDGE ( 'NONE', *, *, #588, .T. ) ;
#828 = ORGANIZATION ( 'UNSPECIFIED', 'UNSPECIFIED', '' ) ;
#829 = CARTESIAN_POINT ( 'NONE',  ( -7.000000000000000000, 0.000000000000000000, 36.60000000000000853 ) ) ;
#830 = AXIS2_PLACEMENT_3D ( 'NONE', #28, #363, #563 ) ;
#831 = DIRECTION ( 'NONE',  ( -1.000000000000000000, 0.000000000000000000, 0.000000000000000000 ) ) ;
#832 = ORIENTED_EDGE ( 'NONE', *, *, #351, .F. ) ;
#833 = VERTEX_POINT ( 'NONE', #261 ) ;
#834 = DATE_AND_TIME ( #87, #804 ) ;
#835 = FACE_OUTER_BOUND ( 'NONE', #798, .T. ) ;
#836 = DIRECTION ( 'NONE',  ( -0.000000000000000000, -0.000000000000000000, -1.000000000000000000 ) ) ;
#837 = ORIENTED_EDGE ( 'NONE', *, *, #157, .F. ) ;
#838 = ORIENTED_EDGE ( 'NONE', *, *, #449, .T. ) ;
#839 = DATE_AND_TIME ( #130, #109 ) ;
#840 = ADVANCED_FACE ( 'NONE', ( #635 ), #175, .T. ) ;
#841 = ORIENTED_EDGE ( 'NONE', *, *, #547, .F. ) ;
#842 = DIRECTION ( 'NONE',  ( -0.7071067811865470176, 0.000000000000000000, -0.7071067811865480168 ) ) ;
#843 = ADVANCED_FACE ( 'NONE', ( #315 ), #247, .T. ) ;
#844 = DIRECTION ( 'NONE',  ( 0.000000000000000000, 0.000000000000000000, 1.000000000000000000 ) ) ;
#845 = PERSON_AND_ORGANIZATION_ROLE ( 'design_supplier' ) ;
#846 = CIRCLE ( 'NONE', #684, 3.350000000000001865 ) ;
#847 = ORIENTED_EDGE ( 'NONE', *, *, #391, .F. ) ;
#848 = FACE_OUTER_BOUND ( 'NONE', #105, .T. ) ;
#849 = AXIS2_PLACEMENT_3D ( 'NONE', #21, #629, #759 ) ;
#850 = CARTESIAN_POINT ( 'NONE',  ( -9.427486409430668957, -10.34999999999999964, 38.20000000000000284 ) ) ;
#851 = EDGE_LOOP ( 'NONE', ( #132, #517 ) ) ;
#852 = DIRECTION ( 'NONE',  ( -0.000000000000000000, -1.000000000000000000, -0.000000000000000000 ) ) ;
#853 = VERTEX_POINT ( 'NONE', #394 ) ;
#854 = ORIENTED_EDGE ( 'NONE', *, *, #771, .F. ) ;
#855 = EDGE_CURVE ( 'NONE', #452, #667, #766, .T. ) ;
#856 = CARTESIAN_POINT ( 'NONE',  ( -5.232590180780441358, -10.15000000000000036, 13.76740981921952311 ) ) ;
#857 = EDGE_LOOP ( 'NONE', ( #402, #236 ) ) ;
#858 = CYLINDRICAL_SURFACE ( 'NONE', #206, 13.99999999999999822 ) ;
#859 = ORIENTED_EDGE ( 'NONE', *, *, #292, .F. ) ;
#860 = LOCAL_TIME ( 15, 47, 47.00000000000000000, #217 ) ;
#861 = AXIS2_PLACEMENT_3D ( 'NONE', #542, #286, #665 ) ;
#862 = DIRECTION ( 'NONE',  ( 0.000000000000000000, 0.000000000000000000, -1.000000000000000000 ) ) ;
#863 = AXIS2_PLACEMENT_3D ( 'NONE', #321, #250, #453 ) ;
ENDSEC;
END-ISO-10303-21;
