ISO-10303-21;
HEADER;
FILE_DESCRIPTION (( 'STEP AP203' ),
    '1' );
FILE_NAME ('Sólido4_Predeterminado_sldprt.STEP',
    '2026-04-08T20:48:03',
    ( '' ),
    ( '' ),
    'SwSTEP 2.0',
    'SolidWorks 2025',
    '' );
FILE_SCHEMA (( 'CONFIG_CONTROL_DESIGN' ));
ENDSEC;

DATA;
#1 = EDGE_CURVE ( 'NONE', #429, #92, #874, .T. ) ;
#2 = LINE ( 'NONE', #567, #609 ) ;
#3 = EDGE_CURVE ( 'NONE', #627, #9, #259, .T. ) ;
#4 = EDGE_LOOP ( 'NONE', ( #700, #826, #357, #131 ) ) ;
#5 = CARTESIAN_POINT ( 'NONE',  ( 58.00000000000000000, 0.000000000000000000, 119.6000000000000085 ) ) ;
#6 = VECTOR ( 'NONE', #885, 999.9999999999997726 ) ;
#7 = VECTOR ( 'NONE', #213, 999.9999999999998863 ) ;
#8 = CARTESIAN_POINT ( 'NONE',  ( 58.00000000000000000, 1.206049887113159746, -5.450000000000001066 ) ) ;
#9 = VERTEX_POINT ( 'NONE', #85 ) ;
#10 = LINE ( 'NONE', #301, #784 ) ;
#11 = AXIS2_PLACEMENT_3D ( 'NONE', #412, #752, #692 ) ;
#12 = LINE ( 'NONE', #204, #901 ) ;
#13 = VERTEX_POINT ( 'NONE', #370 ) ;
#14 = CARTESIAN_POINT ( 'NONE',  ( 57.20553015952864939, -6.582532094818560256E-13, -5.200000000000001066 ) ) ;
#15 = EDGE_CURVE ( 'NONE', #527, #274, #443, .T. ) ;
#16 = CARTESIAN_POINT ( 'NONE',  ( 62.46962078703091237, -1.618038265327187641, -2.739362629352946055 ) ) ;
#17 = DATE_TIME_ROLE ( 'creation_date' ) ;
#18 = DIRECTION ( 'NONE',  ( 0.000000000000000000, 0.000000000000000000, -1.000000000000000000 ) ) ;
#19 = CARTESIAN_POINT ( 'NONE',  ( 53.24999999999978684, -7.274068282174791500E-16, 3.174999999999999822 ) ) ;
#20 = AXIS2_PLACEMENT_3D ( 'NONE', #852, #284, #568 ) ;
#21 = DATE_AND_TIME ( #869, #222 ) ;
#22 = SECURITY_CLASSIFICATION ( '', '', #856 ) ;
#23 = VERTEX_POINT ( 'NONE', #652 ) ;
#24 = DIRECTION ( 'NONE',  ( -1.000000000000000000, 0.000000000000000000, 0.000000000000000000 ) ) ;
#25 = AXIS2_PLACEMENT_3D ( 'NONE', #113, #117, #245 ) ;
#26 = ORIENTED_EDGE ( 'NONE', *, *, #881, .T. ) ;
#27 = CARTESIAN_POINT ( 'NONE',  ( 57.05908355012193311, -0.5432383656220515222, -5.200000000000000178 ) ) ;
#28 = APPROVAL_STATUS ( 'not_yet_approved' ) ;
#29 = CARTESIAN_POINT ( 'NONE',  ( 58.00000000000000000, 1.206049887113159746, -5.200000000000001066 ) ) ;
#30 = DIRECTION ( 'NONE',  ( -0.000000000000000000, -0.000000000000000000, 1.000000000000000000 ) ) ;
#31 = EDGE_CURVE ( 'NONE', #672, #777, #726, .T. ) ;
#32 = ORIENTED_EDGE ( 'NONE', *, *, #3, .T. ) ;
#33 = DIRECTION ( 'NONE',  ( 0.000000000000000000, 0.000000000000000000, -1.000000000000000000 ) ) ;
#34 = AXIS2_PLACEMENT_3D ( 'NONE', #763, #821, #262 ) ;
#35 = ORIENTED_EDGE ( 'NONE', *, *, #516, .F. ) ;
#36 = AXIS2_PLACEMENT_3D ( 'NONE', #837, #76, #360 ) ;
#37 = DIRECTION ( 'NONE',  ( -0.000000000000000000, -0.000000000000000000, -1.000000000000000000 ) ) ;
#38 = CARTESIAN_POINT ( 'NONE',  ( 62.67825482173597607, -0.8490651028816854629, -3.066795664802875798 ) ) ;
#39 = ORIENTED_EDGE ( 'NONE', *, *, #879, .F. ) ;
#40 = DIRECTION ( 'NONE',  ( 5.753405375723203803E-15, 1.000000000000000000, -0.000000000000000000 ) ) ;
#41 = EDGE_CURVE ( 'NONE', #162, #781, #381, .T. ) ;
#42 = LINE ( 'NONE', #462, #860 ) ;
#43 = CARTESIAN_POINT ( 'NONE',  ( 62.25927844252152710, 2.108835433200304976, -2.382057501016527468 ) ) ;
#44 = ORIENTED_EDGE ( 'NONE', *, *, #436, .T. ) ;
#45 = CARTESIAN_POINT ( 'NONE',  ( 54.37341907442799283, 3.068156624411815692, -0.8439669325320446891 ) ) ;
#46 = LINE ( 'NONE', #255, #376 ) ;
#47 = ORIENTED_EDGE ( 'NONE', *, *, #818, .F. ) ;
#48 = CARTESIAN_POINT ( 'NONE',  ( 54.13085560146548403, 2.762871671121430062, 1.617161943944914526 ) ) ;
#49 = DIRECTION ( 'NONE',  ( 0.000000000000000000, 0.000000000000000000, 1.000000000000000000 ) ) ;
#50 = DIRECTION ( 'NONE',  ( -1.000000000000000000, -0.000000000000000000, -0.000000000000000000 ) ) ;
#51 = ORIENTED_EDGE ( 'NONE', *, *, #618, .T. ) ;
#52 = CARTESIAN_POINT ( 'NONE',  ( 54.19528862247340584, 2.845506425695305541, -1.423289228910856741 ) ) ;
#53 = DESIGN_CONTEXT ( 'detailed design', #671, 'design' ) ;
#54 = DIRECTION ( 'NONE',  ( -0.000000000000000000, -0.000000000000000000, -1.000000000000000000 ) ) ;
#55 = CARTESIAN_POINT ( 'NONE',  ( 62.75000000000022027, 2.426872546859612839E-15, 3.174999999999999822 ) ) ;
#56 = ORIENTED_EDGE ( 'NONE', *, *, #497, .F. ) ;
#57 = CARTESIAN_POINT ( 'NONE',  ( 53.24999999999980105, 0.2138331198491943697, -3.174999999999999822 ) ) ;
#58 = CARTESIAN_POINT ( 'NONE',  ( 56.95553015952865650, 0.6030249435565918636, -5.450000000000001066 ) ) ;
#59 = CARTESIAN_POINT ( 'NONE',  ( 54.14999999999977831, 5.265981236333885697E-16, -8.500000000000000000 ) ) ;
#60 =( BOUNDED_CURVE ( )  B_SPLINE_CURVE ( 3, ( #864, #450, #719, #102 ),
 .UNSPECIFIED., .F., .T. ) 
 B_SPLINE_CURVE_WITH_KNOTS ( ( 4, 4 ),
 ( 3.141592653589793116, 4.712388980384689674 ),
 .UNSPECIFIED. ) 
 CURVE ( )  GEOMETRIC_REPRESENTATION_ITEM ( )  RATIONAL_B_SPLINE_CURVE ( ( 1.000000000000000000, 0.8047378541243649375, 0.8047378541243649375, 1.000000000000000000 ) ) 
 REPRESENTATION_ITEM ( '' )  );
#61 = ORIENTED_EDGE ( 'NONE', *, *, #467, .F. ) ;
#62 = CARTESIAN_POINT ( 'NONE',  ( 53.53067452918404001, -1.618766899444781693, -2.738867616853573050 ) ) ;
#63 = CARTESIAN_POINT ( 'NONE',  ( 61.85000000000022169, 0.000000000000000000, -8.500000000000000000 ) ) ;
#64 = EDGE_LOOP ( 'NONE', ( #562, #81, #421, #240 ) ) ;
#65 = LINE ( 'NONE', #634, #681 ) ;
#66 = EDGE_CURVE ( 'NONE', #640, #597, #98, .T. ) ;
#67 = EDGE_CURVE ( 'NONE', #822, #9, #800, .T. ) ;
#68 = DIRECTION ( 'NONE',  ( 0.8660254037844417052, 0.4999999999999947264, 0.000000000000000000 ) ) ;
#69 = ORIENTED_EDGE ( 'NONE', *, *, #280, .F. ) ;
#70 = FACE_OUTER_BOUND ( 'NONE', #729, .T. ) ;
#71 = PLANE ( 'NONE',  #460 ) ;
#72 = VERTEX_POINT ( 'NONE', #191 ) ;
#73 = FACE_OUTER_BOUND ( 'NONE', #389, .T. ) ;
#74 = AXIS2_PLACEMENT_3D ( 'NONE', #86, #167, #589 ) ;
#75 = CARTESIAN_POINT ( 'NONE',  ( 62.03101980310331953, -2.533146260700759100, 1.955752889319623433 ) ) ;
#76 = DIRECTION ( 'NONE',  ( -0.000000000000000000, -0.000000000000000000, -1.000000000000000000 ) ) ;
#77 = EDGE_LOOP ( 'NONE', ( #585, #283, #328, #445 ) ) ;
#78 = DIRECTION ( 'NONE',  ( -1.000000000000000000, -0.000000000000000000, -0.000000000000000000 ) ) ;
#79 = CONICAL_SURFACE ( 'NONE', #25, 4.750000000000219380, 0.7853981633974407295 ) ;
#80 = DIRECTION ( 'NONE',  ( 0.8660254037844405950, 0.4999999999999966693, 0.000000000000000000 ) ) ;
#81 = ORIENTED_EDGE ( 'NONE', *, *, #818, .T. ) ;
#82 = DIRECTION ( 'NONE',  ( 5.753405375723203803E-15, 1.000000000000000000, 0.000000000000000000 ) ) ;
#83 = CARTESIAN_POINT ( 'NONE',  ( 61.86914439853450887, -2.762871671121427841, 1.617161943944920521 ) ) ;
#84 = DATE_TIME_ROLE ( 'classification_date' ) ;
#85 = CARTESIAN_POINT ( 'NONE',  ( 57.99999999999999289, -1.206049887113159524, -5.450000000000001066 ) ) ;
#86 = CARTESIAN_POINT ( 'NONE',  ( 58.00000000000000000, 0.000000000000000000, -8.500000000000000000 ) ) ;
#87 = CARTESIAN_POINT ( 'NONE',  ( 58.00000000000000000, 0.000000000000000000, -8.500000000000000000 ) ) ;
#88 = CIRCLE ( 'NONE', #809, 4.750000000000219380 ) ;
#89 = CIRCLE ( 'NONE', #36, 3.850000000000221245 ) ;
#90 = ORIENTED_EDGE ( 'NONE', *, *, #326, .T. ) ;
#91 = DIRECTION ( 'NONE',  ( -5.753405375723203803E-15, -1.000000000000000000, 0.000000000000000000 ) ) ;
#92 = VERTEX_POINT ( 'NONE', #761 ) ;
#93 = EDGE_CURVE ( 'NONE', #490, #13, #42, .T. ) ;
#94 = PERSON_AND_ORGANIZATION ( #179, #857 ) ;
#95 = ORIENTED_EDGE ( 'NONE', *, *, #855, .F. ) ;
#96 = LINE ( 'NONE', #314, #710 ) ;
#97 = APPROVAL_ROLE ( '' ) ;
#98 = LINE ( 'NONE', #29, #225 ) ;
#99 = CARTESIAN_POINT ( 'NONE',  ( 56.95553015952865650, 0.6030249435565918636, -5.450000000000001066 ) ) ;
#100 = CARTESIAN_POINT ( 'NONE',  ( 57.99999999999999289, -0.9173747525183491014, -5.200000000000001066 ) ) ;
#101 = PRODUCT_DEFINITION_FORMATION_WITH_SPECIFIED_SOURCE ( 'ANY', '', #346, .NOT_KNOWN. ) ;
#102 = CARTESIAN_POINT ( 'NONE',  ( 58.00000000000000000, 0.9173747525183484353, -5.200000000000001066 ) ) ;
#103 = EDGE_CURVE ( 'NONE', #226, #13, #774, .T. ) ;
#104 = CARTESIAN_POINT ( 'NONE',  ( 62.02734441030454349, -2.522177770491302873, -1.939106595687696943 ) ) ;
#105 = EDGE_CURVE ( 'NONE', #72, #636, #46, .T. ) ;
#106 = VECTOR ( 'NONE', #664, 1000.000000000000000 ) ;
#107 = AXIS2_PLACEMENT_3D ( 'NONE', #824, #469, #541 ) ;
#108 = DIRECTION ( 'NONE',  ( -0.5000000000000056621, -0.8660254037844354880, 0.000000000000000000 ) ) ;
#109 = CARTESIAN_POINT ( 'NONE',  ( 58.79446984047135771, 0.4586873762591672787, -5.200000000000001066 ) ) ;
#110 = ORIENTED_EDGE ( 'NONE', *, *, #323, .F. ) ;
#111 = CARTESIAN_POINT ( 'NONE',  ( 53.32186464228326628, -0.8499809169112766405, -3.066615037073378236 ) ) ;
#112 = CC_DESIGN_DATE_AND_TIME_ASSIGNMENT ( #873, #17, ( #503 ) ) ;
#113 = CARTESIAN_POINT ( 'NONE',  ( 58.00000000000000000, 0.000000000000000000, -7.599999999999992539 ) ) ;
#114 = DIRECTION ( 'NONE',  ( -0.5000000000000009992, 0.000000000000000000, -0.8660254037844380415 ) ) ;
#115 = VERTEX_POINT ( 'NONE', #325 ) ;
#116 = CARTESIAN_POINT ( 'NONE',  ( 53.36337743409296053, -1.050691636487876446, -3.003393393154932589 ) ) ;
#117 = DIRECTION ( 'NONE',  ( -0.000000000000000000, -0.000000000000000000, 1.000000000000000000 ) ) ;
#118 = CARTESIAN_POINT ( 'NONE',  ( 61.68184982313898246, 3.002802159500995494, 1.051614797549512481 ) ) ;
#119 = ORIENTED_EDGE ( 'NONE', *, *, #323, .T. ) ;
#120 = VECTOR ( 'NONE', #714, 1000.000000000000114 ) ;
#121 = CARTESIAN_POINT ( 'NONE',  ( 53.36389903701967796, 1.052730612587297943, 3.002579815506800642 ) ) ;
#122 = PLANE ( 'NONE',  #887 ) ;
#123 = CARTESIAN_POINT ( 'NONE',  ( 61.53313843532820471, 3.174812255822047735, 0.2181654801072885341 ) ) ;
#124 = ORIENTED_EDGE ( 'NONE', *, *, #830, .T. ) ;
#125 = CARTESIAN_POINT ( 'NONE',  ( 53.53037921296909474, 1.618038265327182978, -2.739362629352949163 ) ) ;
#126 = DIRECTION ( 'NONE',  ( 0.5000000000000009992, 6.123233995736778362E-17, -0.8660254037844380415 ) ) ;
#127 = DIRECTION ( 'NONE',  ( 0.000000000000000000, 0.000000000000000000, -1.000000000000000000 ) ) ;
#128 = VERTEX_POINT ( 'NONE', #58 ) ;
#129 = LINE ( 'NONE', #395, #6 ) ;
#130 = FACE_OUTER_BOUND ( 'NONE', #458, .T. ) ;
#131 = ORIENTED_EDGE ( 'NONE', *, *, #285, .F. ) ;
#132 = PLANE ( 'NONE',  #342 ) ;
#133 = ADVANCED_FACE ( 'NONE', ( #250 ), #807, .F. ) ;
#134 = ADVANCED_FACE ( 'NONE', ( #407 ), #674, .F. ) ;
#135 = CC_DESIGN_SECURITY_CLASSIFICATION ( #22, ( #101 ) ) ;
#136 = DIRECTION ( 'NONE',  ( 1.000000000000000000, 0.000000000000000000, 0.000000000000000000 ) ) ;
#137 = EDGE_LOOP ( 'NONE', ( #361, #633, #143, #494 ) ) ;
#138 = CARTESIAN_POINT ( 'NONE',  ( 56.95553015952864229, -0.6030249435565701033, -7.500000000000000888 ) ) ;
#139 = FACE_OUTER_BOUND ( 'NONE', #267, .T. ) ;
#140 = EDGE_LOOP ( 'NONE', ( #32, #170, #35, #365 ) ) ;
#141 = ADVANCED_FACE ( 'NONE', ( #265 ), #546, .T. ) ;
#142 = FACE_OUTER_BOUND ( 'NONE', #140, .T. ) ;
#143 = ORIENTED_EDGE ( 'NONE', *, *, #158, .T. ) ;
#144 = CARTESIAN_POINT ( 'NONE',  ( 14.89723492023548168, -25.80276777413737221, -5.450000000000001066 ) ) ;
#145 = AXIS2_PLACEMENT_3D ( 'NONE', #459, #91, #665 ) ;
#146 = AXIS2_PLACEMENT_3D ( 'NONE', #432, #626, #780 ) ;
#147 = FACE_OUTER_BOUND ( 'NONE', #77, .T. ) ;
#148 = ORIENTED_EDGE ( 'NONE', *, *, #658, .F. ) ;
#149 = DIRECTION ( 'NONE',  ( 1.150681075144640761E-14, 1.000000000000000000, 0.000000000000000000 ) ) ;
#150 = CARTESIAN_POINT ( 'NONE',  ( 61.55278675107627606, -3.153312636422492599, -0.4271822469483986251 ) ) ;
#151 = PERSON_AND_ORGANIZATION_ROLE ( 'classification_officer' ) ;
#152 = CARTESIAN_POINT ( 'NONE',  ( 57.99999999999998579, -1.086476731244109928, -5.200000000000002842 ) ) ;
#153 = CARTESIAN_POINT ( 'NONE',  ( 62.75000000000023448, 0.2172958725550905579, 3.175000000000001155 ) ) ;
#154 = CARTESIAN_POINT ( 'NONE',  ( 62.53182346882850595, -1.437111248088518867, -2.838939978003380826 ) ) ;
#155 = CARTESIAN_POINT ( 'NONE',  ( 59.04446984047135771, 0.6030249435565773197, -7.500000000000000888 ) ) ;
#156 = DIRECTION ( 'NONE',  ( -1.000000000000000000, 1.150681075144640761E-14, 0.000000000000000000 ) ) ;
#157 = ORIENTED_EDGE ( 'NONE', *, *, #434, .T. ) ;
#158 = EDGE_CURVE ( 'NONE', #9, #252, #182, .T. ) ;
#159 = ADVANCED_FACE ( 'NONE', ( #832 ), #79, .T. ) ;
#160 = CIRCLE ( 'NONE', #884, 4.750000000000219380 ) ;
#161 = APPLICATION_PROTOCOL_DEFINITION ( 'international standard', 'config_control_design', 1994, #334 ) ;
#162 = VERTEX_POINT ( 'NONE', #620 ) ;
#163 = DIRECTION ( 'NONE',  ( -0.7071067811865462405, 0.000000000000000000, -0.7071067811865489050 ) ) ;
#164 = EDGE_LOOP ( 'NONE', ( #206, #616, #61, #508 ) ) ;
#165 = COORDINATED_UNIVERSAL_TIME_OFFSET ( 5, 0, .BEHIND. ) ;
#166 = CARTESIAN_POINT ( 'NONE',  ( 57.99999999999999289, -1.206049887113159524, -5.450000000000001066 ) ) ;
#167 = DIRECTION ( 'NONE',  ( 0.000000000000000000, 0.000000000000000000, 1.000000000000000000 ) ) ;
#168 = ORIENTED_EDGE ( 'NONE', *, *, #270, .F. ) ;
#169 = COORDINATED_UNIVERSAL_TIME_OFFSET ( 5, 0, .BEHIND. ) ;
#170 = ORIENTED_EDGE ( 'NONE', *, *, #67, .F. ) ;
#171 = EDGE_CURVE ( 'NONE', #128, #822, #330, .T. ) ;
#172 = CARTESIAN_POINT ( 'NONE',  ( 58.00000000000000000, 0.000000000000000000, -7.599999999999992539 ) ) ;
#173 = CARTESIAN_POINT ( 'NONE',  ( 53.66492636115361137, -1.967990086833403485, 2.523643924636516545 ) ) ;
#174 = SHAPE_DEFINITION_REPRESENTATION ( #269, #872 ) ;
#175 = VECTOR ( 'NONE', #390, 999.9999999999998863 ) ;
#176 = CARTESIAN_POINT ( 'NONE',  ( 58.00000000000000000, 0.000000000000000000, -7.500000000000000888 ) ) ;
#177 = AXIS2_PLACEMENT_3D ( 'NONE', #590, #448, #789 ) ;
#178 = DIRECTION ( 'NONE',  ( 0.000000000000000000, 0.000000000000000000, 1.000000000000000000 ) ) ;
#179 = PERSON ( 'UNSPECIFIED', 'UNSPECIFIED', 'UNSPECIFIED', ('UNSPECIFIED'), ('UNSPECIFIED'), ('UNSPECIFIED') ) ;
#180 = CARTESIAN_POINT ( 'NONE',  ( 61.53311957562284817, -3.174833241929828631, 0.2195235381405926389 ) ) ;
#181 = ADVANCED_FACE ( 'NONE', ( #186, #535 ), #551, .T. ) ;
#182 = LINE ( 'NONE', #625, #197 ) ;
#183 = CARTESIAN_POINT ( 'NONE',  ( 61.62650656486412259, 3.068247935666183146, -0.8439047670615000829 ) ) ;
#184 = VERTEX_POINT ( 'NONE', #403 ) ;
#185 = CARTESIAN_POINT ( 'NONE',  ( 54.44641926040254276, 3.152423113956786427, 0.4333761219272811438 ) ) ;
#186 = FACE_BOUND ( 'NONE', #570, .T. ) ;
#187 = CARTESIAN_POINT ( 'NONE',  ( 54.14999999999977121, 0.000000000000000000, 120.5000000000000000 ) ) ;
#188 = EDGE_LOOP ( 'NONE', ( #804, #773, #548, #119, #601, #799, #394, #558 ) ) ;
#189 = CARTESIAN_POINT ( 'NONE',  ( 53.26490490441499048, 0.4311080627802360565, -3.152823026557481256 ) ) ;
#190 = ADVANCED_FACE ( 'NONE', ( #740 ), #122, .F. ) ;
#191 = CARTESIAN_POINT ( 'NONE',  ( 57.20553015952865650, 0.4586873762591855974, -5.200000000000001066 ) ) ;
#192 = CARTESIAN_POINT ( 'NONE',  ( 61.80697670690152989, 2.842493145525887943, 1.429317042915004166 ) ) ;
#193 = AXIS2_PLACEMENT_3D ( 'NONE', #833, #50, #747 ) ;
#194 = ORIENTED_EDGE ( 'NONE', *, *, #738, .T. ) ;
#195 = AXIS2_PLACEMENT_3D ( 'NONE', #172, #30, #444 ) ;
#196 = CARTESIAN_POINT ( 'NONE',  ( 53.89397191522723318, -2.393569113751865984, -2.095760415735381521 ) ) ;
#197 = VECTOR ( 'NONE', #54, 1000.000000000000000 ) ;
#198 = CARTESIAN_POINT ( 'NONE',  ( 57.99999999999999289, -1.206049887113159524, -5.200000000000001066 ) ) ;
#199 = CARTESIAN_POINT ( 'NONE',  ( 61.67958188246497286, 3.005585734460531899, -1.043877744298778998 ) ) ;
#200 = VERTEX_POINT ( 'NONE', #682 ) ;
#201 = CARTESIAN_POINT ( 'NONE',  ( 54.31815017686101754, -3.002802159500996382, 1.051614797549511593 ) ) ;
#202 = DIRECTION ( 'NONE',  ( -0.4999999999999933942, 0.8660254037844425934, 0.000000000000000000 ) ) ;
#203 = ADVANCED_FACE ( 'NONE', ( #604 ), #880, .T. ) ;
#204 = CARTESIAN_POINT ( 'NONE',  ( 56.95553015952865650, 0.6030249435565918636, -7.500000000000000888 ) ) ;
#205 = EDGE_CURVE ( 'NONE', #23, #115, #614, .T. ) ;
#206 = ORIENTED_EDGE ( 'NONE', *, *, #31, .F. ) ;
#207 = CARTESIAN_POINT ( 'NONE',  ( 54.37217853429307723, -3.066693137716709039, 0.8489333811900977578 ) ) ;
#208 = CARTESIAN_POINT ( 'NONE',  ( 58.94091644987805978, -0.5432383656220632906, -5.200000000000004619 ) ) ;
#209 = ORIENTED_EDGE ( 'NONE', *, *, #441, .T. ) ;
#210 = CARTESIAN_POINT ( 'NONE',  ( 56.95553015952865650, 0.6030249435565949723, -5.303553390593276795 ) ) ;
#211 = AXIS2_PLACEMENT_3D ( 'NONE', #479, #127, #753 ) ;
#212 = CC_DESIGN_PERSON_AND_ORGANIZATION_ASSIGNMENT ( #660, #364, ( #101 ) ) ;
#213 = DIRECTION ( 'NONE',  ( 0.7071067811865421326, 0.000000000000000000, 0.7071067811865530128 ) ) ;
#214 = ORIENTED_EDGE ( 'NONE', *, *, #536, .T. ) ;
#215 = CARTESIAN_POINT ( 'NONE',  ( 59.04446984047135061, -0.6030249435565845362, -5.200000000000001066 ) ) ;
#216 = VERTEX_POINT ( 'NONE', #398 ) ;
#217 = CYLINDRICAL_SURFACE ( 'NONE', #653, 0.2500000000000000555 ) ;
#218 = DIRECTION ( 'NONE',  ( -0.8660254037844405950, -0.4999999999999967248, 0.000000000000000000 ) ) ;
#219 = ORIENTED_EDGE ( 'NONE', *, *, #731, .F. ) ;
#220 = DIRECTION ( 'NONE',  ( -1.000000000000000000, 0.000000000000000000, 0.000000000000000000 ) ) ;
#221 = VECTOR ( 'NONE', #163, 1000.000000000000000 ) ;
#222 = LOCAL_TIME ( 15, 48, 3.000000000000000000, #663 ) ;
#223 = CARTESIAN_POINT ( 'NONE',  ( 62.53245139912833395, -1.434767645357795995, 2.839924135430685670 ) ) ;
#224 =( NAMED_UNIT ( * ) SI_UNIT ( $, .STERADIAN. ) SOLID_ANGLE_UNIT ( ) );
#225 = VECTOR ( 'NONE', #870, 1000.000000000000000 ) ;
#226 = VERTEX_POINT ( 'NONE', #261 ) ;
#227 = LINE ( 'NONE', #875, #416 ) ;
#228 = CARTESIAN_POINT ( 'NONE',  ( 61.80471137752660127, -2.845506425695305985, -1.423289228910856963 ) ) ;
#229 =( NAMED_UNIT ( * ) PLANE_ANGLE_UNIT ( ) SI_UNIT ( $, .RADIAN. ) );
#230 = ORIENTED_EDGE ( 'NONE', *, *, #367, .T. ) ;
#231 = ADVANCED_FACE ( 'NONE', ( #478 ), #758, .F. ) ;
#232 = CARTESIAN_POINT ( 'NONE',  ( 57.99999999999999289, -0.9173747525183491014, -5.200000000000001066 ) ) ;
#233 = EDGE_CURVE ( 'NONE', #128, #694, #272, .T. ) ;
#234 = ORIENTED_EDGE ( 'NONE', *, *, #260, .F. ) ;
#235 = DIRECTION ( 'NONE',  ( -1.150681075144640761E-14, -1.000000000000000000, 0.000000000000000000 ) ) ;
#236 = CONICAL_SURFACE ( 'NONE', #757, 4.750000000000219380, 0.7853981633974407295 ) ;
#237 = PRODUCT_RELATED_PRODUCT_CATEGORY ( 'detail', '', ( #346 ) ) ;
#238 = ORIENTED_EDGE ( 'NONE', *, *, #367, .F. ) ;
#239 = FACE_OUTER_BOUND ( 'NONE', #595, .T. ) ;
#240 = ORIENTED_EDGE ( 'NONE', *, *, #423, .T. ) ;
#241 = LINE ( 'NONE', #733, #539 ) ;
#242 = ORIENTED_EDGE ( 'NONE', *, *, #271, .T. ) ;
#243 = CARTESIAN_POINT ( 'NONE',  ( 62.75000000000020606, -0.2170115729130864535, 3.174999999999999822 ) ) ;
#244 =( BOUNDED_CURVE ( )  B_SPLINE_CURVE ( 3, ( #882, #251, #331, #109 ),
 .UNSPECIFIED., .F., .T. ) 
 B_SPLINE_CURVE_WITH_KNOTS ( ( 4, 4 ),
 ( 3.141592653589793116, 4.712388980384685233 ),
 .UNSPECIFIED. ) 
 CURVE ( )  GEOMETRIC_REPRESENTATION_ITEM ( )  RATIONAL_B_SPLINE_CURVE ( ( 1.000000000000000000, 0.8047378541243661587, 0.8047378541243661587, 1.000000000000000000 ) ) 
 REPRESENTATION_ITEM ( '' )  );
#245 = DIRECTION ( 'NONE',  ( 1.000000000000000000, 0.000000000000000000, 0.000000000000000000 ) ) ;
#246 = CARTESIAN_POINT ( 'NONE',  ( 62.02759809365365129, 2.521733120102907844, 1.939555991657164302 ) ) ;
#247 = ADVANCED_FACE ( 'NONE', ( #318 ), #721, .T. ) ;
#248 = APPROVAL ( #594, 'UNSPECIFIED' ) ;
#249 = AXIS2_PLACEMENT_3D ( 'NONE', #491, #358, #82 ) ;
#250 = FACE_OUTER_BOUND ( 'NONE', #64, .T. ) ;
#251 = CARTESIAN_POINT ( 'NONE',  ( 59.04446984047135771, 0.6030249435565703253, -5.303553390593275907 ) ) ;
#252 = VERTEX_POINT ( 'NONE', #363 ) ;
#253 = CARTESIAN_POINT ( 'NONE',  ( 53.24999999999978684, 3.887681941185305065E-16, -3.174999999999999822 ) ) ;
#254 = AXIS2_PLACEMENT_3D ( 'NONE', #519, #793, #727 ) ;
#255 = CARTESIAN_POINT ( 'NONE',  ( 14.10276507976401383, -24.42670564535977462, -5.200000000000001066 ) ) ;
#256 = CARTESIAN_POINT ( 'NONE',  ( 62.46932547081595999, 1.618766899444780805, -2.738867616853573494 ) ) ;
#257 = EDGE_LOOP ( 'NONE', ( #703, #451, #485, #157 ) ) ;
#258 = CARTESIAN_POINT ( 'NONE',  ( 53.89504289717305596, 2.395340675088281301, -2.093636447313759863 ) ) ;
#259 =( BOUNDED_CURVE ( )  B_SPLINE_CURVE ( 3, ( #100, #152, #438, #718 ),
 .UNSPECIFIED., .F., .F. ) 
 B_SPLINE_CURVE_WITH_KNOTS ( ( 4, 4 ),
 ( 1.570796326794910991, 3.141592653589793116 ),
 .UNSPECIFIED. ) 
 CURVE ( )  GEOMETRIC_REPRESENTATION_ITEM ( )  RATIONAL_B_SPLINE_CURVE ( ( 1.000000000000000000, 0.8047378541243684902, 0.8047378541243684902, 1.000000000000000000 ) ) 
 REPRESENTATION_ITEM ( '' )  );
#260 = EDGE_CURVE ( 'NONE', #184, #668, #468, .T. ) ;
#261 = CARTESIAN_POINT ( 'NONE',  ( 56.17500000000000426, 0.000000000000000000, -8.500000000000000000 ) ) ;
#262 = DIRECTION ( 'NONE',  ( -1.000000000000000000, 0.000000000000000000, 0.000000000000000000 ) ) ;
#263 = ORIENTED_EDGE ( 'NONE', *, *, #453, .T. ) ;
#264 = CARTESIAN_POINT ( 'NONE',  ( 53.24999999999978684, -0.2141132555055807463, -3.175000000000000266 ) ) ;
#265 = FACE_OUTER_BOUND ( 'NONE', #863, .T. ) ;
#266 = CARTESIAN_POINT ( 'NONE',  ( 61.55381351092191267, 3.152158770993579662, 0.4349595027883063070 ) ) ;
#267 = EDGE_LOOP ( 'NONE', ( #834, #44, #230, #194 ) ) ;
#268 = CARTESIAN_POINT ( 'NONE',  ( 54.12308466723862210, 2.747801158703348623, -1.603466210317054719 ) ) ;
#269 = PRODUCT_DEFINITION_SHAPE ( 'NONE', 'NONE',  #503 ) ;
#270 = EDGE_CURVE ( 'NONE', #867, #92, #563, .T. ) ;
#271 = EDGE_CURVE ( 'NONE', #668, #274, #338, .T. ) ;
#272 = LINE ( 'NONE', #560, #812 ) ;
#273 = DIRECTION ( 'NONE',  ( -0.8660254037844380415, 0.5000000000000013323, -0.000000000000000000 ) ) ;
#274 = VERTEX_POINT ( 'NONE', #486 ) ;
#275 = CARTESIAN_POINT ( 'NONE',  ( 53.66685797548527148, -1.954266264920615059, -2.510507013170940382 ) ) ;
#276 = LINE ( 'NONE', #138, #797 ) ;
#277 = CARTESIAN_POINT ( 'NONE',  ( 57.99999999999999289, -1.206049887113159524, -7.500000000000000888 ) ) ;
#278 = EDGE_LOOP ( 'NONE', ( #504, #754 ) ) ;
#279 = CARTESIAN_POINT ( 'NONE',  ( 57.20553015952865650, 0.4586873762591855974, -5.200000000000001066 ) ) ;
#280 = EDGE_CURVE ( 'NONE', #636, #23, #129, .T. ) ;
#281 = AXIS2_PLACEMENT_3D ( 'NONE', #778, #645, #435 ) ;
#282 = CARTESIAN_POINT ( 'NONE',  ( 56.75235026918962689, 0.000000000000000000, -7.500000000000000888 ) ) ;
#283 = ORIENTED_EDGE ( 'NONE', *, *, #171, .F. ) ;
#284 = DIRECTION ( 'NONE',  ( -0.000000000000000000, -0.000000000000000000, 1.000000000000000000 ) ) ;
#285 = EDGE_CURVE ( 'NONE', #92, #867, #311, .T. ) ;
#286 = DIRECTION ( 'NONE',  ( 0.4999999999999966693, -0.8660254037844405950, 0.000000000000000000 ) ) ;
#287 = ORIENTED_EDGE ( 'NONE', *, *, #600, .F. ) ;
#288 = CARTESIAN_POINT ( 'NONE',  ( 58.00000000000000000, 0.000000000000000000, 120.5000000000000000 ) ) ;
#289 = CARTESIAN_POINT ( 'NONE',  ( 62.33285482208478356, -1.954974909981868958, -2.510025606343466720 ) ) ;
#290 = APPROVAL_DATE_TIME ( #21, #248 ) ;
#291 = ORIENTED_EDGE ( 'NONE', *, *, #31, .T. ) ;
#292 = DIRECTION ( 'NONE',  ( 1.000000000000000000, 0.000000000000000000, 0.000000000000000000 ) ) ;
#293 = VECTOR ( 'NONE', #501, 1000.000000000000000 ) ;
#294 = CC_DESIGN_APPROVAL ( #545, ( #22 ) ) ;
#295 = CARTESIAN_POINT ( 'NONE',  ( 53.32121294309209247, -0.8458913712296790566, 3.067604748697454031 ) ) ;
#296 = EDGE_CURVE ( 'NONE', #184, #92, #431, .T. ) ;
#297 = EDGE_CURVE ( 'NONE', #429, #768, #708, .T. ) ;
#298 = CARTESIAN_POINT ( 'NONE',  ( 58.00000000000000000, 0.000000000000000000, -8.500000000000000000 ) ) ;
#299 = ORIENTED_EDGE ( 'NONE', *, *, #15, .T. ) ;
#300 = AXIS2_PLACEMENT_3D ( 'NONE', #903, #836, #202 ) ;
#301 = CARTESIAN_POINT ( 'NONE',  ( 59.04446984047135061, -0.6030249435565845362, -5.450000000000001066 ) ) ;
#302 = PERSON_AND_ORGANIZATION_ROLE ( 'creator' ) ;
#303 = CARTESIAN_POINT ( 'NONE',  ( 56.95553015952865650, -0.6030249435565755434, -5.303553390593275019 ) ) ;
#304 = ORIENTED_EDGE ( 'NONE', *, *, #750, .T. ) ;
#305 = CARTESIAN_POINT ( 'NONE',  ( 53.24999999999978684, 5.817072295950191694E-16, -8.500000000000000000 ) ) ;
#306 = DIRECTION ( 'NONE',  ( 0.000000000000000000, 0.000000000000000000, -1.000000000000000000 ) ) ;
#307 = ADVANCED_FACE ( 'NONE', ( #575 ), #132, .F. ) ;
#308 = ORIENTED_EDGE ( 'NONE', *, *, #296, .T. ) ;
#309 = VECTOR ( 'NONE', #149, 1000.000000000000000 ) ;
#310 = CC_DESIGN_APPROVAL ( #473, ( #503 ) ) ;
#311 = B_SPLINE_CURVE_WITH_KNOTS ( 'NONE', 3,
 ( #253, #57, #189, #411, #554, #676, #125, #766, #756, #258, #899, #268, #52, #414, #45, #322, #544, #817, #185, #472, #749, #48, #329, #613, #890, #549, #477, #121, #406, #686, #716, #788 ),
 .UNSPECIFIED., .F., .F.,
 ( 4, 2, 2, 2, 2, 2, 2, 2, 2, 2, 2, 2, 2, 2, 2, 4 ),
 ( 0.01026387698588817135, 0.01090452999930692848, 0.01154518301272568388, 0.01218583602614444102, 0.01282648903956319641, 0.01346714205298195355, 0.01410779506640071068, 0.01474844807981946608, 0.01538910109323822148, 0.01602975410665697861, 0.01667040712007573575, 0.01795171314691324307, 0.01859236616033200021, 0.01923301917375075734, 0.01987367218716951447, 0.02051432520058827161 ),
 .UNSPECIFIED. ) ;
#312 = PERSON_AND_ORGANIZATION ( #179, #857 ) ;
#313 = EDGE_LOOP ( 'NONE', ( #530, #148, #524, #455 ) ) ;
#314 = CARTESIAN_POINT ( 'NONE',  ( 59.04446984047135771, 0.6030249435565773197, -5.450000000000001066 ) ) ;
#315 = CARTESIAN_POINT ( 'NONE',  ( 53.24999999999977263, -0.2172958725550907244, 3.174999999999999378 ) ) ;
#316 = ADVANCED_FACE ( 'NONE', ( #637 ), #217, .F. ) ;
#317 = ORIENTED_EDGE ( 'NONE', *, *, #297, .T. ) ;
#318 = FACE_OUTER_BOUND ( 'NONE', #188, .T. ) ;
#319 = DIRECTION ( 'NONE',  ( 0.8660254037844418162, 0.4999999999999946709, 0.000000000000000000 ) ) ;
#320 = CARTESIAN_POINT ( 'NONE',  ( 62.33314202451473562, 1.954266264920614615, -2.510507013170940827 ) ) ;
#321 = ORIENTED_EDGE ( 'NONE', *, *, #526, .F. ) ;
#322 = CARTESIAN_POINT ( 'NONE',  ( 54.44721324892373815, 3.153312636422492155, -0.4271822469483995133 ) ) ;
#323 = EDGE_CURVE ( 'NONE', #867, #200, #842, .T. ) ;
#324 = VECTOR ( 'NONE', #114, 1000.000000000000000 ) ;
#325 = CARTESIAN_POINT ( 'NONE',  ( 58.79446984047135771, -0.4586873762591758830, -5.200000000000001066 ) ) ;
#326 = EDGE_CURVE ( 'NONE', #216, #72, #571, .T. ) ;
#327 = CARTESIAN_POINT ( 'NONE',  ( 56.17500000000000426, 0.000000000000000000, -8.500000000000000000 ) ) ;
#328 = ORIENTED_EDGE ( 'NONE', *, *, #424, .T. ) ;
#329 = CARTESIAN_POINT ( 'NONE',  ( 53.96898019689670178, 2.533146260700760433, 1.955752889319622101 ) ) ;
#330 = LINE ( 'NONE', #610, #379 ) ;
#331 = CARTESIAN_POINT ( 'NONE',  ( 58.94091644987808820, 0.5432383656220457491, -5.200000000000001066 ) ) ;
#332 = ORIENTED_EDGE ( 'NONE', *, *, #105, .T. ) ;
#333 = CARTESIAN_POINT ( 'NONE',  ( 54.32041811753505556, -3.005585734460530123, -1.043877744298780774 ) ) ;
#334 = APPLICATION_CONTEXT ( 'configuration controlled 3d designs of mechanical parts and assemblies' ) ;
#335 = CARTESIAN_POINT ( 'NONE',  ( 58.00000000000000000, 1.206049887113159746, -5.200000000000001066 ) ) ;
#336 = CARTESIAN_POINT ( 'NONE',  ( 58.00000000000000000, 0.9173747525183484353, -5.200000000000001066 ) ) ;
#337 = ORIENTED_EDGE ( 'NONE', *, *, #93, .T. ) ;
#338 = LINE ( 'NONE', #823, #746 ) ;
#339 = ADVANCED_FACE ( 'NONE', ( #70 ), #701, .F. ) ;
#340 = DIRECTION ( 'NONE',  ( -0.8660254037844379305, 0.5000000000000012212, 0.000000000000000000 ) ) ;
#341 = CARTESIAN_POINT ( 'NONE',  ( 61.87804590353360368, 2.746169023041505675, 1.606104315007096162 ) ) ;
#342 = AXIS2_PLACEMENT_3D ( 'NONE', #846, #712, #510 ) ;
#343 = EDGE_LOOP ( 'NONE', ( #787, #583, #732, #889 ) ) ;
#344 = CIRCLE ( 'NONE', #670, 1.825000000000000178 ) ;
#345 = CARTESIAN_POINT ( 'NONE',  ( 54.46686156467179529, -3.174812255822049067, 0.2181654801072874239 ) ) ;
#346 = PRODUCT ( 'S\X2\00f3\X0\lido4_Predeterminado_sldprt', 'S\X2\00f3\X0\lido4_Predeterminado_sldprt', '', ( #722 ) ) ;
#347 = CARTESIAN_POINT ( 'NONE',  ( 59.04446984047135061, -0.6030249435565845362, -5.450000000000001066 ) ) ;
#348 = EDGE_CURVE ( 'NONE', #274, #200, #160, .T. ) ;
#349 = EDGE_LOOP ( 'NONE', ( #124, #291 ) ) ;
#350 = DIRECTION ( 'NONE',  ( 1.000000000000000000, 0.000000000000000000, 0.000000000000000000 ) ) ;
#351 = CARTESIAN_POINT ( 'NONE',  ( 14.89723492023548346, -25.80276777413737577, -5.200000000000001066 ) ) ;
#352 = ORIENTED_EDGE ( 'NONE', *, *, #905, .F. ) ;
#353 = CARTESIAN_POINT ( 'NONE',  ( 53.24999999999978684, 5.817072295950191694E-16, -7.599999999999992539 ) ) ;
#354 =( BOUNDED_CURVE ( )  B_SPLINE_CURVE ( 3, ( #850, #208, #499, #507 ),
 .UNSPECIFIED., .F., .T. ) 
 B_SPLINE_CURVE_WITH_KNOTS ( ( 4, 4 ),
 ( 1.570796326794921205, 3.141592653589793116 ),
 .UNSPECIFIED. ) 
 CURVE ( )  GEOMETRIC_REPRESENTATION_ITEM ( )  RATIONAL_B_SPLINE_CURVE ( ( 1.000000000000000000, 0.8047378541243708217, 0.8047378541243708217, 1.000000000000000000 ) ) 
 REPRESENTATION_ITEM ( '' )  );
#355 = CARTESIAN_POINT ( 'NONE',  ( 59.04446984047135061, -0.6030249435565845362, -5.200000000000001066 ) ) ;
#356 = ADVANCED_FACE ( 'NONE', ( #362 ), #843, .T. ) ;
#357 = ORIENTED_EDGE ( 'NONE', *, *, #731, .T. ) ;
#358 = DIRECTION ( 'NONE',  ( 1.000000000000000000, -5.753405375723203803E-15, 0.000000000000000000 ) ) ;
#359 = VECTOR ( 'NONE', #699, 1000.000000000000000 ) ;
#360 = DIRECTION ( 'NONE',  ( 1.000000000000000000, 0.000000000000000000, 0.000000000000000000 ) ) ;
#361 = ORIENTED_EDGE ( 'NONE', *, *, #599, .F. ) ;
#362 = FACE_OUTER_BOUND ( 'NONE', #400, .T. ) ;
#363 = CARTESIAN_POINT ( 'NONE',  ( 57.99999999999999289, -1.206049887113159524, -7.500000000000000888 ) ) ;
#364 = PERSON_AND_ORGANIZATION_ROLE ( 'design_supplier' ) ;
#365 = ORIENTED_EDGE ( 'NONE', *, *, #618, .F. ) ;
#366 = DIRECTION ( 'NONE',  ( -0.8660254037844405950, -0.4999999999999967248, 0.000000000000000000 ) ) ;
#367 = EDGE_CURVE ( 'NONE', #858, #781, #496, .T. ) ;
#368 = CARTESIAN_POINT ( 'NONE',  ( 62.33488118984408999, -1.950456013196054217, 2.513505652599026696 ) ) ;
#369 = PERSON_AND_ORGANIZATION ( #179, #857 ) ;
#370 = CARTESIAN_POINT ( 'NONE',  ( 59.82500000000000284, 2.234980408443918722E-16, -8.500000000000000000 ) ) ;
#371 = DIRECTION ( 'NONE',  ( 0.000000000000000000, 0.000000000000000000, 1.000000000000000000 ) ) ;
#372 = CONICAL_SURFACE ( 'NONE', #34, 1.825000000000000178, 0.5235987755983000369 ) ;
#373 = VECTOR ( 'NONE', #635, 999.9999999999998863 ) ;
#374 = CARTESIAN_POINT ( 'NONE',  ( 62.73509509558503083, -0.4311080627802364451, -3.152823026557481256 ) ) ;
#375 = PERSON_AND_ORGANIZATION ( #179, #857 ) ;
#376 = VECTOR ( 'NONE', #319, 999.9999999999998863 ) ;
#377 = DIRECTION ( 'NONE',  ( 0.000000000000000000, 0.000000000000000000, 1.000000000000000000 ) ) ;
#378 = CARTESIAN_POINT ( 'NONE',  ( 57.20553015952864229, -0.4586873762591661685, -5.200000000000001066 ) ) ;
#379 = VECTOR ( 'NONE', #474, 1000.000000000000000 ) ;
#380 = PERSON_AND_ORGANIZATION_ROLE ( 'design_owner' ) ;
#381 = LINE ( 'NONE', #155, #106 ) ;
#382 = FACE_OUTER_BOUND ( 'NONE', #471, .T. ) ;
#383 = EDGE_LOOP ( 'NONE', ( #51, #90, #332, #715, #612, #26 ) ) ;
#384 = DATE_AND_TIME ( #647, #511 ) ;
#385 = DIRECTION ( 'NONE',  ( 0.8660254037844353769, -0.5000000000000055511, -0.000000000000000000 ) ) ;
#386 = CARTESIAN_POINT ( 'NONE',  ( 61.85000000000023590, 5.265981236333894572E-16, 120.5000000000000000 ) ) ;
#387 = CIRCLE ( 'NONE', #854, 3.850000000000235012 ) ;
#388 = AXIS2_PLACEMENT_3D ( 'NONE', #643, #428, #904 ) ;
#389 = EDGE_LOOP ( 'NONE', ( #321, #337, #748, #877 ) ) ;
#390 = DIRECTION ( 'NONE',  ( -0.8660254037844418162, -0.4999999999999946709, -0.000000000000000000 ) ) ;
#391 = CARTESIAN_POINT ( 'NONE',  ( 62.10495710282695114, -2.395340675088279525, -2.093636447313761195 ) ) ;
#392 = DIRECTION ( 'NONE',  ( 0.8660254037844353769, -0.5000000000000055511, 0.000000000000000000 ) ) ;
#393 = CARTESIAN_POINT ( 'NONE',  ( 61.62782146570693698, 3.066693137716709039, 0.8489333811900978688 ) ) ;
#394 = ORIENTED_EDGE ( 'NONE', *, *, #630, .T. ) ;
#395 = CARTESIAN_POINT ( 'NONE',  ( 14.89723492023575169, 25.80276777413752498, -5.200000000000001066 ) ) ;
#396 = ADVANCED_FACE ( 'NONE', ( #73 ), #446, .F. ) ;
#397 = ADVANCED_FACE ( 'NONE', ( #707 ), #427, .F. ) ;
#398 = CARTESIAN_POINT ( 'NONE',  ( 57.20553015952864229, -0.4586873762591661685, -5.200000000000001066 ) ) ;
#399 = LINE ( 'NONE', #678, #402 ) ;
#400 = EDGE_LOOP ( 'NONE', ( #287, #299, #723, #56 ) ) ;
#401 = CARTESIAN_POINT ( 'NONE',  ( 53.46769052127692845, -1.435406744703681126, -2.839706369731113345 ) ) ;
#402 = VECTOR ( 'NONE', #888, 1000.000000000000000 ) ;
#403 = CARTESIAN_POINT ( 'NONE',  ( 62.75000000000022027, 3.888825233634927278E-16, -3.174999999999999822 ) ) ;
#404 = DIRECTION ( 'NONE',  ( 1.000000000000000000, 0.000000000000000000, -0.000000000000000000 ) ) ;
#405 = ORIENTED_EDGE ( 'NONE', *, *, #436, .F. ) ;
#406 = CARTESIAN_POINT ( 'NONE',  ( 53.32141910326590306, 0.8470975474714698139, 3.067291245428735547 ) ) ;
#407 = FACE_OUTER_BOUND ( 'NONE', #706, .T. ) ;
#408 = EDGE_CURVE ( 'NONE', #200, #274, #88, .T. ) ;
#409 = CARTESIAN_POINT ( 'NONE',  ( 62.73524498523323700, 0.4299685035631799490, -3.153049703170173412 ) ) ;
#410 = EDGE_LOOP ( 'NONE', ( #238, #263, #666, #838 ) ) ;
#411 = CARTESIAN_POINT ( 'NONE',  ( 53.32174517826403104, 0.8490651028816850188, -3.066795664802876686 ) ) ;
#412 = CARTESIAN_POINT ( 'NONE',  ( 14.89723492023575169, 25.80276777413752498, -5.450000000000001066 ) ) ;
#413 = CARTESIAN_POINT ( 'NONE',  ( 62.48070538200523316, 1.625862938240363542, 2.758735548222846390 ) ) ;
#414 = CARTESIAN_POINT ( 'NONE',  ( 54.31989738097134790, 3.004925988834332262, -1.045504112586340462 ) ) ;
#415 = LINE ( 'NONE', #425, #359 ) ;
#416 = VECTOR ( 'NONE', #515, 1000.000000000000227 ) ;
#417 = AXIS2_PLACEMENT_3D ( 'NONE', #908, #772, #136 ) ;
#418 = DIRECTION ( 'NONE',  ( 0.000000000000000000, 0.000000000000000000, -1.000000000000000000 ) ) ;
#419 = AXIS2_PLACEMENT_3D ( 'NONE', #176, #556, #896 ) ;
#420 = LINE ( 'NONE', #351, #373 ) ;
#421 = ORIENTED_EDGE ( 'NONE', *, *, #66, .T. ) ;
#422 = CARTESIAN_POINT ( 'NONE',  ( 63.54999999999999716, 3.888253587292846081E-16, -3.174999999999999822 ) ) ;
#423 = EDGE_CURVE ( 'NONE', #597, #162, #65, .T. ) ;
#424 = EDGE_CURVE ( 'NONE', #128, #72, #691, .T. ) ;
#425 = CARTESIAN_POINT ( 'NONE',  ( 59.04446984047135771, 0.6030249435565773197, -5.200000000000001066 ) ) ;
#426 = ORIENTED_EDGE ( 'NONE', *, *, #497, .T. ) ;
#427 = PLANE ( 'NONE',  #249 ) ;
#428 = DIRECTION ( 'NONE',  ( -0.8660254037844354880, 0.5000000000000056621, 0.000000000000000000 ) ) ;
#429 = VERTEX_POINT ( 'NONE', #353 ) ;
#430 = AXIS2_PLACEMENT_3D ( 'NONE', #805, #156, #235 ) ;
#431 = LINE ( 'NONE', #422, #579 ) ;
#432 = CARTESIAN_POINT ( 'NONE',  ( 57.20553015952864939, -6.582532094818560256E-13, -5.450000000000001066 ) ) ;
#433 = ORIENTED_EDGE ( 'NONE', *, *, #738, .F. ) ;
#434 = EDGE_CURVE ( 'NONE', #553, #694, #276, .T. ) ;
#435 = DIRECTION ( 'NONE',  ( -1.000000000000000000, 0.000000000000000000, 0.000000000000000000 ) ) ;
#436 = EDGE_CURVE ( 'NONE', #9, #858, #10, .T. ) ;
#437 = CARTESIAN_POINT ( 'NONE',  ( 62.75000000000022027, 2.426872546859612839E-15, 3.174999999999999822 ) ) ;
#438 = CARTESIAN_POINT ( 'NONE',  ( 57.99999999999998579, -1.206049887113157970, -5.303553390593277683 ) ) ;
#439 = PLANE ( 'NONE',  #430 ) ;
#440 = CARTESIAN_POINT ( 'NONE',  ( 62.63610096298036467, -1.052730612587293946, 3.002579815506802419 ) ) ;
#441 = EDGE_CURVE ( 'NONE', #640, #128, #669, .T. ) ;
#442 = CC_DESIGN_PERSON_AND_ORGANIZATION_ASSIGNMENT ( #803, #730, ( #503 ) ) ;
#443 = LINE ( 'NONE', #449, #902 ) ;
#444 = DIRECTION ( 'NONE',  ( 1.000000000000000000, 0.000000000000000000, 0.000000000000000000 ) ) ;
#445 = ORIENTED_EDGE ( 'NONE', *, *, #326, .F. ) ;
#446 = CONICAL_SURFACE ( 'NONE', #281, 1.825000000000000178, 0.5235987755983000369 ) ;
#447 = ADVANCED_FACE ( 'NONE', ( #382 ), #728, .T. ) ;
#448 = DIRECTION ( 'NONE',  ( 0.000000000000000000, 0.000000000000000000, 1.000000000000000000 ) ) ;
#449 = CARTESIAN_POINT ( 'NONE',  ( 61.85000000000023590, 4.714890176717597449E-16, 120.5000000000000000 ) ) ;
#450 = CARTESIAN_POINT ( 'NONE',  ( 57.99999999999998579, 1.206049887113160857, -5.303553390593275019 ) ) ;
#451 = ORIENTED_EDGE ( 'NONE', *, *, #171, .T. ) ;
#452 = UNCERTAINTY_MEASURE_WITH_UNIT (LENGTH_MEASURE( 1.000000000000000082E-05 ), #862, 'distance_accuracy_value', 'NONE');
#453 = EDGE_CURVE ( 'NONE', #858, #906, #96, .T. ) ;
#454 = APPROVAL_DATE_TIME ( #384, #473 ) ;
#455 = ORIENTED_EDGE ( 'NONE', *, *, #103, .T. ) ;
#456 = CARTESIAN_POINT ( 'NONE',  ( 58.00000000000000000, 1.206049887113159746, -7.500000000000000888 ) ) ;
#457 = APPROVAL_ROLE ( '' ) ;
#458 = EDGE_LOOP ( 'NONE', ( #95, #679, #304, #725 ) ) ;
#459 = CARTESIAN_POINT ( 'NONE',  ( 58.79446984047135771, -3.382684188429636883E-13, -5.450000000000001066 ) ) ;
#460 = AXIS2_PLACEMENT_3D ( 'NONE', #355, #286, #80 ) ;
#461 = LOCAL_TIME ( 15, 48, 3.000000000000000000, #586 ) ;
#462 = CARTESIAN_POINT ( 'NONE',  ( 59.82500000000000284, 2.234980408443918722E-16, -8.500000000000000000 ) ) ;
#463 = AXIS2_PLACEMENT_3D ( 'NONE', #677, #483, #745 ) ;
#464 = CARTESIAN_POINT ( 'NONE',  ( 56.95553015952865650, 0.6030249435565918636, -7.500000000000000888 ) ) ;
#465 = ADVANCED_FACE ( 'NONE', ( #724 ), #439, .F. ) ;
#466 = CARTESIAN_POINT ( 'NONE',  ( 61.68170188626079664, -3.002978651714698355, 1.051073795388805854 ) ) ;
#467 = EDGE_CURVE ( 'NONE', #768, #429, #608, .T. ) ;
#468 = B_SPLINE_CURVE_WITH_KNOTS ( 'NONE', 3,
 ( #657, #538, #374, #38, #603, #154, #16, #289, #506, #391, #104, #810, #228, #853, #581, #150, #512, #180, #576, #861, #466, #83, #75, #783, #368, #517, #223, #440, #713, #650, #243, #437 ),
 .UNSPECIFIED., .F., .F.,
 ( 4, 2, 2, 2, 2, 2, 2, 2, 2, 2, 2, 2, 2, 2, 2, 4 ),
 ( 0.01026387698588816962, 0.01090452999930692501, 0.01154518301272567868, 0.01218583602614443408, 0.01282648903956318948, 0.01346714205298194487, 0.01410779506640070027, 0.01474844807981945394, 0.01538910109323821107, 0.01602975410665696474, 0.01667040712007571840, 0.01795171314691322573, 0.01859236616033198286, 0.01923301917375073652, 0.01987367218716949366, 0.02051432520058825079 ),
 .UNSPECIFIED. ) ;
#469 = DIRECTION ( 'NONE',  ( 0.000000000000000000, 0.000000000000000000, -1.000000000000000000 ) ) ;
#470 = CARTESIAN_POINT ( 'NONE',  ( 58.00000000000000000, 1.206049887113159746, -5.450000000000001066 ) ) ;
#471 = EDGE_LOOP ( 'NONE', ( #522, #317, #578, #648, #242, #574, #110, #711 ) ) ;
#472 = CARTESIAN_POINT ( 'NONE',  ( 54.37226604635907989, 3.066798644164300036, 0.8487240002602385314 ) ) ;
#473 = APPROVAL ( #28, 'UNSPECIFIED' ) ;
#474 = DIRECTION ( 'NONE',  ( -1.150681075144640761E-14, -1.000000000000000000, -0.000000000000000000 ) ) ;
#475 = CARTESIAN_POINT ( 'NONE',  ( 62.63651367160581884, 1.051025083707620711, 3.003219614540432847 ) ) ;
#476 = ORIENTED_EDGE ( 'NONE', *, *, #881, .F. ) ;
#477 = CARTESIAN_POINT ( 'NONE',  ( 53.46754860087169448, 1.434767645357799992, 2.839924135430682561 ) ) ;
#478 = FACE_OUTER_BOUND ( 'NONE', #500, .T. ) ;
#479 = CARTESIAN_POINT ( 'NONE',  ( 58.00000000000000000, 0.000000000000000000, -7.500000000000000888 ) ) ;
#480 = ORIENTED_EDGE ( 'NONE', *, *, #536, .F. ) ;
#481 = CARTESIAN_POINT ( 'NONE',  ( 53.24999999999978684, 3.887681941185305065E-16, -3.174999999999999822 ) ) ;
#482 =( BOUNDED_CURVE ( )  B_SPLINE_CURVE ( 3, ( #378, #27, #303, #868 ),
 .UNSPECIFIED., .F., .T. ) 
 B_SPLINE_CURVE_WITH_KNOTS ( ( 4, 4 ),
 ( 1.570796326794899889, 3.141592653589793116 ),
 .UNSPECIFIED. ) 
 CURVE ( )  GEOMETRIC_REPRESENTATION_ITEM ( )  RATIONAL_B_SPLINE_CURVE ( ( 1.000000000000000000, 0.8047378541243658256, 0.8047378541243658256, 1.000000000000000000 ) ) 
 REPRESENTATION_ITEM ( '' )  );
#483 = DIRECTION ( 'NONE',  ( 0.000000000000000000, 0.000000000000000000, -1.000000000000000000 ) ) ;
#484 = CARTESIAN_POINT ( 'NONE',  ( 61.87753564513725024, 2.746904406083555461, -1.604911454809729188 ) ) ;
#485 = ORIENTED_EDGE ( 'NONE', *, *, #599, .T. ) ;
#486 = CARTESIAN_POINT ( 'NONE',  ( 62.75000000000022027, 5.817072295950191694E-16, 119.6000000000000085 ) ) ;
#487 = CC_DESIGN_PERSON_AND_ORGANIZATION_ASSIGNMENT ( #513, #151, ( #22 ) ) ;
#488 = DIRECTION ( 'NONE',  ( -0.000000000000000000, -0.000000000000000000, -1.000000000000000000 ) ) ;
#489 = LINE ( 'NONE', #492, #737 ) ;
#490 = VERTEX_POINT ( 'NONE', #798 ) ;
#491 = CARTESIAN_POINT ( 'NONE',  ( 59.04446984047135771, 0.6030249435565773197, -5.200000000000001066 ) ) ;
#492 = CARTESIAN_POINT ( 'NONE',  ( 53.24999999999978684, 5.817072295950191694E-16, -7.599999999999992539 ) ) ;
#493 = AXIS2_PLACEMENT_3D ( 'NONE', #288, #418, #220 ) ;
#494 = ORIENTED_EDGE ( 'NONE', *, *, #762, .T. ) ;
#495 = VECTOR ( 'NONE', #273, 999.9999999999997726 ) ;
#496 = LINE ( 'NONE', #215, #293 ) ;
#497 = EDGE_CURVE ( 'NONE', #735, #200, #584, .T. ) ;
#498 = ADVANCED_FACE ( 'NONE', ( #871 ), #662, .F. ) ;
#499 = CARTESIAN_POINT ( 'NONE',  ( 59.04446984047134350, -0.6030249435565868676, -5.303553390593275907 ) ) ;
#500 = EDGE_LOOP ( 'NONE', ( #214, #802, #543, #851 ) ) ;
#501 = DIRECTION ( 'NONE',  ( -0.000000000000000000, -0.000000000000000000, -1.000000000000000000 ) ) ;
#502 = CARTESIAN_POINT ( 'NONE',  ( 59.04446984047135061, -0.6030249435565845362, -7.500000000000000888 ) ) ;
#503 = PRODUCT_DEFINITION ( 'UNKNOWN', '', #101, #53 ) ;
#504 = ORIENTED_EDGE ( 'NONE', *, *, #658, .T. ) ;
#505 = DIRECTION ( 'NONE',  ( 0.4999999999999933942, -0.8660254037844425934, 0.000000000000000000 ) ) ;
#506 = CARTESIAN_POINT ( 'NONE',  ( 62.25747657782082456, -2.112397442501984024, -2.378812217928107930 ) ) ;
#507 = CARTESIAN_POINT ( 'NONE',  ( 59.04446984047135061, -0.6030249435565845362, -5.450000000000001066 ) ) ;
#508 = ORIENTED_EDGE ( 'NONE', *, *, #750, .F. ) ;
#509 = VECTOR ( 'NONE', #218, 999.9999999999998863 ) ;
#510 = DIRECTION ( 'NONE',  ( -0.8660254037844418162, -0.4999999999999946709, 0.000000000000000000 ) ) ;
#511 = LOCAL_TIME ( 15, 48, 3.000000000000000000, #165 ) ;
#512 = CARTESIAN_POINT ( 'NONE',  ( 61.53282151719668747, -3.175164905535467152, -0.2146730549379231856 ) ) ;
#513 = PERSON_AND_ORGANIZATION ( #179, #857 ) ;
#514 = ORIENTED_EDGE ( 'NONE', *, *, #103, .F. ) ;
#515 = DIRECTION ( 'NONE',  ( -0.8660254037844353769, 0.5000000000000055511, 0.000000000000000000 ) ) ;
#516 = EDGE_CURVE ( 'NONE', #216, #822, #482, .T. ) ;
#517 = CARTESIAN_POINT ( 'NONE',  ( 62.47113856572749313, -1.613813345942124888, 2.741823446088201610 ) ) ;
#518 = DIRECTION ( 'NONE',  ( -1.000000000000000000, 0.000000000000000000, 0.000000000000000000 ) ) ;
#519 = CARTESIAN_POINT ( 'NONE',  ( 58.00000000000000000, 0.000000000000000000, -8.500000000000000000 ) ) ;
#520 = CARTESIAN_POINT ( 'NONE',  ( 62.73517302595311662, 0.4297870985688326817, 3.152937385368726364 ) ) ;
#521 = CARTESIAN_POINT ( 'NONE',  ( 59.04446984047135771, 0.6030249435565773197, -5.450000000000001066 ) ) ;
#522 = ORIENTED_EDGE ( 'NONE', *, *, #1, .F. ) ;
#523 = CARTESIAN_POINT ( 'NONE',  ( 54.14999999999977121, 0.000000000000000000, 120.5000000000000000 ) ) ;
#524 = ORIENTED_EDGE ( 'NONE', *, *, #720, .T. ) ;
#525 = AXIS2_PLACEMENT_3D ( 'NONE', #673, #528, #801 ) ;
#526 = EDGE_CURVE ( 'NONE', #490, #845, #736, .T. ) ;
#527 = VERTEX_POINT ( 'NONE', #386 ) ;
#528 = DIRECTION ( 'NONE',  ( 0.000000000000000000, 0.000000000000000000, -1.000000000000000000 ) ) ;
#529 = AXIS2_PLACEMENT_3D ( 'NONE', #687, #49, #820 ) ;
#530 = ORIENTED_EDGE ( 'NONE', *, *, #93, .F. ) ;
#531 = DIRECTION ( 'NONE',  ( 0.8660254037844405950, 0.4999999999999967248, -0.000000000000000000 ) ) ;
#532 = CARTESIAN_POINT ( 'NONE',  ( 53.36348632839422379, -1.051025083707620933, 3.003219614540433735 ) ) ;
#533 = AXIS2_PLACEMENT_3D ( 'NONE', #87, #642, #572 ) ;
#534 = DATE_AND_TIME ( #550, #771 ) ;
#535 = FACE_OUTER_BOUND ( 'NONE', #278, .T. ) ;
#536 = EDGE_CURVE ( 'NONE', #640, #636, #60, .T. ) ;
#537 = CARTESIAN_POINT ( 'NONE',  ( 62.67813535771675504, 0.8499809169112820806, -3.066615037073376460 ) ) ;
#538 = CARTESIAN_POINT ( 'NONE',  ( 62.75000000000024869, -0.2138331198491935370, -3.174999999999999822 ) ) ;
#539 = VECTOR ( 'NONE', #37, 1000.000000000000000 ) ;
#540 = CC_DESIGN_APPROVAL ( #248, ( #101 ) ) ;
#541 = DIRECTION ( 'NONE',  ( -1.000000000000000000, 0.000000000000000000, -0.000000000000000000 ) ) ;
#542 = LINE ( 'NONE', #327, #324 ) ;
#543 = ORIENTED_EDGE ( 'NONE', *, *, #424, .F. ) ;
#544 = CARTESIAN_POINT ( 'NONE',  ( 54.46717848280331253, 3.175164905535467152, -0.2146730549379236297 ) ) ;
#545 = APPROVAL ( #651, 'UNSPECIFIED' ) ;
#546 = PLANE ( 'NONE',  #529 ) ;
#547 = CARTESIAN_POINT ( 'NONE',  ( 62.75000000000022027, 3.888825233634927278E-16, -3.174999999999999822 ) ) ;
#548 = ORIENTED_EDGE ( 'NONE', *, *, #285, .T. ) ;
#549 = CARTESIAN_POINT ( 'NONE',  ( 53.52886143427249976, 1.613813345942124444, 2.741823446088201610 ) ) ;
#550 = CALENDAR_DATE ( 2026, 8, 4 ) ;
#551 = PLANE ( 'NONE',  #419 ) ;
#552 = CYLINDRICAL_SURFACE ( 'NONE', #193, 3.174999999999999822 ) ;
#553 = VERTEX_POINT ( 'NONE', #592 ) ;
#554 = CARTESIAN_POINT ( 'NONE',  ( 53.36317640970083431, 1.050037944291686731, -3.003712578399616362 ) ) ;
#555 = CIRCLE ( 'NONE', #417, 3.850000000000235012 ) ;
#556 = DIRECTION ( 'NONE',  ( 0.000000000000000000, 0.000000000000000000, -1.000000000000000000 ) ) ;
#557 = CARTESIAN_POINT ( 'NONE',  ( 61.80500358865624833, 2.845139034787256715, -1.424222673939995465 ) ) ;
#558 = ORIENTED_EDGE ( 'NONE', *, *, #895, .F. ) ;
#559 = CARTESIAN_POINT ( 'NONE',  ( 53.26475501476677010, -0.4299685035631750640, -3.153049703170175189 ) ) ;
#560 = CARTESIAN_POINT ( 'NONE',  ( 56.95553015952865650, 0.6030249435565918636, -5.200000000000001066 ) ) ;
#561 = CARTESIAN_POINT ( 'NONE',  ( 56.95553015952864229, -0.6030249435565701033, -5.450000000000001066 ) ) ;
#562 = ORIENTED_EDGE ( 'NONE', *, *, #770, .F. ) ;
#563 = B_SPLINE_CURVE_WITH_KNOTS ( 'NONE', 3,
 ( #19, #315, #598, #295, #532, #806, #173, #835, #617, #690, #623, #201, #207, #839, #345, #894, #827, #629, #333, #695, #680, #907, #196, #743, #275, #62, #401, #116, #111, #559, #264, #481 ),
 .UNSPECIFIED., .F., .F.,
 ( 4, 2, 2, 2, 2, 2, 2, 2, 2, 2, 2, 2, 2, 2, 2, 4 ),
 ( 7.043926587426539518E-19, 0.0006414923116180148294, 0.001282984623236029008, 0.002565969246472056715, 0.003207461558090066341, 0.003848953869708075966, 0.004490446181326085591, 0.005131938492944094349, 0.005773430804562104841, 0.006414923116180114467, 0.007056415427798124092, 0.007697907739416133717, 0.008339400051034142475, 0.008980892362652152100, 0.009622384674270161725, 0.01026387698588817135 ),
 .UNSPECIFIED. ) ;
#564 = CARTESIAN_POINT ( 'NONE',  ( 59.04446984047135061, -0.6030249435565845362, -7.500000000000000888 ) ) ;
#565 = ORIENTED_EDGE ( 'NONE', *, *, #696, .T. ) ;
#566 = CARTESIAN_POINT ( 'NONE',  ( 56.95553015952865650, 0.6030249435565918636, -5.450000000000001066 ) ) ;
#567 = CARTESIAN_POINT ( 'NONE',  ( 62.75000000000022027, 0.000000000000000000, -8.500000000000000000 ) ) ;
#568 = DIRECTION ( 'NONE',  ( 1.000000000000000000, 0.000000000000000000, 0.000000000000000000 ) ) ;
#569 = CARTESIAN_POINT ( 'NONE',  ( 62.75000000000022027, 0.000000000000000000, -7.599999999999992539 ) ) ;
#570 = EDGE_LOOP ( 'NONE', ( #790, #606, #644, #433, #796, #883 ) ) ;
#571 = LINE ( 'NONE', #14, #309 ) ;
#572 = DIRECTION ( 'NONE',  ( 1.000000000000000000, 0.000000000000000000, 0.000000000000000000 ) ) ;
#573 = DIRECTION ( 'NONE',  ( 1.000000000000000000, 0.000000000000000000, 0.000000000000000000 ) ) ;
#574 = ORIENTED_EDGE ( 'NONE', *, *, #348, .T. ) ;
#575 = FACE_OUTER_BOUND ( 'NONE', #587, .T. ) ;
#576 = CARTESIAN_POINT ( 'NONE',  ( 61.55358073959747855, -3.152423113956786871, 0.4333761219272800336 ) ) ;
#577 = APPLICATION_PROTOCOL_DEFINITION ( 'international standard', 'config_control_design', 1994, #671 ) ;
#578 = ORIENTED_EDGE ( 'NONE', *, *, #895, .T. ) ;
#579 = VECTOR ( 'NONE', #849, 1000.000000000000000 ) ;
#580 = DIRECTION ( 'NONE',  ( 0.000000000000000000, 0.000000000000000000, 1.000000000000000000 ) ) ;
#581 = CARTESIAN_POINT ( 'NONE',  ( 61.62658092557201428, -3.068156624411816136, -0.8439669325320429127 ) ) ;
#582 = AXIS2_PLACEMENT_3D ( 'NONE', #335, #886, #340 ) ;
#583 = ORIENTED_EDGE ( 'NONE', *, *, #453, .F. ) ;
#584 = LINE ( 'NONE', #523, #221 ) ;
#585 = ORIENTED_EDGE ( 'NONE', *, *, #516, .T. ) ;
#586 = COORDINATED_UNIVERSAL_TIME_OFFSET ( 5, 0, .BEHIND. ) ;
#587 = EDGE_LOOP ( 'NONE', ( #876, #209, #622, #760 ) ) ;
#588 = ADVANCED_FACE ( 'NONE', ( #239 ), #828, .T. ) ;
#589 = DIRECTION ( 'NONE',  ( 1.000000000000000000, 0.000000000000000000, 0.000000000000000000 ) ) ;
#590 = CARTESIAN_POINT ( 'NONE',  ( 0.000000000000000000, 0.000000000000000000, 0.000000000000000000 ) ) ;
#591 = DIRECTION ( 'NONE',  ( 0.7071067811865462405, 8.659560562354916834E-17, -0.7071067811865489050 ) ) ;
#592 = CARTESIAN_POINT ( 'NONE',  ( 56.95553015952864229, -0.6030249435565701033, -7.500000000000000888 ) ) ;
#593 = VECTOR ( 'NONE', #769, 1000.000000000000000 ) ;
#594 = APPROVAL_STATUS ( 'not_yet_approved' ) ;
#595 = EDGE_LOOP ( 'NONE', ( #765, #39, #426, #689 ) ) ;
#596 = CARTESIAN_POINT ( 'NONE',  ( 58.00000000000000000, 0.000000000000000000, 120.5000000000000000 ) ) ;
#597 = VERTEX_POINT ( 'NONE', #456 ) ;
#598 = CARTESIAN_POINT ( 'NONE',  ( 53.26482697404691180, -0.4297870985688322931, 3.152937385368726364 ) ) ;
#599 = EDGE_CURVE ( 'NONE', #822, #553, #241, .T. ) ;
#600 = EDGE_CURVE ( 'NONE', #527, #735, #387, .T. ) ;
#601 = ORIENTED_EDGE ( 'NONE', *, *, #408, .T. ) ;
#602 = DIRECTION ( 'NONE',  ( 1.000000000000000000, 0.000000000000000000, 0.000000000000000000 ) ) ;
#603 = CARTESIAN_POINT ( 'NONE',  ( 62.63682359029919411, -1.050037944291685621, -3.003712578399615474 ) ) ;
#604 = FACE_OUTER_BOUND ( 'NONE', #383, .T. ) ;
#605 = CARTESIAN_POINT ( 'NONE',  ( 62.75000000000022027, 0.2141132555055821340, -3.174999999999999378 ) ) ;
#606 = ORIENTED_EDGE ( 'NONE', *, *, #434, .F. ) ;
#607 = DIRECTION ( 'NONE',  ( 0.000000000000000000, 0.000000000000000000, 1.000000000000000000 ) ) ;
#608 = CIRCLE ( 'NONE', #195, 4.750000000000219380 ) ;
#609 = VECTOR ( 'NONE', #844, 1000.000000000000000 ) ;
#610 = CARTESIAN_POINT ( 'NONE',  ( 56.95553015952864229, -0.6030249435565701033, -5.450000000000001066 ) ) ;
#611 = CARTESIAN_POINT ( 'NONE',  ( 62.53230947872309997, 1.435406744703683790, -2.839706369731112012 ) ) ;
#612 = ORIENTED_EDGE ( 'NONE', *, *, #205, .T. ) ;
#613 = CARTESIAN_POINT ( 'NONE',  ( 53.74046079676413257, 2.108242973159551781, 2.382484029677732096 ) ) ;
#614 = LINE ( 'NONE', #891, #742 ) ;
#615 = CARTESIAN_POINT ( 'NONE',  ( 61.53280313258738943, 3.175185362981503001, -0.2126662811457223912 ) ) ;
#616 = ORIENTED_EDGE ( 'NONE', *, *, #855, .T. ) ;
#617 = CARTESIAN_POINT ( 'NONE',  ( 53.97240190634635582, -2.521733120102908288, 1.939555991657163414 ) ) ;
#618 = EDGE_CURVE ( 'NONE', #627, #216, #227, .T. ) ;
#619 = APPROVAL_ROLE ( '' ) ;
#620 = CARTESIAN_POINT ( 'NONE',  ( 59.04446984047135771, 0.6030249435565773197, -7.500000000000000888 ) ) ;
#621 = CARTESIAN_POINT ( 'NONE',  ( 62.02745328402020419, 2.521980678059633441, -1.939288027456109953 ) ) ;
#622 = ORIENTED_EDGE ( 'NONE', *, *, #233, .T. ) ;
#623 = CARTESIAN_POINT ( 'NONE',  ( 54.19302329309847721, -2.842493145525889275, 1.429317042915003499 ) ) ;
#624 = AXIS2_PLACEMENT_3D ( 'NONE', #808, #178, #404 ) ;
#625 = CARTESIAN_POINT ( 'NONE',  ( 57.99999999999999289, -1.206049887113159524, -5.200000000000001066 ) ) ;
#626 = DIRECTION ( 'NONE',  ( 1.150681075144640761E-14, 1.000000000000000000, 0.000000000000000000 ) ) ;
#627 = VERTEX_POINT ( 'NONE', #232 ) ;
#628 = CLOSED_SHELL ( 'NONE', ( #247, #159, #356, #396, #339, #659, #447, #764, #588, #683, #141, #631, #181, #307, #465, #190, #779, #397, #133, #231, #792, #815, #316, #498, #134, #203 ) ) ;
#629 = CARTESIAN_POINT ( 'NONE',  ( 54.37349343513588451, -3.068247935666181370, -0.8439047670615010821 ) ) ;
#630 = EDGE_CURVE ( 'NONE', #668, #184, #831, .T. ) ;
#631 = ADVANCED_FACE ( 'NONE', ( #688 ), #372, .F. ) ;
#632 = CARTESIAN_POINT ( 'NONE',  ( 53.24999999999978684, -7.274068282174791500E-16, 3.174999999999999822 ) ) ;
#633 = ORIENTED_EDGE ( 'NONE', *, *, #67, .T. ) ;
#634 = CARTESIAN_POINT ( 'NONE',  ( 58.00000000000000000, 1.206049887113159746, -7.500000000000000888 ) ) ;
#635 = DIRECTION ( 'NONE',  ( -0.8660254037844405950, -0.4999999999999967248, 0.000000000000000000 ) ) ;
#636 = VERTEX_POINT ( 'NONE', #336 ) ;
#637 = FACE_OUTER_BOUND ( 'NONE', #816, .T. ) ;
#638 = LINE ( 'NONE', #8, #495 ) ;
#639 = AXIS2_PLACEMENT_3D ( 'NONE', #649, #78, #580 ) ;
#640 = VERTEX_POINT ( 'NONE', #470 ) ;
#641 = DIRECTION ( 'NONE',  ( 1.150681075144640761E-14, 1.000000000000000000, 0.000000000000000000 ) ) ;
#642 = DIRECTION ( 'NONE',  ( 0.000000000000000000, 0.000000000000000000, 1.000000000000000000 ) ) ;
#643 = CARTESIAN_POINT ( 'NONE',  ( 14.10276507976464622, 24.42670564536015121, -5.450000000000001066 ) ) ;
#644 = ORIENTED_EDGE ( 'NONE', *, *, #762, .F. ) ;
#645 = DIRECTION ( 'NONE',  ( -0.000000000000000000, -0.000000000000000000, -1.000000000000000000 ) ) ;
#646 = CC_DESIGN_PERSON_AND_ORGANIZATION_ASSIGNMENT ( #94, #380, ( #346 ) ) ;
#647 = CALENDAR_DATE ( 2026, 8, 4 ) ;
#648 = ORIENTED_EDGE ( 'NONE', *, *, #260, .T. ) ;
#649 = CARTESIAN_POINT ( 'NONE',  ( 63.54999999999999716, 0.000000000000000000, 0.000000000000000000 ) ) ;
#650 = CARTESIAN_POINT ( 'NONE',  ( 62.73512273784244542, -0.4304719732858519610, 3.152862781573491091 ) ) ;
#651 = APPROVAL_STATUS ( 'not_yet_approved' ) ;
#652 = CARTESIAN_POINT ( 'NONE',  ( 58.79446984047135771, 0.4586873762591672787, -5.200000000000001066 ) ) ;
#653 = AXIS2_PLACEMENT_3D ( 'NONE', #144, #366, #505 ) ;
#654 = CARTESIAN_POINT ( 'NONE',  ( 58.00000000000000000, 0.000000000000000000, -7.500000000000000888 ) ) ;
#655 = APPROVAL_PERSON_ORGANIZATION ( #369, #545, #619 ) ;
#656 = VECTOR ( 'NONE', #377, 1000.000000000000000 ) ;
#657 = CARTESIAN_POINT ( 'NONE',  ( 62.75000000000022027, 3.888825233634927278E-16, -3.174999999999999822 ) ) ;
#658 = EDGE_CURVE ( 'NONE', #845, #490, #900, .T. ) ;
#659 = ADVANCED_FACE ( 'NONE', ( #684 ), #552, .F. ) ;
#660 = PERSON_AND_ORGANIZATION ( #179, #857 ) ;
#661 = ORIENTED_EDGE ( 'NONE', *, *, #751, .T. ) ;
#662 = CYLINDRICAL_SURFACE ( 'NONE', #145, 0.2500000000000002220 ) ;
#663 = COORDINATED_UNIVERSAL_TIME_OFFSET ( 5, 0, .BEHIND. ) ;
#664 = DIRECTION ( 'NONE',  ( -5.753405375723203803E-15, -1.000000000000000000, 0.000000000000000000 ) ) ;
#665 = DIRECTION ( 'NONE',  ( 1.000000000000000000, -5.753405375723127283E-15, 0.000000000000000000 ) ) ;
#666 = ORIENTED_EDGE ( 'NONE', *, *, #770, .T. ) ;
#667 = CALENDAR_DATE ( 2026, 8, 4 ) ;
#668 = VERTEX_POINT ( 'NONE', #55 ) ;
#669 = LINE ( 'NONE', #99, #175 ) ;
#670 = AXIS2_PLACEMENT_3D ( 'NONE', #298, #33, #518 ) ;
#671 = APPLICATION_CONTEXT ( 'configuration controlled 3d designs of mechanical parts and assemblies' ) ;
#672 = VERTEX_POINT ( 'NONE', #59 ) ;
#673 = CARTESIAN_POINT ( 'NONE',  ( 58.00000000000000000, 0.000000000000000000, 120.5000000000000000 ) ) ;
#674 = CYLINDRICAL_SURFACE ( 'NONE', #11, 0.2500000000000009437 ) ;
#675 = CARTESIAN_POINT ( 'NONE',  ( 62.10602808477279524, 2.393569113751867317, -2.095760415735379301 ) ) ;
#676 = CARTESIAN_POINT ( 'NONE',  ( 53.46817653117150115, 1.437111248088519755, -2.838939978003382159 ) ) ;
#677 = CARTESIAN_POINT ( 'NONE',  ( 58.00000000000000000, 0.000000000000000000, -8.500000000000000000 ) ) ;
#678 = CARTESIAN_POINT ( 'NONE',  ( 63.54999999999999716, 0.000000000000000000, 3.174999999999999822 ) ) ;
#679 = ORIENTED_EDGE ( 'NONE', *, *, #830, .F. ) ;
#680 = CARTESIAN_POINT ( 'NONE',  ( 54.12246435486275686, -2.746904406083556793, -1.604911454809727411 ) ) ;
#681 = VECTOR ( 'NONE', #909, 999.9999999999997726 ) ;
#682 = CARTESIAN_POINT ( 'NONE',  ( 53.24999999999978684, 0.000000000000000000, 119.6000000000000085 ) ) ;
#683 = ADVANCED_FACE ( 'NONE', ( #759, #741 ), #878, .F. ) ;
#684 = FACE_OUTER_BOUND ( 'NONE', #4, .T. ) ;
#685 = ORIENTED_EDGE ( 'NONE', *, *, #879, .T. ) ;
#686 = CARTESIAN_POINT ( 'NONE',  ( 53.26487726215752616, 0.4304719732858526826, 3.152862781573491091 ) ) ;
#687 = CARTESIAN_POINT ( 'NONE',  ( 58.00000000000000000, 0.000000000000000000, 120.5000000000000000 ) ) ;
#688 = FACE_OUTER_BOUND ( 'NONE', #313, .T. ) ;
#689 = ORIENTED_EDGE ( 'NONE', *, *, #348, .F. ) ;
#690 = CARTESIAN_POINT ( 'NONE',  ( 54.12195409646641053, -2.746169023041505675, 1.606104315007095273 ) ) ;
#691 =( BOUNDED_CURVE ( )  B_SPLINE_CURVE ( 3, ( #566, #210, #775, #279 ),
 .UNSPECIFIED., .F., .F. ) 
 B_SPLINE_CURVE_WITH_KNOTS ( ( 4, 4 ),
 ( 0.000000000000000000, 1.570796326794898112 ),
 .UNSPECIFIED. ) 
 CURVE ( )  GEOMETRIC_REPRESENTATION_ITEM ( )  RATIONAL_B_SPLINE_CURVE ( ( 1.000000000000000000, 0.8047378541243646044, 0.8047378541243646044, 1.000000000000000000 ) ) 
 REPRESENTATION_ITEM ( '' )  );
#692 = DIRECTION ( 'NONE',  ( 0.4999999999999985567, 0.8660254037844395958, 0.000000000000000000 ) ) ;
#693 = CARTESIAN_POINT ( 'NONE',  ( 62.33507363884639574, 1.967990086833402152, 2.523643924636517433 ) ) ;
#694 = VERTEX_POINT ( 'NONE', #464 ) ;
#695 = CARTESIAN_POINT ( 'NONE',  ( 54.19499641134376589, -2.845139034787256271, -1.424222673939996575 ) ) ;
#696 = EDGE_CURVE ( 'NONE', #906, #23, #244, .T. ) ;
#697 = AXIS2_PLACEMENT_3D ( 'NONE', #654, #306, #24 ) ;
#698 = APPROVAL_PERSON_ORGANIZATION ( #312, #248, #457 ) ;
#699 = DIRECTION ( 'NONE',  ( -0.000000000000000000, -0.000000000000000000, -1.000000000000000000 ) ) ;
#700 = ORIENTED_EDGE ( 'NONE', *, *, #296, .F. ) ;
#701 = CYLINDRICAL_SURFACE ( 'NONE', #639, 3.174999999999999822 ) ;
#702 = CYLINDRICAL_SURFACE ( 'NONE', #146, 0.2500000000000002220 ) ;
#703 = ORIENTED_EDGE ( 'NONE', *, *, #233, .F. ) ;
#704 = DIRECTION ( 'NONE',  ( 0.000000000000000000, 0.000000000000000000, -1.000000000000000000 ) ) ;
#705 = LINE ( 'NONE', #848, #7 ) ;
#706 = EDGE_LOOP ( 'NONE', ( #565, #69, #480, #47 ) ) ;
#707 = FACE_OUTER_BOUND ( 'NONE', #410, .T. ) ;
#708 = CIRCLE ( 'NONE', #20, 4.750000000000219380 ) ;
#709 = LINE ( 'NONE', #277, #120 ) ;
#710 = VECTOR ( 'NONE', #40, 1000.000000000000000 ) ;
#711 = ORIENTED_EDGE ( 'NONE', *, *, #270, .T. ) ;
#712 = DIRECTION ( 'NONE',  ( -0.4999999999999946709, 0.8660254037844418162, 0.000000000000000000 ) ) ;
#713 = CARTESIAN_POINT ( 'NONE',  ( 62.67858089673408983, -0.8470975474714690368, 3.067291245428735991 ) ) ;
#714 = DIRECTION ( 'NONE',  ( -0.8660254037844352659, 0.5000000000000056621, 0.000000000000000000 ) ) ;
#715 = ORIENTED_EDGE ( 'NONE', *, *, #280, .T. ) ;
#716 = CARTESIAN_POINT ( 'NONE',  ( 53.24999999999977263, 0.2170115729130874804, 3.175000000000000266 ) ) ;
#717 = DATE_AND_TIME ( #866, #461 ) ;
#718 = CARTESIAN_POINT ( 'NONE',  ( 57.99999999999999289, -1.206049887113159524, -5.450000000000001066 ) ) ;
#719 = CARTESIAN_POINT ( 'NONE',  ( 57.99999999999998579, 1.086476731244110816, -5.200000000000001066 ) ) ;
#720 = EDGE_CURVE ( 'NONE', #845, #226, #542, .T. ) ;
#721 = CYLINDRICAL_SURFACE ( 'NONE', #533, 4.750000000000219380 ) ;
#722 = MECHANICAL_CONTEXT ( 'NONE', #334, 'mechanical' ) ;
#723 = ORIENTED_EDGE ( 'NONE', *, *, #408, .F. ) ;
#724 = FACE_OUTER_BOUND ( 'NONE', #257, .T. ) ;
#725 = ORIENTED_EDGE ( 'NONE', *, *, #297, .F. ) ;
#726 = CIRCLE ( 'NONE', #254, 3.850000000000221245 ) ;
#727 = DIRECTION ( 'NONE',  ( 1.000000000000000000, 0.000000000000000000, 0.000000000000000000 ) ) ;
#728 = CYLINDRICAL_SURFACE ( 'NONE', #74, 4.750000000000219380 ) ;
#729 = EDGE_LOOP ( 'NONE', ( #234, #308, #168, #219 ) ) ;
#730 = PERSON_AND_ORGANIZATION_ROLE ( 'creator' ) ;
#731 = EDGE_CURVE ( 'NONE', #668, #867, #399, .T. ) ;
#732 = ORIENTED_EDGE ( 'NONE', *, *, #751, .F. ) ;
#733 = CARTESIAN_POINT ( 'NONE',  ( 56.95553015952864229, -0.6030249435565701033, -5.200000000000001066 ) ) ;
#734 = PERSON_AND_ORGANIZATION ( #179, #857 ) ;
#735 = VERTEX_POINT ( 'NONE', #187 ) ;
#736 = CIRCLE ( 'NONE', #697, 1.247649730810374002 ) ;
#737 = VECTOR ( 'NONE', #767, 999.9999999999998863 ) ;
#738 = EDGE_CURVE ( 'NONE', #781, #252, #825, .T. ) ;
#739 = VECTOR ( 'NONE', #385, 1000.000000000000227 ) ;
#740 = FACE_OUTER_BOUND ( 'NONE', #137, .T. ) ;
#741 = FACE_OUTER_BOUND ( 'NONE', #349, .T. ) ;
#742 = VECTOR ( 'NONE', #813, 1000.000000000000000 ) ;
#743 = CARTESIAN_POINT ( 'NONE',  ( 53.74072155747848001, -2.108835433200304976, -2.382057501016528356 ) ) ;
#744 = COORDINATED_UNIVERSAL_TIME_OFFSET ( 5, 0, .BEHIND. ) ;
#745 = DIRECTION ( 'NONE',  ( -1.000000000000000000, 0.000000000000000000, 0.000000000000000000 ) ) ;
#746 = VECTOR ( 'NONE', #607, 1000.000000000000000 ) ;
#747 = DIRECTION ( 'NONE',  ( 0.000000000000000000, 0.000000000000000000, 1.000000000000000000 ) ) ;
#748 = ORIENTED_EDGE ( 'NONE', *, *, #905, .T. ) ;
#749 = CARTESIAN_POINT ( 'NONE',  ( 54.31829811373919625, 3.002978651714699687, 1.051073795388801191 ) ) ;
#750 = EDGE_CURVE ( 'NONE', #777, #768, #705, .T. ) ;
#751 = EDGE_CURVE ( 'NONE', #115, #858, #354, .T. ) ;
#752 = DIRECTION ( 'NONE',  ( 0.8660254037844379305, -0.5000000000000013323, 0.000000000000000000 ) ) ;
#753 = DIRECTION ( 'NONE',  ( -1.000000000000000000, 0.000000000000000000, 0.000000000000000000 ) ) ;
#754 = ORIENTED_EDGE ( 'NONE', *, *, #526, .T. ) ;
#755 = MANIFOLD_SOLID_BREP ( 'Material-pendulo-1', #628 ) ;
#756 = CARTESIAN_POINT ( 'NONE',  ( 53.74252342217919676, 2.112397442501984468, -2.378812217928107486 ) ) ;
#757 = AXIS2_PLACEMENT_3D ( 'NONE', #785, #776, #573 ) ;
#758 = CYLINDRICAL_SURFACE ( 'NONE', #300, 0.2500000000000000555 ) ;
#759 = FACE_BOUND ( 'NONE', #841, .T. ) ;
#760 = ORIENTED_EDGE ( 'NONE', *, *, #847, .T. ) ;
#761 = CARTESIAN_POINT ( 'NONE',  ( 53.24999999999978684, 3.887681941185305065E-16, -3.174999999999999822 ) ) ;
#762 = EDGE_CURVE ( 'NONE', #252, #553, #709, .T. ) ;
#763 = CARTESIAN_POINT ( 'NONE',  ( 58.00000000000000000, 0.000000000000000000, -8.500000000000000000 ) ) ;
#764 = ADVANCED_FACE ( 'NONE', ( #130 ), #236, .T. ) ;
#765 = ORIENTED_EDGE ( 'NONE', *, *, #15, .F. ) ;
#766 = CARTESIAN_POINT ( 'NONE',  ( 53.66714517791523065, 1.954974909981864961, -2.510025606343468940 ) ) ;
#767 = DIRECTION ( 'NONE',  ( -0.7071067811865421326, 8.659560562354867531E-17, 0.7071067811865530128 ) ) ;
#768 = VERTEX_POINT ( 'NONE', #569 ) ;
#769 = DIRECTION ( 'NONE',  ( 0.000000000000000000, 0.000000000000000000, 1.000000000000000000 ) ) ;
#770 = EDGE_CURVE ( 'NONE', #906, #162, #415, .T. ) ;
#771 = LOCAL_TIME ( 15, 48, 3.000000000000000000, #744 ) ;
#772 = DIRECTION ( 'NONE',  ( 0.000000000000000000, 0.000000000000000000, 1.000000000000000000 ) ) ;
#773 = ORIENTED_EDGE ( 'NONE', *, *, #1, .T. ) ;
#774 = CIRCLE ( 'NONE', #463, 1.825000000000000178 ) ;
#775 = CARTESIAN_POINT ( 'NONE',  ( 57.05908355012194022, 0.5432383656220688417, -5.200000000000001066 ) ) ;
#776 = DIRECTION ( 'NONE',  ( -0.000000000000000000, -0.000000000000000000, 1.000000000000000000 ) ) ;
#777 = VERTEX_POINT ( 'NONE', #63 ) ;
#778 = CARTESIAN_POINT ( 'NONE',  ( 58.00000000000000000, 0.000000000000000000, -8.500000000000000000 ) ) ;
#779 = ADVANCED_FACE ( 'NONE', ( #139 ), #71, .F. ) ;
#780 = DIRECTION ( 'NONE',  ( -1.000000000000000000, 1.150681075144625457E-14, 0.000000000000000000 ) ) ;
#781 = VERTEX_POINT ( 'NONE', #502 ) ;
#782 = CARTESIAN_POINT ( 'NONE',  ( 53.24999999999978684, 5.817072295950191694E-16, -8.500000000000000000 ) ) ;
#783 = CARTESIAN_POINT ( 'NONE',  ( 62.25953920323588164, -2.108242973159548672, 2.382484029677735649 ) ) ;
#784 = VECTOR ( 'NONE', #531, 999.9999999999998863 ) ;
#785 = CARTESIAN_POINT ( 'NONE',  ( 58.00000000000000000, 0.000000000000000000, -7.599999999999992539 ) ) ;
#786 =( GEOMETRIC_REPRESENTATION_CONTEXT ( 3 ) GLOBAL_UNCERTAINTY_ASSIGNED_CONTEXT ( ( #452 ) ) GLOBAL_UNIT_ASSIGNED_CONTEXT ( ( #862, #229, #224 ) ) REPRESENTATION_CONTEXT ( 'NONE', 'WORKASPACE' ) );
#787 = ORIENTED_EDGE ( 'NONE', *, *, #696, .F. ) ;
#788 = CARTESIAN_POINT ( 'NONE',  ( 53.24999999999978684, -7.274068282174791500E-16, 3.174999999999999822 ) ) ;
#789 = DIRECTION ( 'NONE',  ( 1.000000000000000000, 0.000000000000000000, 0.000000000000000000 ) ) ;
#790 = ORIENTED_EDGE ( 'NONE', *, *, #847, .F. ) ;
#791 = CARTESIAN_POINT ( 'NONE',  ( 62.75000000000022027, 2.426872546859612839E-15, 3.174999999999999822 ) ) ;
#792 = ADVANCED_FACE ( 'NONE', ( #147 ), #702, .F. ) ;
#793 = DIRECTION ( 'NONE',  ( -0.000000000000000000, -0.000000000000000000, -1.000000000000000000 ) ) ;
#794 = CARTESIAN_POINT ( 'NONE',  ( 62.67878705690792174, 0.8458913712296789456, 3.067604748697452699 ) ) ;
#795 = CC_DESIGN_DATE_AND_TIME_ASSIGNMENT ( #717, #84, ( #22 ) ) ;
#796 = ORIENTED_EDGE ( 'NONE', *, *, #41, .F. ) ;
#797 = VECTOR ( 'NONE', #641, 1000.000000000000000 ) ;
#798 = CARTESIAN_POINT ( 'NONE',  ( 59.24764973081038022, 1.881455328868945148E-16, -7.500000000000000888 ) ) ;
#799 = ORIENTED_EDGE ( 'NONE', *, *, #271, .F. ) ;
#800 = LINE ( 'NONE', #166, #739 ) ;
#801 = DIRECTION ( 'NONE',  ( -1.000000000000000000, 0.000000000000000000, 0.000000000000000000 ) ) ;
#802 = ORIENTED_EDGE ( 'NONE', *, *, #105, .F. ) ;
#803 = PERSON_AND_ORGANIZATION ( #179, #857 ) ;
#804 = ORIENTED_EDGE ( 'NONE', *, *, #467, .T. ) ;
#805 = CARTESIAN_POINT ( 'NONE',  ( 56.95553015952864229, -0.6030249435565701033, -5.200000000000001066 ) ) ;
#806 = CARTESIAN_POINT ( 'NONE',  ( 53.51929461799478815, -1.625862938240363320, 2.758735548222845946 ) ) ;
#807 = PLANE ( 'NONE',  #582 ) ;
#808 = CARTESIAN_POINT ( 'NONE',  ( 58.00000000000000000, 0.000000000000000000, -8.500000000000000000 ) ) ;
#809 = AXIS2_PLACEMENT_3D ( 'NONE', #859, #18, #292 ) ;
#810 = CARTESIAN_POINT ( 'NONE',  ( 61.87691533276137790, -2.747801158703347735, -1.603466210317056939 ) ) ;
#811 = APPROVAL_PERSON_ORGANIZATION ( #375, #473, #97 ) ;
#812 = VECTOR ( 'NONE', #488, 1000.000000000000000 ) ;
#813 = DIRECTION ( 'NONE',  ( -5.753405375723203803E-15, -1.000000000000000000, 0.000000000000000000 ) ) ;
#814 = CARTESIAN_POINT ( 'NONE',  ( 62.63662256590706079, 1.050691636487879332, -3.003393393154933033 ) ) ;
#815 = ADVANCED_FACE ( 'NONE', ( #142 ), #840, .F. ) ;
#816 = EDGE_LOOP ( 'NONE', ( #661, #405, #898, #476 ) ) ;
#817 = CARTESIAN_POINT ( 'NONE',  ( 54.46688042437716604, 3.174833241929828631, 0.2195235381405921948 ) ) ;
#818 = EDGE_CURVE ( 'NONE', #906, #640, #638, .T. ) ;
#819 = APPROVAL_DATE_TIME ( #534, #545 ) ;
#820 = DIRECTION ( 'NONE',  ( 1.000000000000000000, 0.000000000000000000, -0.000000000000000000 ) ) ;
#821 = DIRECTION ( 'NONE',  ( -0.000000000000000000, -0.000000000000000000, -1.000000000000000000 ) ) ;
#822 = VERTEX_POINT ( 'NONE', #561 ) ;
#823 = CARTESIAN_POINT ( 'NONE',  ( 62.75000000000022027, 0.000000000000000000, -8.500000000000000000 ) ) ;
#824 = CARTESIAN_POINT ( 'NONE',  ( 0.000000000000000000, 0.000000000000000000, -5.200000000000001066 ) ) ;
#825 = LINE ( 'NONE', #564, #509 ) ;
#826 = ORIENTED_EDGE ( 'NONE', *, *, #630, .F. ) ;
#827 = CARTESIAN_POINT ( 'NONE',  ( 54.44753651216072399, -3.153680140294991219, -0.4249967332790641761 ) ) ;
#828 = CONICAL_SURFACE ( 'NONE', #525, 3.850000000000235012, 0.7853981633974463916 ) ;
#829 = LOCAL_TIME ( 15, 48, 3.000000000000000000, #169 ) ;
#830 = EDGE_CURVE ( 'NONE', #777, #672, #89, .T. ) ;
#831 = B_SPLINE_CURVE_WITH_KNOTS ( 'NONE', 3,
 ( #791, #153, #520, #794, #475, #413, #693, #897, #246, #341, #192, #118, #393, #266, #123, #615, #892, #183, #199, #557, #484, #621, #675, #43, #320, #256, #611, #814, #537, #409, #605, #547 ),
 .UNSPECIFIED., .F., .F.,
 ( 4, 2, 2, 2, 2, 2, 2, 2, 2, 2, 2, 2, 2, 2, 2, 4 ),
 ( 2.389769888326855952E-18, 0.0006414923116180204672, 0.001282984623236038116, 0.002565969246472063221, 0.003207461558090071978, 0.003848953869708080736, 0.004490446181326089928, 0.005131938492944098686, 0.005773430804562108311, 0.006414923116180117069, 0.007056415427798125826, 0.007697907739416134584, 0.008339400051034142475, 0.008980892362652152100, 0.009622384674270159990, 0.01026387698588816962 ),
 .UNSPECIFIED. ) ;
#832 = FACE_OUTER_BOUND ( 'NONE', #164, .T. ) ;
#833 = CARTESIAN_POINT ( 'NONE',  ( 63.54999999999999716, 0.000000000000000000, 0.000000000000000000 ) ) ;
#834 = ORIENTED_EDGE ( 'NONE', *, *, #158, .F. ) ;
#835 = CARTESIAN_POINT ( 'NONE',  ( 53.89345447813494161, -2.392618019215637659, 2.096732857133206895 ) ) ;
#836 = DIRECTION ( 'NONE',  ( 0.8660254037844417052, 0.4999999999999946154, 0.000000000000000000 ) ) ;
#837 = CARTESIAN_POINT ( 'NONE',  ( 58.00000000000000000, 0.000000000000000000, -8.500000000000000000 ) ) ;
#838 = ORIENTED_EDGE ( 'NONE', *, *, #41, .T. ) ;
#839 = CARTESIAN_POINT ( 'NONE',  ( 54.44618648907810154, -3.152158770993580106, 0.4349595027883059739 ) ) ;
#840 = CYLINDRICAL_SURFACE ( 'NONE', #388, 0.2499999999999988065 ) ;
#841 = EDGE_LOOP ( 'NONE', ( #514, #352 ) ) ;
#842 = LINE ( 'NONE', #782, #593 ) ;
#843 = CONICAL_SURFACE ( 'NONE', #493, 3.850000000000235012, 0.7853981633974463916 ) ;
#844 = DIRECTION ( 'NONE',  ( 0.000000000000000000, 0.000000000000000000, 1.000000000000000000 ) ) ;
#845 = VERTEX_POINT ( 'NONE', #282 ) ;
#846 = CARTESIAN_POINT ( 'NONE',  ( 56.95553015952865650, 0.6030249435565918636, -5.200000000000001066 ) ) ;
#847 = EDGE_CURVE ( 'NONE', #694, #597, #12, .T. ) ;
#848 = CARTESIAN_POINT ( 'NONE',  ( 62.75000000000022027, 0.000000000000000000, -7.599999999999992539 ) ) ;
#849 = DIRECTION ( 'NONE',  ( -1.000000000000000000, -0.000000000000000000, -0.000000000000000000 ) ) ;
#850 = CARTESIAN_POINT ( 'NONE',  ( 58.79446984047135771, -0.4586873762591758830, -5.200000000000001066 ) ) ;
#851 = ORIENTED_EDGE ( 'NONE', *, *, #441, .F. ) ;
#852 = CARTESIAN_POINT ( 'NONE',  ( 58.00000000000000000, 0.000000000000000000, -7.599999999999992539 ) ) ;
#853 = CARTESIAN_POINT ( 'NONE',  ( 61.68010261902866631, -3.004925988834332262, -1.045504112586340684 ) ) ;
#854 = AXIS2_PLACEMENT_3D ( 'NONE', #596, #371, #602 ) ;
#855 = EDGE_CURVE ( 'NONE', #672, #429, #489, .T. ) ;
#856 = SECURITY_CLASSIFICATION_LEVEL ( 'unclassified' ) ;
#857 = ORGANIZATION ( 'UNSPECIFIED', 'UNSPECIFIED', '' ) ;
#858 = VERTEX_POINT ( 'NONE', #347 ) ;
#859 = CARTESIAN_POINT ( 'NONE',  ( 58.00000000000000000, 0.000000000000000000, 119.6000000000000085 ) ) ;
#860 = VECTOR ( 'NONE', #126, 1000.000000000000000 ) ;
#861 = CARTESIAN_POINT ( 'NONE',  ( 61.62773395364089879, -3.066798644164300480, 0.8487240002602383093 ) ) ;
#862 =( LENGTH_UNIT ( ) NAMED_UNIT ( * ) SI_UNIT ( .MILLI., .METRE. ) );
#863 = EDGE_LOOP ( 'NONE', ( #685, #893 ) ) ;
#864 = CARTESIAN_POINT ( 'NONE',  ( 58.00000000000000000, 1.206049887113159746, -5.450000000000001066 ) ) ;
#865 = CC_DESIGN_PERSON_AND_ORGANIZATION_ASSIGNMENT ( #734, #302, ( #101 ) ) ;
#866 = CALENDAR_DATE ( 2026, 8, 4 ) ;
#867 = VERTEX_POINT ( 'NONE', #632 ) ;
#868 = CARTESIAN_POINT ( 'NONE',  ( 56.95553015952864229, -0.6030249435565701033, -5.450000000000001066 ) ) ;
#869 = CALENDAR_DATE ( 2026, 8, 4 ) ;
#870 = DIRECTION ( 'NONE',  ( -0.000000000000000000, -0.000000000000000000, -1.000000000000000000 ) ) ;
#871 = FACE_OUTER_BOUND ( 'NONE', #343, .T. ) ;
#872 = ADVANCED_BREP_SHAPE_REPRESENTATION ( 'S\X2\00f3\X0\lido4_Predeterminado_sldprt', ( #755, #177 ), #786 ) ;
#873 = DATE_AND_TIME ( #667, #829 ) ;
#874 = LINE ( 'NONE', #305, #656 ) ;
#875 = CARTESIAN_POINT ( 'NONE',  ( 14.10276507976464444, 24.42670564536014766, -5.200000000000001066 ) ) ;
#876 = ORIENTED_EDGE ( 'NONE', *, *, #66, .F. ) ;
#877 = ORIENTED_EDGE ( 'NONE', *, *, #720, .F. ) ;
#878 = PLANE ( 'NONE',  #624 ) ;
#879 = EDGE_CURVE ( 'NONE', #735, #527, #555, .T. ) ;
#880 = PLANE ( 'NONE',  #107 ) ;
#881 = EDGE_CURVE ( 'NONE', #115, #627, #420, .T. ) ;
#882 = CARTESIAN_POINT ( 'NONE',  ( 59.04446984047135771, 0.6030249435565773197, -5.450000000000001066 ) ) ;
#883 = ORIENTED_EDGE ( 'NONE', *, *, #423, .F. ) ;
#884 = AXIS2_PLACEMENT_3D ( 'NONE', #5, #704, #350 ) ;
#885 = DIRECTION ( 'NONE',  ( 0.8660254037844380415, -0.5000000000000013323, 0.000000000000000000 ) ) ;
#886 = DIRECTION ( 'NONE',  ( 0.5000000000000012212, 0.8660254037844379305, -0.000000000000000000 ) ) ;
#887 = AXIS2_PLACEMENT_3D ( 'NONE', #198, #108, #392 ) ;
#888 = DIRECTION ( 'NONE',  ( -1.000000000000000000, -0.000000000000000000, -0.000000000000000000 ) ) ;
#889 = ORIENTED_EDGE ( 'NONE', *, *, #205, .F. ) ;
#890 = CARTESIAN_POINT ( 'NONE',  ( 53.66511881015591712, 1.950456013196052885, 2.513505652599025808 ) ) ;
#891 = CARTESIAN_POINT ( 'NONE',  ( 58.79446984047135771, -3.382684188429637388E-13, -5.200000000000001066 ) ) ;
#892 = CARTESIAN_POINT ( 'NONE',  ( 61.55246348783929022, 3.153680140294991663, -0.4249967332790620667 ) ) ;
#893 = ORIENTED_EDGE ( 'NONE', *, *, #600, .T. ) ;
#894 = CARTESIAN_POINT ( 'NONE',  ( 54.46719686741261768, -3.175185362981502557, -0.2126662811457237789 ) ) ;
#895 = EDGE_CURVE ( 'NONE', #768, #184, #2, .T. ) ;
#896 = DIRECTION ( 'NONE',  ( -1.000000000000000000, 0.000000000000000000, -0.000000000000000000 ) ) ;
#897 = CARTESIAN_POINT ( 'NONE',  ( 62.10654552186509392, 2.392618019215636327, 2.096732857133206895 ) ) ;
#898 = ORIENTED_EDGE ( 'NONE', *, *, #3, .F. ) ;
#899 = CARTESIAN_POINT ( 'NONE',  ( 53.97265558969546362, 2.522177770491305093, -1.939106595687694279 ) ) ;
#900 = CIRCLE ( 'NONE', #211, 1.247649730810374002 ) ;
#901 = VECTOR ( 'NONE', #68, 1000.000000000000114 ) ;
#902 = VECTOR ( 'NONE', #591, 1000.000000000000000 ) ;
#903 = CARTESIAN_POINT ( 'NONE',  ( 14.10276507976401383, -24.42670564535977462, -5.450000000000001066 ) ) ;
#904 = DIRECTION ( 'NONE',  ( -0.5000000000000097700, -0.8660254037844330455, 0.000000000000000000 ) ) ;
#905 = EDGE_CURVE ( 'NONE', #13, #226, #344, .T. ) ;
#906 = VERTEX_POINT ( 'NONE', #521 ) ;
#907 = CARTESIAN_POINT ( 'NONE',  ( 53.97254671597980291, -2.521980678059633885, -1.939288027456107733 ) ) ;
#908 = CARTESIAN_POINT ( 'NONE',  ( 58.00000000000000000, 0.000000000000000000, 120.5000000000000000 ) ) ;
#909 = DIRECTION ( 'NONE',  ( 0.8660254037844380415, -0.5000000000000013323, 0.000000000000000000 ) ) ;
ENDSEC;
END-ISO-10303-21;
