ISO-10303-21;
HEADER;
FILE_DESCRIPTION (( 'STEP AP203' ),
    '1' );
FILE_NAME ('Sólido2_Predeterminado_sldprt.STEP',
    '2026-04-08T20:47:52',
    ( '' ),
    ( '' ),
    'SwSTEP 2.0',
    'SolidWorks 2025',
    '' );
FILE_SCHEMA (( 'CONFIG_CONTROL_DESIGN' ));
ENDSEC;

DATA;
#1 = DIRECTION ( 'NONE',  ( -1.000000000000000000, 0.000000000000000000, 0.000000000000000000 ) ) ;
#2 = CARTESIAN_POINT ( 'NONE',  ( 0.000000000000000000, 0.000000000000000000, -10.20000000000000107 ) ) ;
#3 = CC_DESIGN_DATE_AND_TIME_ASSIGNMENT ( #20, #25, ( #389 ) ) ;
#4 = APPROVAL_DATE_TIME ( #163, #140 ) ;
#5 =( LENGTH_UNIT ( ) NAMED_UNIT ( * ) SI_UNIT ( .MILLI., .METRE. ) );
#6 = AXIS2_PLACEMENT_3D ( 'NONE', #308, #18, #614 ) ;
#7 = DIRECTION ( 'NONE',  ( 0.000000000000000000, 0.000000000000000000, -1.000000000000000000 ) ) ;
#8 = COORDINATED_UNIVERSAL_TIME_OFFSET ( 5, 0, .BEHIND. ) ;
#9 = DIRECTION ( 'NONE',  ( -0.000000000000000000, -0.000000000000000000, -1.000000000000000000 ) ) ;
#10 = DIRECTION ( 'NONE',  ( -0.000000000000000000, -0.000000000000000000, 1.000000000000000000 ) ) ;
#11 = PERSON_AND_ORGANIZATION ( #195, #79 ) ;
#12 = LINE ( 'NONE', #556, #541 ) ;
#13 = EDGE_CURVE ( 'NONE', #436, #137, #591, .T. ) ;
#14 = CARTESIAN_POINT ( 'NONE',  ( 0.000000000000000000, 0.000000000000000000, -5.700000000000000178 ) ) ;
#15 = VERTEX_POINT ( 'NONE', #542 ) ;
#16 = CYLINDRICAL_SURFACE ( 'NONE', #141, 14.19999999999999929 ) ;
#17 = AXIS2_PLACEMENT_3D ( 'NONE', #166, #362, #124 ) ;
#18 = DIRECTION ( 'NONE',  ( 0.000000000000000000, 0.000000000000000000, -1.000000000000000000 ) ) ;
#19 = DIRECTION ( 'NONE',  ( -1.000000000000000000, 0.000000000000000000, 0.000000000000000000 ) ) ;
#20 = DATE_AND_TIME ( #31, #569 ) ;
#21 = DIRECTION ( 'NONE',  ( -1.000000000000000000, 0.000000000000000000, 0.000000000000000000 ) ) ;
#22 = ORIENTED_EDGE ( 'NONE', *, *, #570, .T. ) ;
#23 = EDGE_CURVE ( 'NONE', #114, #85, #305, .T. ) ;
#24 = CARTESIAN_POINT ( 'NONE',  ( 0.000000000000000000, 0.000000000000000000, -10.70000000000000107 ) ) ;
#25 = DATE_TIME_ROLE ( 'classification_date' ) ;
#26 = CIRCLE ( 'NONE', #75, 0.5000000000000004441 ) ;
#27 = EDGE_CURVE ( 'NONE', #646, #539, #398, .T. ) ;
#28 = DIRECTION ( 'NONE',  ( -0.000000000000000000, -0.000000000000000000, 1.000000000000000000 ) ) ;
#29 = VERTEX_POINT ( 'NONE', #634 ) ;
#30 = CARTESIAN_POINT ( 'NONE',  ( 0.000000000000000000, 0.000000000000000000, -13.20000000000000107 ) ) ;
#31 = CALENDAR_DATE ( 2026, 8, 4 ) ;
#32 = CARTESIAN_POINT ( 'NONE',  ( 0.000000000000000000, 0.000000000000000000, 0.000000000000000000 ) ) ;
#33 = DIRECTION ( 'NONE',  ( -1.000000000000000000, 0.000000000000000000, 0.000000000000000000 ) ) ;
#34 = ORIENTED_EDGE ( 'NONE', *, *, #354, .T. ) ;
#35 = DIRECTION ( 'NONE',  ( 0.000000000000000000, 0.000000000000000000, -1.000000000000000000 ) ) ;
#36 = DIRECTION ( 'NONE',  ( 0.000000000000000000, 0.000000000000000000, -1.000000000000000000 ) ) ;
#37 = AXIS2_PLACEMENT_3D ( 'NONE', #412, #417, #420 ) ;
#38 = EDGE_LOOP ( 'NONE', ( #197, #243, #572, #22 ) ) ;
#39 = ORIENTED_EDGE ( 'NONE', *, *, #66, .T. ) ;
#40 = AXIS2_PLACEMENT_3D ( 'NONE', #447, #505, #361 ) ;
#41 = ORIENTED_EDGE ( 'NONE', *, *, #214, .T. ) ;
#42 = EDGE_CURVE ( 'NONE', #424, #427, #367, .T. ) ;
#43 = EDGE_CURVE ( 'NONE', #15, #185, #107, .T. ) ;
#44 = ORIENTED_EDGE ( 'NONE', *, *, #596, .T. ) ;
#45 = DIRECTION ( 'NONE',  ( -0.000000000000000000, -1.000000000000000000, -0.000000000000000000 ) ) ;
#46 = AXIS2_PLACEMENT_3D ( 'NONE', #528, #381, #277 ) ;
#47 = EDGE_CURVE ( 'NONE', #85, #137, #352, .T. ) ;
#48 = DIRECTION ( 'NONE',  ( -0.000000000000000000, -0.000000000000000000, 1.000000000000000000 ) ) ;
#49 = DATE_AND_TIME ( #494, #644 ) ;
#50 = CARTESIAN_POINT ( 'NONE',  ( 5.599999999999999645, 6.858022075225177566E-16, -13.20000000000000107 ) ) ;
#51 = AXIS2_PLACEMENT_3D ( 'NONE', #576, #222, #76 ) ;
#52 = CARTESIAN_POINT ( 'NONE',  ( 0.000000000000000000, 0.000000000000000000, -10.70000000000000107 ) ) ;
#53 = FACE_OUTER_BOUND ( 'NONE', #90, .T. ) ;
#54 = DIRECTION ( 'NONE',  ( 0.000000000000000000, 0.000000000000000000, -1.000000000000000000 ) ) ;
#55 = LINE ( 'NONE', #298, #226 ) ;
#56 = EDGE_CURVE ( 'NONE', #427, #539, #544, .T. ) ;
#57 = DIRECTION ( 'NONE',  ( -1.000000000000000000, 0.000000000000000000, -0.000000000000000000 ) ) ;
#58 = CARTESIAN_POINT ( 'NONE',  ( -13.99999999999999822, 1.714505518806294046E-15, -1.899999999999999911 ) ) ;
#59 = VECTOR ( 'NONE', #224, 1000.000000000000000 ) ;
#60 = MECHANICAL_CONTEXT ( 'NONE', #357, 'mechanical' ) ;
#61 = CARTESIAN_POINT ( 'NONE',  ( 0.000000000000000000, 0.000000000000000000, -10.70000000000000107 ) ) ;
#62 = FACE_OUTER_BOUND ( 'NONE', #630, .T. ) ;
#63 = ORIENTED_EDGE ( 'NONE', *, *, #359, .T. ) ;
#64 = CC_DESIGN_APPROVAL ( #242, ( #389 ) ) ;
#65 = CARTESIAN_POINT ( 'NONE',  ( 5.599999999999999645, 6.858022075225177566E-16, -7.200000000000001954 ) ) ;
#66 = EDGE_CURVE ( 'NONE', #377, #114, #95, .T. ) ;
#67 = AXIS2_PLACEMENT_3D ( 'NONE', #316, #579, #33 ) ;
#68 = CARTESIAN_POINT ( 'NONE',  ( 13.99999999999999822, 0.000000000000000000, 0.000000000000000000 ) ) ;
#69 = ORIENTED_EDGE ( 'NONE', *, *, #27, .F. ) ;
#70 = DIRECTION ( 'NONE',  ( -1.000000000000000000, 0.000000000000000000, 0.000000000000000000 ) ) ;
#71 = CC_DESIGN_DATE_AND_TIME_ASSIGNMENT ( #296, #151, ( #552 ) ) ;
#72 = CARTESIAN_POINT ( 'NONE',  ( 0.000000000000000000, 0.000000000000000000, 0.000000000000000000 ) ) ;
#73 = CARTESIAN_POINT ( 'NONE',  ( 0.000000000000000000, 0.000000000000000000, -11.20000000000000107 ) ) ;
#74 = AXIS2_PLACEMENT_3D ( 'NONE', #340, #35, #543 ) ;
#75 = AXIS2_PLACEMENT_3D ( 'NONE', #393, #649, #600 ) ;
#76 = DIRECTION ( 'NONE',  ( 1.000000000000000000, 0.000000000000000000, 0.000000000000000000 ) ) ;
#77 = ORIENTED_EDGE ( 'NONE', *, *, #56, .T. ) ;
#78 = DIRECTION ( 'NONE',  ( 1.000000000000000000, 0.000000000000000000, 0.000000000000000000 ) ) ;
#79 = ORGANIZATION ( 'UNSPECIFIED', 'UNSPECIFIED', '' ) ;
#80 = DIRECTION ( 'NONE',  ( 0.000000000000000000, 0.000000000000000000, -1.000000000000000000 ) ) ;
#81 = AXIS2_PLACEMENT_3D ( 'NONE', #635, #624, #19 ) ;
#82 = ORIENTED_EDGE ( 'NONE', *, *, #214, .F. ) ;
#83 = DIRECTION ( 'NONE',  ( 0.000000000000000000, 0.000000000000000000, -1.000000000000000000 ) ) ;
#84 = ORIENTED_EDGE ( 'NONE', *, *, #643, .F. ) ;
#85 = VERTEX_POINT ( 'NONE', #648 ) ;
#86 = CIRCLE ( 'NONE', #252, 14.19999999999999929 ) ;
#87 = VERTEX_POINT ( 'NONE', #499 ) ;
#88 = TOROIDAL_SURFACE ( 'NONE', #209, 11.90000000000000036, 1.000000000000000000 ) ;
#89 = ORIENTED_EDGE ( 'NONE', *, *, #194, .T. ) ;
#90 = EDGE_LOOP ( 'NONE', ( #470, #125, #578, #363 ) ) ;
#91 = AXIS2_PLACEMENT_3D ( 'NONE', #416, #223, #122 ) ;
#92 = ADVANCED_FACE ( 'NONE', ( #204 ), #213, .T. ) ;
#93 = ORIENTED_EDGE ( 'NONE', *, *, #255, .T. ) ;
#94 = CC_DESIGN_PERSON_AND_ORGANIZATION_ASSIGNMENT ( #105, #303, ( #445 ) ) ;
#95 = LINE ( 'NONE', #149, #482 ) ;
#96 = ADVANCED_FACE ( 'NONE', ( #401 ), #610, .T. ) ;
#97 = CARTESIAN_POINT ( 'NONE',  ( -14.09999999999999964, 1.726751986797767601E-15, -5.700000000000000178 ) ) ;
#98 = VECTOR ( 'NONE', #232, 1000.000000000000000 ) ;
#99 = PERSON_AND_ORGANIZATION ( #195, #79 ) ;
#100 = DIRECTION ( 'NONE',  ( -0.000000000000000000, -0.000000000000000000, 1.000000000000000000 ) ) ;
#101 = FACE_OUTER_BOUND ( 'NONE', #640, .T. ) ;
#102 = CARTESIAN_POINT ( 'NONE',  ( 0.000000000000000000, 0.000000000000000000, -12.20000000000000284 ) ) ;
#103 = AXIS2_PLACEMENT_3D ( 'NONE', #457, #511, #376 ) ;
#104 = PRODUCT ( 'S\X2\00f3\X0\lido2_Predeterminado_sldprt', 'S\X2\00f3\X0\lido2_Predeterminado_sldprt', '', ( #60 ) ) ;
#105 = PERSON_AND_ORGANIZATION ( #195, #79 ) ;
#106 = CARTESIAN_POINT ( 'NONE',  ( 0.000000000000000000, 0.000000000000000000, -7.200000000000001954 ) ) ;
#107 = LINE ( 'NONE', #349, #413 ) ;
#108 = APPROVAL_PERSON_ORGANIZATION ( #154, #140, #345 ) ;
#109 = ADVANCED_FACE ( 'NONE', ( #53 ), #161, .T. ) ;
#110 = COORDINATED_UNIVERSAL_TIME_OFFSET ( 5, 0, .BEHIND. ) ;
#111 = DIRECTION ( 'NONE',  ( 0.000000000000000000, 0.000000000000000000, -1.000000000000000000 ) ) ;
#112 = DIRECTION ( 'NONE',  ( -0.000000000000000000, -0.000000000000000000, 1.000000000000000000 ) ) ;
#113 = DIRECTION ( 'NONE',  ( -0.000000000000000000, -0.000000000000000000, 1.000000000000000000 ) ) ;
#114 = VERTEX_POINT ( 'NONE', #206 ) ;
#115 = AXIS2_PLACEMENT_3D ( 'NONE', #323, #310, #561 ) ;
#116 = CARTESIAN_POINT ( 'NONE',  ( 0.000000000000000000, 0.000000000000000000, -13.20000000000000107 ) ) ;
#117 = APPROVAL_DATE_TIME ( #575, #242 ) ;
#118 = EDGE_CURVE ( 'NONE', #377, #532, #341, .T. ) ;
#119 = DIRECTION ( 'NONE',  ( 1.000000000000000000, 0.000000000000000000, 0.000000000000000000 ) ) ;
#120 = FACE_OUTER_BOUND ( 'NONE', #38, .T. ) ;
#121 = ORIENTED_EDGE ( 'NONE', *, *, #156, .T. ) ;
#122 = DIRECTION ( 'NONE',  ( -1.000000000000000000, 0.000000000000000000, 0.000000000000000000 ) ) ;
#123 = TOROIDAL_SURFACE ( 'NONE', #46, 13.40000000000000213, 0.5000000000000000000 ) ;
#124 = DIRECTION ( 'NONE',  ( -1.000000000000000000, 0.000000000000000000, 0.000000000000000000 ) ) ;
#125 = ORIENTED_EDGE ( 'NONE', *, *, #168, .T. ) ;
#126 = DIRECTION ( 'NONE',  ( 0.000000000000000000, 0.000000000000000000, -1.000000000000000000 ) ) ;
#127 = PLANE ( 'NONE',  #285 ) ;
#128 = ORIENTED_EDGE ( 'NONE', *, *, #247, .T. ) ;
#129 = FACE_OUTER_BOUND ( 'NONE', #228, .T. ) ;
#130 = COORDINATED_UNIVERSAL_TIME_OFFSET ( 5, 0, .BEHIND. ) ;
#131 = ORIENTED_EDGE ( 'NONE', *, *, #643, .T. ) ;
#132 = EDGE_CURVE ( 'NONE', #532, #377, #441, .T. ) ;
#133 = CARTESIAN_POINT ( 'NONE',  ( -14.19999999999999929, 0.000000000000000000, -10.20000000000000107 ) ) ;
#134 = PERSON_AND_ORGANIZATION ( #195, #79 ) ;
#135 = CIRCLE ( 'NONE', #81, 12.90000000000000213 ) ;
#136 = CARTESIAN_POINT ( 'NONE',  ( 0.000000000000000000, 0.000000000000000000, -10.70000000000000107 ) ) ;
#137 = VERTEX_POINT ( 'NONE', #448 ) ;
#138 = EDGE_CURVE ( 'NONE', #582, #201, #425, .T. ) ;
#139 = DIRECTION ( 'NONE',  ( -1.000000000000000000, 0.000000000000000000, 0.000000000000000000 ) ) ;
#140 = APPROVAL ( #207, 'UNSPECIFIED' ) ;
#141 = AXIS2_PLACEMENT_3D ( 'NONE', #52, #612, #304 ) ;
#142 = VERTEX_POINT ( 'NONE', #598 ) ;
#143 = ORIENTED_EDGE ( 'NONE', *, *, #460, .T. ) ;
#144 = ORIENTED_EDGE ( 'NONE', *, *, #194, .F. ) ;
#145 = EDGE_LOOP ( 'NONE', ( #521, #41, #390, #63 ) ) ;
#146 = VECTOR ( 'NONE', #566, 1000.000000000000000 ) ;
#147 = DIRECTION ( 'NONE',  ( 0.000000000000000000, 0.000000000000000000, -1.000000000000000000 ) ) ;
#148 =( GEOMETRIC_REPRESENTATION_CONTEXT ( 3 ) GLOBAL_UNCERTAINTY_ASSIGNED_CONTEXT ( ( #636 ) ) GLOBAL_UNIT_ASSIGNED_CONTEXT ( ( #5, #351, #355 ) ) REPRESENTATION_CONTEXT ( 'NONE', 'WORKASPACE' ) );
#149 = CARTESIAN_POINT ( 'NONE',  ( -12.90000000000000213, 1.579794370900085936E-15, -13.20000000000000107 ) ) ;
#150 = CIRCLE ( 'NONE', #347, 14.19999999999999929 ) ;
#151 = DATE_TIME_ROLE ( 'creation_date' ) ;
#152 = DIRECTION ( 'NONE',  ( 0.000000000000000000, 0.000000000000000000, -1.000000000000000000 ) ) ;
#153 = DIRECTION ( 'NONE',  ( -0.000000000000000000, -0.000000000000000000, -1.000000000000000000 ) ) ;
#154 = PERSON_AND_ORGANIZATION ( #195, #79 ) ;
#155 = DIRECTION ( 'NONE',  ( -1.000000000000000000, -1.224646799147353454E-16, 0.000000000000000000 ) ) ;
#156 = EDGE_CURVE ( 'NONE', #380, #142, #245, .T. ) ;
#157 = DIRECTION ( 'NONE',  ( -1.000000000000000000, 0.000000000000000000, 0.000000000000000000 ) ) ;
#158 = CIRCLE ( 'NONE', #261, 13.99999999999999822 ) ;
#159 = MANIFOLD_SOLID_BREP ( 'Material-soporte_enc-1', #597 ) ;
#160 = EDGE_CURVE ( 'NONE', #172, #185, #205, .T. ) ;
#161 = CYLINDRICAL_SURFACE ( 'NONE', #496, 14.19999999999999929 ) ;
#162 = LOCAL_TIME ( 15, 47, 52.00000000000000000, #8 ) ;
#163 = DATE_AND_TIME ( #450, #500 ) ;
#164 = TOROIDAL_SURFACE ( 'NONE', #587, 11.90000000000000036, 1.000000000000000000 ) ;
#165 = CARTESIAN_POINT ( 'NONE',  ( 13.69999999999999929, 1.708382284810557762E-15, -10.70000000000000107 ) ) ;
#166 = CARTESIAN_POINT ( 'NONE',  ( 0.000000000000000000, 0.000000000000000000, -5.700000000000000178 ) ) ;
#167 = ORIENTED_EDGE ( 'NONE', *, *, #577, .T. ) ;
#168 = EDGE_CURVE ( 'NONE', #427, #87, #55, .T. ) ;
#169 = COORDINATED_UNIVERSAL_TIME_OFFSET ( 5, 0, .BEHIND. ) ;
#170 = CARTESIAN_POINT ( 'NONE',  ( -11.90000000000000036, 0.000000000000000000, -13.20000000000000107 ) ) ;
#171 = DIRECTION ( 'NONE',  ( -1.000000000000000000, 0.000000000000000000, 0.000000000000000000 ) ) ;
#172 = VERTEX_POINT ( 'NONE', #258 ) ;
#173 = AXIS2_PLACEMENT_3D ( 'NONE', #217, #403, #253 ) ;
#174 = DIRECTION ( 'NONE',  ( -1.000000000000000000, 0.000000000000000000, -0.000000000000000000 ) ) ;
#175 = DIRECTION ( 'NONE',  ( 0.000000000000000000, 0.000000000000000000, -1.000000000000000000 ) ) ;
#176 = VERTEX_POINT ( 'NONE', #353 ) ;
#177 = FACE_OUTER_BOUND ( 'NONE', #284, .T. ) ;
#178 = AXIS2_PLACEMENT_3D ( 'NONE', #631, #568, #627 ) ;
#179 = CYLINDRICAL_SURFACE ( 'NONE', #51, 13.99999999999999822 ) ;
#180 = ORIENTED_EDGE ( 'NONE', *, *, #392, .F. ) ;
#181 = CARTESIAN_POINT ( 'NONE',  ( -13.40000000000000213, 0.000000000000000000, -10.70000000000000107 ) ) ;
#182 = PERSON_AND_ORGANIZATION_ROLE ( 'classification_officer' ) ;
#183 = DIRECTION ( 'NONE',  ( -0.000000000000000000, -1.000000000000000000, -0.000000000000000000 ) ) ;
#184 = EDGE_CURVE ( 'NONE', #588, #582, #546, .T. ) ;
#185 = VERTEX_POINT ( 'NONE', #555 ) ;
#186 = DIRECTION ( 'NONE',  ( 0.000000000000000000, 0.000000000000000000, -1.000000000000000000 ) ) ;
#187 = PERSON_AND_ORGANIZATION ( #195, #79 ) ;
#188 = VERTEX_POINT ( 'NONE', #97 ) ;
#189 = ORIENTED_EDGE ( 'NONE', *, *, #132, .F. ) ;
#190 = AXIS2_PLACEMENT_3D ( 'NONE', #502, #152, #395 ) ;
#191 = ORIENTED_EDGE ( 'NONE', *, *, #283, .F. ) ;
#192 = CIRCLE ( 'NONE', #397, 11.90000000000000036 ) ;
#193 = ORIENTED_EDGE ( 'NONE', *, *, #359, .F. ) ;
#194 = EDGE_CURVE ( 'NONE', #114, #436, #26, .T. ) ;
#195 = PERSON ( 'UNSPECIFIED', 'UNSPECIFIED', 'UNSPECIFIED', ('UNSPECIFIED'), ('UNSPECIFIED'), ('UNSPECIFIED') ) ;
#196 = CC_DESIGN_PERSON_AND_ORGANIZATION_ASSIGNMENT ( #99, #455, ( #552 ) ) ;
#197 = ORIENTED_EDGE ( 'NONE', *, *, #292, .F. ) ;
#198 = PRODUCT_RELATED_PRODUCT_CATEGORY ( 'detail', '', ( #104 ) ) ;
#199 = ORIENTED_EDGE ( 'NONE', *, *, #13, .T. ) ;
#200 = CC_DESIGN_SECURITY_CLASSIFICATION ( #389, ( #445 ) ) ;
#201 = VERTEX_POINT ( 'NONE', #50 ) ;
#202 = EDGE_LOOP ( 'NONE', ( #131, #93 ) ) ;
#203 = CIRCLE ( 'NONE', #613, 13.69999999999999929 ) ;
#204 = FACE_OUTER_BOUND ( 'NONE', #202, .T. ) ;
#205 = CIRCLE ( 'NONE', #590, 14.09999999999999964 ) ;
#206 = CARTESIAN_POINT ( 'NONE',  ( -12.90000000000000213, 1.579794370900085936E-15, -11.20000000000000107 ) ) ;
#207 = APPROVAL_STATUS ( 'not_yet_approved' ) ;
#208 = DIRECTION ( 'NONE',  ( 0.000000000000000000, 0.000000000000000000, -1.000000000000000000 ) ) ;
#209 = AXIS2_PLACEMENT_3D ( 'NONE', #407, #54, #348 ) ;
#210 = DIRECTION ( 'NONE',  ( -1.224646799147353207E-16, 1.000000000000000000, 0.000000000000000000 ) ) ;
#211 = CIRCLE ( 'NONE', #17, 14.19999999999999929 ) ;
#212 = DIRECTION ( 'NONE',  ( 1.000000000000000000, 0.000000000000000000, 0.000000000000000000 ) ) ;
#213 = PLANE ( 'NONE',  #173 ) ;
#214 = EDGE_CURVE ( 'NONE', #427, #424, #86, .T. ) ;
#215 = CALENDAR_DATE ( 2026, 8, 4 ) ;
#216 = CARTESIAN_POINT ( 'NONE',  ( 0.000000000000000000, 0.000000000000000000, -13.20000000000000107 ) ) ;
#217 = CARTESIAN_POINT ( 'NONE',  ( 0.000000000000000000, 0.000000000000000000, -7.200000000000001954 ) ) ;
#218 = DIRECTION ( 'NONE',  ( 0.000000000000000000, 0.000000000000000000, -1.000000000000000000 ) ) ;
#219 = ADVANCED_FACE ( 'NONE', ( #405 ), #385, .T. ) ;
#220 = CARTESIAN_POINT ( 'NONE',  ( -14.09999999999999964, 1.726751986797767601E-15, -5.700000000000000178 ) ) ;
#221 = CIRCLE ( 'NONE', #492, 5.599999999999999645 ) ;
#222 = DIRECTION ( 'NONE',  ( -0.000000000000000000, -0.000000000000000000, 1.000000000000000000 ) ) ;
#223 = DIRECTION ( 'NONE',  ( -0.000000000000000000, -0.000000000000000000, -1.000000000000000000 ) ) ;
#224 = DIRECTION ( 'NONE',  ( -0.000000000000000000, -0.000000000000000000, 1.000000000000000000 ) ) ;
#225 = ORIENTED_EDGE ( 'NONE', *, *, #255, .F. ) ;
#226 = VECTOR ( 'NONE', #342, 1000.000000000000000 ) ;
#227 = DIRECTION ( 'NONE',  ( 1.000000000000000000, 0.000000000000000000, 0.000000000000000000 ) ) ;
#228 = EDGE_LOOP ( 'NONE', ( #191, #428, #331, #121 ) ) ;
#229 = FACE_BOUND ( 'NONE', #337, .T. ) ;
#230 = ADVANCED_FACE ( 'NONE', ( #319 ), #127, .F. ) ;
#231 = CARTESIAN_POINT ( 'NONE',  ( 0.000000000000000000, 0.000000000000000000, -13.20000000000000107 ) ) ;
#232 = DIRECTION ( 'NONE',  ( -0.000000000000000000, -0.000000000000000000, -1.000000000000000000 ) ) ;
#233 = DIRECTION ( 'NONE',  ( -1.000000000000000000, 0.000000000000000000, 0.000000000000000000 ) ) ;
#234 = FACE_OUTER_BOUND ( 'NONE', #584, .T. ) ;
#235 = AXIS2_PLACEMENT_3D ( 'NONE', #504, #210, #493 ) ;
#236 = EDGE_CURVE ( 'NONE', #435, #29, #510, .T. ) ;
#237 = ORIENTED_EDGE ( 'NONE', *, *, #118, .F. ) ;
#238 = CC_DESIGN_APPROVAL ( #140, ( #552 ) ) ;
#239 = TOROIDAL_SURFACE ( 'NONE', #249, 13.69999999999999929, 0.5000000000000000000 ) ;
#240 = ORIENTED_EDGE ( 'NONE', *, *, #370, .T. ) ;
#241 = DIRECTION ( 'NONE',  ( -0.000000000000000000, -0.000000000000000000, 1.000000000000000000 ) ) ;
#242 = APPROVAL ( #480, 'UNSPECIFIED' ) ;
#243 = ORIENTED_EDGE ( 'NONE', *, *, #354, .F. ) ;
#244 = ORIENTED_EDGE ( 'NONE', *, *, #274, .T. ) ;
#245 = CIRCLE ( 'NONE', #325, 13.99999999999999822 ) ;
#246 = ORIENTED_EDGE ( 'NONE', *, *, #487, .T. ) ;
#247 = EDGE_CURVE ( 'NONE', #188, #15, #554, .T. ) ;
#248 = DIRECTION ( 'NONE',  ( -1.000000000000000000, 0.000000000000000000, 0.000000000000000000 ) ) ;
#249 = AXIS2_PLACEMENT_3D ( 'NONE', #374, #126, #321 ) ;
#250 = CARTESIAN_POINT ( 'NONE',  ( -13.69999999999999929, 0.000000000000000000, -10.20000000000000107 ) ) ;
#251 = PLANE ( 'NONE',  #449 ) ;
#252 = AXIS2_PLACEMENT_3D ( 'NONE', #2, #113, #21 ) ;
#253 = DIRECTION ( 'NONE',  ( -1.000000000000000000, 0.000000000000000000, -0.000000000000000000 ) ) ;
#254 = DIRECTION ( 'NONE',  ( -1.000000000000000000, 0.000000000000000000, -0.000000000000000000 ) ) ;
#255 = EDGE_CURVE ( 'NONE', #382, #588, #469, .T. ) ;
#256 = DIRECTION ( 'NONE',  ( 1.000000000000000000, 0.000000000000000000, 0.000000000000000000 ) ) ;
#257 = PLANE ( 'NONE',  #547 ) ;
#258 = CARTESIAN_POINT ( 'NONE',  ( -14.09999999999999964, 1.726751986797767601E-15, -1.899999999999999911 ) ) ;
#259 = DIRECTION ( 'NONE',  ( -1.000000000000000000, 0.000000000000000000, 0.000000000000000000 ) ) ;
#260 = LINE ( 'NONE', #523, #642 ) ;
#261 = AXIS2_PLACEMENT_3D ( 'NONE', #32, #111, #270 ) ;
#262 = FACE_OUTER_BOUND ( 'NONE', #145, .T. ) ;
#263 = DIRECTION ( 'NONE',  ( 0.000000000000000000, 0.000000000000000000, -1.000000000000000000 ) ) ;
#264 = EDGE_LOOP ( 'NONE', ( #645, #237, #333, #291 ) ) ;
#265 = DIRECTION ( 'NONE',  ( -0.000000000000000000, -0.000000000000000000, 1.000000000000000000 ) ) ;
#266 = TOROIDAL_SURFACE ( 'NONE', #518, 13.40000000000000213, 0.5000000000000000000 ) ;
#267 = CARTESIAN_POINT ( 'NONE',  ( 5.599999999999999645, 6.858022075225177566E-16, -7.200000000000001954 ) ) ;
#268 = ORIENTED_EDGE ( 'NONE', *, *, #292, .T. ) ;
#269 = FACE_OUTER_BOUND ( 'NONE', #466, .T. ) ;
#270 = DIRECTION ( 'NONE',  ( -1.000000000000000000, 0.000000000000000000, 0.000000000000000000 ) ) ;
#271 = EDGE_CURVE ( 'NONE', #435, #380, #260, .T. ) ;
#272 = AXIS2_PLACEMENT_3D ( 'NONE', #14, #275, #474 ) ;
#273 = CARTESIAN_POINT ( 'NONE',  ( 0.000000000000000000, 0.000000000000000000, -1.899999999999999911 ) ) ;
#274 = EDGE_CURVE ( 'NONE', #142, #380, #158, .T. ) ;
#275 = DIRECTION ( 'NONE',  ( 0.000000000000000000, 0.000000000000000000, -1.000000000000000000 ) ) ;
#276 = ORIENTED_EDGE ( 'NONE', *, *, #156, .F. ) ;
#277 = DIRECTION ( 'NONE',  ( -1.000000000000000000, 0.000000000000000000, 0.000000000000000000 ) ) ;
#278 = AXIS2_PLACEMENT_3D ( 'NONE', #329, #527, #78 ) ;
#279 = ORIENTED_EDGE ( 'NONE', *, *, #339, .F. ) ;
#280 = ORIENTED_EDGE ( 'NONE', *, *, #392, .T. ) ;
#281 = CYLINDRICAL_SURFACE ( 'NONE', #91, 5.599999999999999645 ) ;
#282 = APPROVAL_ROLE ( '' ) ;
#283 = EDGE_CURVE ( 'NONE', #29, #142, #371, .T. ) ;
#284 = EDGE_LOOP ( 'NONE', ( #639, #286, #89, #328 ) ) ;
#285 = AXIS2_PLACEMENT_3D ( 'NONE', #72, #175, #366 ) ;
#286 = ORIENTED_EDGE ( 'NONE', *, *, #23, .F. ) ;
#287 = CIRCLE ( 'NONE', #40, 13.40000000000000213 ) ;
#288 = ORIENTED_EDGE ( 'NONE', *, *, #596, .F. ) ;
#289 = EDGE_LOOP ( 'NONE', ( #595, #589, #430, #335 ) ) ;
#290 = ORIENTED_EDGE ( 'NONE', *, *, #160, .F. ) ;
#291 = ORIENTED_EDGE ( 'NONE', *, *, #370, .F. ) ;
#292 = EDGE_CURVE ( 'NONE', #188, #172, #468, .T. ) ;
#293 = DIRECTION ( 'NONE',  ( -1.000000000000000000, 0.000000000000000000, 0.000000000000000000 ) ) ;
#294 = CARTESIAN_POINT ( 'NONE',  ( 0.000000000000000000, 0.000000000000000000, -10.70000000000000107 ) ) ;
#295 = CIRCLE ( 'NONE', #557, 0.5000000000000004441 ) ;
#296 = DATE_AND_TIME ( #215, #162 ) ;
#297 = ADVANCED_FACE ( 'NONE', ( #62 ), #179, .T. ) ;
#298 = CARTESIAN_POINT ( 'NONE',  ( -14.19999999999999929, 1.738998454789241549E-15, -10.70000000000000107 ) ) ;
#299 = CC_DESIGN_PERSON_AND_ORGANIZATION_ASSIGNMENT ( #406, #608, ( #104 ) ) ;
#300 = DIRECTION ( 'NONE',  ( 0.000000000000000000, 0.000000000000000000, -1.000000000000000000 ) ) ;
#301 = AXIS2_PLACEMENT_3D ( 'NONE', #250, #45, #551 ) ;
#302 = DIRECTION ( 'NONE',  ( -0.000000000000000000, -0.000000000000000000, 1.000000000000000000 ) ) ;
#303 = PERSON_AND_ORGANIZATION_ROLE ( 'design_supplier' ) ;
#304 = DIRECTION ( 'NONE',  ( 1.000000000000000000, 0.000000000000000000, 0.000000000000000000 ) ) ;
#305 = CIRCLE ( 'NONE', #74, 12.90000000000000213 ) ;
#306 = CARTESIAN_POINT ( 'NONE',  ( 0.000000000000000000, 0.000000000000000000, -1.899999999999999911 ) ) ;
#307 = CARTESIAN_POINT ( 'NONE',  ( -5.599999999999999645, 0.000000000000000000, -7.200000000000001954 ) ) ;
#308 = CARTESIAN_POINT ( 'NONE',  ( 0.000000000000000000, 0.000000000000000000, -5.700000000000000178 ) ) ;
#309 = FACE_BOUND ( 'NONE', #478, .T. ) ;
#310 = DIRECTION ( 'NONE',  ( 0.000000000000000000, 0.000000000000000000, -1.000000000000000000 ) ) ;
#311 = ORIENTED_EDGE ( 'NONE', *, *, #132, .T. ) ;
#312 = FACE_OUTER_BOUND ( 'NONE', #490, .T. ) ;
#313 = CARTESIAN_POINT ( 'NONE',  ( 0.000000000000000000, 0.000000000000000000, -1.899999999999999911 ) ) ;
#314 = CYLINDRICAL_SURFACE ( 'NONE', #360, 14.09999999999999964 ) ;
#315 = ORIENTED_EDGE ( 'NONE', *, *, #274, .F. ) ;
#316 = CARTESIAN_POINT ( 'NONE',  ( 0.000000000000000000, 0.000000000000000000, -1.899999999999999911 ) ) ;
#317 = CALENDAR_DATE ( 2026, 8, 4 ) ;
#318 = AXIS2_PLACEMENT_3D ( 'NONE', #313, #365, #259 ) ;
#319 = FACE_OUTER_BOUND ( 'NONE', #387, .T. ) ;
#320 = ORIENTED_EDGE ( 'NONE', *, *, #23, .T. ) ;
#321 = DIRECTION ( 'NONE',  ( -1.000000000000000000, 0.000000000000000000, 0.000000000000000000 ) ) ;
#322 = ADVANCED_FACE ( 'NONE', ( #520 ), #622, .T. ) ;
#323 = CARTESIAN_POINT ( 'NONE',  ( 0.000000000000000000, 0.000000000000000000, -10.20000000000000107 ) ) ;
#324 = ORIENTED_EDGE ( 'NONE', *, *, #601, .T. ) ;
#325 = AXIS2_PLACEMENT_3D ( 'NONE', #549, #147, #439 ) ;
#326 = FACE_OUTER_BOUND ( 'NONE', #536, .T. ) ;
#327 = LINE ( 'NONE', #65, #98 ) ;
#328 = ORIENTED_EDGE ( 'NONE', *, *, #577, .F. ) ;
#329 = CARTESIAN_POINT ( 'NONE',  ( 0.000000000000000000, 0.000000000000000000, -13.20000000000000107 ) ) ;
#330 = AXIS2_PLACEMENT_3D ( 'NONE', #273, #112, #119 ) ;
#331 = ORIENTED_EDGE ( 'NONE', *, *, #271, .T. ) ;
#332 = DIRECTION ( 'NONE',  ( 0.000000000000000000, 0.000000000000000000, -1.000000000000000000 ) ) ;
#333 = ORIENTED_EDGE ( 'NONE', *, *, #339, .T. ) ;
#334 = CIRCLE ( 'NONE', #651, 1.000000000000000888 ) ;
#335 = ORIENTED_EDGE ( 'NONE', *, *, #56, .F. ) ;
#336 = ORIENTED_EDGE ( 'NONE', *, *, #13, .F. ) ;
#337 = EDGE_LOOP ( 'NONE', ( #34, #128 ) ) ;
#338 = CARTESIAN_POINT ( 'NONE',  ( 0.000000000000000000, 0.000000000000000000, -10.70000000000000107 ) ) ;
#339 = EDGE_CURVE ( 'NONE', #377, #623, #334, .T. ) ;
#340 = CARTESIAN_POINT ( 'NONE',  ( 0.000000000000000000, 0.000000000000000000, -11.20000000000000107 ) ) ;
#341 = CIRCLE ( 'NONE', #524, 12.90000000000000213 ) ;
#342 = DIRECTION ( 'NONE',  ( -0.000000000000000000, -0.000000000000000000, 1.000000000000000000 ) ) ;
#343 = ADVANCED_FACE ( 'NONE', ( #120 ), #314, .T. ) ;
#344 = AXIS2_PLACEMENT_3D ( 'NONE', #440, #446, #212 ) ;
#345 = APPROVAL_ROLE ( '' ) ;
#346 = DIRECTION ( 'NONE',  ( -0.000000000000000000, -0.000000000000000000, 1.000000000000000000 ) ) ;
#347 = AXIS2_PLACEMENT_3D ( 'NONE', #465, #80, #379 ) ;
#348 = DIRECTION ( 'NONE',  ( -1.000000000000000000, 0.000000000000000000, 0.000000000000000000 ) ) ;
#349 = CARTESIAN_POINT ( 'NONE',  ( 14.09999999999999964, 0.000000000000000000, -5.700000000000000178 ) ) ;
#350 = PERSON_AND_ORGANIZATION_ROLE ( 'creator' ) ;
#351 =( NAMED_UNIT ( * ) PLANE_ANGLE_UNIT ( ) SI_UNIT ( $, .RADIAN. ) );
#352 = CIRCLE ( 'NONE', #235, 0.5000000000000004441 ) ;
#353 = CARTESIAN_POINT ( 'NONE',  ( 11.90000000000000036, 1.518562030942718164E-15, -13.20000000000000107 ) ) ;
#354 = EDGE_CURVE ( 'NONE', #15, #188, #463, .T. ) ;
#355 =( NAMED_UNIT ( * ) SI_UNIT ( $, .STERADIAN. ) SOLID_ANGLE_UNIT ( ) );
#356 = DIRECTION ( 'NONE',  ( -1.000000000000000000, 0.000000000000000000, 0.000000000000000000 ) ) ;
#357 = APPLICATION_CONTEXT ( 'configuration controlled 3d designs of mechanical parts and assemblies' ) ;
#358 = CARTESIAN_POINT ( 'NONE',  ( 0.000000000000000000, 0.000000000000000000, -12.20000000000000284 ) ) ;
#359 = EDGE_CURVE ( 'NONE', #421, #87, #211, .T. ) ;
#360 = AXIS2_PLACEMENT_3D ( 'NONE', #461, #558, #571 ) ;
#361 = DIRECTION ( 'NONE',  ( -1.000000000000000000, 0.000000000000000000, 0.000000000000000000 ) ) ;
#362 = DIRECTION ( 'NONE',  ( 0.000000000000000000, 0.000000000000000000, -1.000000000000000000 ) ) ;
#363 = ORIENTED_EDGE ( 'NONE', *, *, #402, .F. ) ;
#364 = DIRECTION ( 'NONE',  ( -1.000000000000000000, 0.000000000000000000, -0.000000000000000000 ) ) ;
#365 = DIRECTION ( 'NONE',  ( 0.000000000000000000, 0.000000000000000000, -1.000000000000000000 ) ) ;
#366 = DIRECTION ( 'NONE',  ( -1.000000000000000000, 0.000000000000000000, -0.000000000000000000 ) ) ;
#367 = CIRCLE ( 'NONE', #599, 14.19999999999999929 ) ;
#368 = EDGE_LOOP ( 'NONE', ( #199, #167 ) ) ;
#369 = CARTESIAN_POINT ( 'NONE',  ( -13.69999999999999929, 0.000000000000000000, -10.70000000000000107 ) ) ;
#370 = EDGE_CURVE ( 'NONE', #176, #623, #192, .T. ) ;
#371 = LINE ( 'NONE', #58, #59 ) ;
#372 = ORIENTED_EDGE ( 'NONE', *, *, #27, .T. ) ;
#373 = APPROVAL ( #507, 'UNSPECIFIED' ) ;
#374 = CARTESIAN_POINT ( 'NONE',  ( 0.000000000000000000, 0.000000000000000000, -10.20000000000000107 ) ) ;
#375 = AXIS2_PLACEMENT_3D ( 'NONE', #479, #36, #364 ) ;
#376 = DIRECTION ( 'NONE',  ( -1.000000000000000000, 0.000000000000000000, 0.000000000000000000 ) ) ;
#377 = VERTEX_POINT ( 'NONE', #516 ) ;
#378 = DIRECTION ( 'NONE',  ( -1.000000000000000000, 0.000000000000000000, 0.000000000000000000 ) ) ;
#379 = DIRECTION ( 'NONE',  ( -1.000000000000000000, 0.000000000000000000, 0.000000000000000000 ) ) ;
#380 = VERTEX_POINT ( 'NONE', #68 ) ;
#381 = DIRECTION ( 'NONE',  ( 0.000000000000000000, 0.000000000000000000, -1.000000000000000000 ) ) ;
#382 = VERTEX_POINT ( 'NONE', #267 ) ;
#383 = EDGE_LOOP ( 'NONE', ( #180, #84, #517, #525 ) ) ;
#384 = ORIENTED_EDGE ( 'NONE', *, *, #43, .F. ) ;
#385 = TOROIDAL_SURFACE ( 'NONE', #115, 13.69999999999999929, 0.5000000000000000000 ) ;
#386 = EDGE_CURVE ( 'NONE', #87, #421, #150, .T. ) ;
#387 = EDGE_LOOP ( 'NONE', ( #276, #315 ) ) ;
#388 = ADVANCED_FACE ( 'NONE', ( #581 ), #123, .F. ) ;
#389 = SECURITY_CLASSIFICATION ( '', '', #501 ) ;
#390 = ORIENTED_EDGE ( 'NONE', *, *, #402, .T. ) ;
#391 = DIRECTION ( 'NONE',  ( -0.000000000000000000, -0.000000000000000000, 1.000000000000000000 ) ) ;
#392 = EDGE_CURVE ( 'NONE', #382, #201, #327, .T. ) ;
#393 = CARTESIAN_POINT ( 'NONE',  ( -13.40000000000000213, 0.000000000000000000, -11.20000000000000107 ) ) ;
#394 = PERSON_AND_ORGANIZATION ( #195, #79 ) ;
#395 = DIRECTION ( 'NONE',  ( -1.000000000000000000, 0.000000000000000000, 0.000000000000000000 ) ) ;
#396 = DIRECTION ( 'NONE',  ( -1.000000000000000000, 0.000000000000000000, 0.000000000000000000 ) ) ;
#397 = AXIS2_PLACEMENT_3D ( 'NONE', #408, #618, #171 ) ;
#398 = CIRCLE ( 'NONE', #632, 13.69999999999999929 ) ;
#399 = COORDINATED_UNIVERSAL_TIME_OFFSET ( 5, 0, .BEHIND. ) ;
#400 = CARTESIAN_POINT ( 'NONE',  ( 0.000000000000000000, 0.000000000000000000, -1.899999999999999911 ) ) ;
#401 = FACE_OUTER_BOUND ( 'NONE', #486, .T. ) ;
#402 = EDGE_CURVE ( 'NONE', #424, #421, #519, .T. ) ;
#403 = DIRECTION ( 'NONE',  ( 0.000000000000000000, 0.000000000000000000, -1.000000000000000000 ) ) ;
#404 = CARTESIAN_POINT ( 'NONE',  ( 13.69999999999999929, 1.677766114831873778E-15, -10.20000000000000107 ) ) ;
#405 = FACE_OUTER_BOUND ( 'NONE', #289, .T. ) ;
#406 = PERSON_AND_ORGANIZATION ( #195, #79 ) ;
#407 = CARTESIAN_POINT ( 'NONE',  ( 0.000000000000000000, 0.000000000000000000, -12.20000000000000284 ) ) ;
#408 = CARTESIAN_POINT ( 'NONE',  ( 0.000000000000000000, 0.000000000000000000, -13.20000000000000107 ) ) ;
#409 = ORIENTED_EDGE ( 'NONE', *, *, #118, .T. ) ;
#410 = EDGE_CURVE ( 'NONE', #532, #176, #488, .T. ) ;
#411 = APPLICATION_CONTEXT ( 'configuration controlled 3d designs of mechanical parts and assemblies' ) ;
#412 = CARTESIAN_POINT ( 'NONE',  ( 0.000000000000000000, 0.000000000000000000, -7.200000000000001954 ) ) ;
#413 = VECTOR ( 'NONE', #10, 1000.000000000000000 ) ;
#414 = ORIENTED_EDGE ( 'NONE', *, *, #271, .F. ) ;
#415 = CC_DESIGN_PERSON_AND_ORGANIZATION_ASSIGNMENT ( #187, #182, ( #389 ) ) ;
#416 = CARTESIAN_POINT ( 'NONE',  ( 0.000000000000000000, 0.000000000000000000, -7.200000000000001954 ) ) ;
#417 = DIRECTION ( 'NONE',  ( 0.000000000000000000, 0.000000000000000000, -1.000000000000000000 ) ) ;
#418 = ORIENTED_EDGE ( 'NONE', *, *, #184, .F. ) ;
#419 = CYLINDRICAL_SURFACE ( 'NONE', #278, 12.90000000000000213 ) ;
#420 = DIRECTION ( 'NONE',  ( -1.000000000000000000, 0.000000000000000000, 0.000000000000000000 ) ) ;
#421 = VERTEX_POINT ( 'NONE', #513 ) ;
#422 = DIRECTION ( 'NONE',  ( -1.000000000000000000, 0.000000000000000000, 0.000000000000000000 ) ) ;
#423 = EDGE_LOOP ( 'NONE', ( #189, #458, #641, #279 ) ) ;
#424 = VERTEX_POINT ( 'NONE', #464 ) ;
#425 = CIRCLE ( 'NONE', #434, 5.599999999999999645 ) ;
#426 = CARTESIAN_POINT ( 'NONE',  ( 12.90000000000000213, 1.579794370900085541E-15, -12.20000000000000284 ) ) ;
#427 = VERTEX_POINT ( 'NONE', #133 ) ;
#428 = ORIENTED_EDGE ( 'NONE', *, *, #236, .F. ) ;
#429 = VECTOR ( 'NONE', #265, 1000.000000000000000 ) ;
#430 = ORIENTED_EDGE ( 'NONE', *, *, #601, .F. ) ;
#431 = ORIENTED_EDGE ( 'NONE', *, *, #626, .F. ) ;
#432 = CC_DESIGN_PERSON_AND_ORGANIZATION_ASSIGNMENT ( #394, #350, ( #445 ) ) ;
#433 = EDGE_LOOP ( 'NONE', ( #311, #39, #320, #288 ) ) ;
#434 = AXIS2_PLACEMENT_3D ( 'NONE', #604, #491, #248 ) ;
#435 = VERTEX_POINT ( 'NONE', #583 ) ;
#436 = VERTEX_POINT ( 'NONE', #181 ) ;
#437 = AXIS2_PLACEMENT_3D ( 'NONE', #106, #9, #1 ) ;
#438 = DIRECTION ( 'NONE',  ( -1.000000000000000000, 0.000000000000000000, 0.000000000000000000 ) ) ;
#439 = DIRECTION ( 'NONE',  ( -1.000000000000000000, 0.000000000000000000, 0.000000000000000000 ) ) ;
#440 = CARTESIAN_POINT ( 'NONE',  ( 0.000000000000000000, 0.000000000000000000, 0.000000000000000000 ) ) ;
#441 = CIRCLE ( 'NONE', #565, 12.90000000000000213 ) ;
#442 = FACE_OUTER_BOUND ( 'NONE', #423, .T. ) ;
#443 = ADVANCED_BREP_SHAPE_REPRESENTATION ( 'S\X2\00f3\X0\lido2_Predeterminado_sldprt', ( #159, #344 ), #148 ) ;
#444 = DIRECTION ( 'NONE',  ( 1.000000000000000000, 0.000000000000000000, 0.000000000000000000 ) ) ;
#445 = PRODUCT_DEFINITION_FORMATION_WITH_SPECIFIED_SOURCE ( 'ANY', '', #104, .NOT_KNOWN. ) ;
#446 = DIRECTION ( 'NONE',  ( 0.000000000000000000, 0.000000000000000000, 1.000000000000000000 ) ) ;
#447 = CARTESIAN_POINT ( 'NONE',  ( 0.000000000000000000, 0.000000000000000000, -10.70000000000000107 ) ) ;
#448 = CARTESIAN_POINT ( 'NONE',  ( 13.40000000000000213, 1.641026710857453510E-15, -10.70000000000000107 ) ) ;
#449 = AXIS2_PLACEMENT_3D ( 'NONE', #400, #208, #57 ) ;
#450 = CALENDAR_DATE ( 2026, 8, 4 ) ;
#451 = ADVANCED_FACE ( 'NONE', ( #326 ), #419, .T. ) ;
#452 = FACE_OUTER_BOUND ( 'NONE', #383, .T. ) ;
#453 = DIRECTION ( 'NONE',  ( -0.000000000000000000, -0.000000000000000000, 1.000000000000000000 ) ) ;
#454 = EDGE_CURVE ( 'NONE', #623, #176, #548, .T. ) ;
#455 = PERSON_AND_ORGANIZATION_ROLE ( 'creator' ) ;
#456 = FACE_OUTER_BOUND ( 'NONE', #562, .T. ) ;
#457 = CARTESIAN_POINT ( 'NONE',  ( 0.000000000000000000, 0.000000000000000000, -1.899999999999999911 ) ) ;
#458 = ORIENTED_EDGE ( 'NONE', *, *, #410, .T. ) ;
#459 = CARTESIAN_POINT ( 'NONE',  ( 0.000000000000000000, 0.000000000000000000, -12.20000000000000284 ) ) ;
#460 = EDGE_CURVE ( 'NONE', #85, #114, #135, .T. ) ;
#461 = CARTESIAN_POINT ( 'NONE',  ( 0.000000000000000000, 0.000000000000000000, -5.700000000000000178 ) ) ;
#462 = ORIENTED_EDGE ( 'NONE', *, *, #236, .T. ) ;
#463 = CIRCLE ( 'NONE', #6, 14.09999999999999964 ) ;
#464 = CARTESIAN_POINT ( 'NONE',  ( 14.19999999999999929, 1.738998454789241549E-15, -10.20000000000000107 ) ) ;
#465 = CARTESIAN_POINT ( 'NONE',  ( 0.000000000000000000, 0.000000000000000000, -5.700000000000000178 ) ) ;
#466 = EDGE_LOOP ( 'NONE', ( #193, #489 ) ) ;
#467 = CARTESIAN_POINT ( 'NONE',  ( 14.19999999999999929, 0.000000000000000000, -10.70000000000000107 ) ) ;
#468 = LINE ( 'NONE', #220, #146 ) ;
#469 = CIRCLE ( 'NONE', #37, 5.599999999999999645 ) ;
#470 = ORIENTED_EDGE ( 'NONE', *, *, #42, .T. ) ;
#471 = PLANE ( 'NONE',  #375 ) ;
#472 = AXIS2_PLACEMENT_3D ( 'NONE', #338, #241, #139 ) ;
#473 = LOCAL_TIME ( 15, 47, 52.00000000000000000, #169 ) ;
#474 = DIRECTION ( 'NONE',  ( -1.000000000000000000, 0.000000000000000000, 0.000000000000000000 ) ) ;
#475 = ORIENTED_EDGE ( 'NONE', *, *, #487, .F. ) ;
#476 = FACE_OUTER_BOUND ( 'NONE', #615, .T. ) ;
#477 = ADVANCED_FACE ( 'NONE', ( #476 ), #281, .F. ) ;
#478 = EDGE_LOOP ( 'NONE', ( #462, #481 ) ) ;
#479 = CARTESIAN_POINT ( 'NONE',  ( 0.000000000000000000, 0.000000000000000000, -5.700000000000000178 ) ) ;
#480 = APPROVAL_STATUS ( 'not_yet_approved' ) ;
#481 = ORIENTED_EDGE ( 'NONE', *, *, #503, .T. ) ;
#482 = VECTOR ( 'NONE', #100, 1000.000000000000000 ) ;
#483 = ORIENTED_EDGE ( 'NONE', *, *, #460, .F. ) ;
#484 = ADVANCED_FACE ( 'NONE', ( #177 ), #266, .F. ) ;
#485 = CIRCLE ( 'NONE', #190, 5.599999999999999645 ) ;
#486 = EDGE_LOOP ( 'NONE', ( #585, #268, #619, #384 ) ) ;
#487 = EDGE_CURVE ( 'NONE', #201, #582, #221, .T. ) ;
#488 = CIRCLE ( 'NONE', #178, 1.000000000000000888 ) ;
#489 = ORIENTED_EDGE ( 'NONE', *, *, #386, .F. ) ;
#490 = EDGE_LOOP ( 'NONE', ( #431, #82, #77, #69 ) ) ;
#491 = DIRECTION ( 'NONE',  ( 0.000000000000000000, 0.000000000000000000, -1.000000000000000000 ) ) ;
#492 = AXIS2_PLACEMENT_3D ( 'NONE', #30, #83, #422 ) ;
#493 = DIRECTION ( 'NONE',  ( -1.000000000000000000, -1.224646799147353454E-16, 0.000000000000000000 ) ) ;
#494 = CALENDAR_DATE ( 2026, 8, 4 ) ;
#495 = CARTESIAN_POINT ( 'NONE',  ( -5.599999999999999645, 0.000000000000000000, -7.200000000000001954 ) ) ;
#496 = AXIS2_PLACEMENT_3D ( 'NONE', #294, #48, #256 ) ;
#497 = DIRECTION ( 'NONE',  ( -0.000000000000000000, -0.000000000000000000, 1.000000000000000000 ) ) ;
#498 = PRODUCT_DEFINITION_SHAPE ( 'NONE', 'NONE',  #552 ) ;
#499 = CARTESIAN_POINT ( 'NONE',  ( -14.19999999999999929, 1.738998454789241549E-15, -5.700000000000000178 ) ) ;
#500 = LOCAL_TIME ( 15, 47, 52.00000000000000000, #110 ) ;
#501 = SECURITY_CLASSIFICATION_LEVEL ( 'unclassified' ) ;
#502 = CARTESIAN_POINT ( 'NONE',  ( 0.000000000000000000, 0.000000000000000000, -7.200000000000001954 ) ) ;
#503 = EDGE_CURVE ( 'NONE', #29, #435, #573, .T. ) ;
#504 = CARTESIAN_POINT ( 'NONE',  ( 13.40000000000000213, 1.641026710857453510E-15, -11.20000000000000107 ) ) ;
#505 = DIRECTION ( 'NONE',  ( -0.000000000000000000, -0.000000000000000000, 1.000000000000000000 ) ) ;
#506 = CARTESIAN_POINT ( 'NONE',  ( -11.90000000000000036, 0.000000000000000000, -12.20000000000000284 ) ) ;
#507 = APPROVAL_STATUS ( 'not_yet_approved' ) ;
#508 = ADVANCED_FACE ( 'NONE', ( #229, #269 ), #471, .F. ) ;
#509 = CARTESIAN_POINT ( 'NONE',  ( -5.599999999999999645, 0.000000000000000000, -13.20000000000000107 ) ) ;
#510 = CIRCLE ( 'NONE', #103, 13.99999999999999822 ) ;
#511 = DIRECTION ( 'NONE',  ( 0.000000000000000000, 0.000000000000000000, -1.000000000000000000 ) ) ;
#512 = ORIENTED_EDGE ( 'NONE', *, *, #283, .T. ) ;
#513 = CARTESIAN_POINT ( 'NONE',  ( 14.19999999999999929, 0.000000000000000000, -5.700000000000000178 ) ) ;
#514 = CC_DESIGN_APPROVAL ( #373, ( #445 ) ) ;
#515 = DIRECTION ( 'NONE',  ( 0.000000000000000000, 0.000000000000000000, -1.000000000000000000 ) ) ;
#516 = CARTESIAN_POINT ( 'NONE',  ( -12.90000000000000213, 0.000000000000000000, -12.20000000000000284 ) ) ;
#517 = ORIENTED_EDGE ( 'NONE', *, *, #184, .T. ) ;
#518 = AXIS2_PLACEMENT_3D ( 'NONE', #73, #530, #70 ) ;
#519 = LINE ( 'NONE', #467, #429 ) ;
#520 = FACE_OUTER_BOUND ( 'NONE', #433, .T. ) ;
#521 = ORIENTED_EDGE ( 'NONE', *, *, #168, .F. ) ;
#522 = CYLINDRICAL_SURFACE ( 'NONE', #330, 13.99999999999999822 ) ;
#523 = CARTESIAN_POINT ( 'NONE',  ( 13.99999999999999822, 0.000000000000000000, -1.899999999999999911 ) ) ;
#524 = AXIS2_PLACEMENT_3D ( 'NONE', #358, #391, #293 ) ;
#525 = ORIENTED_EDGE ( 'NONE', *, *, #138, .T. ) ;
#526 = ADVANCED_FACE ( 'NONE', ( #574, #234 ), #563, .T. ) ;
#527 = DIRECTION ( 'NONE',  ( -0.000000000000000000, -0.000000000000000000, 1.000000000000000000 ) ) ;
#528 = CARTESIAN_POINT ( 'NONE',  ( 0.000000000000000000, 0.000000000000000000, -11.20000000000000107 ) ) ;
#529 = EDGE_LOOP ( 'NONE', ( #483, #540, #336, #144 ) ) ;
#530 = DIRECTION ( 'NONE',  ( 0.000000000000000000, 0.000000000000000000, -1.000000000000000000 ) ) ;
#531 = AXIS2_PLACEMENT_3D ( 'NONE', #116, #186, #378 ) ;
#532 = VERTEX_POINT ( 'NONE', #426 ) ;
#533 = CARTESIAN_POINT ( 'NONE',  ( 0.000000000000000000, 0.000000000000000000, -10.20000000000000107 ) ) ;
#534 = ADVANCED_FACE ( 'NONE', ( #312 ), #239, .T. ) ;
#535 = DESIGN_CONTEXT ( 'detailed design', #411, 'design' ) ;
#536 = EDGE_LOOP ( 'NONE', ( #593, #409, #44, #143 ) ) ;
#537 = ORIENTED_EDGE ( 'NONE', *, *, #454, .T. ) ;
#538 = VECTOR ( 'NONE', #153, 1000.000000000000000 ) ;
#539 = VERTEX_POINT ( 'NONE', #369 ) ;
#540 = ORIENTED_EDGE ( 'NONE', *, *, #47, .T. ) ;
#541 = VECTOR ( 'NONE', #497, 1000.000000000000000 ) ;
#542 = CARTESIAN_POINT ( 'NONE',  ( 14.09999999999999964, 0.000000000000000000, -5.700000000000000178 ) ) ;
#543 = DIRECTION ( 'NONE',  ( -1.000000000000000000, 0.000000000000000000, 0.000000000000000000 ) ) ;
#544 = CIRCLE ( 'NONE', #301, 0.5000000000000004441 ) ;
#545 = ADVANCED_FACE ( 'NONE', ( #129 ), #522, .T. ) ;
#546 = LINE ( 'NONE', #495, #538 ) ;
#547 = AXIS2_PLACEMENT_3D ( 'NONE', #216, #300, #254 ) ;
#548 = CIRCLE ( 'NONE', #531, 11.90000000000000036 ) ;
#549 = CARTESIAN_POINT ( 'NONE',  ( 0.000000000000000000, 0.000000000000000000, 0.000000000000000000 ) ) ;
#550 = FACE_BOUND ( 'NONE', #637, .T. ) ;
#551 = DIRECTION ( 'NONE',  ( 0.000000000000000000, 0.000000000000000000, -1.000000000000000000 ) ) ;
#552 = PRODUCT_DEFINITION ( 'UNKNOWN', '', #445, #535 ) ;
#553 = APPLICATION_PROTOCOL_DEFINITION ( 'international standard', 'config_control_design', 1994, #357 ) ;
#554 = CIRCLE ( 'NONE', #272, 14.09999999999999964 ) ;
#555 = CARTESIAN_POINT ( 'NONE',  ( 14.09999999999999964, 0.000000000000000000, -1.899999999999999911 ) ) ;
#556 = CARTESIAN_POINT ( 'NONE',  ( 12.90000000000000213, 0.000000000000000000, -13.20000000000000107 ) ) ;
#557 = AXIS2_PLACEMENT_3D ( 'NONE', #404, #560, #155 ) ;
#558 = DIRECTION ( 'NONE',  ( -0.000000000000000000, -0.000000000000000000, 1.000000000000000000 ) ) ;
#559 = APPROVAL_ROLE ( '' ) ;
#560 = DIRECTION ( 'NONE',  ( -1.224646799147353207E-16, 1.000000000000000000, 0.000000000000000000 ) ) ;
#561 = DIRECTION ( 'NONE',  ( -1.000000000000000000, 0.000000000000000000, 0.000000000000000000 ) ) ;
#562 = EDGE_LOOP ( 'NONE', ( #567, #290 ) ) ;
#563 = PLANE ( 'NONE',  #638 ) ;
#564 = DIRECTION ( 'NONE',  ( -1.000000000000000000, 0.000000000000000000, 0.000000000000000000 ) ) ;
#565 = AXIS2_PLACEMENT_3D ( 'NONE', #102, #346, #396 ) ;
#566 = DIRECTION ( 'NONE',  ( -0.000000000000000000, -0.000000000000000000, 1.000000000000000000 ) ) ;
#567 = ORIENTED_EDGE ( 'NONE', *, *, #570, .F. ) ;
#568 = DIRECTION ( 'NONE',  ( -1.224646799147353207E-16, 1.000000000000000000, 0.000000000000000000 ) ) ;
#569 = LOCAL_TIME ( 15, 47, 52.00000000000000000, #130 ) ;
#570 = EDGE_CURVE ( 'NONE', #185, #172, #603, .T. ) ;
#571 = DIRECTION ( 'NONE',  ( 1.000000000000000000, 0.000000000000000000, 0.000000000000000000 ) ) ;
#572 = ORIENTED_EDGE ( 'NONE', *, *, #43, .T. ) ;
#573 = CIRCLE ( 'NONE', #67, 13.99999999999999822 ) ;
#574 = FACE_BOUND ( 'NONE', #368, .T. ) ;
#575 = DATE_AND_TIME ( #317, #473 ) ;
#576 = CARTESIAN_POINT ( 'NONE',  ( 0.000000000000000000, 0.000000000000000000, -1.899999999999999911 ) ) ;
#577 = EDGE_CURVE ( 'NONE', #137, #436, #287, .T. ) ;
#578 = ORIENTED_EDGE ( 'NONE', *, *, #386, .T. ) ;
#579 = DIRECTION ( 'NONE',  ( 0.000000000000000000, 0.000000000000000000, -1.000000000000000000 ) ) ;
#580 = ADVANCED_FACE ( 'NONE', ( #309, #456 ), #251, .F. ) ;
#581 = FACE_OUTER_BOUND ( 'NONE', #529, .T. ) ;
#582 = VERTEX_POINT ( 'NONE', #509 ) ;
#583 = CARTESIAN_POINT ( 'NONE',  ( 13.99999999999999822, 0.000000000000000000, -1.899999999999999911 ) ) ;
#584 = EDGE_LOOP ( 'NONE', ( #324, #372 ) ) ;
#585 = ORIENTED_EDGE ( 'NONE', *, *, #247, .F. ) ;
#586 = ADVANCED_FACE ( 'NONE', ( #452 ), #602, .F. ) ;
#587 = AXIS2_PLACEMENT_3D ( 'NONE', #459, #218, #564 ) ;
#588 = VERTEX_POINT ( 'NONE', #307 ) ;
#589 = ORIENTED_EDGE ( 'NONE', *, *, #626, .T. ) ;
#590 = AXIS2_PLACEMENT_3D ( 'NONE', #306, #7, #157 ) ;
#591 = CIRCLE ( 'NONE', #472, 13.40000000000000213 ) ;
#592 = APPROVAL_PERSON_ORGANIZATION ( #134, #242, #282 ) ;
#593 = ORIENTED_EDGE ( 'NONE', *, *, #66, .F. ) ;
#594 = ORIENTED_EDGE ( 'NONE', *, *, #503, .F. ) ;
#595 = ORIENTED_EDGE ( 'NONE', *, *, #42, .F. ) ;
#596 = EDGE_CURVE ( 'NONE', #532, #85, #12, .T. ) ;
#597 = CLOSED_SHELL ( 'NONE', ( #96, #109, #219, #388, #322, #647, #477, #297, #92, #586, #650, #605, #451, #484, #526, #534, #633, #508, #343, #580, #545, #230 ) ) ;
#598 = CARTESIAN_POINT ( 'NONE',  ( -13.99999999999999822, 1.714505518806294046E-15, 0.000000000000000000 ) ) ;
#599 = AXIS2_PLACEMENT_3D ( 'NONE', #533, #453, #438 ) ;
#600 = DIRECTION ( 'NONE',  ( 0.000000000000000000, 0.000000000000000000, -1.000000000000000000 ) ) ;
#601 = EDGE_CURVE ( 'NONE', #539, #646, #203, .T. ) ;
#602 = CYLINDRICAL_SURFACE ( 'NONE', #437, 5.599999999999999645 ) ;
#603 = CIRCLE ( 'NONE', #318, 14.09999999999999964 ) ;
#604 = CARTESIAN_POINT ( 'NONE',  ( 0.000000000000000000, 0.000000000000000000, -13.20000000000000107 ) ) ;
#605 = ADVANCED_FACE ( 'NONE', ( #617 ), #164, .T. ) ;
#606 = APPROVAL_DATE_TIME ( #49, #373 ) ;
#607 = CARTESIAN_POINT ( 'NONE',  ( 0.000000000000000000, 0.000000000000000000, -5.700000000000000178 ) ) ;
#608 = PERSON_AND_ORGANIZATION_ROLE ( 'design_owner' ) ;
#609 = AXIS2_PLACEMENT_3D ( 'NONE', #607, #302, #444 ) ;
#610 = CYLINDRICAL_SURFACE ( 'NONE', #609, 14.09999999999999964 ) ;
#611 = APPROVAL_PERSON_ORGANIZATION ( #11, #373, #559 ) ;
#612 = DIRECTION ( 'NONE',  ( -0.000000000000000000, -0.000000000000000000, 1.000000000000000000 ) ) ;
#613 = AXIS2_PLACEMENT_3D ( 'NONE', #61, #515, #356 ) ;
#614 = DIRECTION ( 'NONE',  ( -1.000000000000000000, 0.000000000000000000, 0.000000000000000000 ) ) ;
#615 = EDGE_LOOP ( 'NONE', ( #225, #280, #246, #418 ) ) ;
#616 = APPLICATION_PROTOCOL_DEFINITION ( 'international standard', 'config_control_design', 1994, #411 ) ;
#617 = FACE_OUTER_BOUND ( 'NONE', #264, .T. ) ;
#618 = DIRECTION ( 'NONE',  ( 0.000000000000000000, 0.000000000000000000, -1.000000000000000000 ) ) ;
#619 = ORIENTED_EDGE ( 'NONE', *, *, #160, .T. ) ;
#620 = DIRECTION ( 'NONE',  ( 0.000000000000000000, 0.000000000000000000, -1.000000000000000000 ) ) ;
#621 = AXIS2_PLACEMENT_3D ( 'NONE', #231, #28, #227 ) ;
#622 = CYLINDRICAL_SURFACE ( 'NONE', #621, 12.90000000000000213 ) ;
#623 = VERTEX_POINT ( 'NONE', #170 ) ;
#624 = DIRECTION ( 'NONE',  ( 0.000000000000000000, 0.000000000000000000, -1.000000000000000000 ) ) ;
#625 = ORIENTED_EDGE ( 'NONE', *, *, #138, .F. ) ;
#626 = EDGE_CURVE ( 'NONE', #424, #646, #295, .T. ) ;
#627 = DIRECTION ( 'NONE',  ( -1.000000000000000000, -1.224646799147351482E-16, 0.000000000000000000 ) ) ;
#628 = SHAPE_DEFINITION_REPRESENTATION ( #498, #443 ) ;
#629 = DIRECTION ( 'NONE',  ( -0.000000000000000000, -0.000000000000000000, 1.000000000000000000 ) ) ;
#630 = EDGE_LOOP ( 'NONE', ( #594, #512, #244, #414 ) ) ;
#631 = CARTESIAN_POINT ( 'NONE',  ( 11.90000000000000036, 1.457329690985350393E-15, -12.20000000000000284 ) ) ;
#632 = AXIS2_PLACEMENT_3D ( 'NONE', #136, #332, #233 ) ;
#633 = ADVANCED_FACE ( 'NONE', ( #262 ), #16, .T. ) ;
#634 = CARTESIAN_POINT ( 'NONE',  ( -13.99999999999999822, 1.714505518806294046E-15, -1.899999999999999911 ) ) ;
#635 = CARTESIAN_POINT ( 'NONE',  ( 0.000000000000000000, 0.000000000000000000, -11.20000000000000107 ) ) ;
#636 = UNCERTAINTY_MEASURE_WITH_UNIT (LENGTH_MEASURE( 1.000000000000000082E-05 ), #5, 'distance_accuracy_value', 'NONE');
#637 = EDGE_LOOP ( 'NONE', ( #625, #475 ) ) ;
#638 = AXIS2_PLACEMENT_3D ( 'NONE', #24, #620, #174 ) ;
#639 = ORIENTED_EDGE ( 'NONE', *, *, #47, .F. ) ;
#640 = EDGE_LOOP ( 'NONE', ( #537, #240 ) ) ;
#641 = ORIENTED_EDGE ( 'NONE', *, *, #454, .F. ) ;
#642 = VECTOR ( 'NONE', #629, 1000.000000000000000 ) ;
#643 = EDGE_CURVE ( 'NONE', #588, #382, #485, .T. ) ;
#644 = LOCAL_TIME ( 15, 47, 52.00000000000000000, #399 ) ;
#645 = ORIENTED_EDGE ( 'NONE', *, *, #410, .F. ) ;
#646 = VERTEX_POINT ( 'NONE', #165 ) ;
#647 = ADVANCED_FACE ( 'NONE', ( #442 ), #88, .T. ) ;
#648 = CARTESIAN_POINT ( 'NONE',  ( 12.90000000000000213, 0.000000000000000000, -11.20000000000000107 ) ) ;
#649 = DIRECTION ( 'NONE',  ( -0.000000000000000000, -1.000000000000000000, -0.000000000000000000 ) ) ;
#650 = ADVANCED_FACE ( 'NONE', ( #550, #101 ), #257, .T. ) ;
#651 = AXIS2_PLACEMENT_3D ( 'NONE', #506, #183, #263 ) ;
ENDSEC;
END-ISO-10303-21;
